<?xml version="1.0" encoding="iso-8859-1"?>
<!-- Generator: Adobe Illustrator 19.0.0, SVG Export Plug-In . SVG Version: 6.00 Build 0)  -->
<svg xmlns="http://www.w3.org/2000/svg" xmlns:xlink="http://www.w3.org/1999/xlink" version="1.1" id="Layer_1" x="0px" y="0px" viewBox="0 0 511.999 511.999" style="enable-background:new 0 0 511.999 511.999;" xml:space="preserve" width="512px" height="512px">
<g>
	<g>
		<path d="M470.317,32.428H41.683C18.7,32.428,0,51.127,0,74.111v40.433c0,4.965,4.026,8.991,8.991,8.991    c4.965,0,8.991-4.026,8.991-8.991V74.111c0-13.069,10.633-23.701,23.701-23.701h428.634c13.069,0,23.701,10.632,23.701,23.701    v267.002c0,4.965,4.025,8.991,8.991,8.991s8.991-4.025,8.991-8.991V74.111C512,51.127,493.3,32.428,470.317,32.428z" fill="#354251"/>
	</g>
</g>
<g>
	<g>
		<path d="M503.009,365.419c-4.965,0-8.991,4.025-8.991,8.991c0,13.069-10.633,23.701-23.701,23.701H41.683    c-13.068,0.001-23.701-10.632-23.701-23.701V149.308c0-4.965-4.026-8.991-8.991-8.991c-4.965,0-8.991,4.026-8.991,8.991v225.102    c0,22.983,18.7,41.683,41.683,41.683h171.839L202.6,461.589h-42.503c-4.965,0-8.991,4.025-8.991,8.991s4.026,8.991,8.991,8.991    h49.591h92.622h49.591c4.965,0,8.991-4.025,8.991-8.991s-4.026-8.991-8.991-8.991h-42.503l-10.922-45.496h171.839    c22.984,0,41.683-18.698,41.683-41.683C512,369.444,507.975,365.419,503.009,365.419z M221.094,461.589l10.922-45.496h47.968    l10.923,45.496H221.094z" fill="#354251"/>
	</g>
</g>
<g>
	<g>
		<path d="M472.651,353.263H39.35c-4.965,0-8.991,4.025-8.991,8.991s4.026,8.991,8.991,8.991h433.302    c4.965,0,8.991-4.025,8.991-8.991S477.617,353.263,472.651,353.263z" fill="#354251"/>
	</g>
</g>
<g>
	<g>
		<path d="M472.65,77.275H39.35c-4.965,0-8.991,4.026-8.991,8.991s4.026,8.991,8.991,8.991h433.302c4.964,0,8.99-4.025,8.99-8.991    S477.616,77.275,472.65,77.275z" fill="#354251"/>
	</g>
</g>
<g>
	<g>
		<path d="M188.307,234.517h-11.219v-78.587c0-3.884-2.495-7.331-6.186-8.541c-3.693-1.212-7.743,0.083-10.046,3.211l-64.481,87.578    c-2.01,2.731-2.314,6.361-0.784,9.388c1.53,3.027,4.633,4.934,8.023,4.934h55.49v40.092c0.001,4.964,4.027,8.99,8.992,8.99    c4.965,0,8.991-4.026,8.991-8.991v-40.092h11.219c4.965,0,8.991-4.025,8.991-8.991S193.272,234.517,188.307,234.517z     M159.106,234.517h-37.705l37.705-51.212V234.517z" fill="#354251"/>
	</g>
</g>
<g>
	<g>
		<path d="M408.384,234.517h-11.219v-78.587c0-3.884-2.495-7.331-6.186-8.541c-3.695-1.212-7.743,0.083-10.046,3.211l-64.481,87.578    c-2.01,2.731-2.314,6.361-0.784,9.388c1.53,3.027,4.633,4.934,8.023,4.934h55.49v40.092c0.001,4.964,4.027,8.99,8.992,8.99    s8.991-4.026,8.991-8.991v-40.092h11.219c4.965,0,8.991-4.025,8.991-8.991S413.349,234.517,408.384,234.517z M379.182,234.517    h-37.705l37.705-51.212V234.517z" fill="#354251"/>
	</g>
</g>
<g>
	<g>
		<path d="M291.067,241.536c4.965,0,8.991-4.026,8.991-8.991v-41.548c0-24.293-19.764-44.059-44.059-44.059    c-24.293,0-44.057,19.764-44.057,44.059v66.526c0,24.293,19.764,44.059,44.059,44.059c24.293,0,44.057-19.764,44.057-44.059    c0-4.965-4.026-8.991-8.991-8.991s-8.991,4.025-8.991,8.991c0,14.378-11.698,26.077-26.077,26.077    c-14.378,0-26.076-11.698-26.076-26.077v-66.526c0-14.378,11.698-26.077,26.077-26.077c14.378,0,26.076,11.698,26.076,26.077    v41.548C282.076,237.511,286.102,241.536,291.067,241.536z" fill="#354251"/>
	</g>
</g>
<g>
</g>
<g>
</g>
<g>
</g>
<g>
</g>
<g>
</g>
<g>
</g>
<g>
</g>
<g>
</g>
<g>
</g>
<g>
</g>
<g>
</g>
<g>
</g>
<g>
</g>
<g>
</g>
<g>
</g>
</svg>
