<?xml version="1.0" encoding="UTF-8"?>
<svg width="539px" height="394px" viewBox="0 0 539 394" version="1.1" xmlns="http://www.w3.org/2000/svg" xmlns:xlink="http://www.w3.org/1999/xlink">
    <!-- Generator: Sketch 41.2 (35397) - http://www.bohemiancoding.com/sketch -->
    <title>Group</title>
    <desc>Created with Sketch.</desc>
    <defs>
        <filter x="-50%" y="-50%" width="200%" height="200%" filterUnits="objectBoundingBox" id="filter-1">
            <feOffset dx="6" dy="11" in="SourceAlpha" result="shadowOffsetOuter1"></feOffset>
            <feGaussianBlur stdDeviation="10" in="shadowOffsetOuter1" result="shadowBlurOuter1"></feGaussianBlur>
            <feColorMatrix values="0 0 0 0 0.874509804   0 0 0 0 0.874509804   0 0 0 0 0.874509804  0 0 0 0.5 0" type="matrix" in="shadowBlurOuter1" result="shadowMatrixOuter1"></feColorMatrix>
            <feMerge>
                <feMergeNode in="shadowMatrixOuter1"></feMergeNode>
                <feMergeNode in="SourceGraphic"></feMergeNode>
            </feMerge>
        </filter>
        <rect id="path-2" x="76" y="0" width="257" height="334"></rect>
        <filter x="-50%" y="-50%" width="200%" height="200%" filterUnits="objectBoundingBox" id="filter-3">
            <feOffset dx="6" dy="11" in="SourceAlpha" result="shadowOffsetOuter1"></feOffset>
            <feGaussianBlur stdDeviation="10" in="shadowOffsetOuter1" result="shadowBlurOuter1"></feGaussianBlur>
            <feColorMatrix values="0 0 0 0 0.873830782   0 0 0 0 0.873830782   0 0 0 0 0.873830782  0 0 0 0.5 0" type="matrix" in="shadowBlurOuter1"></feColorMatrix>
        </filter>
        <filter x="-50%" y="-50%" width="200%" height="200%" filterUnits="objectBoundingBox" id="filter-4">
            <feOffset dx="6" dy="11" in="SourceAlpha" result="shadowOffsetOuter1"></feOffset>
            <feGaussianBlur stdDeviation="10" in="shadowOffsetOuter1" result="shadowBlurOuter1"></feGaussianBlur>
            <feColorMatrix values="0 0 0 0 0.874509804   0 0 0 0 0.874509804   0 0 0 0 0.874509804  0 0 0 0.5 0" type="matrix" in="shadowBlurOuter1" result="shadowMatrixOuter1"></feColorMatrix>
            <feMerge>
                <feMergeNode in="shadowMatrixOuter1"></feMergeNode>
                <feMergeNode in="SourceGraphic"></feMergeNode>
            </feMerge>
        </filter>
        <rect id="path-5" x="0.860157299" y="0.621039132" width="253.950387" height="176.939506"></rect>
        <filter x="-50%" y="-50%" width="200%" height="200%" filterUnits="objectBoundingBox" id="filter-6">
            <feOffset dx="0" dy="11" in="SourceAlpha" result="shadowOffsetInner1"></feOffset>
            <feComposite in="shadowOffsetInner1" in2="SourceAlpha" operator="arithmetic" k2="-1" k3="1" result="shadowInnerInner1"></feComposite>
            <feColorMatrix values="0 0 0 0 0.376470588   0 0 0 0 0.490196078   0 0 0 0 0.545098039  0 0 0 1 0" type="matrix" in="shadowInnerInner1"></feColorMatrix>
        </filter>
        <mask id="mask-7" maskContentUnits="userSpaceOnUse" maskUnits="objectBoundingBox" x="0" y="0" width="253.950387" height="176.939506" fill="white">
            <use xlink:href="#path-5"></use>
        </mask>
        <filter x="-50%" y="-50%" width="200%" height="200%" filterUnits="objectBoundingBox" id="filter-8">
            <feOffset dx="6" dy="11" in="SourceAlpha" result="shadowOffsetOuter1"></feOffset>
            <feGaussianBlur stdDeviation="10" in="shadowOffsetOuter1" result="shadowBlurOuter1"></feGaussianBlur>
            <feColorMatrix values="0 0 0 0 0.874509804   0 0 0 0 0.874509804   0 0 0 0 0.874509804  0 0 0 0.5 0" type="matrix" in="shadowBlurOuter1" result="shadowMatrixOuter1"></feColorMatrix>
            <feMerge>
                <feMergeNode in="shadowMatrixOuter1"></feMergeNode>
                <feMergeNode in="SourceGraphic"></feMergeNode>
            </feMerge>
        </filter>
    </defs>
    <g id="Page-1" stroke="none" stroke-width="1" fill="none" fill-rule="evenodd">
        <g id="Desktop" transform="translate(-404.000000, -373.000000)">
            <g id="Group" transform="translate(417.000000, 382.000000)">
                <g id="Group-6">
                    <g id="Group-5">
                        <g id="Group-3" filter="url(#filter-1)" transform="translate(358.000000, 49.000000)">
                            <polygon id="Fill-359" fill="#D2E6DB" points="0.114 157.358 107.286 157.358 107.286 19.376 0.114 19.376"></polygon>
                            <polygon id="Fill-360" fill="#2A3B42" points="0.114 13.661 107.286 13.661 107.286 0.264 0.114 0.264"></polygon>
                            <polygon id="Fill-361" fill="#F7F8F6" points="0.114 150.304 107.286 150.304 107.286 12.321 0.114 12.321"></polygon>
                            <polygon id="Fill-362" fill="#3D3D4A" points="0.114 10.982 107.286 10.982 107.286 0.264 0.114 0.264"></polygon>
                            <polygon id="Fill-363" fill="#D2E6DB" points="0.114 140.257 107.286 140.257 107.286 138.918 0.114 138.918"></polygon>
                            <polygon id="Fill-364" fill="#D2E6DB" points="0.114 129.54 107.286 129.54 107.286 128.201 0.114 128.201"></polygon>
                            <polygon id="Fill-365" fill="#D2E6DB" points="0.114 118.822 107.286 118.822 107.286 117.483 0.114 117.483"></polygon>
                            <polygon id="Fill-366" fill="#D2E6DB" points="0.114 108.106 107.286 108.106 107.286 106.766 0.114 106.766"></polygon>
                            <polygon id="Fill-367" fill="#D2E6DB" points="0.114 97.389 107.286 97.389 107.286 96.049 0.114 96.049"></polygon>
                            <polygon id="Fill-368" fill="#D2E6DB" points="0.114 86.671 107.286 86.671 107.286 85.332 0.114 85.332"></polygon>
                            <polygon id="Fill-369" fill="#D2E6DB" points="0.114 75.954 107.286 75.954 107.286 74.615 0.114 74.615"></polygon>
                            <polygon id="Fill-370" fill="#D2E6DB" points="0.114 65.237 107.286 65.237 107.286 63.897 0.114 63.897"></polygon>
                            <polygon id="Fill-371" fill="#D2E6DB" points="0.114 54.519 107.286 54.519 107.286 53.18 0.114 53.18"></polygon>
                            <polygon id="Fill-372" fill="#D2E6DB" points="0.114 43.803 107.286 43.803 107.286 42.463 0.114 42.463"></polygon>
                            <polygon id="Fill-373" fill="#D2E6DB" points="0.114 33.086 107.286 33.086 107.286 31.746 0.114 31.746"></polygon>
                            <polygon id="Fill-374" fill="#D2E6DB" points="0.114 22.369 107.286 22.369 107.286 21.029 0.114 21.029"></polygon>
                            <polygon id="Fill-375" fill="#E05752" points="12.17 150.304 14.849 150.304 14.849 10.982 12.17 10.982"></polygon>
                            <polygon id="Fill-376" fill="#1D252A" points="0.114 13.661 107.286 13.661 107.286 10.982 0.114 10.982"></polygon>
                            <path d="M14.85,16.176 L107.286,16.176 L107.286,13.661 L14.85,13.661 L14.85,16.176 Z M0.114,16.176 L12.171,16.176 L12.171,13.661 L0.114,13.661 L0.114,16.176 Z" id="Fill-377" fill="#AEB3B1"></path>
                            <polygon id="Fill-378" fill="#A24948" points="12.17 16.176 14.849 16.176 14.849 13.661 12.17 13.661"></polygon>
                            <polyline id="Fill-379" fill="#1D252A" points="107.286 13.661 0.114 13.661 0.114 13.215 107.286 13.217 107.286 13.661"></polyline>
                            <polygon id="Fill-380" fill="#BFD1C8" points="0.114 153.265 49.639 153.265 49.639 150.304 0.114 150.304"></polygon>
                            <polyline id="Fill-381" fill="#4D5060" points="107.286 3.225 0.114 3.225 0.114 0.264 107.286 0.265 107.286 3.225"></polyline>
                            <path d="M136.174,62.878 L55.183,62.878 C52.121,62.878 49.639,65.362 49.639,68.422 L49.639,167.633 C49.639,170.7 52.121,173.183 55.183,173.183 L136.174,173.183 C139.233,173.183 141.717,170.7 141.717,167.633 L141.717,68.422 C141.717,65.362 139.233,62.878 136.174,62.878" id="Fill-382" fill="#2D3035"></path>
                            <path d="M136.174,57.867 L55.183,57.867 C52.121,57.867 49.639,60.35 49.639,63.409 L49.639,162.619 C49.639,165.685 52.121,168.17 55.183,168.17 L136.174,168.17 C139.233,168.17 141.717,165.685 141.717,162.619 L141.717,63.409 C141.717,60.35 139.233,57.867 136.174,57.867" id="Fill-383" fill="#3B3E42"></path>
                            <path d="M136.174,57.867 L55.183,57.867 C52.121,57.867 49.639,60.35 49.639,63.409 L49.639,89.97 L141.717,89.97 L141.717,63.409 C141.717,60.35 139.233,57.867 136.174,57.867" id="Fill-384" fill="#2D3035"></path>
                            <path d="M69.656,143.534 L58.881,143.534 C57.856,143.534 57.031,142.71 57.031,141.684 L57.031,134.59 C57.031,133.568 57.856,132.737 58.881,132.737 L69.656,132.737 C70.674,132.737 71.505,133.568 71.505,134.59 L71.505,141.684 C71.505,142.71 70.674,143.534 69.656,143.534" id="Fill-385" fill="#282A2D"></path>
                            <path d="M69.656,126.283 L58.881,126.283 C57.856,126.283 57.031,125.462 57.031,124.435 L57.031,117.343 C57.031,116.322 57.856,115.493 58.881,115.493 L69.656,115.493 C70.674,115.493 71.505,116.322 71.505,117.343 L71.505,124.435 C71.505,125.462 70.674,126.283 69.656,126.283" id="Fill-386" fill="#282A2D"></path>
                            <path d="M69.656,109.038 L58.881,109.038 C57.856,109.038 57.031,108.208 57.031,107.188 L57.031,100.096 C57.031,99.075 57.856,98.245 58.881,98.245 L69.656,98.245 C70.674,98.245 71.505,99.075 71.505,100.096 L71.505,107.188 C71.505,108.208 70.674,109.038 69.656,109.038" id="Fill-387" fill="#282A2D"></path>
                            <path d="M90.756,143.534 L79.981,143.534 C78.962,143.534 78.131,142.71 78.131,141.684 L78.131,134.59 C78.131,133.568 78.962,132.737 79.981,132.737 L90.756,132.737 C91.781,132.737 92.608,133.568 92.608,134.59 L92.608,141.684 C92.608,142.71 91.781,143.534 90.756,143.534" id="Fill-388" fill="#282A2D"></path>
                            <path d="M90.756,126.283 L79.981,126.283 C78.962,126.283 78.131,125.462 78.131,124.435 L78.131,117.343 C78.131,116.322 78.962,115.493 79.981,115.493 L90.756,115.493 C91.781,115.493 92.608,116.322 92.608,117.343 L92.608,124.435 C92.608,125.462 91.781,126.283 90.756,126.283" id="Fill-389" fill="#282A2D"></path>
                            <path d="M90.756,109.038 L79.981,109.038 C78.962,109.038 78.131,108.208 78.131,107.188 L78.131,100.096 C78.131,99.075 78.962,98.245 79.981,98.245 L90.756,98.245 C91.781,98.245 92.608,99.075 92.608,100.096 L92.608,107.188 C92.608,108.208 91.781,109.038 90.756,109.038" id="Fill-390" fill="#282A2D"></path>
                            <path d="M132.469,126.279 L121.697,126.279 C120.683,126.279 119.852,125.455 119.852,124.43 L119.852,117.089 C119.852,116.067 120.683,115.236 121.697,115.236 L132.469,115.236 C133.496,115.236 134.317,116.067 134.317,117.089 L134.317,124.43 C134.317,125.455 133.496,126.279 132.469,126.279" id="Fill-391" fill="#282A2D"></path>
                            <path d="M134.317,119.642 C134.317,120.668 133.496,120.211 132.469,120.211 L121.697,120.211 C120.683,120.211 119.852,120.668 119.852,119.642 L119.852,117.343 C119.852,116.322 120.683,115.493 121.697,115.493 L132.469,115.493 C133.496,115.493 134.317,116.322 134.317,117.343 L134.317,119.642" id="Fill-392" fill="#162E41"></path>
                            <path d="M132.469,109.038 L121.697,109.038 C120.683,109.038 119.852,108.208 119.852,107.188 L119.852,100.096 C119.852,99.075 120.683,98.245 121.697,98.245 L132.469,98.245 C133.496,98.245 134.317,99.075 134.317,100.096 L134.317,107.188 C134.317,108.208 133.496,109.038 132.469,109.038" id="Fill-393" fill="#282A2D"></path>
                            <path d="M71.505,139.817 C71.505,140.843 70.674,141.666 69.656,141.666 L58.881,141.666 C57.856,141.666 57.031,140.843 57.031,139.817 L57.031,132.723 C57.031,131.701 57.856,130.869 58.881,130.869 L69.656,130.869 C70.674,130.869 71.505,131.701 71.505,132.723 L71.505,139.817" id="Fill-394" fill="#2D3035"></path>
                            <path d="M71.505,122.568 C71.505,123.593 70.674,124.413 69.656,124.413 L58.881,124.413 C57.856,124.413 57.031,123.593 57.031,122.568 L57.031,115.475 C57.031,114.454 57.856,113.626 58.881,113.626 L69.656,113.626 C70.674,113.626 71.505,114.454 71.505,115.475 L71.505,122.568" id="Fill-395" fill="#2D3035"></path>
                            <path d="M71.505,105.321 C71.505,106.339 70.674,107.17 69.656,107.17 L58.881,107.17 C57.856,107.17 57.031,106.339 57.031,105.321 L57.031,98.229 C57.031,97.208 57.856,96.376 58.881,96.376 L69.656,96.376 C70.674,96.376 71.505,97.208 71.505,98.229 L71.505,105.321" id="Fill-396" fill="#2D3035"></path>
                            <path d="M92.608,139.817 C92.608,140.843 91.781,141.666 90.756,141.666 L79.981,141.666 C78.962,141.666 78.131,140.843 78.131,139.817 L78.131,132.723 C78.131,131.701 78.962,130.869 79.981,130.869 L90.756,130.869 C91.781,130.869 92.608,131.701 92.608,132.723 L92.608,139.817" id="Fill-397" fill="#2D3035"></path>
                            <path d="M92.608,122.568 C92.608,123.593 91.781,124.413 90.756,124.413 L79.981,124.413 C78.962,124.413 78.131,123.593 78.131,122.568 L78.131,115.475 C78.131,114.454 78.962,113.626 79.981,113.626 L90.756,113.626 C91.781,113.626 92.608,114.454 92.608,115.475 L92.608,122.568" id="Fill-398" fill="#2D3035"></path>
                            <path d="M92.608,105.321 C92.608,106.339 91.781,107.17 90.756,107.17 L79.981,107.17 C78.962,107.17 78.131,106.339 78.131,105.321 L78.131,98.229 C78.131,97.208 78.962,96.376 79.981,96.376 L90.756,96.376 C91.781,96.376 92.608,97.208 92.608,98.229 L92.608,105.321" id="Fill-399" fill="#2D3035"></path>
                            <path d="M134.317,105.321 C134.317,106.339 133.496,107.17 132.469,107.17 L121.697,107.17 C120.683,107.17 119.852,106.339 119.852,105.321 L119.852,98.229 C119.852,97.208 120.683,96.376 121.697,96.376 L132.469,96.376 C133.496,96.376 134.317,97.208 134.317,98.229 L134.317,105.321" id="Fill-400" fill="#2D3035"></path>
                            <path d="M134.317,82.299 C134.317,83.327 133.496,84.145 132.469,84.145 L58.881,84.145 C57.856,84.145 57.031,83.327 57.031,82.299 L57.031,67.107 C57.031,66.086 57.856,65.263 58.881,65.263 L132.469,65.263 C133.496,65.263 134.317,66.086 134.317,67.107 L134.317,82.299" id="Fill-401" fill="#C9D0D4"></path>
                            <path d="M68.645,84.145 L58.881,84.145 C57.856,84.145 57.031,83.327 57.031,82.299 L57.031,67.107 C57.031,66.086 57.856,65.263 58.881,65.263 L123.802,65.263 L68.645,84.145" id="Fill-402" fill="#A5BABC"></path>
                            <path d="M71.505,139.13 C71.505,140.155 70.674,140.979 69.656,140.979 L58.881,140.979 C57.856,140.979 57.031,140.155 57.031,139.13 L57.031,132.035 C57.031,131.013 57.856,130.181 58.881,130.181 L69.656,130.181 C70.674,130.181 71.505,131.013 71.505,132.035 L71.505,139.13" id="Fill-403" fill="#2D3035"></path>
                            <path d="M58.881,139.604 C58.241,139.604 57.718,139.082 57.718,138.442 L57.718,131.348 C57.718,130.705 58.241,130.181 58.881,130.181 L69.656,130.181 C70.296,130.181 70.818,130.705 70.818,131.348 L70.818,138.442 C70.818,139.082 70.296,139.604 69.656,139.604 L58.881,139.604" id="Fill-404" fill="#3F454A"></path>
                            <path d="M71.505,121.88 C71.505,122.906 70.674,123.725 69.656,123.725 L58.881,123.725 C57.856,123.725 57.031,122.906 57.031,121.88 L57.031,114.788 C57.031,113.766 57.856,112.939 58.881,112.939 L69.656,112.939 C70.674,112.939 71.505,113.766 71.505,114.788 L71.505,121.88" id="Fill-405" fill="#2D3035"></path>
                            <path d="M58.881,122.35 C58.241,122.35 57.718,121.831 57.718,121.193 L57.718,114.101 C57.718,113.46 58.241,112.939 58.881,112.939 L69.656,112.939 C70.296,112.939 70.818,113.46 70.818,114.101 L70.818,121.193 C70.818,121.831 70.296,122.35 69.656,122.35 L58.881,122.35" id="Fill-406" fill="#3F454A"></path>
                            <path d="M71.505,104.633 C71.505,105.652 70.674,106.483 69.656,106.483 L58.881,106.483 C57.856,106.483 57.031,105.652 57.031,104.633 L57.031,97.541 C57.031,96.521 57.856,95.689 58.881,95.689 L69.656,95.689 C70.674,95.689 71.505,96.521 71.505,97.541 L71.505,104.633" id="Fill-407" fill="#2D3035"></path>
                            <path d="M58.881,105.107 C58.241,105.107 57.718,104.586 57.718,103.946 L57.718,96.852 C57.718,96.211 58.241,95.689 58.881,95.689 L69.656,95.689 C70.296,95.689 70.818,96.211 70.818,96.852 L70.818,103.946 C70.818,104.586 70.296,105.107 69.656,105.107 L58.881,105.107" id="Fill-408" fill="#3F454A"></path>
                            <path d="M92.608,139.13 C92.608,140.155 91.781,140.979 90.756,140.979 L79.981,140.979 C78.962,140.979 78.131,140.155 78.131,139.13 L78.131,132.035 C78.131,131.013 78.962,130.181 79.981,130.181 L90.756,130.181 C91.781,130.181 92.608,131.013 92.608,132.035 L92.608,139.13" id="Fill-409" fill="#2D3035"></path>
                            <path d="M79.981,139.604 C79.34,139.604 78.819,139.082 78.819,138.442 L78.819,131.348 C78.819,130.705 79.34,130.181 79.981,130.181 L90.756,130.181 C91.397,130.181 91.92,130.705 91.92,131.348 L91.92,138.442 C91.92,139.082 91.397,139.604 90.756,139.604 L79.981,139.604" id="Fill-410" fill="#3F454A"></path>
                            <path d="M92.608,121.88 C92.608,122.906 91.781,123.725 90.756,123.725 L79.981,123.725 C78.962,123.725 78.131,122.906 78.131,121.88 L78.131,114.788 C78.131,113.766 78.962,112.939 79.981,112.939 L90.756,112.939 C91.781,112.939 92.608,113.766 92.608,114.788 L92.608,121.88" id="Fill-411" fill="#2D3035"></path>
                            <path d="M79.981,122.35 C79.34,122.35 78.819,121.831 78.819,121.193 L78.819,114.101 C78.819,113.46 79.34,112.939 79.981,112.939 L90.756,112.939 C91.397,112.939 91.92,113.46 91.92,114.101 L91.92,121.193 C91.92,121.831 91.397,122.35 90.756,122.35 L79.981,122.35" id="Fill-412" fill="#3F454A"></path>
                            <path d="M92.608,104.633 C92.608,105.652 91.781,106.483 90.756,106.483 L79.981,106.483 C78.962,106.483 78.131,105.652 78.131,104.633 L78.131,97.541 C78.131,96.521 78.962,95.689 79.981,95.689 L90.756,95.689 C91.781,95.689 92.608,96.521 92.608,97.541 L92.608,104.633" id="Fill-413" fill="#2D3035"></path>
                            <path d="M79.981,105.107 C79.34,105.107 78.819,104.586 78.819,103.946 L78.819,96.852 C78.819,96.211 79.34,95.689 79.981,95.689 L90.756,95.689 C91.397,95.689 91.92,96.211 91.92,96.852 L91.92,103.946 C91.92,104.586 91.397,105.107 90.756,105.107 L79.981,105.107" id="Fill-414" fill="#3F454A"></path>
                            <path d="M134.317,104.633 C134.317,105.652 133.496,106.483 132.469,106.483 L121.697,106.483 C120.683,106.483 119.852,105.652 119.852,104.633 L119.852,97.541 C119.852,96.521 120.683,95.689 121.697,95.689 L132.469,95.689 C133.496,95.689 134.317,96.521 134.317,97.541 L134.317,104.633" id="Fill-415" fill="#2D3035"></path>
                            <path d="M121.697,105.107 C121.058,105.107 120.54,104.586 120.54,103.946 L120.54,96.852 C120.54,96.211 121.058,95.689 121.697,95.689 L132.469,95.689 C133.109,95.689 133.629,96.211 133.629,96.852 L133.629,103.946 C133.629,104.586 133.109,105.107 132.469,105.107 L121.697,105.107" id="Fill-416" fill="#3F454A"></path>
                            <path d="M112.006,143.534 L101.23,143.534 C100.212,143.534 99.38,142.71 99.38,141.684 L99.38,134.59 C99.38,133.568 100.212,132.737 101.23,132.737 L112.006,132.737 C113.03,132.737 113.857,133.568 113.857,134.59 L113.857,141.684 C113.857,142.71 113.03,143.534 112.006,143.534" id="Fill-417" fill="#282A2D"></path>
                            <path d="M112.006,126.283 L101.23,126.283 C100.212,126.283 99.38,125.462 99.38,124.435 L99.38,117.343 C99.38,116.322 100.212,115.493 101.23,115.493 L112.006,115.493 C113.03,115.493 113.857,116.322 113.857,117.343 L113.857,124.435 C113.857,125.462 113.03,126.283 112.006,126.283" id="Fill-418" fill="#282A2D"></path>
                            <path d="M112.006,109.038 L101.23,109.038 C100.212,109.038 99.38,108.208 99.38,107.188 L99.38,100.096 C99.38,99.075 100.212,98.245 101.23,98.245 L112.006,98.245 C113.03,98.245 113.857,99.075 113.857,100.096 L113.857,107.188 C113.857,108.208 113.03,109.038 112.006,109.038" id="Fill-419" fill="#282A2D"></path>
                            <path d="M113.857,139.817 C113.857,140.843 113.03,141.666 112.006,141.666 L101.23,141.666 C100.212,141.666 99.38,140.843 99.38,139.817 L99.38,132.723 C99.38,131.701 100.212,130.869 101.23,130.869 L112.006,130.869 C113.03,130.869 113.857,131.701 113.857,132.723 L113.857,139.817" id="Fill-420" fill="#2D3035"></path>
                            <path d="M113.857,122.568 C113.857,123.593 113.03,124.413 112.006,124.413 L101.23,124.413 C100.212,124.413 99.38,123.593 99.38,122.568 L99.38,115.475 C99.38,114.454 100.212,113.626 101.23,113.626 L112.006,113.626 C113.03,113.626 113.857,114.454 113.857,115.475 L113.857,122.568" id="Fill-421" fill="#2D3035"></path>
                            <path d="M113.857,105.321 C113.857,106.339 113.03,107.17 112.006,107.17 L101.23,107.17 C100.212,107.17 99.38,106.339 99.38,105.321 L99.38,98.229 C99.38,97.208 100.212,96.376 101.23,96.376 L112.006,96.376 C113.03,96.376 113.857,97.208 113.857,98.229 L113.857,105.321" id="Fill-422" fill="#2D3035"></path>
                            <path d="M113.857,139.13 C113.857,140.155 113.03,140.979 112.006,140.979 L101.23,140.979 C100.212,140.979 99.38,140.155 99.38,139.13 L99.38,132.035 C99.38,131.013 100.212,130.181 101.23,130.181 L112.006,130.181 C113.03,130.181 113.857,131.013 113.857,132.035 L113.857,139.13" id="Fill-423" fill="#2D3035"></path>
                            <path d="M101.23,139.604 C100.589,139.604 100.068,139.082 100.068,138.442 L100.068,131.348 C100.068,130.705 100.589,130.181 101.23,130.181 L112.006,130.181 C112.647,130.181 113.169,130.705 113.169,131.348 L113.169,138.442 C113.169,139.082 112.647,139.604 112.006,139.604 L101.23,139.604" id="Fill-424" fill="#3F454A"></path>
                            <path d="M113.857,121.88 C113.857,122.906 113.03,123.725 112.006,123.725 L101.23,123.725 C100.212,123.725 99.38,122.906 99.38,121.88 L99.38,114.788 C99.38,113.766 100.212,112.939 101.23,112.939 L112.006,112.939 C113.03,112.939 113.857,113.766 113.857,114.788 L113.857,121.88" id="Fill-425" fill="#2D3035"></path>
                            <path d="M101.23,122.35 C100.589,122.35 100.068,121.831 100.068,121.193 L100.068,114.101 C100.068,113.46 100.589,112.939 101.23,112.939 L112.006,112.939 C112.647,112.939 113.169,113.46 113.169,114.101 L113.169,121.193 C113.169,121.831 112.647,122.35 112.006,122.35 L101.23,122.35" id="Fill-426" fill="#3F454A"></path>
                            <path d="M113.857,104.633 C113.857,105.652 113.03,106.483 112.006,106.483 L101.23,106.483 C100.212,106.483 99.38,105.652 99.38,104.633 L99.38,97.541 C99.38,96.521 100.212,95.689 101.23,95.689 L112.006,95.689 C113.03,95.689 113.857,96.521 113.857,97.541 L113.857,104.633" id="Fill-427" fill="#2D3035"></path>
                            <path d="M101.23,105.107 C100.589,105.107 100.068,104.586 100.068,103.946 L100.068,96.852 C100.068,96.211 100.589,95.689 101.23,95.689 L112.006,95.689 C112.647,95.689 113.169,96.211 113.169,96.852 L113.169,103.946 C113.169,104.586 112.647,105.107 112.006,105.107 L101.23,105.107" id="Fill-428" fill="#3F454A"></path>
                            <path d="M69.656,160.15 L58.881,160.15 C57.856,160.15 57.031,159.326 57.031,158.301 L57.031,151.206 C57.031,150.184 57.856,149.352 58.881,149.352 L69.656,149.352 C70.674,149.352 71.505,150.184 71.505,151.206 L71.505,158.301 C71.505,159.326 70.674,160.15 69.656,160.15" id="Fill-429" fill="#282A2D"></path>
                            <path d="M90.756,160.15 L79.981,160.15 C78.962,160.15 78.131,159.326 78.131,158.301 L78.131,151.206 C78.131,150.184 78.962,149.352 79.981,149.352 L90.756,149.352 C91.781,149.352 92.608,150.184 92.608,151.206 L92.608,158.301 C92.608,159.326 91.781,160.15 90.756,160.15" id="Fill-430" fill="#282A2D"></path>
                            <path d="M71.505,156.433 C71.505,157.458 70.674,158.283 69.656,158.283 L58.881,158.283 C57.856,158.283 57.031,157.458 57.031,156.433 L57.031,149.339 C57.031,148.318 57.856,147.485 58.881,147.485 L69.656,147.485 C70.674,147.485 71.505,148.318 71.505,149.339 L71.505,156.433" id="Fill-431" fill="#2D3035"></path>
                            <path d="M92.608,156.433 C92.608,157.458 91.781,158.283 90.756,158.283 L79.981,158.283 C78.962,158.283 78.131,157.458 78.131,156.433 L78.131,149.339 C78.131,148.318 78.962,147.485 79.981,147.485 L90.756,147.485 C91.781,147.485 92.608,148.318 92.608,149.339 L92.608,156.433" id="Fill-432" fill="#2D3035"></path>
                            <path d="M71.505,155.745 C71.505,156.771 70.674,157.595 69.656,157.595 L58.881,157.595 C57.856,157.595 57.031,156.771 57.031,155.745 L57.031,148.652 C57.031,147.63 57.856,146.797 58.881,146.797 L69.656,146.797 C70.674,146.797 71.505,147.63 71.505,148.652 L71.505,155.745" id="Fill-433" fill="#2D3035"></path>
                            <path d="M58.881,156.219 C58.241,156.219 57.718,155.699 57.718,155.057 L57.718,147.964 C57.718,147.321 58.241,146.797 58.881,146.797 L69.656,146.797 C70.296,146.797 70.818,147.321 70.818,147.964 L70.818,155.057 C70.818,155.699 70.296,156.219 69.656,156.219 L58.881,156.219" id="Fill-434" fill="#3F454A"></path>
                            <path d="M92.608,155.745 C92.608,156.771 91.781,157.595 90.756,157.595 L79.981,157.595 C78.962,157.595 78.131,156.771 78.131,155.745 L78.131,148.652 C78.131,147.63 78.962,146.797 79.981,146.797 L90.756,146.797 C91.781,146.797 92.608,147.63 92.608,148.652 L92.608,155.745" id="Fill-435" fill="#2D3035"></path>
                            <path d="M79.981,156.219 C79.34,156.219 78.819,155.699 78.819,155.057 L78.819,147.964 C78.819,147.321 79.34,146.797 79.981,146.797 L90.756,146.797 C91.397,146.797 91.92,147.321 91.92,147.964 L91.92,155.057 C91.92,155.699 91.397,156.219 90.756,156.219 L79.981,156.219" id="Fill-436" fill="#3F454A"></path>
                            <path d="M112.006,160.15 L101.23,160.15 C100.212,160.15 99.38,159.326 99.38,158.301 L99.38,151.206 C99.38,150.184 100.212,149.352 101.23,149.352 L112.006,149.352 C113.03,149.352 113.857,150.184 113.857,151.206 L113.857,158.301 C113.857,159.326 113.03,160.15 112.006,160.15" id="Fill-437" fill="#282A2D"></path>
                            <path d="M113.857,156.433 C113.857,157.458 113.03,158.283 112.006,158.283 L101.23,158.283 C100.212,158.283 99.38,157.458 99.38,156.433 L99.38,149.339 C99.38,148.318 100.212,147.485 101.23,147.485 L112.006,147.485 C113.03,147.485 113.857,148.318 113.857,149.339 L113.857,156.433" id="Fill-438" fill="#2D3035"></path>
                            <path d="M113.857,155.745 C113.857,156.771 113.03,157.595 112.006,157.595 L101.23,157.595 C100.212,157.595 99.38,156.771 99.38,155.745 L99.38,148.652 C99.38,147.63 100.212,146.797 101.23,146.797 L112.006,146.797 C113.03,146.797 113.857,147.63 113.857,148.652 L113.857,155.745" id="Fill-439" fill="#2D3035"></path>
                            <path d="M101.23,156.219 C100.589,156.219 100.068,155.699 100.068,155.057 L100.068,147.964 C100.068,147.321 100.589,146.797 101.23,146.797 L112.006,146.797 C112.647,146.797 113.169,147.321 113.169,147.964 L113.169,155.057 C113.169,155.699 112.647,156.219 112.006,156.219 L101.23,156.219" id="Fill-440" fill="#3F454A"></path>
                            <path d="M132.469,160.872 L121.697,160.872 C120.683,160.872 119.852,160.048 119.852,159.023 L119.852,133.628 C119.852,133.603 119.853,133.591 119.854,133.591 C119.892,133.591 120.708,153.184 121.697,153.184 L132.469,153.184 C133.471,153.184 134.277,133.591 134.316,133.591 C134.317,133.591 134.317,133.603 134.317,133.628 L134.317,159.023 C134.317,160.048 133.496,160.872 132.469,160.872" id="Fill-441" fill="#282A2D"></path>
                            <path d="M134.317,152.958 C134.317,153.983 133.496,154.804 132.469,154.804 L121.697,154.804 C120.683,154.804 119.852,153.983 119.852,152.958 L119.852,133.722 C119.852,132.701 120.683,131.872 121.697,131.872 L132.469,131.872 C133.496,131.872 134.317,132.701 134.317,133.722 L134.317,152.958" id="Fill-442" fill="#162E41"></path>
                            <path d="M132.469,130.005 L121.697,130.005 C120.683,130.005 119.852,130.834 119.852,131.856 L119.852,153.17 L119.852,134.314 L119.852,157.155 C119.852,158.181 120.683,159.004 121.697,159.004 L132.469,159.004 C133.496,159.004 134.317,158.181 134.317,157.155 L134.317,134.314 L134.317,153.17 L134.317,131.856 C134.317,130.834 133.496,130.005 132.469,130.005" id="Fill-443" fill="#E98239"></path>
                            <path d="M132.469,130.005 L121.697,130.005 C120.683,130.005 119.852,130.834 119.852,131.856 L119.852,153.17 L119.852,134.314 L119.852,157.155 C119.852,158.181 120.683,159.004 121.697,159.004 L132.469,159.004 C133.496,159.004 134.317,158.181 134.317,157.155 L134.317,134.314 L134.317,153.17 L134.317,131.856 C134.317,130.834 133.496,130.005 132.469,130.005" id="Fill-444" fill="#CE5F2C"></path>
                            <path d="M121.697,156.942 C121.058,156.942 120.54,156.42 120.54,155.78 L120.54,131.168 C120.54,130.527 121.058,130.005 121.697,130.005 L132.469,130.005 C133.109,130.005 133.629,130.527 133.629,131.168 L133.629,155.78 C133.629,156.431 133.12,156.942 132.469,156.942 L121.697,156.942" id="Fill-445" fill="#ED9A47"></path>
                            <path d="M132.469,113.626 L121.697,113.626 C120.683,113.626 119.852,114.454 119.852,115.475 L119.852,115.221 L119.852,122.562 C119.852,123.587 120.683,124.411 121.697,124.411 L132.469,124.411 C133.496,124.411 134.317,123.587 134.317,122.562 L134.317,115.221 L134.317,115.475 C134.317,114.454 133.496,113.626 132.469,113.626" id="Fill-446" fill="#2D3035"></path>
                            <path d="M121.697,122.348 C121.058,122.348 120.54,121.827 120.54,121.187 L120.54,114.788 C120.54,114.148 121.058,113.626 121.697,113.626 L132.469,113.626 C133.109,113.626 133.629,114.148 133.629,114.788 L133.629,121.187 C133.629,121.838 133.12,122.348 132.469,122.348 L121.697,122.348" id="Fill-447" fill="#3F454A"></path>
                        </g>
                        <g id="Rectangle">
                            <use fill="black" fill-opacity="1" filter="url(#filter-3)" xlink:href="#path-2"></use>
                            <use fill="#FFFFFF" fill-rule="evenodd" xlink:href="#path-2"></use>
                        </g>
                        <path d="M301.897991,163.619527 C301.897991,165.108176 300.693005,166.315878 299.204761,166.315878 L110.69323,166.315878 C109.205897,166.315878 108,165.108176 108,163.619527 L108,34.6990878 C108,33.209527 109.205897,32.0018243 110.69323,32.0018243 L299.204761,32.0018243 C300.693005,32.0018243 301.897991,33.209527 301.897991,34.6990878 L301.897991,163.619527" id="Fill-161" fill="#B78358"></path>
                        <path d="M292.741737,155.527736 C292.741737,156.421655 292.018563,157.145912 291.125981,157.145912 L118.772009,157.145912 C117.879427,157.145912 117.156254,156.421655 117.156254,155.527736 L117.156254,42.7899662 C117.156254,41.8969595 117.879427,41.1717905 118.772009,41.1717905 L291.125981,41.1717905 C292.018563,41.1717905 292.741737,41.8969595 292.741737,42.7899662 L292.741737,155.527736" id="Fill-162" fill="#396555"></path>
                        <path d="M275.072254,155.527736 C275.072254,154.633818 274.34908,153.909561 273.456498,153.909561 L259.990347,153.909561 C259.098676,153.909561 258.375502,154.633818 258.375502,155.527736 L258.375502,156.066824 C258.375502,156.960743 259.098676,157.685 259.990347,157.685 L273.456498,157.685 C274.34908,157.685 275.072254,156.960743 275.072254,156.066824 L275.072254,155.527736" id="Fill-163" fill="#F7F8F6"></path>
                        <path d="M292.741737,48.7637162 C292.741737,47.8707095 292.018563,47.1455405 291.125981,47.1455405 L236.732207,47.1455405 L238.823399,41.1717905 L177.93108,41.1717905 L175.839887,47.1455405 L118.772009,47.1455405 C117.879427,47.1455405 117.156254,47.8707095 117.156254,48.7637162 L117.156254,42.7899662 C117.156254,41.8969595 117.879427,41.1717905 118.772009,41.1717905 L291.125981,41.1717905 C292.018563,41.1717905 292.741737,41.8969595 292.741737,42.7899662 L292.741737,48.7637162" id="Fill-164" fill="#30584A"></path>
                        <path d="M301.897991,36.2306081 L108,36.2306081 L108,34.6990878 C108,33.209527 109.205897,32.0018243 110.69323,32.0018243 L299.204761,32.0018243 C300.693005,32.0018243 301.897991,33.209527 301.897991,34.6990878 L301.897991,36.2306081" id="Fill-165" fill="#C69668"></path>
                        <path d="M301.897991,161.626453 L108,161.626453 L108,160.094932 C108,158.605372 109.205897,157.397669 110.69323,157.397669 L259.070441,157.397669 C259.33184,157.579189 259.648798,157.685 259.990347,157.685 L273.456498,157.685 C273.798047,157.685 274.115005,157.579189 274.376404,157.397669 L299.204761,157.397669 C300.693005,157.397669 301.897991,158.605372 301.897991,160.094932 L301.897991,161.626453" id="Fill-166" fill="#C69668"></path>
                        <path d="M273.456498,157.685 L259.990347,157.685 C259.648798,157.685 259.33184,157.579189 259.070441,157.397669 L274.376404,157.397669 C274.115005,157.579189 273.798047,157.685 273.456498,157.685" id="Fill-167" fill="#F9FAF8"></path>
                        <path d="M143.356272,81.8359797 C139.0737,78.1554054 136.805812,83.2917905 136.157324,87.0426014 C136.078085,87.5050676 136.00431,87.9766554 135.933268,88.4528041 C135.580789,88.3296622 135.237418,88.1682095 134.907709,87.9511149 C133.546066,87.0526351 132.28461,89.2390878 133.635324,90.1311824 C134.261042,90.5443919 134.929568,90.8162162 135.621775,90.9986486 C135.310282,94.1848311 135.288423,97.4996284 135.786629,100.528919 C136.050761,102.133412 138.479859,101.450203 138.21846,99.8575676 C137.821352,97.4439865 137.961615,94.1802703 138.188404,91.3352365 C138.632873,91.3516554 139.080075,91.3553041 139.523634,91.3562162 C141.149408,91.3571284 141.149408,88.8322635 139.523634,88.8304392 C139.157493,88.829527 138.791352,88.8313514 138.426122,88.8231419 C138.614657,87.2788514 138.915221,85.7382095 139.470808,84.2896959 C139.957174,83.0208784 140.530066,82.7253378 141.57384,83.6219932 C142.800685,84.6755405 144.592225,82.8977365 143.356272,81.8359797" id="Fill-168" fill="#FFFFFF"></path>
                        <path d="M148.608845,98.2476014 C145.149634,94.3581419 146.088667,88.7456081 148.176216,84.4173986 C148.879352,82.9579392 146.706188,81.6781757 145.999408,83.1440203 C143.381775,88.5695608 142.546573,95.2210473 146.826413,100.033615 C147.910263,101.253176 149.68723,99.4589527 148.608845,98.2476014" id="Fill-169" fill="#FFFFFF"></path>
                        <path d="M158.00646,87.108277 C156.935362,87.9045946 156.052798,88.8541554 155.271333,89.8848986 C154.772216,88.9845946 154.289493,88.0742568 153.848667,87.1411149 C153.153728,85.6707095 150.980563,86.9532095 151.671859,88.4163176 C152.288469,89.7225338 152.98523,90.9831419 153.701117,92.2364527 C152.869559,93.6129054 152.104488,95.0431757 151.25107,96.3986486 C150.38308,97.7823986 152.564441,99.0475676 153.427878,97.6738514 C154.018075,96.7370608 154.560911,95.7190878 155.122873,94.702027 C155.448939,95.2693919 155.771362,95.8376689 156.083765,96.4114189 C156.862498,97.840777 159.040216,96.5673986 158.260573,95.1371284 C157.725934,94.1565541 157.165793,93.1896622 156.605653,92.2236824 C157.357972,91.1053716 158.2123,90.0819257 159.278845,89.2892568 C160.569446,88.3314865 159.314366,86.1386486 158.00646,87.108277" id="Fill-170" fill="#FFFFFF"></path>
                        <path d="M163.722629,82.0922973 C162.837333,80.735 160.653239,81.9992568 161.545822,83.3656757 C165.249127,89.0338514 163.680732,94.7175338 160.075793,99.9761486 C159.152244,101.324324 161.33907,102.58402 162.252601,101.251351 C166.352103,95.2703041 167.894995,88.4774324 163.722629,82.0922973" id="Fill-171" fill="#FFFFFF"></path>
                        <path d="M176.08216,87.3582095 L171.248554,87.3582095 C169.622779,87.3582095 169.622779,89.8821622 171.248554,89.8821622 L176.08216,89.8821622 C177.707023,89.8821622 177.707023,87.3582095 176.08216,87.3582095" id="Fill-172" fill="#FFFFFF"></path>
                        <path d="M176.08307,91.8214189 C174.5757,91.5906419 173.068329,91.5660135 171.546385,91.5660135 C169.9197,91.5660135 169.9197,94.0908784 171.546385,94.0908784 C171.702131,94.0908784 171.857878,94.0899662 172.014535,94.0899662 C173.147568,94.0872297 174.294263,94.0844932 175.412723,94.2559797 C176.091268,94.3599662 176.765258,94.0954392 176.963812,93.3748311 C177.129577,92.7700676 176.763437,91.9263176 176.08307,91.8214189" id="Fill-173" fill="#FFFFFF"></path>
                        <path d="M185.865042,88.1846284 C187.556394,87.3636824 189.203117,86.2052365 188.558272,84.2404392 C187.769521,81.8396284 183.507897,82.2473649 181.62892,82.5638851 C180.028648,82.8320608 180.709014,85.2647973 182.300178,84.9975338 C183.50061,84.7959459 185.188319,84.6974324 186.297671,85.2602365 C185.855023,85.0358446 183.353061,86.5445608 182.587991,86.8984797 C181.633474,87.3417905 181.917643,88.5713851 182.587991,89.0785473 C183.696432,89.9168243 188.222188,91.5486824 186.69569,93.4359459 C185.385052,95.0577703 182.419493,95.3067905 180.577859,96.0310473 C179.083239,96.6175676 179.733549,99.0594257 181.248207,98.4646959 C183.915023,97.4175338 187.971718,97.0198311 189.249568,94.0188176 C190.480056,91.1290878 188.097408,89.5373649 185.865042,88.1846284" id="Fill-174" fill="#FFFFFF"></path>
                        <path d="M201.905108,83.1540541 C200.213756,84.9719932 198.606197,86.8939189 197.131615,88.9125338 C196.058695,87.4603716 194.967559,86.0191554 193.812667,84.6271959 C192.773446,83.372973 191.000122,85.1690203 192.030235,86.4122973 C193.285315,87.9264865 194.46662,89.4954054 195.63062,91.0780068 C194.3637,93.0035811 193.22338,95.005777 192.25338,97.0864189 C191.570282,98.5522635 193.743446,99.8347635 194.430188,98.3607095 C195.249906,96.602973 196.193493,94.904527 197.22907,93.2635473 C198.606197,95.1498986 199.993343,97.0271284 201.48523,98.8277365 C202.524451,100.081047 204.297775,98.2840878 203.266751,97.041723 C201.665568,95.107027 200.181878,93.0847635 198.703653,91.057027 C200.222864,88.9043243 201.899643,86.8601689 203.68754,84.9391554 C204.79416,83.7506081 203.015371,81.9600338 201.905108,83.1540541" id="Fill-175" fill="#FFFFFF"></path>
                        <path d="M212.607897,81.8505743 C212.328282,81.8396284 212.013146,81.8423649 211.681615,81.8441892 C210.693399,81.8514865 209.551258,81.8587838 208.72061,81.5240203 L208.821709,81.3069257 C209.175099,80.6045608 209.663286,79.9633108 210.12415,79.3311824 C210.547671,78.7519595 210.197014,77.9556419 209.672394,77.6035473 C208.45739,76.7926351 207.178629,76.6320946 205.759606,76.8446284 C204.15569,77.0872635 204.8397,79.5190878 206.429953,79.2810135 C206.663117,79.2454392 206.878977,79.244527 207.086638,79.2664189 C206.286958,80.4814189 205.637559,81.9299324 206.625775,83.125777 C207.855352,84.6153378 210.928385,84.3115878 212.607897,84.3754392 C214.233671,84.4374662 214.228207,81.9126014 212.607897,81.8505743" id="Fill-176" fill="#FFFFFF"></path>
                        <path d="M218.015305,89.8821622 C217.349512,89.9606081 216.681897,90.0034797 216.013371,90.0344932 C215.867643,89.1706757 215.613531,88.3351351 215.111681,87.5625338 C214.230028,86.2025 212.046845,87.4667568 212.934873,88.8359122 C213.190808,89.2308784 213.355662,89.6532095 213.468601,90.0901351 C213.302836,90.0910473 213.137981,90.0937838 212.972216,90.0937838 C211.347352,90.0937838 211.347352,92.6177365 212.972216,92.6177365 C213.231793,92.6177365 213.489549,92.6159122 213.747305,92.615 C213.76461,92.8986824 213.783737,93.1823649 213.812883,93.4596622 C213.989577,95.0605068 216.512488,95.0778378 216.334883,93.4596622 C216.301183,93.1577365 216.276592,92.8521622 216.254732,92.5475 C216.842197,92.5164865 217.428751,92.4754392 218.015305,92.4079392 C219.610113,92.2227703 219.629239,89.6951689 218.015305,89.8821622" id="Fill-177" fill="#FFFFFF"></path>
                        <path d="M234.129146,83.1677365 C231.986038,83.001723 229.857502,83.024527 227.761756,83.5526689 C227.178845,83.7004392 226.970272,84.182973 227.029474,84.6436149 C226.595934,85.9872297 226.287174,87.3618581 225.984789,88.739223 L225.773484,88.8851689 C224.773427,89.6559459 225.664188,91.3334122 226.671531,90.787027 C227.072282,90.8727703 227.499446,90.7514527 227.716216,90.3555743 C229.830178,90.1813514 232.76477,93.4514527 231.118958,95.1872973 C229.738188,96.6421959 226.482995,96.1140541 224.912779,95.3314189 C223.711437,94.7339527 222.653089,96.5363851 223.859897,97.1375 C226.554038,98.4792905 232.120836,98.9727703 233.428742,95.3934459 C234.506216,92.4508108 231.355765,88.4628378 228.250854,88.1745946 C228.46216,87.2505743 228.692592,86.3302027 228.974028,85.4244257 C230.675399,85.0923986 232.395897,85.1243243 234.129146,85.2584122 C235.472573,85.3614865 235.462554,83.2689865 234.129146,83.1677365" id="Fill-178" fill="#FFFFFF"></path>
                        <path d="M245.076939,87.5397297 C244.600592,88.4163176 244.065953,89.2482095 243.500347,90.0582095 C243.119634,88.8468581 242.788103,87.6190878 242.558582,86.3603041 C242.309023,84.9920608 240.233315,85.5731081 240.481052,86.9331419 C240.807117,88.7273649 241.339023,90.4531757 241.931953,92.1616554 C240.837174,93.5527027 239.690479,94.9063514 238.603897,96.3119932 C237.76323,97.3974662 239.276977,98.9371959 240.126751,97.8389527 C240.992009,96.7197297 241.895521,95.6324324 242.78446,94.5360135 C242.974817,95.0577703 243.166085,95.579527 243.352798,96.1031081 C243.817305,97.4038514 245.9003,96.8428716 245.430329,95.5293581 C245.075117,94.533277 244.705333,93.5417568 244.34739,92.5475 C245.292798,91.3014865 246.182648,90.0153378 246.9377,88.6288514 C247.603493,87.4074662 245.742732,86.3183446 245.076939,87.5397297" id="Fill-179" fill="#FFFFFF"></path>
                        <path d="M254.086554,90.2415541 C253.212188,90.2306081 252.357859,90.0901351 251.500798,89.920473 C250.925174,89.8064527 250.339531,90.0773649 250.175587,90.6748311 C250.028948,91.2093581 250.351371,91.8880068 250.927906,92.002027 C251.967127,92.2072635 253.024563,92.3869595 254.086554,92.4006419 C255.476432,92.4188851 255.47461,90.2597973 254.086554,90.2415541" id="Fill-180" fill="#FFFFFF"></path>
                        <path d="M263.081596,85.5621622 C262.265521,86.6284797 261.445803,87.524223 260.236263,88.1417568 C258.998488,88.7738851 260.088714,90.6346959 261.323756,90.0053041 C261.548723,89.8894595 261.760939,89.7635811 261.965869,89.6313176 C261.213549,92.9023311 260.737202,96.2226014 260.510413,99.5912162 C260.417512,100.981351 262.57246,100.973142 262.665362,99.5912162 C262.966836,95.0942568 263.74739,90.7085811 265.050742,86.3931419 C265.432366,85.1261486 263.773803,84.6563851 263.081596,85.5621622" id="Fill-181" fill="#FFFFFF"></path>
                        <path d="M276.12969,96.8939527 C273.845408,96.6741216 271.598469,96.4059459 269.332404,96.4515541 C270.668545,94.4794595 271.69046,92.1607432 272.286122,89.9980068 C273.134075,86.9249324 271.446366,84.9291216 268.303202,85.8750338 C266.976169,86.275473 267.541775,88.3579392 268.876094,87.9565878 C269.697634,87.7084797 270.38984,87.3883108 270.381643,88.43 C270.372535,89.5528716 269.805108,90.7687838 269.359728,91.77125 C268.566423,93.5527027 267.563634,95.5129392 266.21292,96.9413851 C265.41415,97.7833108 266.23569,98.9007095 267.260338,98.7447297 C270.213146,98.2959459 273.18508,98.7675338 276.12969,99.0521284 C277.513192,99.1862162 277.500441,97.0271284 276.12969,96.8939527" id="Fill-182" fill="#FFFFFF"></path>
                        <path d="M198.229127,157.145912 L137.336808,157.145912 L162.539502,85.1453041 C164.898469,90.21875 163.302751,95.2684797 160.075793,99.9761486 C159.430038,100.918412 160.305315,101.818716 161.202451,101.818716 C161.588629,101.818716 161.978451,101.651791 162.252601,101.251351 C166.352103,95.2703041 167.894995,88.4774324 163.722629,82.0922973 C163.698038,82.0539865 163.672535,82.0184122 163.645211,81.9846622 L175.839887,47.1455405 L236.732207,47.1455405 L198.229127,157.145912 M197.22907,93.2635473 C198.606197,95.1498986 199.993343,97.0271284 201.48523,98.8277365 C201.733878,99.1278378 202.024423,99.2528041 202.308592,99.2528041 C203.213014,99.2528041 204.050948,97.986723 203.266751,97.041723 C201.665568,95.107027 200.181878,93.0847635 198.703653,91.057027 C200.222864,88.9043243 201.899643,86.8601689 203.68754,84.9391554 C204.536404,84.0269932 203.686629,82.76 202.743953,82.76 C202.457962,82.76 202.163775,82.8767568 201.905108,83.1540541 C200.213756,84.9719932 198.606197,86.8939189 197.131615,88.9125338 C196.058695,87.4603716 194.967559,86.0191554 193.812667,84.6271959 C193.564019,84.3270946 193.273474,84.2012162 192.988394,84.2012162 C192.084883,84.2012162 191.246948,85.4663851 192.030235,86.4122973 C193.285315,87.9264865 194.46662,89.4954054 195.63062,91.0780068 C194.3637,93.0035811 193.22338,95.005777 192.25338,97.0864189 C191.784319,98.0934459 192.662329,99.0138176 193.481136,99.0138176 C193.854563,99.0138176 194.215239,98.8222635 194.430188,98.3607095 C195.249906,96.602973 196.193493,94.904527 197.22907,93.2635473 M186.179268,85.2383446 C185.51985,85.2383446 183.300235,86.568277 182.587991,86.8984797 C181.633474,87.3417905 181.917643,88.5713851 182.587991,89.0785473 C183.696432,89.9168243 188.222188,91.5486824 186.69569,93.4359459 C185.385052,95.0577703 182.419493,95.3067905 180.577859,96.0310473 C179.24354,96.5546284 179.618789,98.5577365 180.792808,98.5577365 C180.933981,98.5577365 181.086085,98.5285473 181.248207,98.4646959 C183.915023,97.4175338 187.971718,97.0198311 189.249568,94.0188176 C190.480056,91.1290878 188.097408,89.5373649 185.865042,88.1846284 C187.556394,87.3636824 189.203117,86.2052365 188.558272,84.2404392 C188.055512,82.7116554 186.146479,82.3221622 184.341277,82.3221622 C183.309343,82.3221622 182.312019,82.4489527 181.62892,82.5638851 C180.111531,82.8183784 180.644347,85.0185135 182.059728,85.0185135 C182.137146,85.0185135 182.217296,85.0121284 182.300178,84.9975338 C182.832995,84.9081419 183.462357,84.8388176 184.094451,84.8388176 C184.885934,84.8388176 185.681061,84.9473649 186.297671,85.2602365 C186.267615,85.2456419 186.22754,85.2383446 186.179268,85.2383446 M213.747305,92.615 C213.76461,92.8986824 213.783737,93.1823649 213.812883,93.4596622 C213.90123,94.2623649 214.579775,94.6664527 215.211869,94.6664527 C215.840319,94.6664527 216.42323,94.2669257 216.334883,93.4596622 C216.301183,93.1577365 216.276592,92.8521622 216.254732,92.5475 C216.842197,92.5164865 217.428751,92.4754392 218.015305,92.4079392 C219.553643,92.2291554 219.625596,89.8721284 218.181981,89.8721284 C218.128244,89.8721284 218.072685,89.875777 218.015305,89.8821622 C217.349512,89.9606081 216.681897,90.0034797 216.013371,90.0344932 C215.867643,89.1706757 215.613531,88.3351351 215.111681,87.5625338 C214.844817,87.1502365 214.457728,86.97875 214.07246,86.97875 C213.188075,86.97875 212.316441,87.8817905 212.934873,88.8359122 C213.190808,89.2308784 213.355662,89.6532095 213.468601,90.0901351 C213.302836,90.0910473 213.137981,90.0937838 212.972216,90.0937838 C211.347352,90.0937838 211.347352,92.6177365 212.972216,92.6177365 C213.231793,92.6177365 213.489549,92.6159122 213.747305,92.615 M172.420751,94.0890541 C173.420808,94.0890541 174.42815,94.105473 175.412723,94.2559797 C175.507446,94.2705743 175.601258,94.2778716 175.69416,94.2778716 C176.269784,94.2778716 176.793493,93.9951014 176.963812,93.3748311 C177.129577,92.7700676 176.763437,91.9263176 176.08307,91.8214189 C174.5757,91.5906419 173.068329,91.5660135 171.546385,91.5660135 L171.545474,91.5660135 C169.9197,91.5660135 169.92061,94.0908784 171.546385,94.0908784 C171.702131,94.0908784 171.857878,94.0899662 172.014535,94.0899662 C172.150244,94.0899662 172.285042,94.0890541 172.420751,94.0890541 M171.248554,87.3582095 C169.622779,87.3582095 169.622779,89.8821622 171.248554,89.8821622 L176.08216,89.8821622 C177.707023,89.8821622 177.707023,87.3582095 176.08216,87.3582095 L171.248554,87.3582095 M206.81431,79.2518243 C206.907211,79.2518243 206.99738,79.2563851 207.086638,79.2664189 C206.286958,80.4814189 205.637559,81.9299324 206.625775,83.125777 C207.855352,84.6153378 210.928385,84.3115878 212.607897,84.3754392 C212.627023,84.3763514 212.647061,84.3763514 212.666188,84.3763514 C214.233671,84.3763514 214.20908,81.9116892 212.607897,81.8505743 C212.449418,81.8441892 212.279099,81.8423649 212.100582,81.8423649 C211.965784,81.8423649 211.825521,81.843277 211.681615,81.8441892 C211.537709,81.8460135 211.39016,81.8469257 211.2417,81.8469257 C210.366423,81.8469257 209.430122,81.8104392 208.72061,81.5240203 L208.821709,81.3069257 C209.175099,80.6045608 209.663286,79.9633108 210.12415,79.3311824 C210.547671,78.7519595 210.197014,77.9556419 209.672394,77.6035473 C208.773437,77.0033446 207.839869,76.7597973 206.839812,76.7597973 C206.488244,76.7597973 206.128479,76.7898986 205.759606,76.8446284 C204.230376,77.0763176 204.780498,79.2974324 206.213183,79.2974324 C206.283315,79.2974324 206.355268,79.2919595 206.429953,79.2810135 C206.56293,79.2609459 206.691352,79.2518243 206.81431,79.2518243" id="Fill-183" fill="#4C7F6C"></path>
                        <polyline id="Fill-184" fill="#447563" points="236.732207 47.1455405 175.839887 47.1455405 177.93108 41.1717905 238.823399 41.1717905 236.732207 47.1455405"></polyline>
                        <path d="M161.202451,101.818716 C160.305315,101.818716 159.430038,100.918412 160.075793,99.9761486 C163.302751,95.2684797 164.898469,90.21875 162.539502,85.1453041 L163.645211,81.9846622 C163.672535,82.0184122 163.698038,82.0539865 163.722629,82.0922973 C167.894995,88.4774324 166.352103,95.2703041 162.252601,101.251351 C161.978451,101.651791 161.588629,101.818716 161.202451,101.818716" id="Fill-185" fill="#FFFFFF"></path>
                        <path d="M176.08216,89.8821622 L171.248554,89.8821622 C169.622779,89.8821622 169.622779,87.3582095 171.248554,87.3582095 L176.08216,87.3582095 C177.707023,87.3582095 177.707023,89.8821622 176.08216,89.8821622" id="Fill-186" fill="#FFFFFF"></path>
                        <path d="M175.69416,94.2778716 C175.601258,94.2778716 175.507446,94.2705743 175.412723,94.2559797 C174.42815,94.105473 173.420808,94.0890541 172.420751,94.0890541 C172.285042,94.0890541 172.150244,94.0899662 172.014535,94.0899662 C171.857878,94.0899662 171.702131,94.0908784 171.546385,94.0908784 C169.92061,94.0908784 169.9197,91.5660135 171.545474,91.5660135 L171.546385,91.5660135 C173.068329,91.5660135 174.5757,91.5906419 176.08307,91.8214189 C176.763437,91.9263176 177.129577,92.7700676 176.963812,93.3748311 C176.793493,93.9951014 176.269784,94.2778716 175.69416,94.2778716" id="Fill-187" fill="#FFFFFF"></path>
                        <path d="M180.792808,98.5577365 C179.618789,98.5577365 179.24354,96.5546284 180.577859,96.0310473 C182.419493,95.3067905 185.385052,95.0577703 186.69569,93.4359459 C188.222188,91.5486824 183.696432,89.9168243 182.587991,89.0785473 C181.917643,88.5713851 181.633474,87.3417905 182.587991,86.8984797 C183.300235,86.568277 185.51985,85.2383446 186.179268,85.2383446 C186.22754,85.2383446 186.267615,85.2456419 186.297671,85.2602365 C185.681061,84.9473649 184.885934,84.8388176 184.094451,84.8388176 C183.462357,84.8388176 182.832995,84.9081419 182.300178,84.9975338 C182.217296,85.0121284 182.137146,85.0185135 182.059728,85.0185135 C180.644347,85.0185135 180.111531,82.8183784 181.62892,82.5638851 C182.312019,82.4489527 183.309343,82.3221622 184.341277,82.3221622 C186.146479,82.3221622 188.055512,82.7116554 188.558272,84.2404392 C189.203117,86.2052365 187.556394,87.3636824 185.865042,88.1846284 C188.097408,89.5373649 190.480056,91.1290878 189.249568,94.0188176 C187.971718,97.0198311 183.915023,97.4175338 181.248207,98.4646959 C181.086085,98.5285473 180.933981,98.5577365 180.792808,98.5577365" id="Fill-188" fill="#FFFFFF"></path>
                        <path d="M202.308592,99.2528041 C202.024423,99.2528041 201.733878,99.1278378 201.48523,98.8277365 C199.993343,97.0271284 198.606197,95.1498986 197.22907,93.2635473 C196.193493,94.904527 195.249906,96.602973 194.430188,98.3607095 C194.215239,98.8222635 193.854563,99.0138176 193.481136,99.0138176 C192.662329,99.0138176 191.784319,98.0934459 192.25338,97.0864189 C193.22338,95.005777 194.3637,93.0035811 195.63062,91.0780068 C194.46662,89.4954054 193.285315,87.9264865 192.030235,86.4122973 C191.246948,85.4663851 192.084883,84.2012162 192.988394,84.2012162 C193.273474,84.2012162 193.564019,84.3270946 193.812667,84.6271959 C194.967559,86.0191554 196.058695,87.4603716 197.131615,88.9125338 C198.606197,86.8939189 200.213756,84.9719932 201.905108,83.1540541 C202.163775,82.8767568 202.457962,82.76 202.743953,82.76 C203.686629,82.76 204.536404,84.0269932 203.68754,84.9391554 C201.899643,86.8601689 200.222864,88.9043243 198.703653,91.057027 C200.181878,93.0847635 201.665568,95.107027 203.266751,97.041723 C204.050948,97.986723 203.213014,99.2528041 202.308592,99.2528041" id="Fill-189" fill="#FFFFFF"></path>
                        <path d="M212.666188,84.3763514 C212.647061,84.3763514 212.627023,84.3763514 212.607897,84.3754392 C210.928385,84.3115878 207.855352,84.6153378 206.625775,83.125777 C205.637559,81.9299324 206.286958,80.4814189 207.086638,79.2664189 C206.99738,79.2563851 206.907211,79.2518243 206.81431,79.2518243 C206.691352,79.2518243 206.56293,79.2609459 206.429953,79.2810135 C206.355268,79.2919595 206.283315,79.2974324 206.213183,79.2974324 C204.780498,79.2974324 204.230376,77.0763176 205.759606,76.8446284 C206.128479,76.7898986 206.488244,76.7597973 206.839812,76.7597973 C207.839869,76.7597973 208.773437,77.0033446 209.672394,77.6035473 C210.197014,77.9556419 210.547671,78.7519595 210.12415,79.3311824 C209.663286,79.9633108 209.175099,80.6045608 208.821709,81.3069257 L208.72061,81.5240203 C209.430122,81.8104392 210.366423,81.8469257 211.2417,81.8469257 C211.39016,81.8469257 211.537709,81.8460135 211.681615,81.8441892 C211.825521,81.843277 211.965784,81.8423649 212.100582,81.8423649 C212.279099,81.8423649 212.449418,81.8441892 212.607897,81.8505743 C214.20908,81.9116892 214.233671,84.3763514 212.666188,84.3763514" id="Fill-190" fill="#FFFFFF"></path>
                        <path d="M215.211869,94.6664527 C214.579775,94.6664527 213.90123,94.2623649 213.812883,93.4596622 C213.783737,93.1823649 213.76461,92.8986824 213.747305,92.615 C213.489549,92.6159122 213.231793,92.6177365 212.972216,92.6177365 C211.347352,92.6177365 211.347352,90.0937838 212.972216,90.0937838 C213.137981,90.0937838 213.302836,90.0910473 213.468601,90.0901351 C213.355662,89.6532095 213.190808,89.2308784 212.934873,88.8359122 C212.316441,87.8817905 213.188075,86.97875 214.07246,86.97875 C214.457728,86.97875 214.844817,87.1502365 215.111681,87.5625338 C215.613531,88.3351351 215.867643,89.1706757 216.013371,90.0344932 C216.681897,90.0034797 217.349512,89.9606081 218.015305,89.8821622 C218.072685,89.875777 218.128244,89.8721284 218.181981,89.8721284 C219.625596,89.8721284 219.553643,92.2291554 218.015305,92.4079392 C217.428751,92.4754392 216.842197,92.5164865 216.254732,92.5475 C216.276592,92.8521622 216.301183,93.1577365 216.334883,93.4596622 C216.42323,94.2669257 215.840319,94.6664527 215.211869,94.6664527" id="Fill-191" fill="#FFFFFF"></path>
                        <g id="Group-4" filter="url(#filter-4)" transform="translate(190.449219, 176.385141)">
                            <g id="UI-SCREEN">
                                <g id="Rectangle-197">
                                    <use fill="#859BA6" fill-rule="evenodd" xlink:href="#path-5"></use>
                                    <use fill="black" fill-opacity="1" filter="url(#filter-6)" xlink:href="#path-5"></use>
                                    <use stroke="#617D8A" mask="url(#mask-7)" stroke-width="6" xlink:href="#path-5"></use>
                                </g>
                                <path d="M73.1074643,0.621039132 L252.996841,178.418836 L254.810545,128.098113 L254.810545,0.621039132 L73.1074643,0.621039132 Z" id="Rectangle-219" fill="#FFFFFF" opacity="0.1"></path>
                                <ellipse id="Oval-30" fill="#FFFFFF" cx="14.9570083" cy="7.08164224" rx="3.42666667" ry="3.42307692"></ellipse>
                                <ellipse id="Oval-31" fill="#FFFFFF" cx="32.0293033" cy="7.08164224" rx="3.42666667" ry="3.42307692"></ellipse>
                                <ellipse id="Oval-32" fill="#FFFFFF" cx="49.1015982" cy="7.08164224" rx="3.42666667" ry="3.42307692"></ellipse>
                            </g>
                            <g id="CODE" transform="translate(10.775196, 23.594419)">
                                <rect id="Rectangle-198" fill="#FF8C8C" x="21.0583038" y="15.3990431" width="70.6418113" height="4.26360254" rx="2.13180127"></rect>
                                <rect id="Rectangle-200" fill="#FFFFFF" opacity="0.305445429" x="28.4976244" y="32.4534532" width="74.6912904" height="4.26360254" rx="2.13180127"></rect>
                                <rect id="Rectangle-203" fill="#FFFFFF" opacity="0.305445429" x="28.4976244" y="47.3760621" width="46.9488111" height="4.26360254" rx="2.13180127"></rect>
                                <rect id="Rectangle-204" fill="#FFFFFF" opacity="0.305445429" x="82.3572151" y="47.3760621" width="46.9488111" height="4.26360254" rx="2.13180127"></rect>
                                <rect id="Rectangle-205" fill="#FF8C8C" x="136.216806" y="47.3760621" width="46.9488111" height="4.26360254" rx="2.13180127"></rect>
                                <rect id="Rectangle-201" fill="#FFFFFF" opacity="0.305445429" x="110.628236" y="31.9205029" width="53.3509217" height="4.26360254" rx="2.13180127"></rect>
                                <rect id="Rectangle-202" fill="#FFFFFF" opacity="0.305445429" x="171.418478" y="31.9205029" width="25.6084424" height="4.26360254" rx="2.13180127"></rect>
                                <rect id="Rectangle-211" fill="#FF8C8C" x="11.4253295" y="85.748485" width="74.6912904" height="4.26360254" rx="2.13180127"></rect>
                                <rect id="Rectangle-206" fill="#FFFFFF" opacity="0.305445429" x="28.4976244" y="100.671094" width="10.6701843" height="4.26360254" rx="2.13180127"></rect>
                                <rect id="Rectangle-207" fill="#FFFFFF" opacity="0.305445429" x="95.6701052" y="100.671094" width="29.8765162" height="4.26360254" rx="2.13180127"></rect>
                                <rect id="Rectangle-208" fill="#FFFFFF" opacity="0.305445429" x="43.9445514" y="100.671094" width="46.9488111" height="4.26360254" rx="2.13180127"></rect>
                                <rect id="Rectangle-214" fill="#FFFFFF" opacity="0.305445429" x="28.4976244" y="113.461902" width="10.6701843" height="4.26360254" rx="2.13180127"></rect>
                                <rect id="Rectangle-212" fill="#FFFFFF" opacity="0.305445429" x="95.6701052" y="113.461902" width="29.8765162" height="4.26360254" rx="2.13180127"></rect>
                                <rect id="Rectangle-213" fill="#FFFFFF" opacity="0.305445429" x="43.9445514" y="113.461902" width="46.9488111" height="4.26360254" rx="2.13180127"></rect>
                                <rect id="Rectangle-209" fill="#FFFFFF" opacity="0.305445429" x="91.9504449" y="85.748485" width="53.3509217" height="4.26360254" rx="2.13180127"></rect>
                                <rect id="Rectangle-210" fill="#FFFFFF" opacity="0.305445429" x="151.135192" y="85.748485" width="25.6084424" height="4.26360254" rx="2.13180127"></rect>
                                <rect id="Rectangle-217" fill="#FFFFFF" opacity="0.305445429" x="11.4253295" y="128.38451" width="74.6912904" height="4.26360254" rx="2.13180127"></rect>
                                <rect id="Rectangle-215" fill="#FF8C8C" x="91.9703171" y="128.38451" width="38.4126636" height="4.26360254" rx="2.13180127"></rect>
                                <rect id="Rectangle-216" fill="#FFFFFF" opacity="0.305445429" x="138.370715" y="128.38451" width="25.6084424" height="4.26360254" rx="2.13180127"></rect>
                                <rect id="Rectangle-199" fill="#FFFFFF" opacity="0.305445429" x="107.766935" y="15.3990431" width="42.6807374" height="4.26360254" rx="2.13180127"></rect>
                                <text id="&lt;" opacity="0.392315765" font-family="Helvetica-Light, Helvetica" font-size="7.71428571" font-weight="300" fill="#FFFFFF">
                                    <tspan x="16.0549571" y="35.2648348">&lt;</tspan>
                                </text>
                                <text id="&lt;-3" opacity="0.392315765" transform="translate(189.448494, 50.611915) rotate(-180.000000) translate(-189.448494, -50.611915) " font-family="Helvetica-Light, Helvetica" font-size="7.71428571" font-weight="300" fill="#FFFFFF">
                                    <tspan x="186.237503" y="52.9067867">&lt;</tspan>
                                </text>
                                <text id="&lt;-4" opacity="0.392315765" transform="translate(170.182545, 132.406419) rotate(-180.000000) translate(-170.182545, -132.406419) " font-family="Helvetica-Light, Helvetica" font-size="7.71428571" font-weight="300" fill="#FFFFFF">
                                    <tspan x="166.971554" y="134.701291">&lt;</tspan>
                                </text>
                                <text id="&lt;-2" opacity="0.392315765" font-family="Helvetica-Light, Helvetica" font-size="7.71428571" font-weight="300" fill="#FFFFFF">
                                    <tspan x="0" y="88.1906905">&lt;</tspan>
                                </text>
                                <text id="&lt;html&gt;" opacity="0.285564366" font-family="Helvetica-Light, Helvetica" font-size="5.6" font-weight="300" fill="#FFFFFF">
                                    <tspan x="1.60549571" y="5">&lt;html&gt;</tspan>
                                </text>
                                <text id="&lt;div&gt;" opacity="0.285564366" font-family="Helvetica-Light, Helvetica" font-size="5.6" font-weight="300" fill="#FFFFFF">
                                    <tspan x="1.60549571" y="80.3792491">&lt;div&gt;</tspan>
                                </text>
                                <text id="&lt;/div&gt;" opacity="0.285564366" font-family="Helvetica-Light, Helvetica" font-size="5.6" font-weight="300" fill="#FFFFFF">
                                    <tspan x="28.8989228" y="59.5296695">&lt;/div&gt;</tspan>
                                </text>
                                <text id="&lt;div&gt;" opacity="0.285564366" font-family="Helvetica-Light, Helvetica" font-size="5.6" font-weight="300" fill="#FFFFFF">
                                    <tspan x="1.60549571" y="17.8305105">&lt;div&gt;</tspan>
                                </text>
                                <text id="&lt;/div&gt;" opacity="0.285564366" font-family="Helvetica-Light, Helvetica" font-size="5.6" font-weight="300" fill="#FFFFFF">
                                    <tspan x="1.60549571" y="139.72036">&lt;/div&gt;</tspan>
                                </text>
                            </g>
                        </g>
                        <g id="Group-2" filter="url(#filter-8)" transform="translate(0.000000, 118.000000)">
                            <polygon id="Fill-448" fill="#5EB7C2" points="20.144 151.947 151.368 151.947 151.368 126.332 20.144 126.332"></polygon>
                            <polygon id="Fill-449" fill="#48575B" points="133.634 151.978 135.292 151.978 135.292 148.304 133.634 148.304"></polygon>
                            <polygon id="Fill-450" fill="#48575B" points="128.234 151.978 129.894 151.978 129.894 148.304 128.234 148.304"></polygon>
                            <polygon id="Fill-451" fill="#48575B" points="122.834 151.978 124.494 151.978 124.494 148.304 122.834 148.304"></polygon>
                            <polygon id="Fill-452" fill="#48575B" points="117.436 151.978 119.096 151.978 119.096 148.304 117.436 148.304"></polygon>
                            <polygon id="Fill-453" fill="#48575B" points="106.636 151.978 108.297 151.978 108.297 148.304 106.636 148.304"></polygon>
                            <polygon id="Fill-454" fill="#48575B" points="101.236 151.978 102.897 151.978 102.897 148.304 101.236 148.304"></polygon>
                            <polygon id="Fill-455" fill="#48575B" points="95.838 151.978 97.497 151.978 97.497 148.304 95.838 148.304"></polygon>
                            <polygon id="Fill-456" fill="#48575B" points="90.438 151.978 92.099 151.978 92.099 148.304 90.438 148.304"></polygon>
                            <polygon id="Fill-457" fill="#48575B" points="79.639 151.978 81.3 151.978 81.3 148.304 79.639 148.304"></polygon>
                            <polygon id="Fill-458" fill="#48575B" points="74.242 151.978 75.901 151.978 75.901 148.304 74.242 148.304"></polygon>
                            <polygon id="Fill-459" fill="#48575B" points="68.841 151.978 70.5 151.978 70.5 148.304 68.841 148.304"></polygon>
                            <polygon id="Fill-460" fill="#48575B" points="63.441 151.978 65.102 151.978 65.102 148.304 63.441 148.304"></polygon>
                            <polygon id="Fill-461" fill="#48575B" points="52.642 151.978 54.303 151.978 54.303 148.304 52.642 148.304"></polygon>
                            <polygon id="Fill-462" fill="#48575B" points="47.243 151.978 48.905 151.978 48.905 148.304 47.243 148.304"></polygon>
                            <polygon id="Fill-463" fill="#48575B" points="41.845 151.978 43.505 151.978 43.505 148.304 41.845 148.304"></polygon>
                            <polygon id="Fill-464" fill="#48575B" points="36.445 151.978 38.106 151.978 38.106 148.304 36.445 148.304"></polygon>
                            <polygon id="Fill-465" fill="#48575B" points="31.046 151.978 32.705 151.978 32.705 143.637 31.046 143.637"></polygon>
                            <polygon id="Fill-466" fill="#48575B" points="58.042 151.978 59.703 151.978 59.703 143.637 58.042 143.637"></polygon>
                            <polygon id="Fill-467" fill="#48575B" points="85.039 151.978 86.699 151.978 86.699 143.637 85.039 143.637"></polygon>
                            <polygon id="Fill-468" fill="#48575B" points="112.036 151.978 113.696 151.978 113.696 143.637 112.036 143.637"></polygon>
                            <polygon id="Fill-469" fill="#48575B" points="139.034 151.978 140.692 151.978 140.692 143.637 139.034 143.637"></polygon>
                            <path d="M85.699,70.142 C54.666,70.142 29.508,95.299 29.508,126.332 L48.238,126.332 C48.238,116.326 52.135,106.92 59.211,99.845 C66.286,92.768 75.691,88.873 85.699,88.873 C95.705,88.873 105.111,92.768 112.188,99.845 C119.262,106.92 123.159,116.326 123.159,126.332 L141.888,126.332 C141.888,95.299 116.731,70.142 85.699,70.142" id="Fill-470" fill="#61B9C3"></path>
                            <polygon id="Fill-471" fill="#3E97AA" points="140.692 151.947 151.368 151.947 151.368 144.994 140.692 144.994"></polygon>
                            <polyline id="Fill-472" fill="#3E97AA" points="139.034 151.947 135.292 151.947 135.292 148.304 133.634 148.304 133.634 151.947 129.894 151.947 129.894 148.304 128.234 148.304 128.234 151.947 124.494 151.947 124.494 148.304 122.834 148.304 122.834 151.947 119.096 151.947 119.096 148.304 117.436 148.304 117.436 151.947 113.696 151.947 113.696 144.994 139.034 144.994 139.034 151.947"></polyline>
                            <polygon id="Fill-473" fill="#2E474F" points="133.634 151.947 135.292 151.947 135.292 148.304 133.634 148.304"></polygon>
                            <polygon id="Fill-474" fill="#2E474F" points="128.234 151.947 129.894 151.947 129.894 148.304 128.234 148.304"></polygon>
                            <polygon id="Fill-475" fill="#2E474F" points="122.834 151.947 124.494 151.947 124.494 148.304 122.834 148.304"></polygon>
                            <polygon id="Fill-476" fill="#2E474F" points="117.436 151.947 119.096 151.947 119.096 148.304 117.436 148.304"></polygon>
                            <polyline id="Fill-477" fill="#3E97AA" points="112.036 151.947 108.297 151.947 108.297 148.304 106.636 148.304 106.636 150.389 104.854 144.994 112.036 144.994 112.036 151.947"></polyline>
                            <polyline id="Fill-478" fill="#2E474F" points="108.297 151.947 107.151 151.947 106.636 150.389 106.636 148.304 108.297 148.304 108.297 151.947"></polyline>
                            <polyline id="Fill-479" fill="#3E97AA" points="95.649 151.947 92.099 151.947 92.099 148.304 90.438 148.304 90.438 151.947 86.699 151.947 86.699 144.994 93.353 144.994 95.649 151.947"></polyline>
                            <polygon id="Fill-480" fill="#2E474F" points="90.438 151.947 92.099 151.947 92.099 148.304 90.438 148.304"></polygon>
                            <polyline id="Fill-481" fill="#3E97AA" points="85.039 151.947 81.3 151.947 81.3 148.304 79.639 148.304 79.639 151.947 75.901 151.947 75.901 148.304 74.242 148.304 74.242 151.947 70.5 151.947 70.5 148.304 68.841 148.304 68.841 151.947 65.102 151.947 65.102 148.304 63.441 148.304 63.441 151.947 59.703 151.947 59.703 144.994 85.039 144.994 85.039 151.947"></polyline>
                            <polygon id="Fill-482" fill="#2E474F" points="79.639 151.947 81.3 151.947 81.3 148.304 79.639 148.304"></polygon>
                            <polygon id="Fill-483" fill="#2E474F" points="74.242 151.947 75.901 151.947 75.901 148.304 74.242 148.304"></polygon>
                            <polygon id="Fill-484" fill="#2E474F" points="68.841 151.947 70.5 151.947 70.5 148.304 68.841 148.304"></polygon>
                            <polygon id="Fill-485" fill="#2E474F" points="63.441 151.947 65.102 151.947 65.102 148.304 63.441 148.304"></polygon>
                            <polyline id="Fill-486" fill="#3E97AA" points="58.042 151.947 54.303 151.947 54.303 148.304 52.642 148.304 52.642 151.947 48.905 151.947 48.905 148.304 47.243 148.304 47.243 151.947 43.505 151.947 43.505 148.304 41.845 148.304 41.845 151.947 38.106 151.947 38.106 148.304 36.445 148.304 36.445 151.947 32.705 151.947 32.705 144.994 58.042 144.994 58.042 151.947"></polyline>
                            <polygon id="Fill-487" fill="#3E97AA" points="20.144 151.947 31.045 151.947 31.045 144.994 20.144 144.994"></polygon>
                            <polygon id="Fill-488" fill="#2E474F" points="52.642 151.947 54.303 151.947 54.303 148.304 52.642 148.304"></polygon>
                            <polygon id="Fill-489" fill="#2E474F" points="47.243 151.947 48.905 151.947 48.905 148.304 47.243 148.304"></polygon>
                            <polygon id="Fill-490" fill="#2E474F" points="41.845 151.947 43.505 151.947 43.505 148.304 41.845 148.304"></polygon>
                            <polygon id="Fill-491" fill="#2E474F" points="36.445 151.947 38.106 151.947 38.106 148.304 36.445 148.304"></polygon>
                            <polygon id="Fill-492" fill="#2E474F" points="31.046 151.947 32.705 151.947 32.705 144.994 31.046 144.994"></polygon>
                            <polygon id="Fill-493" fill="#2E474F" points="58.042 151.947 59.703 151.947 59.703 144.994 58.042 144.994"></polygon>
                            <polygon id="Fill-494" fill="#2E474F" points="85.039 151.947 86.699 151.947 86.699 144.994 85.039 144.994"></polygon>
                            <polygon id="Fill-495" fill="#2E474F" points="112.036 151.947 113.696 151.947 113.696 144.994 112.036 144.994"></polygon>
                            <polygon id="Fill-496" fill="#2E474F" points="139.034 151.947 140.692 151.947 140.692 144.994 139.034 144.994"></polygon>
                            <path d="M35.846,16.318 C40.59,16.318 44.434,20.161 44.434,24.904 C44.434,29.646 40.59,33.494 35.846,33.494 C31.102,33.494 27.258,29.646 27.258,24.904 C27.258,20.161 31.102,16.318 35.846,16.318" id="Fill-497" fill="#2F3941"></path>
                            <polygon id="Fill-498" fill="#2F3941" points="32.222 25.105 39.469 25.105 39.469 7.62 32.222 7.62"></polygon>
                            <polygon id="Fill-499" fill="#2F3941" points="34.034 17.953 37.657 17.953 37.657 0.469 34.034 0.469"></polygon>
                            <polyline id="Fill-500" fill="#2F3941" points="39.215 29.959 8.861 181.533 0.439 179.849 30.793 28.273 39.215 29.959"></polyline>
                            <polyline id="Fill-501" fill="#2F3941" points="13.896 119.475 11.091 133.495 8.108 132.898 10.916 118.879 13.896 119.475"></polyline>
                            <polyline id="Fill-502" fill="#949692" points="7.1 181.301 2.153 180.31 0.929 199.269 7.1 181.301"></polyline>
                            <polyline id="Fill-503" fill="#2F3941" points="11.342 123.582 10.312 128.721 8.206 128.301 9.237 123.159 11.342 123.582"></polyline>
                            <polyline id="Fill-504" fill="#2F3941" points="32.444 29.959 62.794 181.533 71.217 179.849 40.864 28.273 32.444 29.959"></polyline>
                            <polyline id="Fill-505" fill="#2F3941" points="57.759 119.475 60.567 133.495 63.551 132.898 60.742 118.879 57.759 119.475"></polyline>
                            <polyline id="Fill-506" fill="#949692" points="64.558 181.301 69.503 180.31 70.727 199.269 64.558 181.301"></polyline>
                            <polyline id="Fill-507" fill="#2F3941" points="60.315 123.582 61.343 128.721 63.451 128.301 62.421 123.159 60.315 123.582"></polyline>
                            <path d="M33.794,130.784 C26.909,130.784 20.035,130.053 13.368,128.609 L14.133,125.07 C28.214,128.115 43.215,127.812 57.152,124.189 L58.065,127.695 C50.181,129.745 42.013,130.784 33.794,130.784" id="Fill-508" fill="#2F3941"></path>
                            <polyline id="Fill-509" fill="#DCDEDC" points="111.096 181.083 105.225 171.847 99.476 163.534 109.846 160.107 111.096 181.083"></polyline>
                            <polyline id="Fill-510" fill="#41474F" points="114.728 171.177 111.719 166.42 114.314 165.563 114.728 171.177"></polyline>
                            <polyline id="Fill-511" fill="#DCDEDC" points="99.476 163.534 95.649 151.947 95.838 151.947 95.838 151.978 97.497 151.978 97.497 151.947 101.236 151.947 101.236 151.978 102.897 151.978 102.897 151.947 106.636 151.947 106.636 151.978 107.161 151.978 109.846 160.107 104.659 161.819 99.476 163.534"></polyline>
                            <polyline id="Fill-512" fill="#4B585E" points="107.161 151.978 106.636 151.978 106.636 151.947 107.151 151.947 107.161 151.978"></polyline>
                            <polygon id="Fill-513" fill="#4B585E" points="101.236 151.978 102.897 151.978 102.897 151.947 101.236 151.947"></polygon>
                            <polygon id="Fill-514" fill="#4B585E" points="95.838 151.978 97.497 151.978 97.497 151.947 95.838 151.947"></polygon>
                            <path d="M98.691,126.332 L87.19,126.332 L75.299,90.327 C78.637,89.368 82.13,88.873 85.699,88.873 C85.907,88.873 86.115,88.874 86.322,88.878 L98.691,126.332" id="Fill-515" fill="#DCDEDC"></path>
                            <polyline id="Fill-516" fill="#5CA2AF" points="104.854 144.994 93.353 144.994 87.19 126.332 98.691 126.332 104.854 144.994"></polyline>
                            <path d="M69.424,72.535 L63.529,54.685 L62.867,52.689 L62.868,52.689 L58.372,39.078 L63.557,37.367 L68.744,35.652 L80.221,70.406 C76.505,70.766 72.893,71.487 69.424,72.535" id="Fill-517" fill="#DCDEDC"></path>
                            <path d="M75.299,90.327 L69.424,72.535 C72.893,71.487 76.505,70.766 80.221,70.406 L86.322,88.878 C86.115,88.874 85.907,88.873 85.699,88.873 C82.13,88.873 78.637,89.368 75.299,90.327" id="Fill-518" fill="#5FA4B0"></path>
                            <polyline id="Fill-519" fill="#428B9D" points="106.636 151.947 102.897 151.947 102.897 148.304 101.236 148.304 101.236 151.947 97.497 151.947 97.497 148.304 95.838 148.304 95.838 151.947 95.649 151.947 93.353 144.994 104.854 144.994 106.636 150.389 106.636 151.947"></polyline>
                            <polyline id="Fill-520" fill="#344C54" points="107.151 151.947 106.636 151.947 106.636 150.389 107.151 151.947"></polyline>
                            <polygon id="Fill-521" fill="#344C54" points="101.236 151.947 102.897 151.947 102.897 148.304 101.236 148.304"></polygon>
                            <polygon id="Fill-522" fill="#344C54" points="95.838 151.947 97.497 151.947 97.497 148.304 95.838 148.304"></polygon>
                            <polyline id="Fill-523" fill="#CAA738" points="107.878 150.436 102.693 152.148 61.59 27.693 66.775 25.98 107.878 150.436"></polyline>
                            <polyline id="Fill-524" fill="#E7C13F" points="107.878 150.436 66.775 25.98 71.962 24.267 113.063 148.724 107.878 150.436"></polyline>
                            <polyline id="Fill-525" fill="#F7D1B1" points="111.719 166.42 102.693 152.148 113.063 148.724 114.314 165.563 111.719 166.42"></polyline>
                        </g>
                    </g>
                    <g id="LEFT-ICON" transform="translate(190.449219, 176.385141)"></g>
                </g>
            </g>
        </g>
    </g>
</svg>