<?xml version="1.0" encoding="UTF-8"?>
<svg width="512px" height="512px" viewBox="0 0 512 512" version="1.1" xmlns="http://www.w3.org/2000/svg" xmlns:xlink="http://www.w3.org/1999/xlink">
    <!-- Generator: Sketch 41.2 (35397) - http://www.bohemiancoding.com/sketch -->
    <title>blackboard</title>
    <desc>Created with Sketch.</desc>
    <defs>
        <linearGradient x1="50%" y1="0%" x2="50%" y2="100%" id="linearGradient-1">
            <stop stop-color="#F06292" offset="0%"></stop>
            <stop stop-color="#DB59F8" offset="100%"></stop>
        </linearGradient>
    </defs>
    <g id="Page-1" stroke="none" stroke-width="1" fill="none" fill-rule="evenodd">
        <g id="blackboard" fill="url(#linearGradient-1)">
            <g id="Group">
                <path d="M162.133,256 L196.266,256 C200.985,256 204.799,252.177 204.799,247.467 C204.799,242.757 200.985,238.934 196.266,238.934 L162.133,238.934 C157.414,238.934 153.6,242.757 153.6,247.467 C153.6,252.177 157.414,256 162.133,256 Z M128,204.8 C132.719,204.8 136.533,200.977 136.533,196.267 C136.533,191.557 132.719,187.734 128,187.734 L93.867,187.734 C89.148,187.734 85.334,191.557 85.334,196.267 L85.334,264.534 C85.334,269.244 89.148,273.067 93.867,273.067 L128,273.067 C132.719,273.067 136.533,269.244 136.533,264.534 C136.533,259.824 132.719,256.001 128,256.001 L102.4,256.001 L102.4,238.934 L128,238.934 C132.719,238.934 136.533,235.111 136.533,230.401 C136.533,225.691 132.719,221.868 128,221.868 L102.4,221.868 L102.4,204.8 L128,204.8 Z M256,409.6 C251.281,409.6 247.467,413.423 247.467,418.133 L247.467,440.2 L190.234,497.433 C186.898,500.77 186.898,506.163 190.234,509.499 C191.898,511.163 194.083,511.999 196.267,511.999 C198.452,511.999 200.636,511.163 202.3,509.499 L262.033,449.766 C263.629,448.162 264.533,445.994 264.533,443.733 L264.533,418.133 C264.533,413.423 260.719,409.6 256,409.6 Z M287.633,463.3 C284.296,459.963 278.903,459.963 275.567,463.3 C272.23,466.636 272.23,472.03 275.567,475.366 L309.7,509.5 C311.364,511.164 313.549,512 315.733,512 C317.918,512 320.102,511.164 321.766,509.5 C325.103,506.164 325.103,500.77 321.766,497.434 L287.633,463.3 Z M503.467,17.067 L264.533,17.067 L264.533,8.533 C264.533,3.823 260.719,0 256,0 C251.281,0 247.467,3.823 247.467,8.533 L247.467,17.066 L8.533,17.066 C3.814,17.067 0,20.89 0,25.6 L0,59.733 C0,64.443 3.814,68.266 8.533,68.266 L452.266,68.266 C456.985,68.266 460.799,64.443 460.799,59.733 C460.799,55.023 456.985,51.2 452.266,51.2 L17.066,51.2 L17.066,34.133 L494.933,34.133 L494.933,51.2 L486.4,51.2 C481.681,51.2 477.867,55.023 477.867,59.733 L477.867,349.866 C477.867,363.98 466.381,375.466 452.267,375.466 L59.733,375.466 C45.619,375.466 34.133,363.98 34.133,349.866 L34.133,93.866 C34.133,89.156 30.319,85.333 25.6,85.333 C20.881,85.333 17.067,89.156 17.067,93.866 L17.067,349.866 C17.067,373.392 36.207,392.533 59.734,392.533 L452.267,392.533 C475.793,392.533 494.934,373.393 494.934,349.866 L494.934,68.266 L503.467,68.266 C508.186,68.266 512,64.443 512,59.733 L512,25.6 C512,20.89 508.186,17.067 503.467,17.067 Z M426.667,196.267 C426.667,182.153 415.181,170.667 401.067,170.667 C386.953,170.667 375.467,182.153 375.467,196.267 C375.467,200.977 379.281,204.8 384,204.8 C388.719,204.8 392.533,200.977 392.533,196.267 C392.533,191.565 396.356,187.734 401.066,187.734 C405.776,187.734 409.599,191.565 409.599,196.242 C409.394,198.887 402.738,206.004 395.946,210.774 L378.879,223.574 C375.944,225.784 374.74,229.616 375.909,233.097 C377.061,236.587 380.321,238.934 383.999,238.934 L418.132,238.934 C422.851,238.934 426.665,235.111 426.665,230.401 C426.665,225.691 422.851,221.868 418.132,221.868 L409.616,221.868 C416.145,216.704 426.667,206.754 426.667,196.267 Z M332.8,204.8 C337.51,204.8 341.333,208.631 341.333,213.333 C341.333,218.043 345.147,221.866 349.866,221.866 C354.585,221.866 358.399,218.043 358.399,213.333 C358.399,199.219 346.913,187.733 332.799,187.733 C318.685,187.733 307.199,199.219 307.199,213.333 L307.199,247.466 C307.199,261.58 318.685,273.066 332.799,273.066 C346.913,273.066 358.399,261.58 358.399,247.466 C358.399,242.756 354.585,238.933 349.866,238.933 C345.147,238.933 341.333,242.756 341.333,247.466 C341.333,252.168 337.51,255.999 332.8,255.999 C328.09,255.999 324.267,252.168 324.267,247.466 L324.267,213.333 C324.267,208.631 328.09,204.8 332.8,204.8 Z M281.6,273.067 C286.319,273.067 290.133,269.244 290.133,264.534 L290.133,196.267 C290.133,192.589 287.786,189.338 284.296,188.169 C280.806,187.017 276.983,188.22 274.773,191.147 L256,216.183 L237.227,191.146 C235.025,188.211 231.202,187.007 227.704,188.168 C224.214,189.337 221.867,192.588 221.867,196.266 L221.867,264.533 C221.867,269.243 225.681,273.066 230.4,273.066 C235.119,273.066 238.933,269.243 238.933,264.533 L238.933,221.866 L249.173,235.519 C252.39,239.82 259.609,239.82 262.826,235.519 L273.066,221.866 L273.066,264.533 C273.067,269.244 276.881,273.067 281.6,273.067 Z M162.133,221.867 L196.266,221.867 C200.985,221.867 204.799,218.044 204.799,213.334 C204.799,208.624 200.985,204.801 196.266,204.801 L162.133,204.801 C157.414,204.801 153.6,208.624 153.6,213.334 C153.6,218.044 157.414,221.867 162.133,221.867 Z" id="Combined-Shape"></path>
            </g>
        </g>
    </g>
</svg>