<?xml version="1.0" encoding="UTF-8"?>
<svg width="513px" height="512px" viewBox="0 0 513 512" version="1.1" xmlns="http://www.w3.org/2000/svg" xmlns:xlink="http://www.w3.org/1999/xlink">
    <!-- Generator: Sketch 41.2 (35397) - http://www.bohemiancoding.com/sketch -->
    <title>books</title>
    <desc>Created with Sketch.</desc>
    <defs>
        <linearGradient x1="50%" y1="0%" x2="50%" y2="100%" id="linearGradient-1">
            <stop stop-color="#5EDAAF" offset="0%"></stop>
            <stop stop-color="#2072B3" offset="100%"></stop>
        </linearGradient>
    </defs>
    <g id="Page-1" stroke="none" stroke-width="1" fill="none" fill-rule="evenodd">
        <g id="books" fill="url(#linearGradient-1)">
            <g id="Layer_1">
                <g id="Group">
                    <path d="M256.001,221.868 C266.762,221.868 276.131,217.823 281.601,214.819 C287.071,217.823 296.44,221.868 307.201,221.868 C323.09,221.868 340.848,212.84 348.434,201.004 C349.185,199.869 366.934,172.742 366.934,128.001 C366.934,95.062 340.139,68.268 307.201,68.268 C297.55,68.268 288.752,71.809 281.601,75.573 C274.45,71.81 265.652,68.268 256.001,68.268 C223.062,68.268 196.268,95.063 196.268,128.001 C196.268,178.561 211.995,198.205 215.417,201.866 C223.13,211.577 238.968,221.868 256.001,221.868 Z M256.001,85.335 C263.613,85.335 271.395,89.277 277.326,92.716 C279.971,94.252 283.231,94.252 285.876,92.716 C291.807,89.277 299.589,85.335 307.201,85.335 C330.727,85.335 349.868,104.475 349.868,128.002 C349.868,167.272 334.38,191.319 334.15,191.661 C330.165,197.873 318.124,204.802 307.202,204.802 C296.203,204.802 286.756,198.001 286.696,197.958 C285.186,196.832 283.394,196.268 281.602,196.268 C279.81,196.268 278.018,196.831 276.508,197.958 C276.414,198.026 267.002,204.802 256.002,204.802 C245.131,204.802 233.781,197.711 228.619,191.046 C228.448,190.824 228.158,190.5 227.962,190.295 C227.817,190.141 213.336,174.269 213.336,128.002 C213.334,104.475 232.474,85.335 256.001,85.335 Z M274.288,55.596 C275.884,58.258 278.708,59.735 281.61,59.735 C283.103,59.735 284.622,59.342 285.996,58.515 C290.032,56.092 291.346,50.852 288.914,46.807 L263.314,4.14 C260.89,0.104 255.651,-1.21 251.606,1.222 C247.57,3.645 246.256,8.885 248.688,12.93 L274.288,55.596 Z M300.929,54.367 C301.526,54.563 306.971,56.313 314.173,56.313 L314.182,56.313 C324.388,56.313 333.263,52.831 339.825,46.261 C355.441,30.645 348.239,8.305 347.923,7.357 C347.07,4.814 345.073,2.817 342.53,1.964 C341.924,1.768 336.48,0.018 329.269,0.018 C319.063,0.018 310.197,3.491 303.626,10.062 C288.01,25.687 295.221,48.018 295.528,48.966 C296.38,51.517 298.377,53.514 300.929,54.367 Z M315.691,22.128 C319.036,18.783 323.601,17.085 329.268,17.085 C330.471,17.085 331.606,17.162 332.613,17.281 C333.134,21.88 332.895,29.057 327.758,34.194 C324.413,37.539 319.839,39.246 314.181,39.246 C312.978,39.246 311.843,39.161 310.836,39.05 C310.315,34.442 310.554,27.265 315.691,22.128 Z M486.401,238.935 L76.801,238.935 C62.687,238.935 51.201,250.421 51.201,264.535 L51.201,298.668 C51.201,303.378 55.024,307.201 59.734,307.201 C64.444,307.201 68.267,303.378 68.267,298.668 L68.267,264.535 C68.267,259.833 72.098,256.002 76.8,256.002 L102.4,256.002 L102.4,298.669 C102.4,303.379 106.223,307.202 110.933,307.202 C115.643,307.202 119.466,303.379 119.466,298.669 L119.466,256.002 L341.333,256.002 L341.333,298.669 C341.333,303.379 345.156,307.202 349.866,307.202 C354.576,307.202 358.399,303.379 358.399,298.669 L358.399,256.002 L443.732,256.002 L443.732,298.669 C443.732,303.379 447.555,307.202 452.265,307.202 C456.975,307.202 460.798,303.379 460.798,298.669 L460.798,256.002 L486.398,256.002 C491.1,256.002 494.931,259.833 494.931,264.535 L494.931,324.268 L469.331,324.268 C464.621,324.268 460.798,328.091 460.798,332.801 L460.798,409.601 L452.265,409.601 C447.555,409.601 443.732,413.424 443.732,418.134 C443.732,422.844 447.555,426.667 452.265,426.667 L477.865,426.667 L477.865,486.4 C477.865,491.102 474.034,494.933 469.332,494.933 L204.801,494.933 L204.801,452.266 C204.801,447.556 200.978,443.733 196.268,443.733 C191.558,443.733 187.735,447.556 187.735,452.266 L187.735,494.933 L170.668,494.933 L170.668,452.266 C170.668,447.556 166.845,443.733 162.135,443.733 C157.425,443.733 153.602,447.556 153.602,452.266 L153.602,494.933 L136.535,494.933 L136.535,452.266 C136.535,447.556 132.712,443.733 128.002,443.733 C123.292,443.733 119.469,447.556 119.469,452.266 L119.469,494.933 L42.669,494.933 C37.967,494.933 34.136,491.102 34.136,486.4 L34.136,452.267 C34.136,447.557 30.313,443.734 25.603,443.734 C20.893,443.734 17.07,447.557 17.07,452.267 L17.07,486.4 C17.07,500.514 28.556,512 42.67,512 L469.337,512 C483.451,512 494.937,500.514 494.937,486.4 L494.937,426.667 C494.937,415.582 486.148,409.6 477.87,409.6 L477.87,341.333 L494.937,341.333 C503.214,341.333 512.004,335.351 512.004,324.266 L512.004,264.533 C512.001,250.421 500.515,238.935 486.401,238.935 Z M332.801,426.668 C337.511,426.668 341.334,422.845 341.334,418.135 C341.334,413.425 337.511,409.602 332.801,409.602 L238.934,409.602 L238.934,341.335 L358.401,341.335 L358.401,469.335 C358.401,472.484 360.133,475.377 362.907,476.861 C365.672,478.337 369.051,478.175 371.671,476.434 L392.535,462.525 L413.399,476.434 C414.833,477.39 416.48,477.868 418.135,477.868 C419.517,477.868 420.9,477.535 422.163,476.861 C424.936,475.376 426.669,472.483 426.669,469.335 L426.669,341.335 L435.202,341.335 C439.912,341.335 443.735,337.512 443.735,332.802 C443.735,328.092 439.912,324.269 435.202,324.269 L25.602,324.269 C11.249,324.269 0.002,335.516 0.002,349.869 L0.002,401.069 C0.002,415.183 11.488,426.669 25.602,426.669 L332.801,426.669 L332.801,426.668 Z M375.467,341.335 L409.6,341.335 L409.6,453.386 L397.269,445.168 C394.402,443.257 390.664,443.257 387.797,445.168 L375.466,453.386 L375.466,341.335 L375.467,341.335 Z M102.401,341.335 L221.868,341.335 L221.868,409.602 L102.401,409.602 L102.401,341.335 Z M17.067,401.068 L17.067,349.868 C17.067,345.004 20.736,341.335 25.6,341.335 L85.333,341.335 L85.333,409.602 L25.601,409.602 C20.814,409.602 17.067,405.855 17.067,401.068 Z M179.201,358.401 C174.491,358.401 170.668,362.224 170.668,366.934 L170.668,384.001 C170.668,388.711 174.491,392.534 179.201,392.534 C183.911,392.534 187.734,388.711 187.734,384.001 L187.734,366.934 C187.734,362.224 183.911,358.401 179.201,358.401 Z M145.067,358.401 C140.357,358.401 136.534,362.224 136.534,366.934 L136.534,384.001 C136.534,388.711 140.357,392.534 145.067,392.534 C149.777,392.534 153.6,388.711 153.6,384.001 L153.6,366.934 C153.601,362.224 149.778,358.401 145.067,358.401 Z" id="Combined-Shape"></path>
                </g>
            </g>
        </g>
    </g>
</svg>