<?xml version="1.0" encoding="UTF-8"?>
<svg width="304px" height="126px" viewBox="0 0 304 126" version="1.1" xmlns="http://www.w3.org/2000/svg" xmlns:xlink="http://www.w3.org/1999/xlink">
    <!-- Generator: Sketch 41.2 (35397) - http://www.bohemiancoding.com/sketch -->
    <title>error</title>
    <desc>Created with Sketch.</desc>
    <defs></defs>
    <g id="Page-1" stroke="none" stroke-width="1" fill="none" fill-rule="evenodd">
        <g id="error" fill="#64798A">
            <g id="Group">
                <polygon id="Shape" points="52.12 74.944 52.12 52.657 71.395 52.657 71.395 74.944 85.851 74.944 85.851 93.617 71.395 93.617 71.395 124.337 52.12 124.337 52.12 93.617 0.318 93.617 0.318 75.546 44.892 2.661 66.577 2.661 22.605 74.943"></polygon>
                <path d="M115.367,108.675 C106.934,97.23 103.32,82.171 103.32,62.896 C103.32,43.621 107.536,28.562 115.367,17.117 C123.8,5.672 135.847,0.251 152.713,0.251 C168.977,0.251 181.626,5.672 190.059,17.117 C198.492,28.562 202.106,43.621 202.106,62.896 C202.106,82.171 197.89,97.23 190.059,108.675 C181.626,120.12 169.579,125.541 152.713,125.541 C135.847,125.541 123.198,120.12 115.367,108.675 Z M129.824,30.369 C125.005,38.802 122.596,49.644 122.596,62.896 C122.596,76.148 125.005,87.592 129.824,95.423 C134.643,103.856 141.871,108.072 152.111,108.072 C162.351,108.072 169.579,103.856 174.398,95.423 C179.217,86.99 181.626,76.148 181.626,62.294 C181.626,48.44 179.217,37.598 174.398,29.165 C169.579,20.732 162.351,16.516 152.111,16.516 C141.871,17.72 134.642,21.936 129.824,30.369 Z" id="Shape"></path>
                <polygon id="Shape" points="270.172 74.944 270.172 52.657 289.447 52.657 289.447 74.944 303.903 74.944 303.903 93.617 289.447 93.617 289.447 124.337 270.172 124.337 270.172 93.617 218.37 93.617 218.37 75.546 262.944 2.661 285.231 2.661 241.259 74.943"></polygon>
            </g>
        </g>
    </g>
</svg>