<?xml version="1.0" encoding="UTF-8"?>
<svg width="737px" height="762px" viewBox="0 0 737 762" version="1.1" xmlns="http://www.w3.org/2000/svg" xmlns:xlink="http://www.w3.org/1999/xlink">
    <!-- Generator: Sketch 41.2 (35397) - http://www.bohemiancoding.com/sketch -->
    <title>331</title>
    <desc>Created with Sketch.</desc>
    <defs></defs>
    <g id="Page-1" stroke="none" stroke-width="1" fill="none" fill-rule="evenodd">
        <g id="331">
            <polygon id="Fill-29" fill="#175357" points="544.74 208.933 706.74 208.933 706.74 46.933 544.74 46.933"></polygon>
            <polygon id="Fill-30" fill="#E8F3E6" points="550.74 202.933 700.74 202.933 700.74 52.933 550.74 52.933"></polygon>
            <polygon id="Fill-31" fill="#AFDCDC" points="556.74 196.933 694.74 196.933 694.74 58.933 556.74 58.933"></polygon>
            <path d="M672.406,93.9 L672.326,93.905 C671.738,89.067 667.628,85.316 662.63,85.316 C657.233,85.316 652.855,89.693 652.855,95.092 L652.863,95.253 C652.477,95.158 652.079,95.092 651.664,95.092 C649.109,95.092 647.024,97.013 646.718,99.484 C646.103,99.269 645.44,99.145 644.751,99.145 C641.458,99.145 638.789,101.814 638.789,105.106 C638.789,108.396 641.458,111.065 644.751,111.065 L672.406,111.065 C677.147,111.065 680.989,107.223 680.989,102.482 C680.989,97.742 677.147,93.9 672.406,93.9" id="Fill-32" fill="#FFFFFF"></path>
            <path d="M595.142,117.592 L595.062,117.597 C594.474,112.759 590.363,109.008 585.365,109.008 C579.969,109.008 575.591,113.385 575.591,118.784 L575.599,118.945 C575.212,118.85 574.814,118.784 574.399,118.784 C571.845,118.784 569.76,120.705 569.453,123.176 C568.838,122.96 568.176,122.837 567.486,122.837 C564.193,122.837 561.524,125.506 561.524,128.798 C561.524,132.088 564.193,134.757 567.486,134.757 L595.142,134.757 C599.883,134.757 603.725,130.915 603.725,126.174 C603.725,121.434 599.883,117.592 595.142,117.592" id="Fill-33" fill="#FFFFFF"></path>
            <path d="M630.29,91.573 C630.29,84.546 624.593,78.849 617.563,78.849 C610.537,78.849 604.841,84.546 604.841,91.573 C604.841,98.602 610.537,104.299 617.563,104.299 C624.593,104.299 630.29,98.602 630.29,91.573" id="Fill-34" fill="#EFC22E"></path>
            <path d="M630.29,91.573 C630.29,84.546 624.593,78.849 617.563,78.849 L617.563,104.299 C624.593,104.299 630.29,98.602 630.29,91.573" id="Fill-35" fill="#F3E229"></path>
            <path d="M555.732,197.102 C555.732,197.102 576.579,191.913 587.174,182.45 C601.53,169.627 609.162,159.326 624.655,159.326 C642.201,159.326 666.921,194.583 693.579,197.102 L555.732,197.102" id="Fill-36" fill="#B4D041"></path>
            <path d="M588.393,169.779 C588.393,163.232 583.084,157.922 576.537,157.922 C569.99,157.922 564.679,163.232 564.679,169.779 C564.679,176.327 569.99,181.635 576.537,181.635 C583.084,181.635 588.393,176.327 588.393,169.779" id="Fill-37" fill="#32AA49"></path>
            <polyline id="Fill-38" fill="#523D28" points="575.75 191.993 575.829 179.238 570.132 172.5 575.75 177.152 576.605 171.858 577.675 177.553 583.931 173.034 577.675 179.238 577.594 191.993 575.75 191.993"></polyline>
            <path d="M614.036,163.877 C614.036,159.042 610.116,155.123 605.281,155.123 C600.447,155.123 596.526,159.042 596.526,163.877 C596.526,168.713 600.447,172.632 605.281,172.632 C610.116,172.632 614.036,168.713 614.036,163.877" id="Fill-39" fill="#32AA49"></path>
            <polyline id="Fill-40" fill="#523D28" points="604.7 180.279 604.759 170.86 600.553 165.886 604.7 169.321 605.332 165.413 606.121 169.617 610.743 166.28 606.121 170.86 606.062 180.279 604.7 180.279"></polyline>
            <polygon id="Fill-41" fill="#F1B959" points="616.783 197.049 669.261 197.049 669.261 173.602 616.783 173.602"></polygon>
            <polyline id="Fill-42" fill="#FBFDFD" points="693.827 169.933 681.545 152.866 669.261 169.933 669.261 197.049 693.827 197.049 693.827 169.933"></polyline>
            <polyline id="Fill-43" fill="#996B32" points="681.545 152.866 629.225 152.866 613.752 169.933 669.261 169.933 681.545 152.866"></polyline>
            <polygon id="Fill-44" fill="#E0882E" points="613.752 173.602 669.261 173.602 669.261 169.933 613.752 169.933"></polygon>
            <polygon id="Fill-45" fill="#FBFDFD" points="633.453 159.604 638.478 159.604 638.478 149.915 633.453 149.915"></polygon>
            <polyline id="Fill-46" fill="#E0882E" points="669.261 173.602 681.545 157.332 693.827 173.063 693.827 169.933 681.545 152.866 669.261 169.933 669.261 173.602"></polyline>
            <polygon id="Fill-47" fill="#C18731" points="622.089 188.675 630.225 188.675 630.225 178.148 622.089 178.148"></polygon>
            <polygon id="Fill-48" fill="#C18731" points="633.334 188.675 641.468 188.675 641.468 178.148 633.334 178.148"></polygon>
            <polygon id="Fill-49" fill="#C18731" points="644.578 188.675 652.712 188.675 652.712 178.148 644.578 178.148"></polygon>
            <polygon id="Fill-50" fill="#C18731" points="655.822 188.675 663.957 188.675 663.957 178.148 655.822 178.148"></polygon>
            <polygon id="Fill-51" fill="#C18731" points="677.478 188.675 685.612 188.675 685.612 178.148 677.478 178.148"></polygon>
            <polyline id="Fill-52" fill="#1B1A18" points="571.863 47.261 625.74 7.005 679.618 47.261 680.109 46.604 625.74 5.98 571.371 46.604 571.863 47.261"></polyline>
            <path d="M447.359,77.833 C447.359,47.713 422.941,23.297 392.823,23.297 C362.703,23.297 338.286,47.713 338.286,77.833 C338.286,107.953 362.703,132.369 392.823,132.369 C422.941,132.369 447.359,107.953 447.359,77.833" id="Fill-53" fill="#1B5A5F"></path>
            <path d="M441.22,77.833 C441.22,51.103 419.553,29.436 392.823,29.436 C366.093,29.436 344.425,51.103 344.425,77.833 C344.425,104.563 366.093,126.229 392.823,126.229 C419.553,126.229 441.22,104.563 441.22,77.833" id="Fill-54" fill="#FFFEFE"></path>
            <polygon id="Fill-55" fill="#1B5A5F" points="348.576 78.849 354.106 78.849 354.106 76.816 348.576 76.816"></polygon>
            <polygon id="Fill-56" fill="#1B5A5F" points="431.146 78.849 436.677 78.849 436.677 76.816 431.146 76.816"></polygon>
            <polygon id="Fill-57" fill="#1B5A5F" points="391.608 39.313 393.643 39.313 393.643 33.782 391.608 33.782"></polygon>
            <polygon id="Fill-58" fill="#1B5A5F" points="391.608 121.883 393.643 121.883 393.643 116.352 391.608 116.352"></polygon>
            <path d="M392.823,77.833 L358.055,77.833" id="Fill-59" fill="#FFFFFF"></path>
            <polygon id="Fill-60" fill="#D8262C" points="358.055 78.228 392.823 78.228 392.823 77.438 358.055 77.438"></polygon>
            <path d="M392.823,83.21 L392.823,41.464" id="Fill-61" fill="#FFFFFF"></path>
            <polygon id="Fill-62" fill="#1B1A18" points="392.4 83.21 393.246 83.21 393.246 41.464 392.4 41.464"></polygon>
            <path d="M394.913,80.017 L376.74,60.937" id="Fill-63" fill="#FFFFFF"></path>
            <polyline id="Fill-64" fill="#1B1A18" points="395.22 79.725 377.047 60.645 376.434 61.229 394.607 80.309"></polyline>
            <polygon id="Fill-65" fill="#FFFFFC" points="526.309 328.901 736.229 328.901 736.229 316.249 526.309 316.249"></polygon>
            <path d="M716.605,314.801 L716.605,300.494 L650.628,300.494 C646.676,300.494 643.474,303.696 643.474,307.647 L643.474,310.359 C644.037,313.749 647.078,316.249 650.628,316.249 L716.605,316.249 L716.605,301.941" id="Fill-66" fill="#8D6355"></path>
            <path d="M716.605,301.941 L651.415,301.941 C647.748,301.941 644.775,304.914 644.775,308.58 C644.775,312.248 647.748,315.22 651.415,315.22 L716.605,315.22 L716.605,301.941" id="Fill-67" fill="#FEF9C1"></path>
            <polygon id="Fill-68" fill="#5C4633" points="653.277 300.481 708.104 300.481 708.104 245.655 653.277 245.655"></polygon>
            <polygon id="Fill-69" fill="#FFFEFD" points="657.339 296.42 704.041 296.42 704.041 249.716 657.339 249.716"></polygon>
            <path d="M671.362,266.583 C672.491,268.146 675.415,267.812 677.942,265.833 C678.583,265.33 679.146,264.755 679.595,264.171 L679.771,264.202 C680.018,264.246 680.243,264.333 680.499,264.412 C680.722,264.52 680.972,264.609 681.191,264.748 C681.413,264.863 681.62,265.023 681.823,265.162 C682.005,265.322 682.208,265.475 682.362,265.65 C682.522,265.81 682.675,265.986 682.792,266.152 C682.923,266.311 683.017,266.479 683.111,266.625 C683.204,266.771 683.286,266.902 683.329,267.018 C683.44,267.245 683.504,267.375 683.504,267.375 C683.504,267.375 683.483,267.236 683.44,266.982 C683.425,266.851 683.388,266.705 683.346,266.531 C683.301,266.355 683.25,266.152 683.162,265.948 C683.091,265.738 682.987,265.518 682.873,265.286 C682.761,265.052 682.601,264.827 682.45,264.58 C682.267,264.353 682.101,264.106 681.88,263.888 C681.677,263.655 681.431,263.458 681.191,263.247 C680.966,263.087 680.722,262.912 680.47,262.775 C680.579,262.549 680.667,262.316 680.737,262.097 C681.642,262.504 682.565,263.022 683.301,263.757 C686.002,266.457 684.938,269.596 687.021,267.522 C687.347,267.192 687.618,266.851 687.829,266.508 L688.032,266.516 C688.317,266.588 688.498,266.807 688.601,266.982 C688.886,267.456 688.95,268.139 688.776,268.824 C688.515,269.842 687.845,270.448 687.305,270.513 L686.868,270.572 L686.752,271 C685.717,274.75 682.929,278.739 679.778,278.739 C676.626,278.739 673.845,274.75 672.802,271 L672.687,270.572 L672.249,270.513 C671.718,270.44 671.041,269.835 670.778,268.824 C670.604,268.139 670.671,267.456 670.954,266.982 C671.019,266.851 671.165,266.683 671.362,266.583 Z M673.08,280.202 C674.63,280.434 676.524,280.08 678.589,279.956 C678.978,280.042 679.362,280.1 679.764,280.1 C680.171,280.1 680.571,280.042 680.972,279.948 C686.351,280.21 690.544,281.732 690.544,270.781 C690.544,263.348 685.717,257.314 679.764,257.314 C673.808,257.314 668.981,263.348 668.981,270.781 C668.981,276.759 670.124,279.082 671.979,279.89 C672.323,280.05 672.693,280.145 673.08,280.202 L673.08,280.202 Z" id="Fill-70" fill="#A0C6C1"></path>
            <path d="M687.865,281.185 C687.021,282.626 686.038,283.841 684.743,284.512 C682.063,285.88 680.068,287.002 680.068,287.002 L680.062,286.995 L680.062,286.974 L680.039,286.986 L680.018,286.974 L680.018,286.995 L680.011,287.002 C680.011,287.002 678.022,285.895 675.337,284.512 C674.041,283.841 673.063,282.626 672.215,281.185 C668.246,282.801 665.479,286.5 665.479,289.74 L665.479,296.452 L694.6,296.452 L694.6,289.74 C694.6,286.506 691.827,282.801 687.865,281.185" id="Fill-71" fill="#A0C6C1"></path>
            <path d="M544.716,301.842 C537.589,281.385 542.075,266.36 542.27,265.73 L544.467,266.408 C544.421,266.556 540.024,281.384 546.888,301.085 L544.716,301.842" id="Fill-72" fill="#FFFFFF"></path>
            <path d="M554.867,306.177 C555.445,307.929 554.494,309.82 552.741,310.399 L550.38,311.178 C548.627,311.758 546.735,310.806 546.158,309.053 L543.051,299.645 C542.474,297.892 543.424,296.001 545.177,295.423 L547.539,294.644 C549.292,294.064 551.182,295.016 551.761,296.769 L554.867,306.177" id="Fill-73" fill="#3D3938"></path>
            <path d="M565.359,306.167 C566.321,309.081 564.74,312.222 561.825,313.185 L557.9,314.482 C554.986,315.443 551.845,313.861 550.881,310.948 L545.718,295.31 C544.756,292.396 546.338,289.253 549.252,288.292 L553.177,286.996 C556.09,286.033 559.232,287.615 560.195,290.529 L565.359,306.167" id="Fill-74" fill="#61A1BE"></path>
            <path d="M568.569,310.087 C569.257,312.168 568.126,314.413 566.045,315.1 L565.166,315.39 C563.086,316.078 560.84,314.947 560.153,312.866 L552.024,288.248 C551.337,286.166 552.466,283.922 554.547,283.234 L555.426,282.943 C557.507,282.257 559.75,283.387 560.438,285.468 L568.569,310.087" id="Fill-75" fill="#FFFFFF"></path>
            <path d="M607.449,302.056 L605.286,301.285 C612.299,281.582 607.987,266.773 607.942,266.626 L610.145,265.962 C610.334,266.593 614.718,281.648 607.449,302.056" id="Fill-76" fill="#FFFFFF"></path>
            <path d="M597.271,306.321 C596.68,308.071 597.618,309.968 599.368,310.558 L601.723,311.354 C603.475,311.945 605.369,311.006 605.961,309.257 L609.131,299.871 C609.722,298.121 608.784,296.225 607.034,295.634 L604.679,294.839 C602.93,294.248 601.032,295.187 600.441,296.935 L597.271,306.321" id="Fill-77" fill="#3D3938"></path>
            <path d="M586.778,306.241 C585.796,309.147 587.356,312.3 590.264,313.282 L594.182,314.605 C597.089,315.587 600.241,314.026 601.224,311.119 L606.493,295.517 C607.477,292.61 605.915,289.457 603.009,288.476 L599.092,287.152 C596.185,286.17 593.032,287.731 592.051,290.638 L586.778,306.241" id="Fill-78" fill="#61A1BE"></path>
            <path d="M583.542,310.138 C582.842,312.215 583.955,314.466 586.032,315.167 L586.908,315.464 C588.986,316.165 591.237,315.052 591.939,312.975 L600.237,288.412 C600.938,286.335 599.823,284.083 597.747,283.382 L596.87,283.085 C594.794,282.384 592.542,283.499 591.841,285.576 L583.542,310.138" id="Fill-79" fill="#FFFFFF"></path>
            <path d="M544.759,267.704 C544.281,267.702 543.796,267.601 543.333,267.389 C541.603,266.593 540.844,264.546 541.639,262.816 C546.402,252.439 558.105,241.374 576.669,241.437 C591.136,241.486 603.785,248.8 611.375,261.502 C612.352,263.137 611.818,265.256 610.184,266.232 C608.548,267.208 606.43,266.676 605.453,265.041 C602.464,260.038 593.673,248.394 576.646,248.335 C561.354,248.283 551.774,257.268 547.906,265.693 C547.323,266.962 546.07,267.709 544.759,267.704" id="Fill-80" fill="#FFFFFF"></path>
            <path d="M543.333,267.389 C543.796,267.601 544.281,267.702 544.759,267.704 C546.07,267.709 547.323,266.962 547.906,265.693 C551.774,257.268 561.354,248.283 576.646,248.335 C593.673,248.394 602.464,260.038 605.453,265.041 C606.43,266.676 608.548,267.208 610.184,266.232 C610.534,266.023 610.823,265.753 611.068,265.455 C610.987,265.186 610.885,264.922 610.735,264.669 C603.146,251.967 590.496,244.654 576.029,244.604 C557.998,244.543 546.441,254.98 541.428,265.087 C541.673,266.068 542.344,266.934 543.333,267.389" id="Fill-81" fill="#F4F4F2"></path>
            <polygon id="Fill-82" fill="#FFFFFC" points="0.824 464.564 283.557 464.564 283.557 0.785 0.824 0.785"></polygon>
            <polygon id="Fill-83" fill="#AFDCDC" points="14.825 452.731 269.555 452.731 269.555 12.617 14.825 12.617"></polygon>
            <path d="M117.099,112.789 L116.874,112.8 C115.204,99.052 103.514,88.393 89.315,88.393 C73.97,88.393 61.531,100.832 61.531,116.177 C61.531,116.332 61.553,116.481 61.555,116.634 C60.457,116.364 59.327,116.177 58.144,116.177 C50.882,116.177 44.958,121.636 44.088,128.663 C42.335,128.049 40.456,127.697 38.491,127.697 C29.134,127.697 21.55,135.282 21.55,144.638 C21.55,153.994 29.134,161.58 38.491,161.58 L117.099,161.58 C130.573,161.58 141.494,150.657 141.494,137.184 C141.494,123.71 130.573,112.789 117.099,112.789" id="Fill-84" fill="#FFFFFF"></path>
            <path d="M218.96,46.735 L218.735,46.747 C217.065,32.998 205.375,22.339 191.177,22.339 C175.832,22.339 163.392,34.778 163.392,50.123 C163.392,50.278 163.414,50.428 163.417,50.581 C162.318,50.31 161.188,50.123 160.005,50.123 C152.744,50.123 146.82,55.582 145.949,62.609 C144.196,61.995 142.317,61.643 140.353,61.643 C130.996,61.643 123.412,69.228 123.412,78.585 C123.412,87.94 130.996,95.526 140.353,95.526 L218.96,95.526 C232.434,95.526 243.356,84.604 243.356,71.13 C243.356,57.657 232.434,46.735 218.96,46.735" id="Fill-85" fill="#FFFFFF"></path>
            <path d="M233.011,196.735 L232.784,196.747 C231.115,182.998 219.425,172.339 205.227,172.339 C189.882,172.339 177.441,184.778 177.441,200.123 C177.441,200.278 177.464,200.427 177.466,200.581 C176.367,200.31 175.237,200.123 174.054,200.123 C166.792,200.123 160.869,205.582 159.999,212.608 C158.246,211.995 156.366,211.643 154.403,211.643 C145.045,211.643 137.462,219.229 137.462,228.584 C137.462,237.94 145.045,245.525 154.403,245.525 L233.011,245.525 C246.484,245.525 257.405,234.604 257.405,221.13 C257.405,207.656 246.484,196.735 233.011,196.735" id="Fill-86" fill="#FFFFFF"></path>
            <polyline id="Fill-87" fill="#81AEBC" points="14.825 452.731 98.99 262.879 188.107 452.731 14.825 452.731"></polyline>
            <polyline id="Fill-88" fill="#77A0B0" points="188.107 452.731 98.99 262.879 98.99 452.731 188.107 452.731"></polyline>
            <polyline id="Fill-89" fill="#FFFFFF" points="73.396 320.612 84.554 314.723 82.256 337.079 93.791 319.907 98.99 350.36 108.513 314.074 130.399 329.791 98.99 262.879 73.396 320.612"></polyline>
            <polyline id="Fill-90" fill="#81AEBC" points="107.572 452.731 181.217 339.069 259.195 452.731 107.572 452.731"></polyline>
            <polyline id="Fill-91" fill="#77A0B0" points="259.195 452.731 181.217 339.069 181.217 452.731 259.195 452.731"></polyline>
            <polyline id="Fill-92" fill="#FFFFFF" points="158.822 373.633 168.586 370.107 166.574 383.492 176.668 373.211 181.217 391.442 189.549 369.719 208.701 379.129 181.217 339.069 158.822 373.633"></polyline>
            <path d="M256.667,380.387 C256.667,359.148 239.446,341.928 218.208,341.928 C196.966,341.928 179.745,359.148 179.745,380.387 C179.745,401.627 196.966,418.844 218.208,418.844 C239.446,418.844 256.667,401.627 256.667,380.387" id="Fill-93" fill="#32AA49"></path>
            <polyline id="Fill-94" fill="#523D28" points="215.649 452.442 215.911 411.067 197.433 389.211 215.649 404.302 218.426 387.13 221.896 405.603 242.191 390.944 221.896 411.067 221.634 452.442 215.649 452.442"></polyline>
            <polygon id="Fill-95" fill="#FFFFFC" points="10.536 239.178 276.89 239.178 276.89 226.17 10.536 226.17"></polygon>
            <polyline id="Fill-96" fill="#C6E6E4" points="70.053 328.152 49.792 239.172 109.155 239.178 129.212 327.262 98.99 262.879 70.053 328.152"></polyline>
            <polyline id="Fill-97" fill="#A6C6CC" points="98.99 452.03 98.262 452.03 70.053 328.152 98.99 262.879 73.396 320.612 84.554 314.723 82.256 337.079 93.791 319.907 98.99 350.36 98.99 452.03"></polyline>
            <polyline id="Fill-98" fill="#A0BCC3" points="108.026 452.03 98.99 452.03 98.99 350.36 108.513 314.074 129.669 329.267 144.725 395.39 108.026 452.03"></polyline>
            <polyline id="Fill-99" fill="#FFFFFF" points="98.99 350.36 98.99 350.36 93.791 319.907 82.256 337.079 84.554 314.723 73.396 320.612 98.99 262.879 129.212 327.262 129.669 329.267 108.513 314.074 98.99 350.36"></polyline>
            <polyline id="Fill-100" fill="#A6C6CC" points="157.623 452.03 108.026 452.03 144.725 395.39 157.623 452.03"></polyline>
            <polyline id="Fill-101" fill="#FFFFFC" points="109.155 239.178 49.793 239.178 49.792 239.172 109.153 239.172"></polyline>
            <path d="M245.421,432.653 L233.714,415.59 C236.166,414.508 238.483,413.179 240.634,411.632 L245.421,432.653" id="Fill-102" fill="#C6E6E4"></path>
            <path d="M249.833,452.03 L221.636,452.03 L221.848,418.674 C226.034,418.281 230.026,417.216 233.714,415.59 L245.421,432.653 L249.833,452.03" id="Fill-103" fill="#A0BCC3"></path>
            <path d="M169.031,357.876 L142.287,240.426 C145.363,243.572 149.654,245.525 154.403,245.525 L202.81,245.525 L224.894,342.507 C222.723,342.127 220.488,341.928 218.208,341.928 C207.556,341.928 197.915,346.259 190.949,353.255 L181.217,339.069 L169.031,357.876" id="Fill-104" fill="#C6E6E4"></path>
            <path d="M202.81,245.525 L154.403,245.525 C149.654,245.525 145.363,243.572 142.287,240.426 L142.001,239.172 L201.365,239.178 L202.81,245.525" id="Fill-105" fill="#FFFFFF"></path>
            <polyline id="Fill-106" fill="#A6C6CC" points="181.217 411.391 173.304 376.638 176.668 373.211 181.217 391.442 181.217 411.391"></polyline>
            <path d="M215.652,452.03 L190.471,452.03 L181.217,411.391 L181.217,391.442 L181.297,391.235 C185.769,406.473 199.425,417.784 215.862,418.773 L215.652,452.03" id="Fill-107" fill="#A0BCC3"></path>
            <path d="M181.217,391.442 L181.217,391.442 L176.668,373.211 L173.304,376.638 L169.031,357.876 L181.217,339.069 L190.949,353.255 C184.025,360.21 179.745,369.799 179.745,380.387 C179.745,384.154 180.287,387.795 181.297,391.235 L181.217,391.442" id="Fill-108" fill="#FFFFFF"></path>
            <path d="M215.862,418.773 C199.425,417.784 185.769,406.473 181.297,391.235 C180.287,387.795 179.745,384.154 179.745,380.387 C179.745,369.799 184.025,360.21 190.949,353.255 C197.915,346.259 207.556,341.928 218.208,341.928 C220.488,341.928 222.723,342.127 224.894,342.507 L236.808,394.832 L221.896,405.603 L218.426,387.13 L215.649,404.302 L197.433,389.211 L215.911,411.067 L215.862,418.773 M221.848,418.674 L221.896,411.067 L237.078,396.014 L240.634,411.632 C238.483,413.179 236.166,414.508 233.714,415.59 C230.026,417.216 226.034,418.281 221.848,418.674" id="Fill-109" fill="#69BA78"></path>
            <polyline id="Fill-110" fill="#867560" points="221.636 452.03 215.652 452.03 215.911 411.067 197.433 389.211 215.649 404.302 218.426 387.13 221.896 405.603 236.808 394.832 237.078 396.014 221.896 411.067 221.636 452.03"></polyline>
            <polyline id="Fill-111" fill="#FFFFFC" points="201.365 239.178 142.003 239.178 142.001 239.172 201.364 239.172"></polyline>
            <polyline id="Fill-112" fill="#FFFFFC" points="93.761 12.617 34.399 12.617 34.275 12.073 93.637 12.073 93.761 12.617"></polyline>
            <path d="M137.856,224.931 L82.745,224.931 L68.319,161.58 L117.099,161.58 C120.696,161.58 124.111,160.801 127.185,159.404 L140.676,218.653 C139.337,220.5 138.363,222.627 137.856,224.931 M61.555,116.634 C60.457,116.364 59.327,116.177 58.144,116.177 C58.089,116.177 58.035,116.177 57.981,116.178 L34.399,12.617 L93.761,12.617 L114.863,105.291 C110.632,95.358 100.794,88.393 89.315,88.393 C73.97,88.393 61.531,100.832 61.531,116.177 C61.531,116.332 61.553,116.481 61.555,116.634" id="Fill-113" fill="#C6E6E4"></path>
            <path d="M117.099,161.58 L68.319,161.58 L57.981,116.178 C58.035,116.177 58.089,116.177 58.144,116.177 C59.327,116.177 60.457,116.364 61.555,116.634 C61.553,116.481 61.531,116.332 61.531,116.177 C61.531,100.832 73.97,88.393 89.315,88.393 C100.794,88.393 110.632,95.358 114.863,105.291 L127.185,159.404 C124.111,160.801 120.696,161.58 117.099,161.58" id="Fill-114" fill="#FFFFFF"></path>
            <path d="M142.106,224.931 L137.856,224.931 C138.363,222.627 139.337,220.5 140.676,218.653 L142.106,224.931" id="Fill-115" fill="#FFFFFF"></path>
            <polyline id="Fill-116" fill="#FFFFFC" points="201.488 12.617 142.125 12.617 142.001 12.073 201.364 12.073 201.488 12.617"></polyline>
            <path d="M244.007,199.348 C240.703,197.676 236.967,196.735 233.011,196.735 L232.784,196.747 C231.115,182.998 219.425,172.339 205.227,172.339 C195.195,172.339 186.405,177.655 181.52,185.623 L161.004,95.526 L218.96,95.526 C219.429,95.526 219.895,95.513 220.358,95.487 L244.007,199.348 M151.342,53.094 L142.125,12.617 L201.488,12.617 L204.473,25.727 C200.525,23.567 195.996,22.339 191.177,22.339 C175.832,22.339 163.392,34.778 163.392,50.123 C163.392,50.278 163.414,50.428 163.417,50.581 C162.318,50.31 161.188,50.123 160.005,50.123 C156.732,50.123 153.731,51.232 151.342,53.094" id="Fill-117" fill="#C6E6E4"></path>
            <path d="M218.96,95.526 L161.004,95.526 L151.342,53.094 C153.731,51.232 156.732,50.123 160.005,50.123 C161.188,50.123 162.318,50.31 163.417,50.581 C163.414,50.428 163.392,50.278 163.392,50.123 C163.392,34.778 175.832,22.339 191.177,22.339 C195.996,22.339 200.525,23.567 204.473,25.727 L220.358,95.487 C219.895,95.513 219.429,95.526 218.96,95.526" id="Fill-118" fill="#FFFFFF"></path>
            <path d="M249.833,224.931 L190.471,224.931 L181.52,185.623 C186.405,177.655 195.195,172.339 205.227,172.339 C219.425,172.339 231.115,182.998 232.784,196.747 L233.011,196.735 C236.967,196.735 240.703,197.676 244.007,199.348 L249.833,224.931" id="Fill-119" fill="#FFFFFF"></path>
            <polyline id="Fill-120" fill="#695844" points="72.15 762 53.07 762 97.182 563.713 116.263 563.713 72.15 762"></polyline>
            <polyline id="Fill-121" fill="#554738" points="107.182 563.713 63.07 762 72.15 762 116.263 563.713 107.182 563.713"></polyline>
            <polyline id="Fill-122" fill="#695844" points="524.489 762 543.57 762 499.457 563.713 480.377 563.713 524.489 762"></polyline>
            <polyline id="Fill-123" fill="#554738" points="489.457 563.713 533.57 762 524.489 762 480.377 563.713 489.457 563.713"></polyline>
            <path d="M671.287,548.713 C671.287,556.997 664.571,563.713 656.287,563.713 L57.059,563.713 C48.775,563.713 42.059,556.997 42.059,548.713 C42.059,540.429 48.775,533.713 57.059,533.713 L656.287,533.713 C664.571,533.713 671.287,540.429 671.287,548.713" id="Fill-124" fill="#A5846A"></path>
            <path d="M57.059,563.713 L656.287,563.713 C664.571,563.713 671.287,556.997 671.287,548.713 L42.059,548.713 C42.059,556.997 48.775,563.713 57.059,563.713" id="Fill-125" fill="#695844"></path>
            <path d="M351.757,498.471 C349.306,508.485 346.852,518.502 344.407,528.522 L413.003,528.522 C410.55,518.502 408.1,508.485 405.652,498.471 L351.757,498.471" id="Fill-126" fill="#8A8B87"></path>
            <path d="M378.304,528.522 L413.003,528.522 C410.55,518.502 408.1,508.485 405.652,498.471 L378.304,498.471 L378.304,528.522" id="Fill-127" fill="#8E9391"></path>
            <path d="M417.236,527.993 L340.167,527.993 C338.211,527.993 336.626,529.85 336.626,532.15 L336.626,533.713 L420.778,533.713 L420.778,532.15 C420.778,529.85 419.192,527.993 417.236,527.993" id="Fill-128" fill="#FFFFFF"></path>
            <path d="M262.812,486.779 L262.812,503.341 C262.812,506.528 265.387,509.108 268.581,509.108 L488.822,509.108 C492.005,509.108 494.592,506.528 494.592,503.341 L494.592,486.779 L262.812,486.779" id="Fill-129" fill="#FFFFFF"></path>
            <path d="M494.592,486.779 L494.592,346.569 C494.592,343.384 492.005,340.8 488.822,340.8 L268.581,340.8 C265.387,340.8 262.812,343.384 262.812,346.569 L262.812,486.779 L494.592,486.779" id="Fill-130" fill="#152830"></path>
            <polygon id="Fill-131" fill="#FFFFFF" points="272.302 477.208 485.103 477.208 485.103 349.817 272.302 349.817"></polygon>
            <polygon id="Fill-132" fill="#A6D7DE" points="293.779 375.725 335.134 375.725 335.134 372.373 293.779 372.373"></polygon>
            <polygon id="Fill-133" fill="#A6D7DE" points="433.598 375.725 459.876 375.725 459.876 372.373 433.598 372.373"></polygon>
            <polygon id="Fill-134" fill="#A6D7DE" points="400.44 375.725 426.717 375.725 426.717 372.373 400.44 372.373"></polygon>
            <polygon id="Fill-135" fill="#A6D7DE" points="367.279 375.725 393.56 375.725 393.56 372.373 367.279 372.373"></polygon>
            <polygon id="Fill-136" fill="#A6D7DE" points="293.779 462.53 368.559 462.53 368.559 388.456 293.779 388.456"></polygon>
            <path d="M294.784,461.629 L367.559,461.629 L367.559,389.363 L294.784,389.363 L294.784,461.629 Z M292.773,463.435 L369.565,463.435 L369.565,387.555 L292.773,387.555 L292.773,463.435 Z" id="Fill-137" fill="#A6D7DE"></path>
            <path d="M296.052,461.629 L367.559,461.629 L367.559,390.799 L296.052,461.629 Z M368.559,463.435 L293.779,463.435 C293.382,463.435 293.024,463.222 292.863,462.897 C292.694,462.568 292.767,462.186 293.036,461.922 L367.814,387.85 C368.094,387.576 368.531,387.479 368.923,387.615 C369.312,387.749 369.565,388.086 369.565,388.456 L369.565,462.53 C369.565,463.03 369.111,463.435 368.559,463.435 L368.559,463.435 Z" id="Fill-138" fill="#A6D7DE"></path>
            <path d="M294.784,461.629 L366.29,461.629 L294.784,390.799 L294.784,461.629 Z M368.559,463.435 L293.779,463.435 C293.225,463.435 292.773,463.03 292.773,462.53 L292.773,388.456 C292.773,388.086 293.03,387.749 293.416,387.615 C293.811,387.479 294.243,387.576 294.521,387.85 L369.308,461.922 C369.569,462.186 369.643,462.568 369.48,462.897 C369.318,463.222 368.96,463.435 368.559,463.435 L368.559,463.435 Z" id="Fill-139" fill="#A6D7DE"></path>
            <polygon id="Fill-140" fill="#E15B2E" points="379.511 395.315 423.883 395.315 423.883 389.867 379.511 389.867"></polygon>
            <polygon id="Fill-141" fill="#A6D7DE" points="379.511 407.076 459.71 407.076 459.71 403.721 379.511 403.721"></polygon>
            <polygon id="Fill-142" fill="#A6D7DE" points="379.511 417.373 447.667 417.373 447.667 414.016 379.511 414.016"></polygon>
            <polygon id="Fill-143" fill="#A6D7DE" points="379.511 427.666 455.04 427.666 455.04 424.313 379.511 424.313"></polygon>
            <polygon id="Fill-144" fill="#A6D7DE" points="379.511 437.964 438.289 437.964 438.289 434.607 379.511 434.607"></polygon>
            <polygon id="Fill-145" fill="#E15B2E" points="379.511 457.463 405.469 457.463 405.469 447.663 379.511 447.663"></polygon>
            <polygon id="Fill-146" fill="#FFFFFF" points="383.868 454.235 401.116 454.235 401.116 450.883 383.868 450.883"></polygon>
            <path d="M468.434,351.041 L288.975,351.041 C285.981,351.041 283.557,353.222 283.557,355.917 L283.557,365.162 L473.853,365.162 L473.853,355.917 C473.853,353.222 471.428,351.041 468.434,351.041" id="Fill-147" fill="#A6D7DE"></path>
            <path d="M294.645,358.252 C294.645,359.757 293.287,360.972 291.623,360.972 C289.946,360.972 288.594,359.757 288.594,358.252 C288.594,356.75 289.946,355.531 291.623,355.531 C293.287,355.531 294.645,356.75 294.645,358.252" id="Fill-148" fill="#FFFFFF"></path>
            <path d="M303.118,358.252 C303.118,359.757 301.754,360.972 300.09,360.972 C298.415,360.972 297.063,359.757 297.063,358.252 C297.063,356.75 298.415,355.531 300.09,355.531 C301.754,355.531 303.118,356.75 303.118,358.252" id="Fill-149" fill="#FFFFFF"></path>
            <path d="M311.58,358.252 C311.58,359.757 310.217,360.972 308.552,360.972 C306.888,360.972 305.524,359.757 305.524,358.252 C305.524,356.75 306.888,355.531 308.552,355.531 C310.217,355.531 311.58,356.75 311.58,358.252" id="Fill-150" fill="#FFFFFF"></path>
            <polygon id="Fill-151" fill="#FFFFFF" points="320.047 360.702 465.948 360.702 465.948 355.803 320.047 355.803"></polygon>
            <polygon id="Fill-152" fill="#152830" points="110.926 524.717 124.098 524.717 124.098 510.529 110.926 510.529"></polygon>
            <path d="M162.386,481.731 C161.038,483.433 159.58,485.084 158.003,486.658 C135.643,509.025 99.383,509.025 77.02,486.655 C54.652,464.297 54.652,428.035 77.02,405.677 C78.592,404.094 80.249,402.646 81.952,401.287 L76.179,395.515 C74.496,396.894 72.854,398.366 71.283,399.944 C45.755,425.47 45.755,466.861 71.286,492.393 C96.816,517.922 138.203,517.922 163.737,492.393 C165.31,490.821 166.783,489.188 168.165,487.503 L162.386,481.731" id="Fill-153" fill="#2C4F61"></path>
            <polyline id="Fill-154" fill="#152830" points="84.387 411.151 88.327 407.215 73.101 391.981 69.162 395.928 84.387 411.151"></polyline>
            <path d="M65.629,393.775 C65.629,390.98 67.902,388.71 70.7,388.71 C73.497,388.71 75.764,390.98 75.764,393.775 C75.764,396.575 73.497,398.843 70.7,398.843 C67.902,398.843 65.629,396.575 65.629,393.775" id="Fill-155" fill="#152830"></path>
            <path d="M149.964,533.713 C149.765,528.713 145.662,524.717 140.613,524.717 L95.046,524.717 C89.994,524.717 85.888,528.713 85.695,533.713 L149.964,533.713" id="Fill-156" fill="#2C4F61"></path>
            <polyline id="Fill-157" fill="#152830" points="156.277 475.414 152.332 479.351 167.56 494.585 171.502 490.642 156.277 475.414"></polyline>
            <path d="M175.035,492.791 C175.035,495.587 172.764,497.857 169.964,497.857 C167.163,497.857 164.9,495.587 164.9,492.791 C164.9,489.99 167.163,487.718 169.964,487.718 C172.764,487.718 175.035,489.99 175.035,492.791" id="Fill-158" fill="#152830"></path>
            <path d="M83.095,411.382 C63.946,430.537 63.946,461.704 83.092,480.855 C102.248,500.01 133.406,499.996 152.559,480.849 C171.71,461.699 171.717,430.541 152.559,411.385 C133.41,392.235 102.248,392.235 83.095,411.382" id="Fill-159" fill="#296AA6"></path>
            <path d="M161.655,424.436 C161.7,424.536 161.705,424.683 161.658,424.758 L161.875,425.163 C161.928,425.226 162.686,426.842 163.444,428.743 C164.196,430.635 165.535,435.933 165.48,436.127 C165.419,436.322 165.261,437.159 165.027,437.563 C164.794,437.951 164.221,439.018 164.04,439.031 C163.86,439.047 163.095,438.954 162.713,438.376 C162.713,438.376 162.713,438.376 162.03,437.818 L161.684,437.538 C161.309,437.512 160.685,437.164 160.291,436.771 C159.904,436.383 158.958,435.379 159.087,435.138 C159.216,434.892 159.055,433.652 158.661,432.935 C158.661,432.935 158.661,432.935 158.601,432.305 L158.567,431.797 C158.912,431.896 159.041,431.816 158.841,431.611 C158.643,431.416 158.694,430.711 158.788,430.447 C158.878,430.173 159.438,429.752 159.3,429.444 C159.163,429.14 158.878,428.084 158.992,427.796 C159.102,427.509 159.413,426.617 159.256,426.443 C159.106,426.274 159.446,425.481 159.875,425.031 C160.3,424.584 161.606,424.336 161.655,424.436" id="Fill-160" fill="#2BA8B0"></path>
            <path d="M70.601,458.844 C69.617,454.373 68.894,450.687 69,450.65 C69.108,450.613 69.356,450.261 69.301,449.961 C69.245,449.656 70.034,449.039 70.208,449.181 C70.377,449.316 70.6,448.99 70.35,448.518 C70.099,448.051 69.263,447.759 69.209,447.622 C69.162,447.481 68.933,447.062 69.162,447.017 C69.387,446.978 70.27,446.521 70.671,446.628 C71.07,446.734 72.11,446.926 72.13,447.171 C72.149,447.421 72.764,447.433 72.739,447.155 C72.711,446.878 72.318,446.209 72.185,446.3 C72.054,446.397 71.215,446.104 70.616,445.517 C70.023,444.932 69.899,443.379 70.121,443.319 C70.343,443.265 71.068,443.362 71.188,442.867 C71.3,442.364 72.265,442.662 72.388,442.42 C72.507,442.18 73.33,441.532 73.512,441.489 C73.688,441.448 74.367,441.736 74.562,441.544 C74.755,441.354 75.467,440.917 75.728,441.008 C75.984,441.093 76.658,441.463 76.643,441.632 C76.628,441.789 77.078,442.157 77.349,442.071 C77.618,441.984 78.427,441.696 78.573,441.825 C78.716,441.949 79.114,441.781 79.167,441.945 C79.223,442.113 79.716,442.708 79.665,442.863 C79.605,443.016 79.734,443.465 79.461,443.461 C79.185,443.454 78.66,443.89 78.867,443.933 C79.077,443.976 79.743,444.579 79.856,444.895 C79.977,445.216 80.521,445.985 79.914,446.06 C79.297,446.134 77.492,446.767 77.237,447.047 C76.983,447.324 76.609,446.514 77.024,445.408 C77.024,445.408 77.024,445.408 76.15,444.296 L75.63,443.648 C75.14,443.742 74.486,443.883 74.174,443.965 C73.869,444.046 73.613,444.795 73.362,444.865 C73.116,444.943 72.646,445.449 72.826,445.387 C73.006,445.323 73.639,445.554 73.831,445.818 C74.022,446.082 74.594,447.107 74.427,447.465 C74.264,447.833 73.623,449.126 73.747,449.172 C73.863,449.215 74.138,449.826 74.088,450.215 C74.035,450.598 74.264,451.929 74.311,452.272 C74.362,452.62 74.354,453.62 74.486,453.744 C74.625,453.866 74.602,454.095 74.826,454.029 C75.051,453.954 76.047,454.666 76.448,454.556 C76.864,454.448 77.965,454.29 77.996,454.123 C78.021,453.954 78.508,453.963 78.452,453.786 C78.403,453.61 79.188,453.727 79.578,454.006 C79.969,454.283 80.692,454.326 80.376,453.911 C80.063,453.493 79.856,452.565 79.793,452.694 C79.729,452.82 79.294,452.549 79.444,452.42 C79.589,452.298 79.545,451.496 79.133,450.927 C78.727,450.363 76.896,448.61 76.926,448.473 C76.954,448.34 77.495,448.063 77.705,448.124 C77.918,448.197 78.283,447.635 78.608,447.719 C78.92,447.804 79.679,447.136 79.92,447.389 C80.178,447.638 80.969,448.171 81.144,448.03 C81.314,447.886 81.678,447.487 81.559,447.338 C81.441,447.195 81.565,446.95 81.989,447.107 C82.411,447.268 83.596,447.338 83.701,447.462 C83.815,447.583 84.189,447.902 84.505,447.895 C84.83,447.886 85.744,448.406 85.777,448.236 C85.806,448.063 86.52,448.159 86.786,448.401 C87.046,448.644 88.301,449.838 88.583,449.977 C88.867,450.105 89.706,450 89.865,450.185 C90.028,450.375 90.289,450.868 90.007,450.972 C89.725,451.074 89.609,451.549 89.496,451.491 C89.372,451.43 88.999,451.338 88.921,451.541 C88.854,451.741 88.175,451.797 88.06,451.266 C87.95,450.732 87.357,449.724 87.302,450.246 C87.246,450.774 86.304,451.365 86.452,451.423 C86.59,451.466 86.887,452.063 86.756,452.288 C86.631,452.508 87.06,453.111 87.33,453.095 C87.605,453.074 88.272,453.3 88.212,453.692 C88.153,454.071 87.892,454.964 87.934,454.835 C87.976,454.704 87.37,454.662 87.149,455.105 C86.938,455.545 86.89,456.76 87.072,456.788 C87.255,456.814 87.692,457.571 87.578,457.887 C87.46,458.195 87.222,459.309 87.285,459.656 C87.346,460 88.399,460.858 88.357,460.984 C88.32,461.126 88.1,461.534 88.238,461.614 C88.385,461.696 88.66,462.733 88.499,463.292 C88.341,463.852 89.073,465.467 89.251,465.538 C89.448,465.604 90.062,465.913 90.203,466.131 C90.352,466.353 91.005,467.186 90.647,467.305 C90.292,467.425 88.992,466.786 88.662,466.907 C88.329,467.038 87.486,467.741 87.515,467.835 C87.536,467.928 87.486,468.253 87.146,468.329 C86.803,468.408 85.919,469.408 85.866,469.697 C85.808,469.986 86.11,471.678 86.89,472.807 C87.673,473.935 89.656,472.982 89.508,472.695 C89.358,472.411 89.314,471.56 89.5,471.415 C89.681,471.271 90.528,470.827 90.786,471.211 C91.044,471.596 92.014,472.365 92.35,472.063 C92.695,471.758 93.942,472.171 94.281,472.663 C94.625,473.148 95.854,473.727 95.882,473.48 C95.915,473.229 96.261,472.528 96.462,472.459 C96.667,472.386 97.258,472.482 97.284,472.1 C97.313,471.708 97.015,470.506 97.097,470.331 C97.186,470.155 97.285,469.702 97.495,469.736 C97.708,469.778 98.147,469.493 98.025,469.324 C97.906,469.158 98.585,468.749 98.92,468.726 C99.265,468.709 100.187,468.935 100.181,468.82 C100.178,468.709 100.637,468.322 101.082,468.208 C101.535,468.097 102.999,467.748 103.354,467.928 C103.712,468.097 105.263,467.995 106.046,467.833 C106.827,467.67 107.921,468.479 108.103,468.443 C108.287,468.41 108.995,467.95 109.303,467.796 C109.61,467.645 110.58,467.595 110.727,467.443 C110.876,467.297 111.54,466.786 111.872,466.645 C112.208,466.507 113.117,466.497 113.112,466.289 C113.11,466.08 113.997,466.17 114.521,466.437 C114.521,466.437 114.521,466.437 115.025,466.945 L115.346,467.261 C115.549,467.605 115.815,467.982 115.929,468.128 C116.045,468.263 116.208,469.241 116.224,469.495 C116.248,469.743 116.671,470.518 116.671,470.611 C116.678,470.705 116.57,471.073 116.702,471.241 C116.842,471.412 117.25,472.264 117.662,472.779 C118.083,473.3 119.18,474.803 119.108,474.999 C119.028,475.19 118.658,476.307 118.717,476.563 C118.771,476.813 118.986,477.632 119.157,477.808 C119.331,477.979 119.759,478.734 119.718,479.092 C119.682,479.454 120.434,480.659 120.42,480.863 C120.41,481.062 120.616,481.674 120.552,481.74 C120.486,481.809 120.424,482.129 120.255,482.3 C120.09,482.466 119.866,483.016 120.151,483.126 C120.444,483.24 121.209,484.326 121.188,484.667 C121.168,485.008 120.724,486.159 121.004,486.526 C121.286,486.884 120.917,487.997 121.414,488.317 C121.911,488.639 122.583,489.611 122.787,489.59 C122.987,489.568 123.661,490.26 123.755,490.448 C123.854,490.641 123.706,491.336 123.77,491.614 C123.833,491.896 124.667,492.619 124.846,492.559 C125.029,492.5 125.731,493.021 125.96,493.038 C126.19,493.062 126.632,493.08 126.458,493.361 C126.273,493.654 125.624,494.407 125.429,494.429 C125.234,494.451 124.728,494.665 124.728,494.665 C124.708,494.669 124.577,494.635 124.459,494.588 C124.343,494.541 123.712,494.102 123.33,493.915 C122.955,493.725 121.668,493.34 121.292,493.033 C120.917,492.721 119.381,491.51 119.143,491.328 C118.906,491.152 118.5,490.52 118.363,490.602 C118.232,490.675 117.925,489.932 118.032,489.662 C118.134,489.399 117.427,488.769 117.378,488.942 C117.333,489.119 116.203,488.535 115.52,487.885 C114.847,487.236 114.061,485.354 113.539,485.016 C113.033,484.674 112.195,483.387 112.047,483.286 C111.902,483.176 111.459,483.021 111.353,482.859 C111.244,482.69 110.724,482.04 110.268,481.791 C109.815,481.529 108.248,480.936 107.787,480.942 C107.332,480.948 106.073,480.876 106.025,480.732 C105.972,480.591 105.16,480.293 104.667,480.421 C104.167,480.544 102.854,479.354 102.965,479.206 C103.076,479.048 102.868,478.698 102.624,478.79 C102.376,478.881 101.452,478.729 101.13,478.531 C100.805,478.332 99.784,476.735 99.747,476.41 C99.7,476.086 98.922,475.068 98.908,474.928 C98.896,474.784 98.385,474.314 98.101,474.196 C97.814,474.079 97.076,473.665 97.112,473.833 C97.148,473.996 96.888,474.386 96.45,474.352 C96.003,474.308 94.842,474.793 94.768,474.723 C94.695,474.651 94.315,474.483 94.086,474.516 C93.859,474.549 93.075,474.411 92.871,474.483 C92.68,474.553 91.962,475.089 91.714,475.015 C91.458,474.94 90.289,474.962 89.714,475.324 C89.13,475.688 87.06,476.535 86.612,476.394 C86.167,476.245 84.627,475.031 84.255,474.979 C83.881,474.922 82.809,474.818 82.688,474.68 C82.561,474.546 82.48,474.848 82.722,474.952 C82.96,475.059 83.598,475.76 83.44,475.788 C83.277,475.821 82.565,476.118 82.156,475.895 C81.754,475.671 80.639,475.677 80.531,475.575 C80.417,475.472 80.048,475.011 79.575,474.733 C79.095,474.459 77.766,474.03 77.663,474.03 C77.553,474.037 71.592,463.321 70.601,458.844" id="Fill-161" fill="#2BA8B0"></path>
            <path d="M69.105,441.86 C68.92,441.97 68.984,440.465 69.253,438.51 C69.518,436.561 70.883,431.448 70.989,431.368 C71.094,431.286 71.283,431.734 71.147,432.1 C71.02,432.46 70.794,433.549 70.928,433.601 C71.063,433.653 71.253,434.38 71.131,434.622 C71.014,434.862 71.033,435.83 70.959,436.192 C70.883,436.547 70.284,437.761 70.337,438.13 C70.39,438.507 71.036,439.657 70.885,439.806 C70.738,439.953 70.455,440.203 70.576,440.023 C70.696,439.845 71.139,440.286 71.223,440.453 C71.297,440.617 70.762,441.4 70.437,441.867 C70.108,442.339 69.041,443.698 68.953,443.656 C68.872,443.608 68.662,443.5 68.675,443.349 C68.685,443.202 68.92,442.701 69.173,442.582 C69.425,442.46 69.29,441.741 69.105,441.86" id="Fill-162" fill="#2BA8B0"></path>
            <path d="M127.279,398.162 C130.036,398.793 132.274,399.468 132.276,399.667 C132.274,399.869 132.685,400.354 132.912,400.271 C133.136,400.195 133.743,399.778 134.072,399.898 C134.402,400.013 135.631,400.612 136.077,400.954 C136.523,401.287 137.636,402.825 137.762,403.318 C137.897,403.812 138.272,405.33 138.172,405.598 C138.06,405.863 138.632,407.076 139.417,407.67 C140.215,408.274 140.515,410.127 140.22,410.219 C139.932,410.304 138.846,409.553 138.549,409.563 C138.247,409.58 137.617,409.413 137.816,409.56 C138.015,409.708 138.066,410.438 138.121,410.554 C138.179,410.673 137.986,411.07 138.036,411.209 C138.095,411.354 138.675,411.801 138.886,411.866 C139.099,411.931 139.824,412.092 140.044,412.255 C140.265,412.418 141.078,412.769 141.404,413.178 C141.732,413.593 142.362,414.748 142.362,414.841 C142.37,414.933 142.308,415.614 142.498,416.182 C142.694,416.748 142.858,418.487 142.521,418.804 C142.18,419.122 142.496,419.973 142.595,419.887 C142.707,419.795 143.135,419.918 143.304,420.166 C143.464,420.403 143.947,421.666 144.685,422.475 C145.415,423.288 144.96,425.163 144.836,425.051 C144.71,424.943 144.123,424.846 143.779,424.874 C143.437,424.907 142.662,425.018 142.824,425.283 C142.992,425.548 143.783,426.293 144.104,426.356 C144.429,426.407 145.637,426.479 146.078,426.59 C146.524,426.698 147.258,427.735 146.633,427.775 C146.015,427.807 144.19,427.716 143.949,427.589 C143.713,427.456 143.021,426.831 142.948,426.668 C142.892,426.503 142.404,425.977 142.149,425.865 C141.893,425.757 141.105,425.717 140.951,425.585 C140.795,425.448 140.307,425.136 140.038,425.427 C139.761,425.72 138.918,425.531 138.872,425.392 C138.827,425.25 138.121,424.765 137.775,424.652 C137.416,424.536 136.388,424.571 136.259,424.856 C136.13,425.142 135.959,426.156 135.914,426.453 C135.879,426.742 136.57,427.715 136.655,427.88 C136.746,428.054 136.269,428.508 136.37,428.613 C136.468,428.706 136.665,429.041 136.584,429.125 C136.491,429.215 136.584,429.893 136.964,430.447 C137.354,431.007 138.239,432.637 138.069,432.832 C137.897,433.028 137.306,433.028 137.161,432.881 C137.006,432.733 136.388,432.26 136.098,432.165 C135.816,432.071 134.716,431.757 134.256,431.486 C133.8,431.222 132.48,430.819 132.287,430.723 C132.104,430.631 131.408,430.166 131.214,430.28 C131.016,430.399 130.407,430.276 130.329,430.18 C130.254,430.081 129.749,429.804 128.913,429.73 C128.913,429.73 128.913,429.73 128.246,430.681 L128.063,430.958 C127.819,430.85 127.597,431.007 127.566,431.295 C127.529,431.593 126.741,432.275 126.576,432.211 C126.412,432.148 125.453,431.799 124.834,431.714 C124.208,431.626 122.56,431.855 122.538,431.988 C122.512,432.119 122.568,432.555 122.786,432.659 C122.999,432.76 123.783,432.539 124.118,432.672 C124.448,432.8 125.361,433.142 125.4,432.914 C125.441,432.691 126.288,432.218 126.666,432.317 C127.04,432.412 128.053,432.996 128.074,433.246 C128.08,433.505 128.755,434.498 128.73,434.843 C128.711,435.183 128.38,436.173 128.486,436.322 C128.592,436.466 128.433,437.343 128.234,437.967 C128.033,438.597 126.945,440.055 126.429,439.84 C125.916,439.622 124.181,439.031 123.599,438.879 C123.015,438.729 121.224,438.345 120.901,438.119 C120.584,437.901 119.981,437.896 120.202,438.049 C120.417,438.206 121.119,438.853 121.39,438.859 C121.669,438.859 122.722,439.035 123.113,439.117 C123.512,439.21 125.036,440.233 125.535,440.197 C126.039,440.15 127.59,440.824 127.777,440.637 C127.971,440.443 128.457,439.734 128.445,439.49 C128.431,439.23 129.251,438.791 129.58,439 C129.908,439.217 130.786,440.659 131.018,441.474 C131.245,442.298 131.809,444.676 131.788,444.947 C131.761,445.218 131.891,446.293 132.142,446.722 C132.392,447.155 133.505,448.855 134.299,449.539 C135.09,450.241 136.704,452.737 136.749,453.543 C136.791,454.347 138.313,456.722 138.218,456.898 C138.127,457.077 138.076,457.745 138.224,457.984 C138.366,458.225 139.068,459.28 139.075,459.764 C139.091,460.243 139.522,462.125 139.373,462.82 C139.219,463.52 137.498,464.973 136.804,464.564 C136.104,464.155 134.135,463.453 133.914,463.228 C133.691,463.001 132.611,462.166 132.017,461.875 C131.42,461.585 129.547,460.87 129.135,460.357 C128.72,459.846 127.684,458.233 127.246,457.879 C126.811,457.529 125.276,456.841 124.771,456.537 C124.268,456.226 122.584,455.22 122.301,454.744 C122.016,454.263 120.539,453.087 120.444,453.264 C120.352,453.441 119.973,453.978 119.704,454.037 C119.436,454.108 118.519,454.568 118.226,454.299 C118.226,454.299 118.226,454.299 117.987,454.488 L117.472,454.904 C117.743,455.431 117.714,456.122 117.398,456.443 C117.077,456.766 116.074,457.71 115.581,457.81 C115.087,457.908 113.356,457.973 112.835,457.741 C112.309,457.505 110.424,456.66 109.778,456.01 C109.13,455.366 107.336,453.315 107.227,452.899 C107.114,452.469 106.318,450.605 106.4,449.724 C106.4,449.724 106.4,449.724 106.215,449.188 L105.92,448.361 C105.216,447.444 104.732,446.462 104.832,446.169 C104.928,445.878 104.799,444.976 104.996,444.844 C105.191,444.714 105.882,444.371 106.065,443.859 C106.243,443.346 107.538,441.712 107.705,441.319 C107.874,440.927 108.874,439.978 109.056,440.078 C109.24,440.172 109.309,440.566 109.491,440.572 C109.668,440.572 110.71,440.95 111.335,440.715 C111.959,440.481 113.533,440.195 113.405,439.932 C113.281,439.669 113.935,438.566 114.583,438.021 C115.23,437.473 116.795,436.273 116.596,435.933 C116.39,435.602 116.203,434.62 116.055,434.472 C115.907,434.325 115.663,434.128 115.844,434.374 C116.035,434.615 115.526,435.059 115.423,434.895 C115.322,434.731 114.369,435.387 113.961,436.173 C113.961,436.173 113.961,436.173 113.192,436.247 L112.847,436.279 C112.548,436.154 112.174,435.932 112.021,435.785 C111.865,435.64 111.274,434.913 111.215,434.971 C111.157,435.034 111.264,435.451 111.601,435.747 C111.951,436.044 112.65,436.802 112.847,436.636 C113.036,436.46 113.47,437.045 113.276,437.221 C113.093,437.393 112.548,437.163 112.578,437.12 C112.609,437.077 112.356,437.104 112.192,437.298 C112.025,437.497 111.429,437.497 111.28,437.353 C111.128,437.199 110.506,436.704 110.228,436.574 C110.228,436.574 110.228,436.574 109.964,436.494 C109.78,436.447 109.367,436.228 109.187,436.192 L108.22,435.992 C107.167,436.046 106.819,436.113 107.435,436.138 C108.061,436.162 109.416,436.587 109.195,436.571 C108.987,436.554 109.109,437.135 109.222,437.082 C109.332,437.033 109.589,437.573 109.507,437.84 C109.425,438.111 109.849,438.965 109.626,439.073 C109.411,439.178 108.898,438.66 109.058,438.507 C109.217,438.363 108.789,437.858 108.442,437.765 C108.085,437.685 107.085,438.07 106.909,437.961 C106.747,437.85 106.734,438.193 107.231,438.481 C107.728,438.76 107.054,439.536 106.55,439.21 C106.052,438.885 105.398,438.03 105.344,438.345 C105.291,438.662 104.503,439.387 104.607,439.788 C104.717,440.182 104.689,441.561 104.972,442.017 C105.255,442.477 105.603,443.718 105.402,443.779 C105.196,443.847 104.645,444.615 104.395,444.643 C104.144,444.673 103.319,445.216 103.055,445.034 C102.783,444.847 101.879,444.113 101.622,443.797 C101.364,443.481 101.019,442.312 101.257,441.895 C101.499,441.48 102.535,440.776 102.502,440.621 C102.467,440.453 102.146,440.037 101.871,440.053 C101.604,440.062 100.684,439.573 100.513,439.765 C100.347,439.962 99.838,439.909 99.792,439.693 C99.751,439.49 99.867,438.735 99.817,438.455 C99.764,438.176 100.302,437.435 100.309,437.364 C100.313,437.298 99.863,437.401 99.521,437.761 C99.181,438.13 98.447,438.944 98.474,438.767 C98.499,438.586 98.385,438.037 98.12,437.955 C97.859,437.875 97.274,436.966 97.43,436.777 C97.585,436.578 97.099,436.046 96.987,436.113 C96.889,436.168 96.151,436.036 95.926,435.696 C95.699,435.355 94.731,434.245 94.784,434.022 C94.832,433.796 95.399,433.365 95.464,433.533 C95.53,433.696 95.67,434.113 95.828,434.104 C95.984,434.094 96.701,434.137 97.065,434.231 C97.422,434.32 98.509,435.33 98.679,435.323 C98.833,435.312 99.34,435.542 99.454,435.855 C99.566,436.165 99.974,436.871 99.768,436.578 C99.558,436.289 100.172,435.458 100.049,435.264 C99.927,435.074 99.78,434.37 99.887,434.124 C99.986,433.881 100.367,433.146 100.238,433.01 C100.116,432.875 99.756,432.908 99.663,432.698 C99.574,432.491 99.15,431.845 98.917,432.055 C98.685,432.266 97.748,431.924 97.426,431.601 C97.102,431.276 96.034,430.537 95.718,430.053 C95.407,429.574 95.757,428.312 95.659,428.218 C95.561,428.12 95.366,427.775 95.454,427.682 C95.536,427.589 95.71,427.318 95.63,426.925 C95.543,426.53 95.016,425.051 95.055,424.548 C95.085,424.046 95.042,422.6 95.071,422.466 C95.097,422.328 95.375,422.108 95.397,421.788 C95.409,421.467 95.641,420.468 95.83,420.277 C96.02,420.087 96.731,419.6 96.987,419.62 C97.239,419.638 98.134,419.699 98.398,419.548 C98.666,419.403 99.888,419.163 100.488,418.831 C101.093,418.506 102.165,419.105 102.196,418.734 C102.233,418.372 101.597,417.291 101.752,417.222 C101.905,417.154 102.423,416.911 102.57,417.06 C102.721,417.207 103.153,417.248 103.195,416.814 C103.243,416.389 103.809,414.948 104.115,414.573 C104.424,414.188 105.117,413.635 104.904,413.773 C104.682,413.911 104.26,413.079 104.561,412.967 C104.864,412.851 105.774,411.544 105.752,411.063 C105.727,410.579 105.644,409.238 105.872,409.18 C106.096,409.12 106.64,408.964 106.561,408.753 C106.482,408.539 107.13,408.185 107.309,408.373 C107.481,408.563 107.866,408.581 107.805,408.387 C107.747,408.195 107.594,407.607 107.904,407.518 C108.217,407.424 108.831,407.131 108.589,407.203 C108.351,407.276 107.707,406.693 107.776,406.514 C107.847,406.342 108,405.719 107.91,405.531 C107.818,405.338 107.798,404.681 107.866,404.486 C107.94,404.283 108.238,403.46 108.489,403.116 C108.739,402.77 109.015,401.841 109.174,401.872 C109.335,401.906 109.657,401.56 109.551,401.321 C109.443,401.086 109.984,400.339 109.786,400.089 C109.586,399.841 109.733,399.241 109.962,399.252 C110.193,399.258 111.031,398.865 111.327,398.595 C111.63,398.318 112.284,397.563 112.581,397.569 C112.876,397.574 113.716,397.985 113.766,398.192 C113.808,398.396 114.644,398.682 115.232,398.314 C115.232,398.314 115.232,398.314 115.575,398.096 C115.757,397.973 115.855,397.722 116.041,397.633 L116.407,397.454 C116.837,397.248 124.532,397.542 127.279,398.162" id="Fill-163" fill="#2BA8B0"></path>
            <path d="M140.436,402.672 C140.751,402.84 141.026,403.006 141.049,403.051 C141.059,403.097 140.972,403.151 140.827,403.075 C140.684,403.006 140.389,403.373 140.465,403.659 C140.539,403.937 139.756,403.879 139.58,403.591 C139.403,403.301 138.651,402.433 138.786,402.347 C138.921,402.259 140.117,402.505 140.436,402.672" id="Fill-164" fill="#2BA8B0"></path>
            <path d="M149.227,419.128 C149.156,419.235 149.019,419.105 148.93,418.846 C148.838,418.586 149.196,418.059 148.969,417.855 C148.75,417.653 148.715,417.097 148.916,417.027 C149.112,416.953 149.889,417.258 150.135,417.12 C150.369,416.984 150.916,417.83 150.718,418.114 C150.517,418.392 150.465,419.135 150.325,419.077 C150.187,419.021 149.296,419.014 149.227,419.128" id="Fill-165" fill="#2BA8B0"></path>
            <path d="M154.408,424.378 C154.735,424.46 154.864,424.593 154.696,424.675 C154.536,424.748 153.936,424.968 153.979,425.159 C154.026,425.343 153.916,425.519 153.232,425.097 C152.546,424.675 152.27,423.023 152.571,422.824 C152.875,422.64 153.701,423.191 153.63,423.358 C153.558,423.528 154.078,424.295 154.408,424.378" id="Fill-166" fill="#2BA8B0"></path>
            <path d="M151.594,424.046 C151.816,424.318 152.181,424.821 152.411,425.163 C152.64,425.5 152.698,426.337 152.764,426.329 C152.833,426.314 152.941,426.359 152.862,426.491 C152.78,426.623 152.782,427.014 152.438,427.017 C152.1,427.027 150.978,427.907 150.63,427.813 C150.28,427.722 149.496,426.586 149.695,425.82 C149.894,425.058 148.98,422.812 149.269,422.686 C149.56,422.555 150.425,422.578 150.536,422.766 C150.655,422.957 151.377,423.773 151.594,424.046" id="Fill-167" fill="#2BA8B0"></path>
            <path d="M154.186,428.532 C154.391,428.51 154.03,428.773 153.394,429.116 C152.756,429.467 151.016,430.688 150.896,430.499 C150.776,430.307 150.978,429.619 151.501,429.402 C152.034,429.181 153.979,428.558 154.186,428.532" id="Fill-168" fill="#2BA8B0"></path>
            <path d="M144.012,415.884 C144.071,416.189 143.944,416.334 143.725,416.212 C143.507,416.082 142.911,415.687 142.869,415.358 C142.818,415.024 143.952,415.583 144.012,415.884" id="Fill-169" fill="#2BA8B0"></path>
            <path d="M145.762,416.7 C146.155,416.446 146.587,416.499 146.719,416.803 C146.848,417.112 147.012,417.936 146.74,417.941 C146.466,417.951 145.366,416.943 145.762,416.7" id="Fill-170" fill="#2BA8B0"></path>
            <path d="M155.763,419.973 C156.296,420.558 155.581,421.549 154.893,421.646 C154.232,421.044 155.111,420.078 155.763,419.973" id="Fill-171" fill="#2BA8B0"></path>
            <path d="M143.655,407.656 C143.498,408.123 143.304,408.518 143.209,408.529 C143.117,408.539 142.852,408.961 142.81,409.255 C142.766,409.543 142.966,410.393 142.739,410.435 C142.507,410.468 141.972,409.905 142.101,409.781 C142.229,409.653 142.451,409.482 142.301,409.689 C142.158,409.898 141.756,409.328 141.805,408.967 C141.858,408.602 142.064,407.383 142.075,407.047 C142.079,406.707 142.24,405.736 142.18,405.664 C142.12,405.586 141.914,405.186 141.647,404.902 C141.386,404.623 140.465,403.829 140.546,403.744 C140.634,403.659 141.295,403.785 141.829,404.209 C142.37,404.63 143.812,407.179 143.655,407.656" id="Fill-172" fill="#2BA8B0"></path>
            <path d="M136.771,400.945 C137.403,401.206 138.026,401.482 138.648,401.775 C138.057,401.923 137.428,401.522 136.771,400.945" id="Fill-173" fill="#2BA8B0"></path>
            <path d="M145.036,428.696 C144.242,428.801 143.831,428.854 144.124,428.82 C144.411,428.783 144.158,428.218 144.299,428.279 C144.441,428.345 145.187,428.132 145.693,428.318 C145.693,428.318 145.693,428.318 146.179,428.463 L146.632,428.585 C147.421,428.53 148.457,428.649 148.934,428.854 C149.417,429.055 149.76,430.028 149.404,430.064 C149.043,430.093 145.827,428.602 145.036,428.696" id="Fill-174" fill="#2BA8B0"></path>
            <path d="M138.289,431.904 C138.144,431.512 138.25,431.207 138.525,431.214 C138.806,431.226 139.614,431.72 139.68,431.91 C139.751,432.1 138.432,432.29 138.289,431.904" id="Fill-175" fill="#2BA8B0"></path>
            <path d="M139.959,450.058 C140.223,450.435 140.408,450.817 140.387,450.911 C140.365,451.004 140.576,451.352 140.698,451.475 C140.824,451.599 141.299,452.174 141.484,452.475 C141.667,452.777 142.093,454.042 141.983,454.242 C141.882,454.439 141.136,454.738 140.832,454.488 C140.521,454.233 139.344,453.49 139.27,453.282 C139.187,453.069 138.788,452.437 138.6,452.36 C138.413,452.288 137.823,451.365 137.746,450.989 C137.668,450.618 137.816,449.407 137.624,449.07 C137.428,448.735 137.301,448.068 137.573,448.319 C137.841,448.572 139.701,449.679 139.959,450.058" id="Fill-176" fill="#2BA8B0"></path>
            <path d="M126.632,489.213 C126.165,488.791 126.634,488.141 127.098,488.751 C126.939,488.911 126.792,489.06 126.632,489.213" id="Fill-177" fill="#2BA8B0"></path>
            <path d="M86.626,439.826 C86.755,440.272 86.871,440.806 86.885,441.01 C86.905,441.222 86.894,441.712 86.69,441.634 C86.475,441.56 85.831,441.932 85.677,442.081 C85.527,442.228 84.583,442.064 83.92,441.384 C83.237,440.701 81.229,440.083 81.24,439.794 C81.254,439.498 80.787,439.19 80.813,438.919 C80.837,438.646 80.61,438.061 80.259,438.221 C79.898,438.39 79.101,437.861 79.33,437.674 C79.568,437.482 79.207,437.073 79.222,437.282 C79.238,437.489 78.398,437.692 78.243,437.506 C78.091,437.311 77.482,436.735 77.221,436.651 C76.968,436.569 75.963,436.009 75.646,436.261 C75.32,436.508 74.462,436.927 74.512,437.097 C74.551,437.256 73.881,437.761 73.568,437.901 C73.259,438.045 72.6,437.509 72.856,437.211 C73.114,436.909 73.587,436.192 73.379,436.273 C73.179,436.355 72.598,436.84 72.346,436.903 C72.083,436.963 72.105,437.332 71.943,437.282 C71.774,437.233 71.371,437.424 71.363,437.126 C71.347,436.825 71.92,436.165 72.085,435.815 C72.241,435.463 72.249,434.625 72.08,434.771 C71.908,434.911 71.55,433.814 71.738,433.044 C71.932,432.283 73.336,430.026 73.671,429.678 C74.011,429.333 75.105,428.242 74.894,428.102 C74.678,427.956 74.345,427.277 74.515,426.973 C74.683,426.665 75.72,425.525 76.19,425.104 C76.658,424.683 77.27,423.416 77.424,423.306 C77.572,423.194 78.117,423.019 78.259,422.79 C78.403,422.559 79.309,421.907 79.624,421.593 C79.943,421.277 80.65,421.479 80.428,421.854 C80.202,422.222 80.725,423.035 80.837,422.727 C80.958,422.41 81.781,421.755 81.965,421.766 C82.15,421.783 82.754,421.396 82.92,421.181 C83.081,420.968 83.493,421.572 83.363,421.787 C83.234,422.007 82.994,422.763 83.047,422.971 C83.105,423.182 82.796,423.733 82.96,423.79 C83.127,423.845 83.582,424.548 83.588,424.734 C83.583,424.912 83.415,425.201 83.717,425.021 C84.026,424.829 84.735,425.422 84.537,425.63 C84.334,425.842 84.58,426.782 85.297,427.229 C86.009,427.674 85.853,429.055 86.033,429.059 C86.223,429.068 86.632,429.652 86.497,429.678 C86.355,429.701 86.265,429.79 86.573,429.755 C86.877,429.721 86.786,430.515 86.45,430.645 C86.115,430.779 85.244,431.259 85.255,431.395 C85.273,431.535 85.366,431.826 85.744,431.765 C86.124,431.698 86.347,431.38 86.338,431.724 C86.32,432.066 86.71,433.217 86.663,433.624 C86.612,434.032 86.159,435.253 86.146,435.459 C86.141,435.671 86.088,436.377 86.027,436.582 C85.972,436.792 85.286,437.289 85.391,437.479 C85.489,437.674 86.497,439.384 86.626,439.826" id="Fill-178" fill="#2BA8B0"></path>
            <path d="M88.957,417.594 C89.109,417.481 89.435,417.391 89.678,417.398 C89.923,417.405 90.203,416.968 90.649,416.843 C91.101,416.718 92.094,417.905 91.747,418.087 C91.395,418.263 90.596,418.63 90.797,418.973 C91.002,419.315 91.44,420.337 91.266,420.516 C91.101,420.699 90.434,420.491 90.24,420.635 C90.042,420.775 89.496,420.645 89.477,420.326 C89.459,420.002 88.858,419.354 88.842,419.655 C88.823,419.946 88.285,420.624 88.187,420.537 C88.085,420.446 87.504,420.074 87.286,420.136 C87.053,420.202 86.549,419.514 86.679,419.022 C86.814,418.526 87.639,418.444 87.414,418.34 C87.193,418.246 87.389,417.481 87.711,417.333 C88.032,417.184 88.799,417.7 88.957,417.594" id="Fill-179" fill="#2BA8B0"></path>
            <path d="M88.122,416.487 C88.003,416.376 88.353,415.866 88.91,415.345 C89.461,414.828 91.189,413.729 91.189,413.964 C91.2,414.192 91.094,415.139 90.546,415.535 C90.003,415.932 88.243,416.593 88.122,416.487" id="Fill-180" fill="#2BA8B0"></path>
            <path d="M97.011,437.479 C97.19,437.633 97.202,437.939 97.052,438.159 C96.9,438.374 96.487,438.819 96.271,438.66 C96.047,438.491 95.61,437.928 95.791,437.854 C95.973,437.783 95.619,437.039 95.723,436.937 C95.826,436.83 96.836,437.318 97.011,437.479" id="Fill-181" fill="#2BA8B0"></path>
            <path d="M91.624,433.015 C91.44,433.277 91.081,433.381 90.812,433.243 C90.55,433.111 89.894,433.578 89.839,433.372 C89.785,433.169 89.474,432.708 89.469,432.843 C89.472,432.975 89.098,433.109 89.185,432.865 C89.272,432.617 88.733,431.911 88.965,431.94 C89.198,431.959 89.944,431.608 90.134,431.445 C90.327,431.276 91.042,430.521 91.316,430.611 C91.603,430.695 92.278,431.715 92.143,431.893 C92.004,432.063 91.803,432.752 91.624,433.015" id="Fill-182" fill="#2BA8B0"></path>
            <path d="M100.544,412.108 C100.528,411.784 100.66,411.063 100.834,410.504 C101.001,409.949 101.889,408.451 101.869,408.382 C101.849,408.313 101.837,408.036 101.943,407.937 C102.046,407.828 102.467,407.872 102.634,408.271 C102.804,408.671 102.135,410.091 102.161,410.611 C102.188,411.144 101.816,412.642 102.245,412.835 C102.675,413.037 103.755,413.741 103.706,413.853 C103.647,413.964 103.434,414.335 103.074,414.396 C102.708,414.472 101.705,414.434 101.652,414.205 C101.591,413.964 100.56,412.43 100.544,412.108" id="Fill-183" fill="#2BA8B0"></path>
            <path d="M97.542,408.539 C96.805,407.885 97.577,406.521 98.447,407.367 C97.954,407.746 98.347,408.571 97.542,408.539" id="Fill-184" fill="#2BA8B0"></path>
            <path d="M105.312,401.078 C105.168,400.912 105.402,400.359 105.837,399.862 C106.273,399.36 107.204,399.516 106.948,399.902 C106.686,400.286 105.463,401.249 105.312,401.078" id="Fill-185" fill="#2BA8B0"></path>
            <path d="M76.095,448.344 C76.235,448.393 75.982,448.507 75.532,448.593 C75.085,448.677 75.631,449.936 75.395,450.135 C75.156,450.334 74.475,449.849 74.479,449.619 C74.477,449.386 74.507,448.753 74.667,448.719 C74.829,448.695 75.955,448.292 76.095,448.344" id="Fill-186" fill="#2BA8B0"></path>
            <path d="M97.19,465.799 C97.318,465.668 97.487,465.762 97.572,465.995 C97.656,466.231 97.19,466.723 97.087,466.628 C96.987,466.527 97.062,465.925 97.19,465.799" id="Fill-187" fill="#2BA8B0"></path>
            <path d="M94.111,467.899 C93.927,468.179 93.492,468.371 93.144,468.329 C92.799,468.293 91.862,468.836 91.798,469.089 C91.729,469.339 91.094,469.81 91.031,469.649 C90.963,469.48 90.962,468.778 91.281,468.463 C91.6,468.139 92.626,467.297 92.853,467.28 C93.08,467.272 93.784,467.123 93.92,467.079 C94.054,467.038 94.731,467.132 95.072,466.739 C95.418,466.349 96.563,466.915 96.311,467.103 C96.066,467.29 96.063,467.854 95.857,467.872 C95.647,467.881 94.982,468.314 94.791,468.227 C94.584,468.136 94.29,467.623 94.111,467.899" id="Fill-188" fill="#2BA8B0"></path>
            <path d="M94.406,469.01 C94.633,469.002 94.724,469.083 94.597,469.198 C94.483,469.307 94.059,469.848 93.966,469.751 C93.866,469.656 94.175,469.031 94.406,469.01" id="Fill-189" fill="#2BA8B0"></path>
            <path d="M91.97,467.23 C91.888,467.314 91.738,467.297 91.632,467.203 C91.534,467.097 91.421,466.784 91.603,466.712 C91.785,466.643 92.057,467.146 91.97,467.23" id="Fill-190" fill="#2BA8B0"></path>
            <path d="M92.492,466.388 C92.271,466.19 92.143,465.976 92.204,465.913 C92.265,465.852 92.555,465.728 92.696,465.785 C92.838,465.844 92.711,466.594 92.492,466.388" id="Fill-191" fill="#2BA8B0"></path>
            <path d="M93.988,466.47 C93.935,466.588 93.779,466.57 93.65,466.445 C93.532,466.321 93.349,465.94 93.531,465.868 C93.708,465.794 94.304,465.964 94.406,465.832 C94.507,465.702 94.737,465.974 94.646,466.277 C94.55,466.57 94.056,466.364 93.988,466.47" id="Fill-192" fill="#2BA8B0"></path>
            <path d="M159.804,421.025 C160.131,421.592 160.278,421.935 160.139,421.793 C159.991,421.646 159.169,421.32 158.625,421.383 C158.083,421.45 156.577,421.73 156.507,421.967 C156.435,422.205 156.104,421.986 156.154,421.828 C156.206,421.678 155.99,421.257 156.154,421.295 C156.325,421.341 156.747,420.791 156.787,420.63 C156.834,420.474 156.892,419.925 157.042,419.779 C157.19,419.627 157.725,419.188 157.904,419.139 C158.081,419.087 159.48,420.468 159.804,421.025" id="Fill-193" fill="#2BA8B0"></path>
            <path d="M70.394,441.191 C70.326,441.191 70.292,441.438 70.415,441.438 C70.485,441.46 70.521,441.21 70.394,441.191" id="Fill-194" fill="#D1EAF3"></path>
            <path d="M85.709,448.814 C85.637,448.795 85.602,449.055 85.724,449.07 C85.801,449.07 85.836,448.814 85.709,448.814" id="Fill-195" fill="#D1EAF3"></path>
            <path d="M660.082,582.48 C659.398,583.846 658.084,584.575 657.123,584.144 C642.012,577.353 624.711,577.353 609.604,584.144 C608.641,584.575 607.324,583.846 606.643,582.48 C606.592,582.371 606.541,582.269 606.494,582.165 C605.809,580.801 606.117,579.265 607.191,578.778 C623.834,571.308 642.887,571.308 659.535,578.778 C660.609,579.261 660.914,580.801 660.232,582.165 C660.182,582.269 660.131,582.371 660.082,582.48" id="Fill-196" fill="#172E41"></path>
            <path d="M659.535,578.778 C642.895,571.308 623.834,571.308 607.191,578.778 C606.117,579.261 605.809,580.801 606.494,582.165 C623.441,573.862 643.285,573.862 660.232,582.165 C660.914,580.801 660.605,579.265 659.535,578.778" id="Fill-197" fill="#214767"></path>
            <path d="M612.131,598.255 C612.131,599.269 611.314,600.086 610.297,600.086 L609.996,600.086 C608.99,600.086 608.17,599.269 608.17,598.255 L608.17,582.706 C608.17,581.697 608.99,580.872 609.996,580.872 L610.297,580.872 C611.314,580.872 612.131,581.697 612.131,582.706 L612.131,598.255" id="Fill-198" fill="#ABB0A8"></path>
            <path d="M614.574,591.393 C614.574,593.835 612.594,595.817 610.146,595.817 C607.705,595.817 605.726,593.835 605.726,591.393 C605.726,588.958 607.705,586.976 610.146,586.976 C612.594,586.976 614.574,588.958 614.574,591.393" id="Fill-199" fill="#ABB0A8"></path>
            <path d="M658.561,598.255 C658.561,599.269 657.742,600.086 656.736,600.086 L656.426,600.086 C655.416,600.086 654.598,599.269 654.598,598.255 L654.598,582.706 C654.598,581.697 655.416,580.872 656.426,580.872 L656.736,580.872 C657.742,580.872 658.561,581.697 658.561,582.706 L658.561,598.255" id="Fill-200" fill="#ABB0A8"></path>
            <path d="M661,591.393 C661,593.835 659.022,595.817 656.578,595.817 C654.133,595.817 652.158,593.835 652.158,591.393 C652.158,588.958 654.133,586.976 656.578,586.976 C659.022,586.976 661,588.958 661,591.393" id="Fill-201" fill="#ABB0A8"></path>
            <path d="M716.919,697.979 C716.919,701.011 714.46,703.471 711.431,703.471 L555.299,703.471 C552.261,703.471 549.808,701.011 549.808,697.979 L549.808,596.74 C549.808,593.705 552.261,591.246 555.299,591.246 L711.431,591.246 C714.46,591.246 716.919,593.705 716.919,596.74 L716.919,697.979" id="Fill-202" fill="#172E41"></path>
            <path d="M711.431,699.274 L555.299,699.274 C552.261,699.274 549.808,696.813 549.808,693.782 L549.808,697.979 C549.808,701.011 552.261,703.471 555.299,703.471 L711.431,703.471 C714.46,703.471 716.919,701.011 716.919,697.979 L716.919,693.782 C716.919,696.813 714.46,699.274 711.431,699.274" id="Fill-203" fill="#152733"></path>
            <path d="M633.361,654.556 C607.131,654.556 580.901,651.484 555.217,645.341 C552.227,644.612 549.804,641.526 549.808,638.509 L549.808,601.312 L549.808,633.938 C549.804,636.956 552.227,640.042 555.217,640.771 C580.901,646.914 607.131,649.985 633.361,649.985 C659.591,649.985 685.822,646.914 711.507,640.771 C714.507,640.042 716.919,636.956 716.919,633.938 L716.919,638.509 C716.919,641.526 714.507,644.612 711.507,645.341 C685.822,651.484 659.591,654.556 633.361,654.556" id="Fill-204" fill="#152838"></path>
            <path d="M716.919,633.938 C716.919,636.956 714.507,640.042 711.507,640.771 C660.137,653.057 606.586,653.057 555.217,640.771 C552.227,640.042 549.804,636.956 549.808,633.938 L549.808,596.74 C549.804,593.725 552.255,591.266 555.299,591.246 L711.431,591.246 C714.466,591.266 716.919,593.725 716.919,596.74 L716.919,633.938" id="Fill-205" fill="#214767"></path>
            <path d="M622.689,591.246 L622.689,639.614 C622.689,642.04 623.51,644.011 624.516,644.011 L642.211,644.011 C643.217,644.011 644.037,642.04 644.037,639.614 L644.037,591.246 L622.689,591.246" id="Fill-206" fill="#172E41"></path>
            <path d="M716.919,600.086 L644.037,600.086 L644.037,591.246 L711.431,591.246 C714.466,591.266 716.919,593.725 716.919,596.74 L716.919,600.086 M622.689,600.086 L549.808,600.086 L549.808,596.74 C549.804,593.725 552.255,591.266 555.299,591.246 L622.689,591.246 L622.689,600.086" id="Fill-207" fill="#1E3F5B"></path>
            <path d="M644.037,600.086 L622.689,600.086 L622.689,591.246 L644.037,591.246 L644.037,600.086" id="Fill-208" fill="#152838"></path>
            <path d="M642.82,661.383 C642.813,662.272 642.115,663.269 641.238,663.552 C636.107,665.136 630.619,665.136 625.484,663.552 C624.605,663.269 623.906,662.272 623.906,661.383 L623.906,642.484 C623.906,641.596 624.611,640.601 625.484,640.325 C630.619,638.742 636.107,638.742 641.238,640.325 C642.115,640.601 642.813,641.596 642.82,642.484 L642.82,661.383" id="Fill-209" fill="#A6D7DE"></path>
            <path d="M641.238,640.966 C636.107,639.474 630.619,639.474 625.484,640.966 C624.611,641.222 623.906,642.166 623.906,642.998 L623.906,651.232 L624.082,651.26 L642.82,651.26 L642.82,642.998 C642.813,642.166 642.115,641.222 641.238,640.966" id="Fill-210" fill="#D1EAF3"></path>
            <path d="M639.887,641.754 C635.637,640.518 631.09,640.518 626.836,641.754 C626.113,641.966 625.529,642.747 625.529,643.437 L625.529,650.258 L625.676,650.28 L641.197,650.28 L641.197,643.437 C641.191,642.747 640.613,641.966 639.887,641.754" id="Fill-211" fill="#FBFDFD"></path>
            <path d="M623.906,653.012 L623.906,661.383 C623.906,662.272 624.605,663.269 625.484,663.552 C630.619,665.136 636.107,665.136 641.238,663.552 C642.115,663.269 642.813,662.272 642.82,661.383 L642.82,653.012 L623.906,653.012" id="Fill-212" fill="#A6D7DE"></path>
            <path d="M633.363,663.114 C630.855,663.114 628.365,662.741 625.963,662.003 C625.775,661.944 625.529,661.571 625.529,661.397 L625.529,654.634 L641.197,654.634 L641.197,661.383 C641.197,661.585 640.934,661.944 640.742,662.009 C638.357,662.741 635.871,663.114 633.363,663.114" id="Fill-213" fill="#D1EAF3"></path>
            <path d="M636.224,582.625 C636.224,584.038 635.078,585.184 633.666,585.184 C632.255,585.184 631.109,584.038 631.109,582.625 L631.109,569.646 C631.109,568.233 632.255,567.088 633.666,567.088 C635.078,567.088 636.224,568.233 636.224,569.646 L636.224,582.625" id="Fill-214" fill="#A5846A"></path>
            <polyline id="Fill-215" fill="#3AB18A" points="56.789 669.58 40.051 675.296 11.756 592.394 28.497 586.68 56.789 669.58"></polyline>
            <polyline id="Fill-216" fill="#FFFCFC" points="64.855 604.133 34.275 634.713 64.855 665.293 95.435 634.713 64.855 604.133"></polyline>
            <polyline id="Fill-217" fill="#E5E3E2" points="86.105 609.768 64.869 631.008 86.105 652.245 107.345 631.008 86.105 609.768"></polyline>
            <polyline id="Fill-218" fill="#10252E" points="95.876 762 36.456 762 12.83 630.987 119.501 630.987 95.876 762"></polyline>
            <polyline id="Fill-219" fill="#0E1A1D" points="66.165 762 95.876 762 119.501 630.987 66.165 630.987 66.165 762"></polyline>
            <polyline id="Fill-220" fill="#C44341" points="114.778 657.177 116.559 647.312 15.772 647.312 17.553 657.177 114.778 657.177"></polyline>
            <polygon id="Fill-221" fill="#FFFFFF" points="340.598 644.75 418.704 644.75 418.704 620.75 340.598 620.75"></polygon>
            <path d="M363.056,632.75 C363.056,629.022 360.034,626 356.306,626 C352.578,626 349.556,629.022 349.556,632.75 C349.556,636.478 352.578,639.5 356.306,639.5 C360.034,639.5 363.056,636.478 363.056,632.75" id="Fill-222" fill="#152830"></path>
            <path d="M386.401,632.75 C386.401,629.022 383.38,626 379.651,626 C375.923,626 372.901,629.022 372.901,632.75 C372.901,636.478 375.923,639.5 379.651,639.5 C383.38,639.5 386.401,636.478 386.401,632.75" id="Fill-223" fill="#152830"></path>
            <path d="M409.057,632.75 C409.057,629.022 406.034,626 402.307,626 C398.578,626 395.557,629.022 395.557,632.75 C395.557,636.478 398.578,639.5 402.307,639.5 C406.034,639.5 409.057,636.478 409.057,632.75" id="Fill-224" fill="#152830"></path>
            <path d="M379.651,563.713 L379.651,632.75" id="Fill-225" fill="#FFFFFF"></path>
            <polygon id="Fill-226" fill="#1B485F" points="379.139 632.75 380.164 632.75 380.164 563.713 379.139 563.713"></polygon>
            <polygon id="Fill-227" fill="#FFFFFC" points="526.309 460.301 736.229 460.301 736.229 447.648 526.309 447.648"></polygon>
            <path d="M615.042,446.201 L615.042,431.894 L549.064,431.894 C545.112,431.894 541.91,435.096 541.91,439.048 L541.91,441.759 C542.474,445.148 545.515,447.648 549.064,447.648 L615.042,447.648 L615.042,433.341" id="Fill-228" fill="#8D6355"></path>
            <path d="M615.042,433.341 L549.852,433.341 C546.185,433.341 543.212,436.313 543.212,439.979 C543.212,443.647 546.185,446.62 549.852,446.62 L615.042,446.62 L615.042,433.341" id="Fill-229" fill="#FEF9C1"></path>
            <polygon id="Fill-230" fill="#5C4633" points="540.688 431.687 617.565 431.687 617.565 354.81 540.688 354.81"></polygon>
            <polygon id="Fill-231" fill="#D4BF63" points="546.384 425.992 611.869 425.992 611.869 360.505 546.384 360.505"></polygon>
            <polygon id="Fill-232" fill="#F1EBB2" points="556.47 422.852 601.783 422.852 601.783 363.646 556.47 363.646"></polygon>
            <polygon id="Fill-233" fill="#C8C695" points="560.127 376.467 598.127 376.467 598.127 375.459 560.127 375.459"></polygon>
            <polygon id="Fill-234" fill="#C8C695" points="560.127 378.263 598.127 378.263 598.127 377.255 560.127 377.255"></polygon>
            <polygon id="Fill-235" fill="#C8C695" points="560.127 380.058 598.127 380.058 598.127 379.05 560.127 379.05"></polygon>
            <polygon id="Fill-236" fill="#C8C695" points="560.127 381.854 598.127 381.854 598.127 380.847 560.127 380.847"></polygon>
            <polygon id="Fill-237" fill="#C8C695" points="560.127 383.649 598.127 383.649 598.127 382.642 560.127 382.642"></polygon>
            <polygon id="Fill-238" fill="#C8C695" points="560.127 385.445 598.127 385.445 598.127 384.438 560.127 384.438"></polygon>
            <polygon id="Fill-239" fill="#C8C695" points="560.127 387.241 598.127 387.241 598.127 386.233 560.127 386.233"></polygon>
            <polygon id="Fill-240" fill="#C8C695" points="560.127 389.036 598.127 389.036 598.127 388.028 560.127 388.028"></polygon>
            <polygon id="Fill-241" fill="#C8C695" points="560.127 390.833 598.127 390.833 598.127 389.825 560.127 389.825"></polygon>
            <polygon id="Fill-242" fill="#C8C695" points="560.127 392.628 598.127 392.628 598.127 391.62 560.127 391.62"></polygon>
            <polygon id="Fill-243" fill="#C8C695" points="560.127 394.424 598.127 394.424 598.127 393.416 560.127 393.416"></polygon>
            <polygon id="Fill-244" fill="#C8C695" points="560.127 396.374 582.127 396.374 582.127 395.366 560.127 395.366"></polygon>
            <polygon id="Fill-245" fill="#C8C695" points="560.127 398.17 582.127 398.17 582.127 397.162 560.127 397.162"></polygon>
            <polygon id="Fill-246" fill="#C8C695" points="560.127 399.966 582.127 399.966 582.127 398.958 560.127 398.958"></polygon>
            <polygon id="Fill-247" fill="#C8C695" points="560.127 401.761 582.127 401.761 582.127 400.753 560.127 400.753"></polygon>
            <polygon id="Fill-248" fill="#C8C695" points="560.127 403.557 582.127 403.557 582.127 402.549 560.127 402.549"></polygon>
            <polygon id="Fill-249" fill="#C8C695" points="560.127 405.353 582.127 405.353 582.127 404.345 560.127 404.345"></polygon>
            <polygon id="Fill-250" fill="#C8C695" points="560.127 407.148 582.127 407.148 582.127 406.141 560.127 406.141"></polygon>
            <path d="M594.877,414.771 C594.877,412.976 593.422,411.521 591.627,411.521 C589.832,411.521 588.377,412.976 588.377,414.771 C588.377,416.565 589.832,418.021 591.627,418.021 C593.422,418.021 594.877,416.565 594.877,414.771" id="Fill-251" fill="#6E1C26"></path>
            <polyline id="Fill-252" fill="#6E1C26" points="598.127 371.021 560.127 371.021 562.044 369.271 560.127 367.521 598.127 367.521 596.211 369.271 598.127 371.021"></polyline>
            <polyline id="Fill-253" fill="#E57E6A" points="693.13 447.647 665.233 447.647 654.143 408.528 704.223 408.528 693.13 447.647"></polyline>
            <polyline id="Fill-254" fill="#B34F47" points="679.182 447.647 693.13 447.647 704.223 408.528 679.182 408.528 679.182 447.647"></polyline>
            <path d="M679.184,408.272 C679.184,408.272 679.167,388.968 702.094,388.968 C702.094,407.85 684.274,409.335 679.184,408.272" id="Fill-255" fill="#099A47"></path>
            <path d="M679.182,408.225 C679.182,408.225 660.868,414.331 653.634,392.577 C671.55,386.619 678.581,403.06 679.182,408.225" id="Fill-256" fill="#099A47"></path>
            <path d="M679.184,390.704 C679.184,390.704 679.169,373.653 699.42,373.653 C699.42,390.33 683.681,391.642 679.184,390.704" id="Fill-257" fill="#099A47"></path>
            <path d="M678.858,381.021 C678.858,381.021 666.791,368.974 681.11,354.655 C692.903,366.446 682.701,378.505 678.858,381.021" id="Fill-258" fill="#099A47"></path>
            <path d="M678.927,394.281 C678.927,394.281 659.622,394.297 659.622,371.37 C678.503,371.37 679.987,389.189 678.927,394.281" id="Fill-259" fill="#099A47"></path>
            <path d="M680.365,407.346 C680.365,408 679.836,408.528 679.184,408.528 C678.53,408.528 678.001,408 678.001,407.346 L678.001,378.37 C678.001,377.717 678.53,377.188 679.184,377.188 C679.836,377.188 680.365,377.717 680.365,378.37 L680.365,407.346" id="Fill-260" fill="#099A47"></path>
            <path d="M522.735,497.195 L522.735,510.238 C522.735,520.431 530.999,528.694 541.192,528.694 L547.099,528.694 C557.291,528.694 565.555,520.431 565.555,510.238 L565.555,497.195 L522.735,497.195" id="Fill-261" fill="#FFFFFF"></path>
            <path d="M523.333,534.107 L564.956,534.107 C566.423,533.305 568.385,531.401 570.026,528.694 L518.263,528.694 C519.536,530.908 521.013,532.447 523.333,534.107" id="Fill-262" fill="#8F462A"></path>
            <path d="M564.55,514.422 C564.402,514.422 564.257,514.419 564.11,514.412 L564.231,511.462 C567.758,511.587 570.147,509.479 571.121,507.61 C571.888,506.143 571.92,504.707 571.209,503.773 C569.25,501.199 565.186,503.971 565.014,504.09 L563.323,501.669 C565.579,500.091 570.62,498.124 573.559,501.983 C574.98,503.853 575.049,506.466 573.74,508.976 C571.997,512.318 568.424,514.421 564.55,514.422" id="Fill-263" fill="#E6E7E3"></path>
            <path d="M544.146,528.694 L547.099,528.694 C557.291,528.694 565.555,520.431 565.555,510.238 L565.555,497.195 L544.146,497.195 L544.146,528.694" id="Fill-264" fill="#E6E7E3"></path>
            <path d="M544.146,534.107 L564.956,534.107 C566.423,533.305 568.385,531.401 570.026,528.694 L544.146,528.694 L544.146,534.107" id="Fill-265" fill="#773926"></path>
            <polygon id="Fill-266" fill="#FFFFFC" points="295.48 257.373 505.4 257.373 505.4 244.72 295.48 244.72"></polygon>
            <path d="M373.389,243.088 L373.389,226.963 L303.544,226.963 C299.09,226.963 295.48,230.572 295.48,235.026 L295.48,238.083 C296.116,241.902 299.543,244.72 303.544,244.72 L373.389,244.72 L373.389,228.595" id="Fill-267" fill="#2F97B1"></path>
            <path d="M373.389,228.595 L304.431,228.595 C300.298,228.595 296.947,231.945 296.947,236.078 C296.947,240.211 300.298,243.562 304.431,243.562 L373.389,243.562 L373.389,228.595" id="Fill-268" fill="#FEF9C1"></path>
            <path d="M373.389,225.332 L373.389,209.207 L303.544,209.207 C299.09,209.207 295.48,212.816 295.48,217.27 L295.48,220.326 C296.116,224.146 299.543,226.963 303.544,226.963 L373.389,226.963 L373.389,210.838" id="Fill-269" fill="#55391F"></path>
            <path d="M373.389,210.838 L304.431,210.838 C300.298,210.838 296.947,214.188 296.947,218.321 C296.947,222.455 300.298,225.805 304.431,225.805 L373.389,225.805 L373.389,210.838" id="Fill-270" fill="#FEF9C1"></path>
            <path d="M373.389,207.759 L373.389,193.453 L311.42,193.453 C307.468,193.453 304.266,196.654 304.266,200.606 L304.266,203.317 C304.829,206.707 307.87,209.207 311.42,209.207 L373.389,209.207 L373.389,194.9" id="Fill-271" fill="#8D6355"></path>
            <path d="M373.389,194.9 L312.207,194.9 C308.54,194.9 305.567,197.872 305.567,201.539 C305.567,205.207 308.54,208.179 312.207,208.179 L373.389,208.179 L373.389,194.9" id="Fill-272" fill="#FEF9C1"></path>
            <path d="M502.514,243.273 L502.514,228.966 L436.536,228.966 C432.584,228.966 429.382,232.167 429.382,236.119 L429.382,238.831 C429.945,242.22 432.986,244.72 436.536,244.72 L502.514,244.72 L502.514,230.413" id="Fill-273" fill="#8D6355"></path>
            <path d="M502.514,230.413 L437.323,230.413 C433.656,230.413 430.684,233.385 430.684,237.052 C430.684,240.719 433.656,243.692 437.323,243.692 L502.514,243.692 L502.514,230.413" id="Fill-274" fill="#FEF9C1"></path>
            <polyline id="Fill-275" fill="#2F97B1" points="402.535 241.786 389.081 244.72 373.389 172.757 386.844 169.823 402.535 241.786"></polyline>
            <polyline id="Fill-276" fill="#8D6355" points="417.108 241.786 403.654 244.72 387.962 172.757 401.417 169.823 417.108 241.786"></polyline>
            <path d="M502.514,227.519 L502.514,213.212 L440.545,213.212 C436.592,213.212 433.391,216.414 433.391,220.365 L433.391,223.077 C433.953,226.466 436.994,228.966 440.545,228.966 L502.514,228.966 L502.514,214.659" id="Fill-277" fill="#2F97B1"></path>
            <path d="M502.514,214.659 L441.332,214.659 C437.664,214.659 434.691,217.631 434.691,221.298 C434.691,224.965 437.664,227.938 441.332,227.938 L502.514,227.938 L502.514,214.659" id="Fill-278" fill="#FEF9C1"></path>
            <polyline id="Fill-279" fill="#FAD457" points="276.9 518.376 242.907 512.56 248.723 478.566 282.716 484.383 276.9 518.376"></polyline>
            <polyline id="Fill-280" fill="#FAD457" points="328.665 512.262 294.762 518.584 288.439 484.681 322.343 478.358 328.665 512.262"></polyline>
        </g>
    </g>
</svg>