<?xml version="1.0" encoding="iso-8859-1"?>
<!-- Generator: Adobe Illustrator 19.0.0, SVG Export Plug-In . SVG Version: 6.00 Build 0)  -->
<svg version="1.1" id="Layer_1" xmlns="http://www.w3.org/2000/svg" xmlns:xlink="http://www.w3.org/1999/xlink" x="0px" y="0px"
	 viewBox="0 0 508 508" style="enable-background:new 0 0 508 508;" xml:space="preserve">
<circle style="fill:#FFD05B;" cx="254" cy="254" r="254"/>
<path style="fill:#FFFFFF;" d="M350.4,480.8c0,2.8,0,5.6,0,8.4c-29.6,12-62,18.8-96,18.8s-66.8-6.8-96.4-18.8c0-2.8,0-5.2,0-8
	c0-11.6,1.2-22.8,2.8-33.6l0,0l6-4.8l1.6-1.2l82.8-63.6l2.4-1.6l3.2,2.4l83.2,63.6l1.2,0.8l6,4.4v0.4
	C349.2,458.4,350.4,469.6,350.4,480.8z"/>
<path style="fill:#324A5E;" d="M179.2,197.6c-1.6-2.8-0.8-6.4,0.8-8.8c1.6-2.8,4-4.8,6-7.2c4.8-5.2,8.4-11.6,7.6-18.4
	c-0.4-3.6-2.4-6.8-3.6-10.4c-1.2-3.6-2-7.6,0-10.8c0.8-0.8,1.6-1.6,2-2.8c5.2-6.8,2-16,1.6-24.4c-0.8-14,6-27.2,12.4-39.6
	c4.4-8.4,9.2-17.6,17.2-22.8c4.8-3.2,10.8-4.8,16.4-6c15.2-2.4,31.6,0.4,44,9.6c9.6,7.2,16.4,17.6,20.8,28.8s6.8,23.2,8.8,34.8
	c1.2,6.8,2,14.8-2,20.4c-1.6,2.4-4,4-5.6,6.4c-2,3.2-2.8,6.8-3.6,10.4c-0.8,3.6-1.2,7.6,0,11.2c2,4.8,6.8,7.2,10.4,10.8
	c4.4,4.4,6,10.8,7.6,16.8c0.8,2.4,1.2,5.2,1.2,7.6c-0.8,6.4-6.8,10.4-12.8,12.8c-20.4,8.8-42.8,10.8-64.8,10.8c-6,0-12,0-17.6-2
	c-8.8-2.4-16-8.4-23.2-14.4C199.2,207.6,182,202.4,179.2,197.6z"/>
<polygon style="fill:#F9B54C;" points="280.8,170 293.2,180 293.2,220.8 294.8,258.4 256.8,266.8 210.8,252 210.8,208 218.8,177.6 
	227.2,170 254,167.2 "/>
<path style="fill:#FFFFFF;" d="M213.6,252c0,0,29.6,10.8,79.6,0l-23.6,105.2l-56,8.4V252z"/>
<path style="fill:#FF7058;" d="M160,212.4c0,0-31.2,87.2,7.2,231.6l17.6-44c0,0-8.8-99.2,6-120l-9.6-57.2L160,212.4z"/>
<g>
	<path style="fill:#F1543F;" d="M227.2,170c0,0-18,26.4-67.2,42.4c0,0,67.2,85.2,0,234c0,0,27.2,45.2,67.2,51.6
		c0,0,25.6-123.6,33.6-129.2L226,316.4l-12.4-64l5.6-62.4L227.2,170z"/>
	<path style="fill:#F1543F;" d="M348,212.4c0,0,31.2,87.2-7.2,231.6l-17.6-44c0,0,8.8-99.2-6-120l9.6-57.2L348,212.4z"/>
</g>
<path style="fill:#FF7058;" d="M280.8,170c0,0,18,26.4,67.2,42.4c0,0-67.2,85.2,0,234c0,0-27.2,45.2-67.2,51.6
	c0,0-25.6-123.6-33.6-129.2l34.8-52.4l12.4-64l-5.6-62.4L280.8,170z"/>
<path style="fill:#F9B54C;" d="M257.2,174l23.6-4c0,0-10.4-15.2-10.8-38.4h-12.8h-6h-12.8c-0.4,23.2-10.8,38.4-10.8,38.4l23.6,4v1.2
	l3.2-0.4l3.2,0.4V174H257.2z"/>
<ellipse style="fill:#FFD05B;" cx="252.8" cy="122.8" rx="40.8" ry="57.6"/>
<g>
	<path style="fill:#324A5E;" d="M244.4,59.2c0,0,20,53.6,60.4,68.8L290,70l-33.2-16.4L244.4,59.2z"/>
	<path style="fill:#324A5E;" d="M255.6,59.6c0,0-29.6,43.6-50.4,53.6l5.6-33.6l19.6-18.4L255.6,59.6z"/>
</g>
<path style="fill:#FFFFFF;" d="M294.4,194.8c-8,11.2-23.6,19.2-41.6,19.2s-33.6-7.6-41.6-19.2h-1.6c8,12,24.4,20.4,43.2,20.4
	s34.8-8.4,43.2-20.4H294.4z"/>
<path style="fill:#324A5E;" d="M256.8,215.6c0,2-0.8,9.6-2.8,9.6c-2,0-2.8-7.6-2.8-9.6v-0.4c0-0.4,0-0.8,0-1.2
	c0.4-2,1.2-2.8,2.8-2.8c1.2,0,2.4,0.4,2.8,2.4c-0.4,0-0.8,0-1.2,0c-0.4-1.6-0.8-1.6-1.6-1.6c-0.8,0-1.2,0-1.6,1.6c0,0.4,0,0.8,0,1.2
	v0.4c0,4,1.2,8,1.6,8.4c0.8-0.4,1.6-4.4,1.6-8.4v-0.4c0.4,0,0.8,0,1.2,0C256.8,215.2,256.8,215.6,256.8,215.6z"/>
<circle style="fill:#E6E9EE;" cx="254" cy="230.4" r="8"/>
<g>
	<ellipse style="fill:#CED5E0;" cx="254" cy="227.2" rx="0.8" ry="3.2"/>
	<ellipse style="fill:#CED5E0;" cx="254" cy="233.6" rx="0.8" ry="3.2"/>
	<ellipse style="fill:#CED5E0;" cx="257.6" cy="230.4" rx="3.2" ry="0.8"/>
	<ellipse style="fill:#CED5E0;" cx="250.8" cy="230.4" rx="3.2" ry="0.8"/>
	
		<ellipse transform="matrix(0.707 -0.7072 0.7072 0.707 -86.0828 248.1568)" style="fill:#CED5E0;" cx="256.45" cy="227.969" rx="3.2" ry="0.8"/>
	
		<ellipse transform="matrix(0.707 -0.7072 0.7072 0.707 -90.8362 246.1255)" style="fill:#CED5E0;" cx="251.622" cy="232.69" rx="3.2" ry="0.8"/>
	
		<ellipse transform="matrix(0.7071 0.7071 -0.7071 0.7071 239.6898 -113.2074)" style="fill:#CED5E0;" cx="256.498" cy="232.728" rx="3.2" ry="0.8"/>
	
		<ellipse transform="matrix(0.707 0.7072 -0.7072 0.707 235.0829 -111.3485)" style="fill:#CED5E0;" cx="251.924" cy="228.039" rx="3.2" ry="0.8"/>
</g>
<path style="fill:#FF7058;" d="M227.2,170c0,0-28.4,101.2,33.6,198.8c0,0-58-33.6-70-142.8l19.2-2.8l-13.2-8.8
	C197.2,214.4,196,179.6,227.2,170z"/>
<path style="fill:#F1543F;" d="M280.8,170c0,0,28.4,101.2-33.6,198.8c0,0,58-33.6,70-142.8l-19.2-2.8l13.2-8.8
	C310.8,214.4,312,179.6,280.8,170z"/>
<g>
</g>
<g>
</g>
<g>
</g>
<g>
</g>
<g>
</g>
<g>
</g>
<g>
</g>
<g>
</g>
<g>
</g>
<g>
</g>
<g>
</g>
<g>
</g>
<g>
</g>
<g>
</g>
<g>
</g>
</svg>
