<?xml version="1.0" encoding="UTF-8"?>
<svg width="25px" height="25px" viewBox="0 0 25 25" version="1.1" xmlns="http://www.w3.org/2000/svg" xmlns:xlink="http://www.w3.org/1999/xlink">
    <!-- Generator: Sketch 41.2 (35397) - http://www.bohemiancoding.com/sketch -->
    <title>pyramid</title>
    <desc>Created with Sketch.</desc>
    <defs></defs>
    <g id="Symbols" stroke="none" stroke-width="1" fill="none" fill-rule="evenodd">
        <g id="pyramid">
            <g id="Layer_1">
                <g>
                    <path d="M24.0362086,20.0132066 L12.7942982,0.410477583 C12.6491228,0.157309942 12.3775828,0 12.08577,0 C11.7939571,0 11.5224172,0.157309942 11.3772417,0.410477583 L0.135331384,20.0132066 C0.0133528265,20.2258285 -0.00657894737,20.4824561 0.081042885,20.7114522 C0.168664717,20.9404483 0.354824561,21.1181774 0.587621832,21.195078 L11.8295322,24.9102339 C11.9952242,24.9650097 12.1764133,24.9650097 12.3421053,24.9102339 L23.5840156,21.195078 C23.8167641,21.1181287 24.0029727,20.9403996 24.0905945,20.7114522 C24.1781676,20.4825049 24.1581871,20.2258772 24.0362086,20.0132066 Z" id="Shape" fill="#00D7DF"></path>
                    <path d="M12.3420565,24.9102339 L23.5839669,21.195078 C23.8167154,21.1181287 24.002924,20.9403996 24.0905458,20.7114522 C24.1781676,20.4825049 24.1581871,20.2258285 24.0362573,20.0132066 L12.794347,0.41042885 C12.6491228,0.157309942 12.3775828,0 12.08577,0 L12.08577,24.9512671 C12.1725146,24.9512671 12.2592105,24.9376218 12.3420565,24.9102339 Z" id="Shape" fill="#00B6BD"></path>
                    <path d="M23.5839669,19.6440546 L17.962963,17.7864522 L12.3420565,15.9288986 C12.2591618,15.9015107 12.1725146,15.8878655 12.08577,15.8878655 C11.9990253,15.8878655 11.9123294,15.9015107 11.8294834,15.9288986 L6.20847953,17.7864522 L0.587524366,19.6440546 C0.42002924,19.6993665 0.279922027,19.8050682 0.181676413,19.9410331 C0.0834307992,20.0769981 0.0270467836,20.2431774 0.0270467836,20.4195419 C0.0270467836,20.5959064 0.0834795322,20.7620858 0.181676413,20.8980507 C0.279922027,21.0340156 0.420077973,21.1397173 0.587524366,21.1950292 L6.20852827,23.0526316 L11.8295322,24.9102339 C11.9124269,24.9376218 11.9990741,24.9512671 12.0858187,24.9512671 C12.1725634,24.9512671 12.2592593,24.9376218 12.3421053,24.9102339 L17.9631092,23.0526316 L23.5841131,21.1950292 C23.7515595,21.1397173 23.8917154,21.0340156 23.989961,20.8980507 C24.0882066,20.7620858 24.1445906,20.5959064 24.1445906,20.4195419 C24.1445906,20.2431774 24.0881579,20.0769493 23.989961,19.9410331 C23.8915692,19.8050682 23.7514133,19.6993665 23.5839669,19.6440546 Z" id="Shape" fill="#00F6FF"></path>
                    <path d="M12.3420565,24.9102339 L17.9630604,23.0526316 L23.5840643,21.1950292 C23.7515107,21.1397173 23.8916667,21.0340156 23.9899123,20.8980507 C24.0881579,20.7620858 24.1445419,20.5959064 24.1445419,20.4195419 C24.1445419,20.2431774 24.0881092,20.0769493 23.9899123,19.9410331 C23.8916667,19.8050682 23.7515107,19.6993665 23.5840643,19.6440546 L17.9630604,17.7864522 L12.3420565,15.9288986 C12.2591618,15.9015107 12.1725146,15.8878655 12.08577,15.8878655 L12.08577,24.9512671 C12.1725146,24.9512671 12.2592105,24.9376218 12.3420565,24.9102339 Z" id="Shape" fill="#00D7DF"></path>
                </g>
            </g>
        </g>
    </g>
</svg>