<?xml version="1.0" encoding="UTF-8"?>
<svg width="100px" height="100px" viewBox="0 0 100 100" version="1.1" xmlns="http://www.w3.org/2000/svg" xmlns:xlink="http://www.w3.org/1999/xlink">
    <!-- Generator: Sketch 41.2 (35397) - http://www.bohemiancoding.com/sketch -->
    <title>Artboard Copy 3</title>
    <desc>Created with Sketch.</desc>
    <defs></defs>
    <g id="Page-1" stroke="none" stroke-width="1" fill="none" fill-rule="evenodd">
        <g id="Artboard-Copy-3">
            <g id="earth-globe" transform="translate(14.000000, 0.000000)">
                <g id="Layer_1">
                    <g id="Group">
                        <rect id="Rectangle-path" fill="#868491" x="35.9162109" y="76.5625" width="6.25" height="9.375"></rect>
                        <rect id="Rectangle-path" fill="#5C546A" x="35.9162109" y="76.5625" width="3.125" height="9.375"></rect>
                        <path d="M29.7089844,92.1875 L29.7089844,89.0625 C29.7089844,87.3365234 31.1080078,85.9375 32.8339844,85.9375 L45.3339844,85.9375 C47.0599609,85.9375 48.4589844,87.3365234 48.4589844,89.0625 L48.4589844,92.1875" id="Shape" fill="#BA7958"></path>
                        <path d="M39.0412109,85.9375 L32.8339844,85.9375 C31.1082031,85.9375 29.7089844,87.3365234 29.7089844,89.0625 L29.7089844,92.1875 L39.0412109,92.1875 L39.0412109,85.9375 Z" id="Shape" fill="#996459"></path>
                        <path d="M39.0837891,9.375 C38.2201172,9.375 37.5212891,8.67539063 37.5212891,7.8125 L37.5212891,1.5625 C37.5212891,0.699609375 38.2201172,0 39.0837891,0 C39.9474609,0 40.6462891,0.699609375 40.6462891,1.5625 L40.6462891,7.8125 C40.6462891,8.67539063 39.9474609,9.375 39.0837891,9.375 Z" id="Shape" fill="#5C546A"></path>
                        <path d="M39.0837891,78.125 C38.2201172,78.125 37.5212891,77.4253906 37.5212891,76.5625 L37.5212891,70.3125 C37.5212891,69.4496094 38.2201172,68.75 39.0837891,68.75 C39.9474609,68.75 40.6462891,69.4496094 40.6462891,70.3125 L40.6462891,76.5625 C40.6462891,77.4253906 39.9474609,78.125 39.0837891,78.125 Z" id="Shape" fill="#5C546A"></path>
                        <path d="M50.0212891,90.625 L28.1462891,90.625 C23.8386719,90.625 20.3337891,94.1298828 20.3337891,98.4375 C20.3337891,99.3003906 21.0326172,100 21.8962891,100 L56.2712891,100 C57.1349609,100 57.8337891,99.3003906 57.8337891,98.4375 C57.8337891,94.1298828 54.3289062,90.625 50.0212891,90.625 Z" id="Shape" fill="#996459"></path>
                        <circle id="Oval" fill="#FFD788" cx="39.0412109" cy="39.0625" r="32.8125"></circle>
                        <path d="M39.0412109,71.875 C48.1021484,71.875 56.3052734,68.2023438 62.2431641,62.2644531 L15.8392578,15.8605469 C9.90136719,21.7984375 6.22871094,30.0015625 6.22871094,39.0625 C6.22871094,57.184375 20.9193359,71.875 39.0412109,71.875 Z" id="Shape" fill="#E6BE8A"></path>
                        <path d="M71.6097656,35.1216797 C69.8441406,20.3806641 58.3123047,8.64785156 43.6658203,6.58066406 L41.8332031,9.56582031 C41.7626953,9.69550781 41.6441406,9.7890625 41.5021484,9.82910156 C41.3580078,9.86757813 41.2095703,9.85 41.08125,9.77617187 L36.2865234,7.01464844 C36.0900391,6.90195313 35.8453125,6.92109375 35.6703125,7.06269531 L28.8214844,12.5865234 C27.65625,13.5259766 26.9886719,14.921875 26.9886719,16.4173828 L26.9886719,17.9164063 C26.9886719,18.0798828 27.0613281,18.2347656 27.1884766,18.3388672 C27.3144531,18.4423828 27.4810547,18.4835937 27.6414062,18.453125 L32.5023437,17.4992187 L31.7535156,18.8050781 C31.5697266,19.1277344 31.3261719,19.4042969 31.0292969,19.628125 L26.6810547,22.9099609 C26.5433594,23.0130859 26.4630859,23.1748047 26.4630859,23.3462891 L26.4630859,25.9310547 L25.00625,26.0859375 C23.5589844,26.2392578 22.4865234,27.4980469 22.5644531,28.9511719 L22.6435547,30.4128906 C22.7066406,31.5861328 23.5087891,32.5859375 24.6410156,32.9009766 L26.1267578,33.3142578 C24.5,33.809375 23.3892578,35.3158203 23.4275391,37.0585937 L23.4521484,38.1859375 L21.7783203,41.4142578 C20.3972656,44.0759766 20.5767578,47.2755859 22.2482422,49.7642578 L23.0439453,50.9494141 C24.1324219,52.5697266 26.0828125,53.3970703 27.9947266,53.0513672 L35.2642578,51.7535156 L36.95625,53.8492187 C38.1023437,55.2675781 39.6072266,56.3634766 41.3099609,57.0183594 L42.0490234,57.3025391 L42.0490234,61.8675781 C42.0490234,62.3642578 42.2285156,63.2566406 42.5980469,64.5960937 C43.0648437,66.2869141 44.1671875,67.6914062 45.7019531,68.5519531 C46.6996094,69.1117187 47.7998047,69.3962891 48.9117187,69.3962891 C49.5216797,69.3962891 50.1357422,69.3107422 50.7392578,69.1373047 C50.9027344,69.0908203 51.0351562,68.9707031 51.0970703,68.8130859 L55.8853516,56.7091797 L62.2941406,50.6710937 C62.3796875,50.5910156 62.4361328,50.4857422 62.4576172,50.3708984 L63.0962891,46.8503906 C63.1261719,46.684375 63.078125,46.5138672 62.9660156,46.3878906 C62.8527344,46.2619141 62.6882812,46.1994141 62.5207031,46.2068359 L60.9675781,46.3130859 C59.9572266,46.3830078 58.9990234,46.0550781 58.2556641,45.4361328 L48.8849609,33.59375 L59.3537109,43.75 L63.8332031,41.3060547 C64.803125,40.5873047 65.3820313,39.4373047 65.3820313,38.2298828 L65.3820313,35.2583984 C65.3820313,35.0826172 65.2976562,34.9175781 65.1556641,34.8150391 C65.0125,34.7109375 64.8308594,34.6832031 64.6632813,34.7392578 L63.4466797,35.1419922 C63.0023438,35.2888672 62.5324219,35.2435547 62.1244141,35.0126953 C61.7164063,34.7814453 61.434375,34.4027344 61.3308594,33.9451172 L60.8394531,31.7607422 L71.3763672,35.109375 C71.453125,35.1328125 71.5324219,35.13125 71.6097656,35.1216797 Z M48.3541016,32.5699219 L47.5091797,33.3330078 L42.4572266,35.0220703 C41.81875,35.2355469 41.1173828,35.1431641 40.5560547,34.7714844 L37.7476562,32.9123047 C36.7533203,32.2542969 35.6060547,31.9121094 34.434375,31.9121094 C34.0839844,31.9121094 33.7316406,31.9431641 33.38125,32.0050781 L28.2853516,32.9044922 L29.7962891,31.7761719 C30.1199219,31.5345703 30.3703125,31.2078125 30.5197266,30.8326172 L31.4714844,28.4419922 C32.3291016,27.6478516 33.5841797,27.4865234 34.6074219,28.0269531 L37.5841797,30.6662109 C37.7541016,30.8173828 38.0007812,30.8466797 38.2015625,30.7410156 C38.4035156,30.6353516 38.5177734,30.4158203 38.4900391,30.1904297 L38.1814453,27.7556641 C38.1964844,27.4341797 38.4441406,27.3076172 38.5189453,27.2765625 C38.59375,27.2451172 38.8585937,27.1601562 39.096875,27.3785156 L42.6826172,30.6603516 C42.8244141,30.7902344 43.0240234,30.8361328 43.2085937,30.7814453 L48.5466797,29.1974609 C48.9279297,29.6310547 49.14375,30.1923828 49.146875,30.7767578 C49.1486328,31.4591797 48.8603516,32.1128906 48.3541016,32.5699219 Z M50.5382812,25.5166016 L48.8357422,26.7753906 C48.6478516,26.9142578 48.4191406,26.9894531 48.1853516,26.9894531 L45.1476562,26.9894531 C44.5431641,26.9894531 44.0539062,26.4998047 44.0539062,25.8957031 C44.0539062,25.2916016 44.5431641,24.8019531 45.1476562,24.8019531 L47.8253906,24.8019531 L49.2375,23.7574219 C49.7234375,23.3980469 50.4103516,23.5015625 50.7669922,23.9865234 C51.1267578,24.4726562 51.0242187,25.1572266 50.5382812,25.5166016 Z M55.43125,25.5208984 C55.2369141,25.6625 55.0115234,25.7308594 54.7882813,25.7308594 C54.4507812,25.7308594 54.1175781,25.575 53.9039062,25.2816406 L51.1042969,21.4417969 C50.7474609,20.9537109 50.8554687,20.2689453 51.3435547,19.9132812 C51.8316406,19.5570312 52.5152344,19.6654297 52.8708984,20.1525391 L55.6705078,23.9923828 C56.0273438,24.4806641 55.9195312,25.1652344 55.43125,25.5208984 Z" id="Shape" fill="#E6BE8A"></path>
                        <path d="M23.9242187,23.4375 C23.8451172,23.4375 23.7662109,23.4294922 23.6859375,23.4113281 C23.0962891,23.2804687 22.7246094,22.6962891 22.8548828,22.1066406 L23.459375,19.3861328 L22.3751953,18.7207031 C21.8603516,18.4050781 21.6990234,17.7310547 22.0152344,17.2162109 C22.3324219,16.7007813 23.0054687,16.5390625 23.5201172,16.8568359 L25.2685547,17.9302734 C25.6658203,18.1744141 25.8646484,18.64375 25.7640625,19.0994141 L24.9908203,22.5808594 C24.8779297,23.0908203 24.4251953,23.4375 23.9242187,23.4375 Z" id="Shape" fill="#E6BE8A"></path>
                        <path d="M32.1931641,32.2144531 L28.2851562,32.9041016 L29.7960937,31.7757813 C30.1197266,31.5341797 30.3701172,31.2074219 30.5195312,30.8322266 L30.6025391,30.6240234 L25.9628906,25.984375 L25.0060547,26.0861328 C23.5587891,26.2394531 22.4863281,27.4980469 22.5644531,28.9513672 L22.6435547,30.4130859 C22.7064453,31.5863281 23.5087891,32.5861328 24.6410156,32.9013672 L26.1267578,33.3146484 C24.5,33.8097656 23.3890625,35.3164062 23.4275391,37.0589844 L23.4521484,38.1863281 L21.7785156,41.4146484 C20.3974609,44.0763672 20.5769531,47.2759766 22.2484375,49.7646484 L23.0441406,50.9498047 C24.1324219,52.5701172 26.0830078,53.3972656 27.9949219,53.0517578 L35.2644531,51.7539062 L36.9564453,53.8496094 C38.1025391,55.2679688 39.6074219,56.3638672 41.3101563,57.01875 L42.0492188,57.3029297 L42.0492188,61.8681641 C42.0492188,62.3648438 42.2287109,63.2572266 42.5982422,64.5966797 C43.0650391,66.2875 44.1673828,67.6921875 45.7021484,68.5525391 C46.6998047,69.1121094 47.8,69.396875 48.9119141,69.396875 C49.521875,69.396875 50.1359375,69.3113281 50.7394531,69.1378906 C50.9029297,69.0914063 51.0353516,68.9712891 51.0972656,68.8136719 L55.8857422,56.7097656 L56.2990234,56.3203125 L32.1931641,32.2144531 Z" id="Shape" fill="#C9A07C"></path>
                        <path d="M45.3337891,78.125 L39.0837891,78.125 C17.5445312,78.125 0.0212890625,60.6017578 0.0212890625,39.0625 C0.0212890625,17.5232422 17.5445312,0 39.0837891,0 L45.3337891,0 C46.1974609,0 46.8962891,0.699609375 46.8962891,1.5625 C46.8962891,2.42539062 46.1974609,3.125 45.3337891,3.125 L39.0837891,3.125 C19.2671875,3.125 3.14628906,19.2466797 3.14628906,39.0625 C3.14628906,58.8783203 19.2671875,75 39.0837891,75 L45.3337891,75 C46.1974609,75 46.8962891,75.6996094 46.8962891,76.5625 C46.8962891,77.4253906 46.1974609,78.125 45.3337891,78.125 Z" id="Shape" fill="#996459"></path>
                        <path d="M39.0412109,90.625 L28.1464844,90.625 C23.8388672,90.625 20.3339844,94.1298828 20.3339844,98.4375 C20.3339844,99.3003906 21.0328125,100 21.8964844,100 L39.0412109,100 L39.0412109,90.625 Z" id="Shape" fill="#7E5C62"></path>
                    </g>
                </g>
            </g>
        </g>
    </g>
</svg>