<?xml version="1.0" encoding="UTF-8"?>
<svg width="740px" height="516px" viewBox="0 0 740 516" version="1.1" xmlns="http://www.w3.org/2000/svg" xmlns:xlink="http://www.w3.org/1999/xlink">
    <!-- Generator: Sketch 41.2 (35397) - http://www.bohemiancoding.com/sketch -->
    <title>659</title>
    <desc>Created with Sketch.</desc>
    <defs>
        <filter x="-50%" y="-50%" width="200%" height="200%" filterUnits="objectBoundingBox" id="filter-1">
            <feOffset dx="6" dy="11" in="SourceAlpha" result="shadowOffsetOuter1"></feOffset>
            <feGaussianBlur stdDeviation="10" in="shadowOffsetOuter1" result="shadowBlurOuter1"></feGaussianBlur>
            <feColorMatrix values="0 0 0 0 0.874509804   0 0 0 0 0.874509804   0 0 0 0 0.874509804  0 0 0 0.5 0" type="matrix" in="shadowBlurOuter1" result="shadowMatrixOuter1"></feColorMatrix>
            <feMerge>
                <feMergeNode in="shadowMatrixOuter1"></feMergeNode>
                <feMergeNode in="SourceGraphic"></feMergeNode>
            </feMerge>
        </filter>
        <filter x="-50%" y="-50%" width="200%" height="200%" filterUnits="objectBoundingBox" id="filter-2">
            <feOffset dx="6" dy="11" in="SourceAlpha" result="shadowOffsetOuter1"></feOffset>
            <feGaussianBlur stdDeviation="10" in="shadowOffsetOuter1" result="shadowBlurOuter1"></feGaussianBlur>
            <feColorMatrix values="0 0 0 0 0.874509804   0 0 0 0 0.874509804   0 0 0 0 0.874509804  0 0 0 0.5 0" type="matrix" in="shadowBlurOuter1" result="shadowMatrixOuter1"></feColorMatrix>
            <feMerge>
                <feMergeNode in="shadowMatrixOuter1"></feMergeNode>
                <feMergeNode in="SourceGraphic"></feMergeNode>
            </feMerge>
        </filter>
        <polygon id="path-3" points="0.494 41.039 0.109 0.591 0.18 0.499 0.181 0.499"></polygon>
        <path d="M10.261,0.428 L0.096,0.428 L0.083,0.353 L10.385,0.353 C10.343,0.378 10.302,0.403 10.261,0.428 Z" id="path-5"></path>
        <path d="M4.228,0.89 C2.907,0.621 1.525,0.449 0.08,0.375 L0.092,0.172 C1.715,0.486 3.134,0.683 4.238,0.715 L4.228,0.89 Z" id="path-7"></path>
        <path d="M0.66,0.136 C0.809,0.093 0.958,0.051 1.109,0.008 L1.111,0.021 C0.96,0.059 0.81,0.097 0.66,0.136 Z" id="path-9"></path>
    </defs>
    <g id="Page-1" stroke="none" stroke-width="1" fill="none" fill-rule="evenodd">
        <g id="659" transform="translate(14.000000, 0.000000)">
            <g id="Group-2" filter="url(#filter-1)" transform="translate(392.000000, 38.000000)" fill="#FFFFFF">
                <path d="M3.204,443.472 L3.204,3.78 L25.192,3.78 L305.043,3.78 L305.043,25.769 L305.043,443.472 C305.043,443.472 295.178,443.458 283.051,443.472 L25.188,443.773 C13.055,443.773 3.204,443.472 3.204,443.472 Z" id="Fill-4"></path>
                <path d="M25.193,0.781 C11.449,0.781 0.204,0.781 0.204,0.781 L0.204,446.773 L25.163,446.773 L283.055,446.472 C296.798,446.457 308.043,446.472 308.043,446.472 L308.043,0.781 L283.055,0.781 L25.193,0.781 Z M302.044,6.78 L302.044,440.473 C302.044,440.473 293.523,440.461 283.048,440.473 L25.163,440.773 C14.709,440.773 6.204,440.473 6.204,440.473 L6.204,6.78 C6.204,6.78 14.723,6.78 25.193,6.78 L283.055,6.78 C293.525,6.78 302.044,6.78 302.044,6.78 Z" id="Fill-5"></path>
            </g>
            <path d="M403.347,133.808 L588.085,49.925 L675.057,49.925 C682.69,49.925 688.898,56.134 688.898,63.767 L688.898,216.411 L403.347,337.572 L403.347,133.808" id="Fill-6" fill="#FCFCFC"></path>
            <path d="M519.68,63.429 L572.568,63.391" id="Stroke-7" stroke="#EBE8E8" stroke-width="8.212" stroke-linecap="round"></path>
            <path d="M671.465,429.063 L420.76,429.063 L420.76,379.569 L425.875,379.889 L445.795,381.136 C445.816,381.138 445.836,381.139 445.857,381.14 L451.447,381.49 C451.535,381.495 451.623,381.498 451.709,381.498 C453.872,381.498 455.69,379.815 455.827,377.626 L458.962,327.554 L460.332,309.166 L460.122,309.034 L463.028,262.605 C463.171,260.338 461.432,258.368 459.165,258.225 L420.76,255.82 L420.76,79.54 L671.465,79.54 L671.465,429.063 M594.603,429.047 L615.943,429.047 L615.943,408.961 C616.993,409.015 618.404,409.069 620.296,409.117 C620.33,409.119 620.365,409.122 620.398,409.124 C620.654,409.143 620.908,409.152 621.161,409.152 C622.924,409.152 624.618,408.708 626.198,407.886 C630.542,405.774 632.499,401.7 632.499,401.7 C632.841,401.148 633.167,400.572 633.476,399.972 C637.135,397.351 640.031,393.741 641.798,389.483 C648.433,389.358 653.773,383.941 653.773,377.276 L653.773,338.284 C653.773,337.57 653.682,336.877 653.512,336.216 L653.622,334.942 C653.622,331.457 649.616,327.703 646.131,327.703 L643.747,327.675 L643.781,255.694 C643.788,240.985 631.759,228.945 617.051,228.938 L551.072,228.907 L551.06,228.907 C542.167,228.907 534.252,233.305 529.382,240.034 C523.383,243.96 519.08,250.293 517.877,257.633 C515.748,260.986 513.958,264.585 512.511,268.325 L512.511,269.429 C510.251,270.95 508.713,273.481 508.57,276.412 L508.569,276.411 L505.307,343.283 C504.984,349.885 504.531,360.594 504.295,367.201 L502.622,414.033 C502.445,418.964 506.301,423.106 511.233,423.283 C511.342,423.287 511.45,423.288 511.558,423.288 C511.879,423.288 512.197,423.271 512.511,423.238 L512.511,429.047 L594.603,429.047" id="Fill-8"></path>
            <path d="M672.863,430.461 L672.863,429.063 L419.362,429.063 C419.184,429.069 418.946,429.075 418.609,429.257 C418.444,429.35 418.256,429.503 418.111,429.727 C417.965,429.949 417.881,430.237 417.883,430.5 C417.891,430.959 418.075,431.276 418.296,431.505 C418.521,431.728 418.834,431.925 419.318,431.935 C419.515,431.936 419.75,431.891 419.97,431.778 C420.307,431.612 420.543,431.301 420.641,431.056 C420.744,430.805 420.758,430.612 420.76,430.461 L420.76,78.142 C420.755,77.957 420.745,77.705 420.55,77.363 C420.451,77.196 420.291,77.01 420.068,76.873 C419.847,76.736 419.57,76.661 419.322,76.663 C418.886,76.672 418.607,76.823 418.371,77.021 C418.254,77.125 418.146,77.25 418.052,77.423 C417.96,77.593 417.883,77.821 417.882,78.098 C417.881,78.315 417.936,78.571 418.063,78.794 C418.252,79.138 418.564,79.347 418.798,79.434 C419.036,79.526 419.218,79.538 419.362,79.54 L672.863,79.54 C673.052,79.535 673.313,79.523 673.66,79.317 C673.829,79.213 674.012,79.047 674.141,78.825 C674.273,78.604 674.341,78.338 674.339,78.102 C674.338,77.851 674.276,77.649 674.2,77.488 C674.083,77.247 673.938,77.083 673.747,76.94 C673.555,76.803 673.297,76.667 672.9,76.662 C672.651,76.659 672.352,76.739 672.119,76.895 C671.761,77.133 671.607,77.45 671.541,77.655 C671.473,77.87 671.467,78.018 671.465,78.142 L671.465,430.461 C671.471,430.643 671.479,430.89 671.671,431.232 C671.769,431.399 671.928,431.585 672.151,431.724 C672.374,431.864 672.651,431.939 672.901,431.937 C673.164,431.936 673.382,431.866 673.55,431.781 C673.804,431.648 673.967,431.485 674.101,431.287 C674.228,431.089 674.334,430.84 674.338,430.497 C674.341,430.261 674.268,429.968 674.116,429.734 C674.005,429.557 673.86,429.42 673.725,429.327 C673.519,429.186 673.341,429.13 673.202,429.099 C673.063,429.069 672.955,429.064 672.863,429.063 L672.863,431.859 L672.863,430.58 L672.254,431.699 C672.579,431.865 672.759,431.852 672.863,431.859 L672.863,430.58 L672.254,431.699 L672.907,430.5 L671.756,431.232 C671.9,431.46 672.096,431.614 672.254,431.699 L672.907,430.5 L671.756,431.232 L672.912,430.497 L671.542,430.497 C671.539,430.723 671.609,431.006 671.756,431.232 L672.912,430.497 L671.542,430.497 L672.896,430.497 L671.9,429.578 C671.711,429.793 671.553,430.058 671.542,430.497 L672.896,430.497 L671.9,429.578 L672.893,430.494 L672.28,429.29 C672.12,429.373 672.001,429.47 671.9,429.578 L672.893,430.494 L672.28,429.29 L672.9,430.507 L672.901,429.141 C672.647,429.142 672.439,429.209 672.28,429.29 L672.9,430.507 L672.901,429.141 L672.901,430.512 L673.622,429.346 C673.409,429.212 673.141,429.139 672.901,429.141 L672.901,430.512 L673.622,429.346 L672.91,430.496 L674.182,430.03 C674.112,429.836 673.949,429.549 673.622,429.346 L672.91,430.496 L674.182,430.03 L673.005,430.461 L674.261,430.461 C674.259,430.367 674.254,430.23 674.182,430.03 L673.005,430.461 L674.261,430.461 L674.261,78.142 L672.995,78.142 L674.107,78.735 C674.267,78.416 674.254,78.243 674.261,78.142 L672.995,78.142 L674.107,78.735 L672.905,78.094 L673.652,79.232 C673.88,79.083 674.025,78.89 674.107,78.735 L672.905,78.094 L673.652,79.232 L672.9,78.085 L672.9,79.458 C673.139,79.461 673.429,79.383 673.652,79.232 L672.9,78.085 L672.9,79.458 L672.9,78.091 L672.299,79.318 C672.451,79.392 672.646,79.457 672.9,79.458 L672.9,78.091 L672.299,79.318 L672.892,78.107 L671.793,78.887 C671.924,79.067 672.072,79.204 672.299,79.318 L672.892,78.107 L671.793,78.887 L672.9,78.101 L671.543,78.102 C671.548,78.464 671.669,78.708 671.793,78.887 L672.9,78.101 L671.543,78.102 L672.914,78.102 L671.732,77.408 C671.606,77.619 671.541,77.874 671.543,78.102 L672.914,78.102 L671.732,77.408 L672.896,78.091 L672.41,76.83 C672.209,76.905 671.922,77.083 671.732,77.408 L672.896,78.091 L672.41,76.83 L672.863,78.005 L672.863,76.744 C672.763,76.746 672.618,76.752 672.41,76.83 L672.863,78.005 L672.863,76.744 L419.362,76.744 L419.362,78.025 L420.05,76.95 C419.718,76.749 419.489,76.75 419.362,76.744 L419.362,78.025 L420.05,76.95 L419.318,78.094 L420.505,77.433 C420.387,77.218 420.211,77.051 420.05,76.95 L419.318,78.094 L420.505,77.433 L419.311,78.098 L420.678,78.098 C420.679,77.892 420.625,77.647 420.505,77.433 L419.311,78.098 L420.678,78.098 L419.31,78.098 L420.515,78.746 C420.602,78.583 420.677,78.365 420.678,78.098 L419.31,78.098 L420.515,78.746 L419.323,78.106 L420.04,79.252 C420.223,79.135 420.38,78.99 420.515,78.746 L419.323,78.106 L420.04,79.252 L419.321,78.103 L419.322,79.458 C419.633,79.454 419.856,79.365 420.04,79.252 L419.321,78.103 L419.322,79.458 L419.322,78.087 L418.604,79.255 C418.816,79.388 419.083,79.461 419.322,79.458 L419.322,78.087 L418.604,79.255 L419.311,78.105 L418.044,78.576 C418.114,78.771 418.279,79.055 418.604,79.255 L419.311,78.105 L418.044,78.576 L419.211,78.142 L417.964,78.142 C417.966,78.237 417.972,78.374 418.044,78.576 L419.211,78.142 L417.964,78.142 L417.964,430.461 L419.263,430.461 L418.198,429.726 C417.974,430.067 417.969,430.323 417.964,430.461 L419.263,430.461 L418.198,429.726 L419.316,430.499 L418.699,429.289 C418.489,429.394 418.31,429.561 418.198,429.726 L419.316,430.499 L418.699,429.289 L419.317,430.501 L419.318,429.139 C419.133,429.138 418.908,429.181 418.699,429.289 L419.317,430.501 L419.318,429.139 L419.318,430.5 L420.289,429.545 C420.077,429.336 419.783,429.149 419.318,429.139 L419.318,430.5 L420.289,429.545 L419.318,430.499 L420.679,430.5 C420.671,430.058 420.496,429.761 420.289,429.545 L419.318,430.499 L420.679,430.5 L419.307,430.5 L420.459,431.244 C420.6,431.031 420.681,430.752 420.679,430.5 L419.307,430.5 L420.459,431.244 L419.323,430.509 L419.775,431.786 C419.963,431.72 420.245,431.571 420.459,431.244 L419.323,430.509 L419.775,431.786 L419.362,430.618 L419.362,431.859 C419.451,431.857 419.581,431.852 419.775,431.786 L419.362,430.618 L419.362,431.859 L672.863,431.859 L672.863,430.461" id="Fill-10" fill="#F1F1F1"></path>
            <path d="M555.95,454.82 C555.958,460.388 551.449,464.908 545.881,464.915 C540.312,464.92 535.792,460.412 535.784,454.843 C535.777,449.274 540.286,444.755 545.854,444.749 C551.423,444.742 555.943,449.251 555.95,454.82" id="Fill-11" fill="#EAE8E8"></path>
            <g id="Group" filter="url(#filter-2)" transform="translate(0.000000, 37.000000)" fill="#FFFFFF">
                <path d="M4,3.855 L3.224,419.415 C3.21555615,426.158656 3.224,444 3.224,444 L283.185,444.426 C296.762,444.442 307.902,444.426 307.902,444.426 L307.902,4.152 C307.902,4.152 297.323,4.167 283.746,4.152 L28.44,3.855 C14.863,3.839 4,3.855 4,3.855 Z" id="Fill-13"></path>
                <path d="M28.44,3.855 L28.44,0.891 C20.829,0.89 0.759,1.188 0.759,1.188 C0.759,1.188 0.767,20.907 0.759,28.509 L0.26,419.411 C0.259,427.024 0.759,447.092 0.759,447.092 C0.759,447.092 20.273,447.083 27.874,447.092 L283.181,447.389 C290.794,447.39 310.865,447.092 310.865,447.092 C310.865,447.092 310.853,427.372 310.865,419.772 L311.364,28.87 C311.365,21.254 310.865,1.188 310.865,1.188 C310.865,1.188 291.348,1.196 283.749,1.188 L28.443,0.891 L28.44,3.855 L28.436,6.818 L283.742,7.115 C289.708,7.122 304.938,7.115 304.938,7.115 C304.938,7.115 305.437,22.883 305.438,28.867 L304.938,419.764 C304.928,425.73 304.938,441.462 304.938,441.462 C304.938,441.462 289.164,441.461 283.185,441.462 L27.882,441.165 C21.914,441.156 6.685,441.165 6.685,441.165 C6.685,441.165 6.188,425.395 6.186,419.415 L6.685,28.516 C6.693,22.547 6.685,6.818 6.685,6.818 C6.685,6.818 22.457,6.819 28.44,6.818" id="Fill-14"></path>
            </g>
            <path d="M89.915,76.747 C90.834,59.674 94.814,49.463 97.993,43.899 L110.652,43.913 C108.009,54.557 107.557,66.585 108.639,75.938 C108.671,76.216 108.704,76.493 108.737,76.769 L89.915,76.747 Z" id="Fill-15" fill="#F4F4F4"></path>
            <polyline id="Fill-17" fill="#FCFCFC" points="11.637 234.543 299.508 112.053 299.508 269.261 11.637 391.751 11.637 234.543"></polyline>
            <path d="M278.673,429.496 L153.795,429.352 L153.797,418.838 C157.731,420.365 161.593,421.305 164.825,421.305 C167.218,421.305 169.266,420.79 170.744,419.618 C171.35,419.618 171.961,416.818 172.56,416.792 C172.798,416.783 173.035,416.778 173.272,416.762 C175.664,416.656 177.997,416.379 180.265,415.944 C183.18,415.387 185.982,414.576 188.626,413.546 C197.191,410.205 204.143,400.437 208.217,390.326 L221.921,390.353 L221.929,384.719 L227.285,384.722 L227.285,269.462 L239.023,301.809 C240.4,305.581 242.29,308.765 244.426,311.572 C246.033,313.674 247.793,315.563 249.686,317.282 C252.528,319.855 255.661,322.055 259.162,323.85 C262.666,325.63 266.55,327.034 271.023,327.659 L279.504,328.821 L279.378,428.794 L279.378,428.792 C279.377,429.177 279.057,429.496 278.673,429.496 M98.408,429.287 L32.85,429.211 L32.856,429.211 C32.458,429.209 32.146,428.893 32.146,428.505 L32.585,80.145 C32.586,79.754 32.896,79.444 33.291,79.442 L109.101,79.53 C114.694,118.922 134.883,136.663 155.796,141.167 L155.508,158.52 C155.499,158.519 155.489,158.518 155.479,158.517 C155.479,158.517 155.479,158.517 155.478,158.517 L155.52,150.758 C155.52,150.758 146.629,154.477 137.967,158.243 C132.447,160.644 127.019,163.07 124.039,164.547 L124.109,165.008 C123.958,165.051 123.809,165.093 123.66,165.136 C112.067,168.16 101.879,174.253 97.287,180.404 C92.763,186.464 87.973,193.048 83.171,201.753 C81.209,205.309 70.797,219.25 61.396,232.089 L48.002,250.09 L48.004,250.088 C46.28,252.411 44.958,254.749 43.843,257.112 C42.183,260.657 40.993,264.27 40.148,267.976 C39.313,271.684 38.824,275.465 38.818,279.422 C38.82,281.59 38.966,283.848 39.386,286.258 L39.377,286.207 L54.359,373.064 L61.653,371.806 L61.653,398.347 C61.653,401.874 64.54,404.76 68.066,404.76 L98.412,404.76 L98.412,406.353 L97.941,409.705 C98.1,409.705 98.257,409.703 98.412,409.701 L98.408,429.287 M32.85,429.211 L32.856,429.211 M97.441,299.428 L88.261,299.428 C88.302,299.403 88.343,299.378 88.385,299.353 L78.083,299.353 L74.763,280.103 L74.754,280.053 L74.755,280.053 C74.746,279.996 74.726,279.766 74.726,279.422 C74.725,278.883 74.779,278.095 74.914,277.238 C75.11,275.949 75.495,274.499 75.923,273.379 C76.134,272.82 76.352,272.342 76.526,272.012 C76.613,271.847 76.688,271.718 76.739,271.635 L76.798,271.544 L76.811,271.526 L76.811,271.525 L91.425,251.885 L97.109,244.591 L97.494,285.039 L97.605,299.357 C97.549,299.379 97.495,299.403 97.441,299.428 M279.552,290.803 L276.467,290.38 C276.357,290.331 276.171,290.24 275.961,290.108 C275.469,289.813 274.859,289.292 274.537,288.913 C274.443,288.806 274.371,288.713 274.324,288.649 L250.051,221.762 C241.065,192.687 233.773,174.251 217.228,170.89 L217.238,170.715 C216.134,170.683 214.715,170.486 213.092,170.172 L213.107,169.911 C205.685,166.602 183.791,153.948 181.679,152.724 L181.724,150.021 C182.202,150.036 182.68,150.044 183.16,150.044 C184.698,150.044 186.244,149.965 187.801,149.803 C189.658,149.611 191.478,149.306 193.26,148.896 C193.638,148.904 194.02,148.909 194.402,148.909 L194.458,148.909 C195.964,148.909 197.488,148.831 199.043,148.694 C217.681,147.022 227.498,129.675 232.123,108.115 C232.944,104.223 233.462,100.156 233.629,95.97 C233.648,95.394 233.629,93.878 233.56,91.756 C233.55,91.283 233.532,90.783 233.512,90.244 C235.005,88.274 235.856,85.941 235.816,83.463 C235.795,82.133 235.519,80.861 235.027,79.677 L279.114,79.728 C279.498,79.729 279.815,80.042 279.816,80.434 L279.552,290.803 M97.18,244.499 L97.181,244.499 L97.18,244.499" id="Fill-18"></path>
            <path d="M32.849,430.592 L32.847,431.972 L278.671,432.257 C280.589,432.255 282.131,430.707 282.139,428.8 L282.139,428.797 L282.577,80.435 C282.576,78.518 281.028,76.968 279.116,76.967 L33.292,76.681 C32.34,76.68 31.465,77.068 30.841,77.692 C30.214,78.314 29.823,79.191 29.824,80.144 L29.386,428.503 C29.386,430.416 30.932,431.963 32.841,431.972 L32.847,431.972 L32.849,430.592 L32.856,429.211 C32.458,429.209 32.146,428.893 32.146,428.505 L32.585,80.145 C32.586,79.754 32.896,79.444 33.291,79.442 L279.114,79.728 C279.498,79.729 279.815,80.042 279.816,80.434 L279.378,428.794 L279.378,428.792 C279.377,429.177 279.057,429.496 278.673,429.496 L32.85,429.211 L32.856,429.211 L32.849,430.592" id="Fill-20" fill="#F1F1F1"></path>
            <path d="M146.106,454.82 C146.099,460.321 150.553,464.786 156.054,464.792 C161.556,464.798 166.021,460.344 166.028,454.843 C166.035,449.341 161.581,444.876 156.08,444.871 C150.578,444.864 146.113,449.319 146.106,454.82" id="Fill-21" fill="#EAE8E8"></path>
            <path d="M508.569,276.411 L505.307,343.283 C504.984,349.885 504.531,360.594 504.295,367.201 L502.622,414.033 C502.445,418.964 506.301,423.106 511.233,423.283 C516.165,423.459 520.307,419.603 520.483,414.671 L522.155,367.839 C522.388,361.351 522.841,350.638 523.157,344.154 L526.42,277.281 C526.659,272.351 522.858,268.161 517.93,267.921 C513,267.681 508.81,271.482 508.57,276.412 L508.569,276.411" id="Fill-22" fill="#E98769"></path>
            <path d="M502.611,423.808 L509.158,415.086" id="Fill-23" fill="#F1AB7A"></path>
            <path d="M502.611,423.808 L509.158,415.086" id="Stroke-24" stroke="#EDAA81" stroke-width="7.022" stroke-linecap="round" stroke-linejoin="round"></path>
            <polyline id="Fill-25" fill="#D93133" points="502.529 366.559 568.2 366.559 567.254 423.487 560.45 425.984 496.327 425.002 497.139 372.012 502.529 366.559"></polyline>
            <path d="M502.715,368.042 L501.893,421.749 C498.489,424.31 494.842,424.5 490.866,421.58 L491.688,367.873" id="Fill-26" fill="#FFFFFF"></path>
            <path d="M500.964,422.34 C498.163,424.065 495.547,424.292 493.006,422.869 L493.869,366.469" id="Stroke-27" stroke="#CC4249" stroke-width="2.7"></path>
            <path d="M567.431,423.529 C567.431,423.529 566.634,426.08 563.092,426.026 C559.551,425.971 496.328,425.003 496.328,425.003 L496.367,422.441 L567.431,423.529" id="Fill-28" fill="#AB313C"></path>
            <path d="M501.92,420.003 C498.517,422.566 494.868,422.755 490.893,419.834" id="Stroke-29" stroke="#A93540" stroke-width="2.912"></path>
            <path d="M501.348,368.02 L502.715,368.042 L501.893,421.749 C498.489,424.31 494.842,424.5 490.866,421.58 L491.688,367.873 L493.066,367.894" id="Stroke-30" stroke="#E46B54" stroke-width="2.912"></path>
            <polyline id="Fill-31" fill="#AB313C" points="537.404 375.664 568.2 376.135 567.254 423.487 560.45 425.984 524.96 425.441 537.404 375.664"></polyline>
            <path d="M508.816,424.334 L508.565,419.711" id="Stroke-32" stroke="#F1AC82" stroke-width="6.593" stroke-linecap="round" stroke-linejoin="round"></path>
            <path d="M514.819,424.134 L515.127,416.07 M521.389,423.593 L520.84,418.434" id="Stroke-33" stroke="#F1AC82" stroke-width="7.183" stroke-linecap="round" stroke-linejoin="round"></path>
            <path d="M583.043,219.697 C572.371,219.697 563.721,225.406 563.721,232.449 M583.003,219.697 C593.674,219.697 602.324,225.406 602.324,232.449" id="Stroke-34" stroke="#2F7E85" stroke-width="5.462"></path>
            <path d="M565.273,221.9 C569.619,218.154 576.079,216.003 583.003,215.996 L583.003,215.995 L583.036,215.995 L583.043,215.996 C589.967,216.003 596.427,218.154 600.771,221.9 L595.937,227.508 C592.956,224.938 588.13,223.404 583.022,223.399 C577.916,223.404 573.089,224.938 570.108,227.508 L565.273,221.9" id="Fill-35" fill="#2A4041"></path>
            <path d="M524.258,371.059 C524.251,385.768 536.248,398.669 550.919,399.729 L617.036,404.503 C631.706,405.563 643.715,394.395 643.722,379.687 L643.781,255.694 C643.788,240.985 631.759,228.945 617.051,228.938 L551.072,228.907 C536.363,228.9 524.323,240.928 524.315,255.637 L524.258,371.059" id="Fill-36" fill="#1C8A6A"></path>
            <path d="M620.318,379.39 L641.3,379.39 C646.437,379.39 650.6,375.227 650.6,370.09 L653.622,334.942 C653.622,331.457 649.616,327.703 646.131,327.703 L620.318,327.404 L620.318,379.39" id="Fill-37" fill="#EF9E59"></path>
            <path d="M623.491,389.485 L641.563,389.485 C648.307,389.485 653.773,384.019 653.773,377.276 L653.773,338.284 C653.773,333.708 650.063,329.999 645.488,329.999 L623.491,329.999 L623.491,389.485" id="Fill-38" fill="#EA8430"></path>
            <path d="M615.563,389.485 L633.636,389.485 C640.379,389.485 645.845,384.019 645.845,377.276 L645.845,338.284 C645.845,333.708 642.136,329.999 637.56,329.999 L615.563,329.999 L615.563,389.485" id="Fill-39" fill="#B25436"></path>
            <path d="M653.772,346.409 L644.788,346.409" id="Stroke-40" stroke="#F6F4F7" stroke-width="6.683"></path>
            <path d="M644.763,359.091 C644.763,357.644 645.937,356.47 647.384,356.47 C648.83,356.47 650.004,357.644 650.004,359.091 C650.004,360.538 648.83,361.711 647.384,361.711 C645.937,361.711 644.763,360.538 644.763,359.091 Z M643.798,359.783 C644.112,361.476 645.597,362.76 647.384,362.76 C649.17,362.76 650.654,361.476 650.969,359.783 C651.122,359.167 651.171,358.478 651.092,357.77 L649.995,348.08 C649.883,347.087 649.074,346.336 648.189,346.336 L646.577,346.336 C645.692,346.336 644.884,347.087 644.772,348.08 L643.675,357.77 C643.596,358.478 643.645,359.167 643.798,359.783 L643.798,359.783 Z" id="Fill-41" fill="#2E4846"></path>
            <path d="M611.011,235.836 C625.326,235.844 637.033,247.562 637.026,261.878 L636.971,384.293 C636.964,398.607 629.507,409.782 620.398,409.124 C611.291,408.467 592.156,407.085 577.878,406.054 L543.429,403.565 C529.15,402.534 517.474,389.977 517.482,375.662 L517.536,261.818 C517.543,247.502 529.261,235.795 543.576,235.803 L611.011,235.836" id="Fill-42" fill="#215750"></path>
            <path d="M620.296,409.117 C618.404,409.069 616.993,409.015 615.943,408.961 L615.943,408.803 C617.56,408.919 619.023,409.025 620.296,409.117 M626.198,407.886 C628.614,406.63 630.766,404.49 632.499,401.699 L632.499,401.7 C632.499,401.7 630.542,405.774 626.198,407.886" id="Fill-43"></path>
            <path d="M620.745,409.124 C620.631,409.124 620.515,409.123 620.398,409.12 C620.364,409.119 620.33,409.118 620.296,409.117 C619.023,409.025 617.56,408.919 615.943,408.803 L615.943,269.49 L624.999,271 C624.999,300.07 624.188,374.83 632.499,401.7 C630.766,404.49 628.614,406.63 626.198,407.886 C624.679,408.625 622.867,409.124 620.745,409.124" id="Fill-45" fill="#1B3E3E"></path>
            <path d="M539.991,245.186 L533.271,304.928 L499.48,299.945 C503.191,274.78 501.592,237.699 539.991,245.186" id="Fill-46" fill="#A3CA3F"></path>
            <path d="M499.39,297.188 L531.627,301.879" id="Fill-47" fill="#FFFFFF"></path>
            <path d="M499.39,297.188 L531.627,301.879" id="Stroke-48" stroke="#FFFFFF" stroke-width="5.756"></path>
            <path d="M512.511,268.325 L512.511,429.047 L615.943,429.047 L615.943,268.325 C615.943,253.559 604.091,241 587.952,236.998 C585.544,236.396 583.05,235.993 580.479,235.795 C579.305,235.701 578.122,235.658 576.922,235.658 L556.532,235.658 C555.967,235.658 555.392,235.666 554.827,235.692 C554.605,235.701 554.382,235.71 554.159,235.726 C551.895,235.83 549.693,236.104 547.56,236.534 C544.809,237.083 542.169,237.873 539.674,238.887 C526.588,244.178 517.511,255.406 512.511,268.325" id="Fill-49" fill="#A3CA3F"></path>
            <path d="M513.682,150.186 C510.461,182.728 530.531,210.654 562.257,213.794 C591.218,216.662 617.348,197.048 624.138,168.859 C624.273,168.293 624.401,167.727 624.523,167.154 C624.976,164.995 625.316,162.795 625.538,160.554 C627.14,144.383 622.32,121.606 609.099,120.256 C606.879,120.03 609.111,121.04 609.099,120.256 C608.548,85.596 511.158,91.932 531.188,137.994 L513.188,136.763 C512.43,139.213 514.25,138.38 513.779,141.028 C513.504,142.566 513.838,148.606 513.682,150.186" id="Fill-50" fill="#492225"></path>
            <path d="M547.304,246.586 C547.304,253.491 556,259.088 566.728,259.088 C577.455,259.088 586.151,253.491 586.151,246.586 C586.151,239.682 577.455,234.084 566.728,234.084 C556,234.084 547.304,239.682 547.304,246.586" id="Fill-51" fill="#F5C6A2"></path>
            <polyline id="Fill-52" fill="#E98769" points="577.005 210.597 554.816 210.768 555.031 238.659 577.219 238.489 577.005 210.597"></polyline>
            <path d="M577.219,238.489 C577.241,241.324 572.292,243.661 566.165,243.708 C560.037,243.755 555.053,241.495 555.031,238.659 C555.009,235.824 559.959,233.487 566.086,233.44 C572.213,233.392 577.197,235.653 577.219,238.489" id="Fill-53" fill="#E98769"></path>
            <path d="M559.182,258.388 L568.89,274.567 L598.451,241.485 C591.686,237.359 588.929,236.498 584.258,235.833 C581.358,235.621 578.263,235.233 577.289,235.372 L577.758,240.296 C577.769,240.77 577.403,241.403 576.924,242.083 L559.182,258.388" id="Fill-54" fill="#FFFFFF"></path>
            <path d="M539.634,238.936 L542.887,269.587 L559.184,258.375 L555.735,242.376 L554.975,235.372 C552.47,235.372 549.669,235.951 547.529,236.415 C544.779,237.009 542.126,237.843 539.634,238.936" id="Fill-55" fill="#FFFFFF"></path>
            <path d="M598.558,178.491 C595.46,205.97 573.606,226.067 549.745,223.377 C525.884,220.688 509.051,196.231 512.148,168.751 C515.246,141.272 537.1,121.175 560.961,123.865 C584.822,126.554 601.654,151.01 598.558,178.491" id="Fill-56" fill="#E98769"></path>
            <path d="M511.157,177.212 C511.267,180.775 511.666,184.242 512.344,187.567 C516.113,205.949 524.336,220.781 540.186,222.35 C541.506,222.481 542.811,222.553 544.093,222.562 C566.366,222.792 582.296,205.539 586.88,182.536 C587.258,180.655 587.554,178.737 587.775,176.784 C590.839,149.589 578.92,128.549 557.865,126.178 C536.811,123.807 516.103,112.185 513.04,139.374 C512.692,142.434 511.072,174.261 511.157,177.212" id="Fill-57" fill="#F1AC82"></path>
            <path d="M613.302,175.874 C612.581,182.273 606.81,186.875 600.411,186.154 C594.013,185.432 589.411,179.661 590.132,173.262 C590.854,166.864 596.624,162.261 603.022,162.983 C609.421,163.704 614.023,169.475 613.302,175.874" id="Fill-58" fill="#E98769"></path>
            <path d="M522.201,169.167 C522.081,169.167 521.961,169.161 521.84,169.147 C520.084,168.949 518.816,167.36 519.015,165.604 C519.197,163.982 520.564,162.759 522.194,162.759 C522.314,162.759 522.435,162.766 522.557,162.78 C523.407,162.875 524.17,163.296 524.703,163.965 C525.236,164.634 525.478,165.471 525.382,166.322 C525.199,167.944 523.831,169.167 522.201,169.167" id="Fill-59" fill="#1B1A18"></path>
            <path d="M522.195,162.331 L522.195,162.331 C520.347,162.331 518.796,163.717 518.589,165.557 C518.48,166.521 518.754,167.469 519.358,168.228 C519.963,168.987 520.827,169.464 521.792,169.573 C521.93,169.588 522.066,169.596 522.202,169.596 C524.05,169.596 525.601,168.209 525.808,166.371 C525.917,165.406 525.644,164.458 525.038,163.699 C524.434,162.94 523.569,162.462 522.605,162.354 C522.467,162.338 522.331,162.331 522.195,162.331 Z M522.195,163.188 C522.299,163.188 522.403,163.194 522.509,163.206 C524.032,163.377 525.128,164.75 524.956,166.274 C524.796,167.692 523.596,168.739 522.202,168.739 C522.099,168.739 521.993,168.733 521.888,168.721 C520.364,168.549 519.269,167.175 519.44,165.653 C519.601,164.235 520.802,163.188 522.195,163.188 L522.195,163.188 Z" id="Fill-60" fill="#1B1A18"></path>
            <path d="M556.121,169.992 C556.001,169.992 555.881,169.985 555.759,169.971 C554.908,169.875 554.146,169.455 553.612,168.786 C553.079,168.117 552.838,167.28 552.934,166.429 C553.116,164.807 554.484,163.583 556.114,163.583 C556.233,163.583 556.354,163.59 556.476,163.604 C558.231,163.802 559.499,165.391 559.301,167.147 C559.118,168.769 557.751,169.992 556.121,169.992" id="Fill-61" fill="#1B1A18"></path>
            <path d="M556.113,163.156 C554.265,163.156 552.715,164.542 552.508,166.381 C552.283,168.372 553.72,170.173 555.71,170.398 C555.849,170.414 555.985,170.42 556.12,170.42 C557.969,170.42 559.52,169.034 559.727,167.195 C559.835,166.231 559.563,165.282 558.957,164.524 C558.353,163.765 557.488,163.288 556.523,163.179 C556.386,163.164 556.249,163.156 556.113,163.156 Z M556.113,164.013 C556.218,164.013 556.322,164.019 556.428,164.031 C557.951,164.202 559.047,165.576 558.875,167.099 C558.715,168.517 557.514,169.564 556.12,169.564 C556.017,169.564 555.912,169.558 555.807,169.546 C554.283,169.375 553.188,168 553.359,166.477 C553.52,165.06 554.72,164.013 556.113,164.013 L556.113,164.013 Z" id="Fill-62" fill="#1B1A18"></path>
            <path d="M571.834,185.121 C571.503,188.056 568.854,190.168 565.918,189.837 C562.982,189.506 560.87,186.858 561.201,183.921 C561.532,180.986 564.181,178.874 567.117,179.205 C570.053,179.536 572.165,182.184 571.834,185.121" id="Fill-63" fill="#E67A72"></path>
            <path d="M518.277,182.853 C517.946,185.791 515.296,187.899 512.363,187.568 L512.347,187.566 C511.668,184.244 511.264,180.777 511.158,177.214 C511.903,176.95 512.722,176.844 513.562,176.939 C516.494,177.269 518.608,179.915 518.277,182.853" id="Fill-64" fill="#E67A72"></path>
            <path d="M527.89,196.156 C528.353,198.607 529.012,200.665 531.455,202.875 L531.704,203.082 C532.853,204.067 534.198,204.83 535.698,205.318 C536.555,205.592 537.463,205.781 538.415,205.858 C540.283,206.021 542.7,205.797 544.697,205.215 C545.605,204.95 546.419,204.615 547.07,204.195 C548.271,203.432 549.436,202.464 550.396,201.341 C551.656,199.867 552.564,198.101 552.728,196.156 L527.89,196.156" id="Fill-65" fill="#AE392B"></path>
            <path d="M535.698,205.318 C536.555,205.592 537.463,205.781 538.415,205.858 C540.283,206.021 542.7,205.797 544.697,205.215 C545.605,204.95 546.419,204.615 547.07,204.195 C548.271,203.432 549.436,202.464 550.396,201.341 C547.79,200.39 544.396,200.458 541.063,201.77 C538.895,202.619 537.061,203.861 535.698,205.318" id="Fill-66" fill="#E25F55"></path>
            <path d="M571.97,142.151 C580.062,145.76 584.706,146.952 585.363,152.603 C585.995,158.042 584.571,168.283 585.113,176.919 C590.692,180.005 588.252,164.125 601.002,163.089 L595.836,130.935 L571.97,142.151" id="Fill-67" fill="#492225"></path>
            <path d="M592.487,158.694 C575.599,164.835 559.896,131.104 559.082,119.319 L567.949,108.021 L593.279,124.928 L595.611,142.916 L592.487,158.694" id="Fill-68" fill="#492225"></path>
            <path d="M559.182,103.982 C577.515,105.149 561.115,138.934 533.713,141.849 C527.519,142.507 523.01,142.977 519.729,143.311 C511.424,144.156 506.165,144.667 506.165,144.667 C506.165,144.667 505.271,130.542 511.999,118.167 C521.332,101 547.04,103.209 559.182,103.982" id="Fill-69" fill="#492225"></path>
            <path d="M615.943,429.047 L594.603,429.047 L594.577,331.391 C582.646,348.322 571.555,362.784 552.871,362.784 C550.994,362.784 549.038,362.638 546.999,362.333 L512.511,355.667 L512.511,337.57 L548.493,340.583 L567.28,335.24 L592.288,303.465 L599.993,290.985 L615.943,283.537 L615.943,429.047" id="Fill-70" fill="#729D40"></path>
            <path d="M601.34,283.249 C597.561,317.405 620.43,357.088 620.491,358.114 L620.491,371.887 C620.414,370.602 595.228,339.623 592.487,299.767" id="Fill-71" fill="#1B3E3F"></path>
            <path d="M567.284,158.846 C563.639,155.323 558.358,154 553.572,155.432 M528.791,155.191 C525.565,154.283 520.496,154.154 516.955,157.223" id="Stroke-72" stroke="#492225" stroke-width="3.428" stroke-linecap="round"></path>
            <path d="M612.112,108.964 C615.498,112.235 615.553,119.038 611.703,123.695 L607.274,119.846 C610.302,117.969 612.514,113.74 612.112,108.964" id="Fill-73" fill="#492225"></path>
            <path d="M525.332,146.667 C528.286,148.684 521.872,137.208 521.999,133.667 C518.999,138.667 518.76,145.291 518.506,147.188 L525.332,146.667" id="Fill-74" fill="#F1AC82"></path>
            <path d="M597.332,286 L565.985,332.792 C562.729,337.655 555.408,340.513 549.72,339.145 L490.556,324.919" id="Stroke-75" stroke="#F1AC82" stroke-width="21" stroke-linecap="round" stroke-linejoin="round"></path>
            <path d="M601.511,245.001 L576.816,294.614 L606.696,308.856 C623.698,281.755 643.794,245.686 601.511,245.001" id="Fill-76" fill="#A3CA3F"></path>
            <path d="M575.847,295.758 L606.494,310.876" id="Fill-77" fill="#FFFFFF"></path>
            <path d="M575.847,295.758 L606.494,310.876" id="Stroke-78" stroke="#FFFFFF" stroke-width="5.895"></path>
            <path d="M581.915,283.737 C588.313,273.6 585.673,278.417 589.168,272.981 C589.755,272.068 589.64,270.784 589.885,269.587 C591.674,260.887 594.445,249.191 611.696,244.038 L598.101,241.884 C589.486,248.424 586.809,260.495 583.976,271.777 C582.109,279.21 582.983,277.89 581.915,283.737" id="Fill-79" fill="#5A3C36"></path>
            <path d="M583.976,271.777 L589.168,272.981 C593.806,260.505 603.714,246.974 611.696,244.038 L599.266,240.842 C590.652,247.382 584.938,260.184 583.976,271.777" id="Fill-80" fill="#714944"></path>
            <path d="M517.81,297.462 C517.802,296.524 518.803,285.911 521.27,274.254 C523.998,261.358 527.314,244.635 534.234,240.842 L524.565,243.844 C517.502,251.285 514.484,263.396 514.998,275.011 C515.493,285.978 517.563,295.526 517.81,297.462" id="Fill-81" fill="#5A3C36"></path>
            <path d="M514.952,273.804 L521.27,274.254 C523.998,261.358 527.314,244.635 534.234,240.842 L524.565,243.844 C517.502,251.285 514.438,262.189 514.952,273.804" id="Fill-82" fill="#714944"></path>
            <path d="M637.077,331.611 L637.077,326.859 C651.661,326.067 655.115,330.422 653.707,343.489 L645.285,343.489 C646.406,335.03 642.287,331.807 637.077,331.611" id="Fill-83" fill="#F0A73B"></path>
            <polyline id="Fill-84" fill="#729D40" points="568.384 278.022 558.617 261.524 542.887 272.392 542.887 269.587 559.184 258.375 559.188 258.382 559.182 258.388 568.89 274.567 591.171 249.632 568.384 278.022"></polyline>
            <polyline id="Fill-85" fill="#B0B5C6" points="568.89 274.567 559.182 258.388 559.188 258.382 568.89 274.567"></polyline>
            <path d="M533.887,179.296 C536.212,180.973 539.134,181.534 541.822,180.332 C544.318,179.214 546.501,182.906 543.984,184.032 C539.952,185.835 535.367,185.625 531.724,182.997 C529.509,181.398 531.646,177.679 533.887,179.296" id="Fill-86" fill="#E98769"></path>
            <polyline id="Fill-87" fill="#F4F4F4" points="305.079 346.294 282.246 343.728 282.264 329.2 305.097 332.331 305.079 346.294"></polyline>
            <polyline id="Fill-89" fill="#EAE4E4" points="282.246 343.728 279.627 343.433 279.627 328.838 282.264 329.2 282.246 343.728"></polyline>
            <polyline id="Fill-90" fill="#CE8967" points="365.429 299.882 366.235 296.447 358.809 300.053 362.169 301.612 365.429 299.882"></polyline>
            <path d="M373.858,311.709 L377.119,307.419 L372.249,307.08 L369.688,303.62 L363.409,301.94 L362.169,301.61 C358.199,300.629 365.549,295.89 366.159,292.19 L344.679,298.28 C342.269,299.27 339.639,301.379 339.179,302.69 L291.608,295.419 L276.459,314.91 C285.199,315.08 333.459,325.129 337.929,325.66 C339.318,328.33 340.909,330.05 344.989,331.49 L353.499,333.37 L363.989,335.68 C364.369,335.58 363.989,335.68 364.259,335.58 C364.549,335.51 364.789,335.419 364.999,335.29 C365.559,335 366.009,334.59 366.339,334.07 C366.518,333.71 366.689,333.21 366.858,332.57 C366.949,331.91 365.889,331.419 365.689,330.91 C365.608,330.56 367.259,330.12 367.259,330.12 C367.259,330.12 366.309,329.129 367.629,328.93 C369.639,328.45 370.289,327.94 370.659,325.74 C370.889,324.419 370.188,323.5 369.568,322.62 C369.459,322.459 369.949,321.91 369.829,321.8 C369.379,321.86 369.229,320.47 370.929,320.47 C373.229,319.919 374.059,319.76 374.529,317.28 C374.749,316.01 373.629,315.11 373.148,314.24 C372.629,313.15 372.699,312.1 373.858,311.709" id="Fill-91" fill="#F1AC82"></path>
            <path d="M398.24,306.485 C385.71,310.009 377.798,308.81 366.354,306.73 L398.24,306.485" id="Fill-92" fill="#F1AC82"></path>
            <path d="M397.267,303.024 C391.783,304.563 387.39,305.123 383.127,305.127 C378.103,305.129 373.173,304.316 366.995,303.193 C365.041,302.838 363.171,304.135 362.817,306.089 C362.463,308.043 363.76,309.913 365.714,310.267 C371.92,311.389 377.312,312.314 383.127,312.316 C388.045,312.32 393.202,311.638 399.213,309.945 C401.123,309.407 402.237,307.422 401.7,305.512 C401.162,303.601 399.178,302.487 397.268,303.025 L397.267,303.024" id="Fill-93" fill="#F1AC82"></path>
            <path d="M390.999,320.303 C387.373,322.009 382.65,322.756 378.05,322.748 C373.612,322.752 369.281,322.069 366.256,321.179 C364.75,320.745 363.562,320.238 362.975,319.885 C362.829,319.799 362.724,319.727 362.666,319.682 L362.621,319.646 L362.614,319.641 L362.233,320.061 L362.663,319.693 L362.614,319.641 L362.233,320.061 L362.663,319.693 L361.297,320.864 L362.919,320.101 C362.813,319.876 362.715,319.754 362.663,319.693 L361.297,320.864 L362.919,320.101 L360.607,321.188 L363.153,321.066 C363.135,320.661 363.024,320.323 362.919,320.101 L360.607,321.188 L363.153,321.066 C363.058,319.082 361.373,317.553 359.391,317.649 C357.407,317.744 355.878,319.428 355.974,321.412 C356.007,322.131 356.215,322.773 356.473,323.283 C356.97,324.242 357.582,324.817 358.185,325.304 C359.25,326.135 360.417,326.706 361.779,327.249 C363.814,328.044 366.275,328.696 369.045,329.173 C371.813,329.647 374.877,329.936 378.05,329.936 C383.384,329.927 389.034,329.143 394.041,326.816 C395.839,325.976 396.615,323.837 395.776,322.04 C394.937,320.241 392.798,319.464 391,320.304 L390.999,320.303" id="Fill-94" fill="#F1AC82"></path>
            <path d="M382.074,329.679 C379.386,330.684 376.2,331.467 373.511,331.458 C373.29,331.458 373.059,331.453 372.825,331.443 L372.85,331.444 C370.339,331.323 368.042,330.583 365.416,329.465 C362.8,328.358 359.909,326.876 356.413,325.578 C354.757,324.964 352.918,325.81 352.306,327.466 C351.692,329.121 352.538,330.961 354.194,331.574 C357.262,332.706 360.005,334.107 362.914,335.349 C365.812,336.582 368.93,337.657 372.544,337.83 L372.568,337.831 C372.869,337.842 373.184,337.851 373.511,337.851 C377.357,337.841 381.125,336.841 384.298,335.672 C385.952,335.058 386.796,333.219 386.183,331.565 C385.568,329.91 383.73,329.066 382.075,329.68 L382.074,329.679" id="Fill-95" fill="#F1AC82"></path>
            <path d="M398.807,314.421 C387.294,318.777 375.694,318.351 363.412,315.468 L398.807,314.421" id="Fill-96" fill="#F1AC82"></path>
            <path d="M397.534,311.059 C391.957,313.165 386.395,314.065 380.635,314.068 C375.355,314.068 369.91,313.298 364.231,311.968 C362.298,311.515 360.364,312.715 359.912,314.649 C359.459,316.582 360.659,318.515 362.593,318.968 C368.661,320.389 374.655,321.256 380.635,321.256 C387.148,321.259 393.644,320.219 400.078,317.783 C401.934,317.08 402.87,315.005 402.168,313.15 C401.465,311.293 399.391,310.357 397.535,311.06 L397.534,311.059" id="Fill-97" fill="#F1AC82"></path>
            <polyline id="Fill-98" fill="#FFFFFF" points="335.003 298.554 339.056 299.031 337.593 333.366 325.274 331.616 335.003 298.554"></polyline>
            <path d="M231.093,65.054 C234.536,103.322 220.368,124.579 188.383,138.097 C160.707,149.794 116.052,140.022 108.639,75.938 C106.099,53.982 112.004,17.29 134.901,18.349 C137.329,18.462 131.737,23.94 132.05,23.075 C145.904,-15.358 236.939,-1.521 230.596,46.09 C224.656,33.981 230.589,46.017 230.596,46.09 C231.418,48.982 230.499,51.182 231.006,54.299 C231.303,56.11 230.926,63.196 231.093,65.054" id="Fill-99" fill="#6C3126"></path>
            <path d="M107.868,372.353 C107.836,387.533 120.372,411.223 137.46,415.375 C140.011,416.001 142.657,416.421 145.38,416.628 C146.62,416.727 147.879,416.777 149.148,416.78 C157.483,420.915 166.484,422.997 170.744,419.618 C171.35,419.619 171.961,416.818 172.56,416.792 C172.798,416.783 173.035,416.778 173.272,416.762 C175.664,416.656 177.997,416.379 180.265,415.944 C183.18,415.387 185.982,414.576 188.626,413.546 C202.5,408.133 212.145,385.855 212.173,372.576 L107.868,372.353" id="Fill-100" fill="#362D39"></path>
            <path d="M223.492,204.006 L217.768,378.577 L102.177,374.786 L107.901,200.215 C108.469,182.914 122.874,168.658 141.976,164.589 C144.826,163.974 147.775,163.598 150.802,163.467 C152.18,163.403 153.575,163.394 154.982,163.44 L178.922,164.225 C179.593,164.248 180.263,164.282 180.926,164.333 C181.188,164.354 181.452,164.369 181.714,164.396 C184.36,164.61 186.934,165.015 189.431,165.6 C192.639,166.347 195.712,167.381 198.599,168.657 C213.76,175.364 223.989,188.871 223.492,204.006" id="Fill-101" fill="#37A5A7"></path>
            <path d="M192.4,178.909 C190.988,186.897 185.341,193.131 172.929,190.937 C160.517,188.743 146.041,178.953 147.453,170.963 C148.576,164.609 165.576,159.25 172.483,160.471 C184.895,162.665 193.813,170.92 192.4,178.909" id="Fill-102" fill="#F1AC82"></path>
            <path d="M172.929,190.937 L163.421,205.601 L131.997,165.913 C141.805,163.494 145.36,159.388 155.479,158.517 C158.878,158.866 155.511,160.693 156.608,161.052 L155.415,164.082 L151.228,168.469 L172.929,190.937" id="Fill-103" fill="#FFFFFF"></path>
            <polyline id="Fill-104" fill="#362D39" points="98.417 377.217 153.804 388.072 153.795 429.719 98.408 429.719 98.417 377.217"></polyline>
            <polyline id="Fill-105" fill="#362D39" points="166.551 388.099 221.938 377.44 221.931 429.719 166.544 429.719 166.551 388.099"></polyline>
            <path d="M153.736,419.837 C158.8,421.654 163.397,421.75 166.479,421.308 L166.544,429.719 L180.062,429.719 L180.021,410.262 C172.505,411.26 165.225,412.261 153.757,410.207 L153.736,419.837" id="Fill-106" fill="#29222D"></path>
            <polyline id="Fill-107" fill="#29222D" points="221.921 390.353 108.179 390.13 108.198 377.217 221.939 377.44 221.921 390.353"></polyline>
            <polyline id="Fill-108" fill="#E98769" points="155.907 134.502 181.975 134.935 181.461 165.834 155.394 165.4 155.907 134.502"></polyline>
            <path d="M155.362,164.336 C155.308,167.667 161.098,170.465 168.296,170.584 C175.494,170.705 181.375,168.101 181.43,164.77 C181.485,161.438 175.695,158.641 168.496,158.521 C161.298,158.402 155.418,161.005 155.362,164.336" id="Fill-109" fill="#E98769"></path>
            <path d="M130.921,96.553 C134.271,128.872 159.738,152.713 187.801,149.803 C215.864,146.894 235.897,118.335 232.547,86.017 C229.196,53.698 203.73,29.857 175.667,32.766 C147.604,35.676 127.57,64.235 130.921,96.553" id="Fill-110" fill="#E98769"></path>
            <path d="M143.602,94.661 C143.847,96.949 144.169,99.217 144.6,101.426 C149.742,128.502 168.281,148.938 194.458,148.909 C195.964,148.909 197.488,148.831 199.043,148.694 C217.681,147.022 227.498,129.675 232.123,108.115 C232.944,104.223 233.462,100.156 233.629,95.97 C233.648,95.394 233.629,93.878 233.56,91.756 C233.55,91.277 233.531,90.769 233.511,90.221 C233.511,89.917 233.502,89.595 233.492,89.273 L233.492,89.263 C233.462,88.471 233.433,87.63 233.404,86.74 C233.306,83.689 233.169,80.15 233.022,76.512 C232.749,69.658 232.427,62.461 232.171,57.503 C232.016,54.443 231.878,52.233 231.8,51.49 C231.311,46.777 230.362,43.041 229.023,40.127 C228.114,38.163 227.028,36.559 225.787,35.268 C216.39,25.49 197.929,33.586 179.282,35.513 C154.524,38.085 140.297,62.676 143.602,94.661" id="Fill-111" fill="#F1AC82"></path>
            <path d="M233.492,89.273 C233.453,89.693 233.393,90.094 233.306,90.495 C233.375,90.407 233.443,90.319 233.511,90.221 C233.511,89.917 233.502,89.595 233.492,89.273" id="Fill-112" fill="#E98769"></path>
            <path d="M206.866,82.056 C209.448,78.82 213.789,76.62 218.746,76.463 C226.217,76.239 232.445,80.726 233.404,86.74 C233.306,83.689 233.169,80.15 233.022,76.512 C230.333,73.481 225.953,71.584 221.025,71.741 C213.916,71.955 208.06,76.395 206.866,82.056" id="Fill-113" fill="#C3644C"></path>
            <path d="M163.027,83.849 C165.609,80.613 173.7,77.829 178.659,77.914 C188.111,78.077 192.838,83.781 192.73,88.793 C192.633,85.743 196.097,83.944 192.349,78.566 C189.66,75.535 182.115,73.376 177.186,73.534 C170.077,73.749 164.221,78.188 163.027,83.849" id="Fill-114" fill="#C3644C"></path>
            <path d="M117.943,91.573 C118.593,97.837 121.132,105.456 132.377,105.456 C138.675,105.456 141.278,95.485 140.629,89.22 C139.979,82.956 134.375,78.405 128.11,79.054 C121.846,79.704 117.294,85.308 117.943,91.573" id="Fill-115" fill="#E98769"></path>
            <path d="M174.339,85.387 C174.589,87.793 176.742,89.542 179.148,89.293 C181.555,89.043 183.304,86.89 183.054,84.484 C182.805,82.078 180.651,80.329 178.244,80.579 C175.838,80.828 174.09,82.981 174.339,85.387" id="Fill-116" fill="#1B1A18"></path>
            <path d="M215.808,85.387 C216.058,87.793 218.211,89.542 220.617,89.293 C223.025,89.043 224.772,86.89 224.523,84.484 C224.273,82.078 222.12,80.329 219.714,80.579 C217.307,80.828 215.559,82.981 215.808,85.387" id="Fill-117" fill="#1B1A18"></path>
            <path d="M201.432,35.524 C162.264,35.157 144.518,46.343 145.315,60.709 C145.821,69.832 146.715,87.156 146.324,101.658 C139.79,106.48 142.223,79.913 127.054,77.321 L132.246,23.54 L201.432,35.524" id="Fill-118" fill="#6C3126"></path>
            <path d="M168.896,76.049 C169.84,74.314 171.519,72.808 173.701,71.742 C175.877,70.675 178.53,70.062 181.282,70.064 C183.429,70.064 185.631,70.432 187.728,71.22 C188.689,71.581 189.762,71.095 190.124,70.134 C190.485,69.172 189.999,68.099 189.038,67.738 C186.495,66.781 183.852,66.342 181.282,66.342 C177.984,66.344 174.801,67.062 172.065,68.399 C169.335,69.736 167.03,71.707 165.63,74.265 C165.137,75.166 165.469,76.298 166.371,76.792 C167.272,77.284 168.404,76.952 168.897,76.05 L168.896,76.049" id="Fill-119" fill="#4C2F22"></path>
            <path d="M211.422,71.34 C213.405,70.434 215.851,69.797 218.235,69.8 C219.828,69.8 221.389,70.076 222.822,70.703 C224.257,71.332 225.579,72.304 226.743,73.797 C227.373,74.609 228.542,74.755 229.354,74.126 C230.166,73.495 230.312,72.326 229.683,71.514 C228.151,69.54 226.29,68.154 224.312,67.292 C222.334,66.427 220.253,66.079 218.235,66.079 C215.201,66.082 212.297,66.855 209.88,67.953 C208.943,68.378 208.53,69.482 208.957,70.419 C209.383,71.354 210.486,71.767 211.423,71.341 L211.422,71.34" id="Fill-120" fill="#4C2F22"></path>
            <path d="M229.911,73.952 C229.832,73.905 229.752,73.858 229.672,73.812 C229.692,73.786 229.711,73.76 229.73,73.734 L229.911,73.952" id="Fill-121" fill="#FCE0CD"></path>
            <path d="M229.917,73.959 C229.835,73.91 229.753,73.862 229.67,73.814 C229.67,73.813 229.671,73.812 229.672,73.812 C229.752,73.858 229.832,73.905 229.911,73.952 L229.917,73.959" id="Fill-122" fill="#EBC8B9"></path>
            <path d="M229.67,73.814 C229.514,73.725 229.355,73.638 229.195,73.553 L229.346,73.269 L229.73,73.734 C229.711,73.76 229.692,73.786 229.672,73.812 C229.671,73.812 229.67,73.813 229.67,73.814" id="Fill-123" fill="#BFB3A7"></path>
            <path d="M233.365,76.914 L233.039,76.914 C233.033,76.78 233.028,76.646 233.022,76.512 C233.14,76.644 233.254,76.778 233.365,76.914" id="Fill-124" fill="#6D6D6E"></path>
            <path d="M233.512,90.244 C233.511,90.236 233.511,90.229 233.511,90.221 C233.511,89.917 233.502,89.595 233.492,89.273 L233.492,89.263 C233.462,88.471 233.433,87.63 233.404,86.74 C233.335,84.583 233.246,82.182 233.148,79.675 L235.027,79.677 C235.519,80.861 235.795,82.133 235.816,83.463 C235.856,85.941 235.005,88.274 233.512,90.244" id="Fill-125"></path>
            <path d="M235.027,79.677 L233.148,79.675 C233.113,78.766 233.076,77.844 233.039,76.914 L233.365,76.914 C234.054,77.761 234.616,78.688 235.027,79.677" id="Fill-127" fill="#5D5D5E"></path>
            <path d="M220.871,96.094 C213.062,96.094 206.736,90.931 206.631,84.362 C206.523,77.638 212.969,71.987 221.028,71.739 C221.212,71.733 221.394,71.73 221.576,71.73 C222.034,71.73 222.488,71.748 222.935,71.783 C222.493,71.749 222.046,71.732 221.593,71.732 C221.405,71.732 221.216,71.735 221.025,71.741 C213.916,71.955 208.06,76.395 206.866,82.056 C209.448,78.82 213.789,76.62 218.746,76.463 C218.925,76.458 219.104,76.455 219.282,76.455 C222.017,76.455 224.569,77.087 226.736,78.19 L224.139,83.088 C223.434,81.573 221.898,80.555 220.171,80.555 C220.02,80.555 219.868,80.563 219.714,80.579 C217.307,80.828 215.559,82.981 215.808,85.387 C216.042,87.64 217.944,89.316 220.16,89.316 C220.311,89.316 220.463,89.308 220.617,89.293 C220.701,89.284 220.784,89.273 220.866,89.26 L218.163,94.357 L224.412,94.357 L230.941,81.473 C232.226,82.995 233.093,84.787 233.404,86.74 C233.306,83.689 233.169,80.15 233.022,76.512 C232.967,76.45 232.911,76.388 232.855,76.327 C232.911,76.388 232.967,76.45 233.022,76.512 C233.028,76.646 233.033,76.78 233.039,76.914 C233.076,77.844 233.113,78.766 233.148,79.675 C233.246,82.182 233.335,84.583 233.404,86.74 C233.433,87.63 233.462,88.471 233.492,89.263 L233.492,89.273 C233.502,89.595 233.511,89.917 233.511,90.221 C233.511,90.229 233.511,90.236 233.512,90.244 C230.953,93.618 226.508,95.929 221.419,96.085 C221.235,96.091 221.053,96.094 220.871,96.094 M233.492,89.273 C233.453,89.693 233.393,90.094 233.306,90.495 C233.375,90.407 233.443,90.319 233.511,90.221 C233.511,89.917 233.502,89.595 233.492,89.273" id="Fill-128" fill="#F1BD9D"></path>
            <path d="M233.306,90.495 C233.393,90.094 233.453,89.693 233.492,89.273 C233.502,89.595 233.511,89.917 233.511,90.221 C233.443,90.319 233.375,90.407 233.306,90.495" id="Fill-129" fill="#E7A38A"></path>
            <path d="M233.404,86.74 C233.093,84.787 232.226,82.995 230.941,81.473 L232.913,77.581 L229.917,73.959 C231.027,74.626 232.018,75.423 232.855,76.327 C232.911,76.388 232.967,76.45 233.022,76.512 C233.169,80.15 233.306,83.689 233.404,86.74 M206.866,82.056 C208.06,76.395 213.916,71.955 221.025,71.741 C221.216,71.735 221.405,71.732 221.593,71.732 C222.046,71.732 222.493,71.749 222.935,71.783 C223.671,71.84 224.39,71.944 225.089,72.09 C225.67,72.565 226.222,73.129 226.743,73.797 C227.11,74.27 227.659,74.517 228.214,74.517 C228.384,74.517 228.555,74.493 228.722,74.446 L226.736,78.19 C224.569,77.087 222.017,76.455 219.282,76.455 C219.104,76.455 218.925,76.458 218.746,76.463 C213.789,76.62 209.448,78.82 206.866,82.056" id="Fill-130" fill="#C98873"></path>
            <path d="M220.16,89.316 C217.944,89.316 216.042,87.64 215.808,85.387 C215.559,82.981 217.307,80.828 219.714,80.579 C219.868,80.563 220.02,80.555 220.171,80.555 C221.898,80.555 223.434,81.573 224.139,83.088 L220.866,89.26 C220.784,89.273 220.701,89.284 220.617,89.293 C220.463,89.308 220.311,89.316 220.16,89.316" id="Fill-131" fill="#585653"></path>
            <path d="M228.214,74.517 C227.659,74.517 227.11,74.27 226.743,73.797 C226.222,73.129 225.67,72.565 225.089,72.09 C226.563,72.398 227.945,72.897 229.195,73.553 L228.722,74.446 C228.555,74.493 228.384,74.517 228.214,74.517" id="Fill-132" fill="#7C6454"></path>
            <path d="M224.412,94.357 L218.163,94.357 L220.866,89.26 C223.144,88.893 224.764,86.806 224.523,84.484 C224.472,83.986 224.339,83.517 224.139,83.088 L226.736,78.19 C228.393,79.032 229.824,80.151 230.941,81.473 L224.412,94.357" id="Fill-133" fill="#F6E1D0"></path>
            <path d="M230.941,81.473 C229.824,80.151 228.393,79.032 226.736,78.19 L228.722,74.446 C228.945,74.383 229.16,74.276 229.354,74.126 C229.474,74.032 229.579,73.928 229.67,73.814 C229.753,73.862 229.835,73.91 229.917,73.959 L232.913,77.581 L230.941,81.473" id="Fill-134" fill="#E8CEC1"></path>
            <path d="M220.866,89.26 L224.139,83.088 C224.339,83.517 224.472,83.986 224.523,84.484 C224.764,86.806 223.144,88.893 220.866,89.26" id="Fill-135" fill="#BBBAB5"></path>
            <path d="M228.722,74.446 L229.195,73.553 C229.355,73.638 229.514,73.725 229.67,73.814 C229.579,73.928 229.474,74.032 229.354,74.126 C229.16,74.276 228.945,74.383 228.722,74.446" id="Fill-136" fill="#C9BFB5"></path>
            <path d="M175.413,95.516 C172.433,95.144 169.799,94.088 167.83,92.618 C166.587,91.691 165.608,90.607 164.942,89.436 C164.275,88.263 163.913,87.009 163.892,85.675 L163.891,85.629 L163.889,85.599 L163.889,85.553 C163.89,84.474 164.118,83.422 164.555,82.414 C167.935,79.879 174.227,77.912 178.435,77.912 C178.511,77.912 178.585,77.912 178.659,77.914 C181.16,77.957 183.33,78.388 185.167,79.091 L182.723,83.207 C182.045,81.626 180.474,80.555 178.702,80.555 C178.55,80.555 178.398,80.563 178.244,80.579 C175.838,80.828 174.09,82.981 174.339,85.387 C174.573,87.64 176.475,89.316 178.691,89.316 C178.828,89.316 178.967,89.31 179.107,89.297 L175.413,95.516" id="Fill-137" fill="#F1BD9D"></path>
            <path d="M164.555,82.414 C164.873,81.683 165.3,80.975 165.832,80.295 L165.833,80.294 C167.371,78.323 169.816,76.656 172.801,75.69 L172.805,75.688 C174.437,75.154 176.244,74.833 178.144,74.774 L178.168,74.773 C178.343,74.764 178.536,74.762 178.744,74.762 L178.759,74.762 C181.723,74.762 184.451,75.434 186.675,76.551 L185.167,79.091 C183.33,78.388 181.16,77.957 178.659,77.914 C178.585,77.912 178.511,77.912 178.435,77.912 C174.227,77.912 167.935,79.879 164.555,82.414" id="Fill-138" fill="#C98873"></path>
            <path d="M178.691,89.316 C176.475,89.316 174.573,87.64 174.339,85.387 C174.09,82.981 175.838,80.828 178.244,80.579 C178.398,80.563 178.55,80.555 178.702,80.555 C180.474,80.555 182.045,81.626 182.723,83.207 L179.107,89.297 C178.967,89.31 178.828,89.316 178.691,89.316" id="Fill-139" fill="#585653"></path>
            <path d="M182.588,95.074 L190.279,82.531 C191.379,83.775 192.11,85.17 192.47,86.58 C192.32,87.24 192.083,87.885 191.764,88.513 C191.175,89.671 190.301,90.769 189.181,91.741 L189.177,91.745 C187.48,93.232 185.204,94.419 182.588,95.074" id="Fill-140" fill="#F1BD9D"></path>
            <path d="M192.47,86.58 C192.11,85.17 191.379,83.775 190.279,82.531 L191.42,80.67 C191.487,80.776 191.551,80.883 191.612,80.991 C192.275,82.155 192.636,83.399 192.663,84.724 C192.662,84.801 192.663,84.851 192.663,84.876 C192.663,85.455 192.597,86.023 192.47,86.58" id="Fill-141" fill="#C98873"></path>
            <path d="M177.794,95.663 C176.981,95.663 176.185,95.613 175.413,95.516 L179.107,89.297 C179.121,89.295 179.134,89.294 179.148,89.293 C181.555,89.043 183.304,86.89 183.054,84.484 C183.007,84.032 182.893,83.603 182.723,83.207 L185.167,79.091 C187.336,79.922 189.041,81.132 190.279,82.531 L182.588,95.074 C182.117,95.192 181.635,95.293 181.143,95.376 L181.117,95.38 C180.256,95.538 179.351,95.63 178.419,95.655 L178.427,95.655 C178.21,95.66 178.005,95.663 177.81,95.663 L177.794,95.663" id="Fill-142" fill="#F6E1D0"></path>
            <path d="M190.279,82.531 C189.041,81.132 187.336,79.922 185.167,79.091 L186.675,76.551 C187.417,76.924 188.103,77.346 188.724,77.809 C189.852,78.65 190.763,79.621 191.42,80.67 L190.279,82.531" id="Fill-143" fill="#E8CEC1"></path>
            <path d="M179.107,89.297 L182.723,83.207 C182.893,83.603 183.007,84.032 183.054,84.484 C183.304,86.89 181.555,89.043 179.148,89.293 C179.134,89.294 179.121,89.295 179.107,89.297" id="Fill-144" fill="#BBBAB5"></path>
            <path d="M206.631,84.362 C206.738,91.084 213.359,96.333 221.419,96.085 C229.479,95.837 235.924,90.186 235.816,83.463 C235.709,76.74 229.088,71.491 221.028,71.739 C212.969,71.987 206.523,77.638 206.631,84.362 Z" id="Stroke-145" stroke="#646775" stroke-width="3.465"></path>
            <path d="M178.466,97.387 L178.512,99.119 C179.611,99.088 180.692,98.98 181.741,98.788 L181.43,97.084 L181.716,98.792 C185.527,98.15 188.909,96.579 191.457,94.353 L191.453,94.357 C192.871,93.124 194.036,91.687 194.852,90.084 C195.667,88.484 196.128,86.714 196.127,84.876 L196.127,84.701 C196.099,82.757 195.556,80.911 194.623,79.276 C193.222,76.82 190.972,74.833 188.228,73.455 C185.483,72.077 182.229,71.298 178.744,71.298 C178.516,71.298 178.271,71.3 178.013,71.311 L178.091,73.042 L178.036,71.31 C175.815,71.38 173.687,71.754 171.728,72.396 L171.732,72.394 C168.177,73.549 165.151,75.548 163.105,78.158 L163.106,78.156 C161.439,80.273 160.423,82.825 160.425,85.553 C160.425,85.578 160.421,85.676 160.433,85.834 L162.16,85.702 L160.428,85.727 C160.456,87.67 160.999,89.517 161.932,91.151 C163.333,93.607 165.583,95.593 168.325,96.971 C171.07,98.35 174.323,99.127 177.81,99.127 C178.047,99.127 178.277,99.123 178.504,99.119 L178.512,99.119 L178.466,97.387 L178.427,95.655 C178.21,95.66 178.005,95.663 177.81,95.663 C173.852,95.667 170.312,94.471 167.83,92.618 C166.587,91.691 165.608,90.607 164.942,89.436 C164.275,88.263 163.913,87.009 163.892,85.675 L163.891,85.629 L163.887,85.568 L163.28,85.615 L163.889,85.609 L163.887,85.568 L163.28,85.615 L163.889,85.609 L163.889,85.553 C163.891,83.691 164.567,81.911 165.832,80.295 L165.833,80.294 C167.371,78.323 169.816,76.656 172.801,75.69 L172.805,75.688 C174.437,75.154 176.244,74.833 178.144,74.774 L178.168,74.773 C178.343,74.764 178.536,74.762 178.744,74.762 C182.702,74.759 186.241,75.955 188.724,77.809 C189.967,78.735 190.945,79.82 191.612,80.991 C192.279,82.164 192.642,83.417 192.663,84.752 L194.395,84.727 L192.663,84.691 C192.661,84.788 192.663,84.847 192.663,84.876 C192.662,86.139 192.352,87.354 191.764,88.513 C191.175,89.671 190.301,90.769 189.181,91.741 L189.177,91.745 C187.174,93.499 184.366,94.836 181.143,95.376 L181.117,95.38 C180.256,95.538 179.351,95.63 178.419,95.655 L178.427,95.655 L178.466,97.387" id="Fill-146" fill="#646775"></path>
            <polyline id="Fill-147" fill="#2F3E72" points="123.897 168.568 143.758 165.617 172.852 262.656 172.852 384.939 98.266 384.939 97.109 235.199 123.897 168.568"></polyline>
            <polyline id="Fill-148" fill="#2F3E72" points="198.025 170.623 172.852 260.795 172.852 384.688 227.285 384.722 227.285 219.606 198.025 170.623"></polyline>
            <path d="M208.472,170.458 C188.572,181.006 188.496,199.161 210.454,221.729 L273.879,293.673 C244.072,217.711 244.821,167.504 208.472,170.458" id="Fill-149" fill="#2F3E72"></path>
            <path d="M131.403,200.589 L77.125,270.232 L45.538,255.081 C48.183,248.91 79.608,208.21 83.171,201.753 C87.973,193.048 92.763,186.464 97.287,180.404 C103.335,172.302 119.093,164.3 134.98,163.283 C143.38,162.745 131.403,200.589 131.403,200.589" id="Fill-150" fill="#2F3E72"></path>
            <path d="M204.481,206.625 L239.023,301.809 C240.4,305.581 242.29,308.765 244.426,311.572 C246.033,313.674 247.793,315.563 249.686,317.282 C252.528,319.855 255.661,322.055 259.162,323.85 C262.666,325.63 266.55,327.034 271.023,327.659 L330.282,335.784 L335.401,298.461 L276.142,290.335 L275.789,292.905 L276.563,290.419 C276.533,290.412 276.406,290.372 276.142,290.335 L275.789,292.905 L276.563,290.419 L276.509,290.59 L276.569,290.421 L276.563,290.419 L276.509,290.59 L276.569,290.421 C276.551,290.418 276.285,290.311 275.961,290.108 C275.469,289.813 274.859,289.292 274.537,288.913 C274.373,288.727 274.276,288.584 274.264,288.56 L274.262,288.558 L272.181,289.776 L274.436,288.959 C274.335,288.679 274.266,288.567 274.262,288.558 L272.181,289.776 L274.436,288.959 L239.895,193.774 L204.482,206.626 L204.481,206.625" id="Fill-151" fill="#2F3E72"></path>
            <g id="Group-154" transform="translate(97.000000, 244.000000)">
                <mask id="mask-4" fill="white">
                    <use xlink:href="#path-3"></use>
                </mask>
                <g id="Clip-153"></g>
                <polyline id="Fill-152" mask="url(#mask-4)" points="0.494 41.039 0.109 0.591 0.18 0.499 0.181 0.499 0.494 41.039"></polyline>
            </g>
            <path d="M139.381,384.352 L130.741,384.268 L130.742,325.698 C130.742,325.673 130.742,325.648 130.741,325.623 L130.741,307.108 C130.741,306.723 130.705,306.345 130.637,305.979 L130.637,302.528 C130.637,301.091 129.732,299.8 128.383,299.311 C124.235,297.81 119.349,297.094 114.092,297.09 C108.955,297.091 103.465,297.783 98.021,299.218 C97.887,299.254 97.757,299.297 97.63,299.347 L97.494,285.039 L97.181,244.499 L106.789,232.896 L111.684,237.444 L111.705,237.49 L111.594,292.46 L132.223,292.334 C132.238,292.333 132.253,292.333 132.268,292.333 C136.194,292.333 139.381,295.517 139.381,299.449 L139.381,384.352" id="Fill-155" fill="#20274C"></path>
            <polyline id="Fill-156" fill="#20274C" points="97.109 244.591 97.109 244.585 97.18 244.499 97.109 244.591"></polyline>
            <path d="M330.031,335.604 C328.353,335.604 288.721,328.441 279.316,327.896 C262.365,326.915 259.804,323.408 253.191,319.484 C239.649,311.108 233.771,285.464 222.918,255.162 C223.272,255.994 223.595,256.636 223.743,256.636 C223.905,256.636 223.859,255.868 223.416,253.739 C239.623,295.58 247.877,306.879 259.999,312.499 C263.526,314.462 290.999,318.999 330.499,324.5 L330.086,335.594 C330.086,335.601 330.067,335.604 330.031,335.604 M222.918,255.162 C222.771,254.814 222.617,254.433 222.469,254.053 C221.967,252.761 221.524,251.469 221.549,251.469 C221.567,251.469 221.808,252.084 222.406,253.739 C222.578,254.214 222.749,254.688 222.918,255.162" id="Fill-157" fill="#2A3563"></path>
            <polyline id="Fill-158" fill="#2A7889" points="163.76 208.431 154.115 196.341 152.728 192.095 163.421 205.601 172.929 190.937 182.619 205.601 189.284 190.128 182.733 208.248 172.929 194.008 163.76 208.431"></polyline>
            <polyline id="Fill-159" fill="#B0B5C6" points="163.421 205.601 152.728 192.095 152.698 192.005 163.421 205.601"></polyline>
            <path d="M107.985,396.876 C106.98,400.205 112.565,409.705 97.941,409.705 L107.985,396.876" id="Fill-160" fill="#F1AB83"></path>
            <path d="M125.986,398.347 C125.986,401.874 123.101,404.76 119.573,404.76 L68.066,404.76 C64.54,404.76 61.653,401.874 61.653,398.347 L61.653,306.929 C61.653,303.402 64.539,300.516 68.066,300.516 L119.573,300.516 C123.1,300.516 125.986,303.402 125.986,306.929 L125.986,398.347" id="Fill-161" fill="#742E25"></path>
            <path d="M124.599,300.965 C127.977,300.965 130.741,303.729 130.741,307.108 L130.74,351.832 C130.74,355.209 127.977,357.974 124.598,357.974 L68.472,357.974 C65.093,357.974 62.329,355.209 62.329,351.832 L62.329,307.108 C62.329,303.729 65.094,300.964 68.472,300.964 L124.599,300.965" id="Fill-162" fill="#4D221A"></path>
            <polyline id="Fill-163" fill="#4D221A" points="107.232 358.334 67.938 358.334 107.232 358.334"></polyline>
            <path d="M107.232,354.882 L67.938,354.882 C66.032,354.882 64.486,356.428 64.486,358.334 C64.486,360.24 66.032,361.786 67.938,361.786 L107.232,361.786 C109.138,361.786 110.684,360.24 110.684,358.334 C110.684,356.428 109.138,354.882 107.232,354.882" id="Fill-164" fill="#4D221A"></path>
            <path d="M125.229,404.761 L111.111,404.761 C108.08,404.761 105.6,401.718 105.6,398 L105.601,325.698 C105.601,324.676 106.429,323.848 107.45,323.848 L128.892,323.848 C129.914,323.848 130.742,324.676 130.742,325.698 L130.741,398 C130.741,401.718 128.261,404.761 125.229,404.761" id="Fill-165" fill="#A44635"></path>
            <polyline id="Fill-166" fill="#F1AB83" points="97.941 409.705 98.641 404.726 104.354 404.761 97.941 409.705"></polyline>
            <path d="M96.99,184.25 L48.002,250.09 L48.004,250.088 C46.28,252.411 44.958,254.749 43.843,257.112 C42.183,260.657 40.993,264.27 40.148,267.976 C39.313,271.684 38.824,275.465 38.818,279.422 C38.82,281.59 38.966,283.848 39.386,286.258 L39.377,286.207 L54.359,373.064 L89.746,366.961 L74.763,280.103 L74.754,280.052 L74.72,280.058 L74.755,280.053 L74.754,280.052 L74.72,280.058 L74.755,280.053 C74.746,279.996 74.726,279.766 74.726,279.422 C74.725,278.883 74.779,278.095 74.914,277.238 C75.11,275.949 75.495,274.499 75.923,273.379 C76.134,272.82 76.352,272.342 76.526,272.012 C76.613,271.847 76.688,271.718 76.739,271.635 L76.798,271.544 L76.811,271.526 L76.794,271.514 L76.81,271.527 L76.811,271.526 L76.794,271.514 L76.81,271.527 L76.811,271.525 L125.8,205.684 L96.991,184.25 L96.99,184.25" id="Fill-167" fill="#2F3E72"></path>
            <polyline id="Fill-168" fill="#0E111B" points="172.852 384.688 172.852 384.687 172.852 384.688"></polyline>
            <polyline id="Fill-169" fill="#25212D" points="172.852 377.344 172.852 377.104 172.852 377.344"></polyline>
            <polyline id="Fill-170" fill="#2A7889" points="172.852 377.104 172.852 284.6 172.852 377.104"></polyline>
            <polyline id="Fill-171" fill="#1C1923" points="172.852 384.687 172.852 377.344 172.852 384.688 172.852 384.687"></polyline>
            <polyline id="Fill-172" fill="#262F5A" points="170.526 384.688 170.526 290.025 170.526 290.027 170.526 280.619 172.35 284.234 172.468 285.435 172.852 284.6 172.852 384.687 170.526 384.688"></polyline>
            <polyline id="Fill-173" fill="#262F5A" points="172.852 384.688 172.852 284.6 172.956 284.373 172.956 284.374 175.163 279.575 175.177 289.391 175.178 384.687 172.852 384.687"></polyline>
            <path d="M373.148,314.24 C373.629,315.11 374.749,316.01 374.529,317.28 C374.059,319.76 373.229,319.919 370.929,320.47 C369.229,320.47 369.379,321.86 369.829,321.8 C369.949,321.91 369.459,322.459 369.568,322.62 C370.188,323.5 370.889,324.419 370.659,325.74 C370.289,327.94 369.639,328.45 367.629,328.93 C366.309,329.129 367.259,330.12 367.259,330.12 C367.259,330.12 365.608,330.56 365.689,330.91 C365.889,331.419 366.949,331.91 366.858,332.57 C366.689,333.21 366.518,333.71 366.339,334.07 C366.009,334.59 365.559,335 364.999,335.29 C364.789,335.419 364.549,335.51 364.259,335.58 C363.989,335.68 364.369,335.58 363.989,335.68 L353.499,333.37 L363.409,301.95 L363.409,301.94 L369.688,303.62 L372.249,307.08 L377.119,307.419 L373.858,311.709 C372.699,312.1 372.629,313.15 373.148,314.24" id="Fill-174" fill="#E98769"></path>
            <path d="M206.167,118.623 C202.779,126.967 186.122,124.553 184.655,117.401" id="Stroke-175" stroke="#AE5B44" stroke-width="2.933" stroke-linecap="round"></path>
            <path d="M211.27,105.058 C205.467,103.989 195.606,104.473 188.046,106.036 C183.078,107.878 181.024,113.539 179.612,119.114 C189.155,119.798 207.276,119.574 213.347,118.014 L213.347,112.085 L216.036,117.647 C217.787,117.898 220.394,117.475 221.902,117.036 C219.605,111.309 217.583,106.291 211.27,105.058" id="Fill-176" fill="#4C2F22"></path>
            <polyline id="Fill-177" fill="#F1AC82" points="143.131 75.469 132.05 34.89 151.769 17.129 182.406 15.008 201.446 19.125 209.542 20.875 225.022 27.231 231.012 41.531 143.131 75.469"></polyline>
            <path d="M231.599,50.049 C229.202,37.665 225.949,30.26 221.494,29.841 C211.554,28.211 216.306,43.693 200.96,43.693 C172.63,43.693 165.494,27.376 149.137,31.47 C135.365,36.36 148.933,62.76 146.366,98.777 L124.039,33.752 L148.647,17.782 C162.232,7.948 194.955,12.046 211.39,17.782 L217.909,17.129 C227.839,25.538 233.299,36.083 231.599,50.049" id="Fill-178" fill="#6C3126"></path>
            <polygon id="Fill-179" fill="#742E25" points="64.284 355.896 101.91 355.896 101.91 299.428 64.284 299.428"></polygon>
            <path d="M130.636,328.817 L130.637,302.528 C130.637,301.091 129.732,299.8 128.383,299.311 C124.235,297.81 119.349,297.094 114.092,297.09 C108.955,297.091 103.465,297.783 98.021,299.218 C96.512,299.617 95.469,300.973 95.473,302.535 L95.592,356.068 L102.437,356.054 L102.317,302.52 L98.896,302.528 L99.769,305.836 C104.632,304.551 109.571,303.934 114.092,303.935 C118.711,303.931 122.891,304.592 126.046,305.744 L127.215,302.528 L123.792,302.527 L123.79,332.239 L130.636,332.241 L130.636,328.817" id="Fill-180" fill="#A44635"></path>
            <path d="M108.001,404.76 L102.92,404.752 L98.641,404.726 L98.638,404.746 L85.065,404.725 L70.977,370.198 L89.746,366.961 L88.853,361.786 L96.176,361.786 L101.148,384.722 L99.955,395.375 C99.252,400.753 103.084,404.298 108.001,404.76" id="Fill-181" fill="#4D221F"></path>
            <polyline id="Fill-182" fill="#321A15" points="96.176 361.786 88.853 361.786 87.837 355.896 94.9 355.896 96.176 361.786"></polyline>
            <polyline id="Fill-183" fill="#AA7C6A" points="102.92 404.752 98.638 404.746 98.641 404.726 102.92 404.752"></polyline>
            <path d="M70.977,370.198 L65.141,355.896 L87.837,355.896 L89.746,366.961 L70.977,370.198 M64.284,353.796 L62.797,350.151 L64.284,339.807 L64.284,353.796" id="Fill-184" fill="#262F5A"></path>
            <g id="Group-187" transform="translate(78.000000, 299.000000)">
                <mask id="mask-6" fill="white">
                    <use xlink:href="#path-5"></use>
                </mask>
                <g id="Clip-186"></g>
                <path d="M10.261,0.428 L0.096,0.428 L0.083,0.353 L10.385,0.353 C10.343,0.378 10.302,0.403 10.261,0.428" id="Fill-185" mask="url(#mask-6)"></path>
            </g>
            <polyline id="Fill-188" fill="#262F5A" points="78.096 299.428 70.09 299.428 70.101 299.353 78.083 299.353 78.096 299.428"></polyline>
            <path d="M94.9,355.896 L65.141,355.896 L64.284,353.796 L64.284,339.807 L70.09,299.428 L88.261,299.428 C85.609,301.07 84.388,303.904 84.481,307.832 L94.9,355.896" id="Fill-189" fill="#4D221F"></path>
            <path d="M75.154,349.655 L81.029,365.078 C81.029,365.078 88.349,392.862 90.283,397.538 C92.217,402.213 95.203,404.749 99.239,404.749 C103.275,404.749 103.604,409.705 99.419,409.705 L77.772,409.705 C72.089,409.705 67.556,400.921 66.518,396.682 C64.935,390.211 61.031,375.19 61.031,375.19 L56.502,352.96 L74.091,344.248 L75.154,349.655" id="Fill-190" fill="#F1AB83"></path>
            <path d="M95.686,393.672 L78.903,373.925" id="Stroke-191" stroke="#F1AC82" stroke-width="9.787" stroke-linecap="round" stroke-linejoin="round"></path>
            <path d="M90.824,406.569 L75.957,385.342" id="Stroke-192" stroke="#F1AC82" stroke-width="7.98" stroke-linecap="round" stroke-linejoin="round"></path>
            <path d="M78.714,405.907 L73.962,392.963" id="Stroke-193" stroke="#F1AC82" stroke-width="8.977" stroke-linecap="round" stroke-linejoin="round"></path>
            <g id="Group-197" transform="translate(56.000000, 194.000000)" stroke-linejoin="round">
                <path d="M28.699,211.907 L23.947,198.963" id="Stroke-194" stroke="#F1AC82" stroke-width="9.787" stroke-linecap="round"></path>
                <path d="M55.396,0.967 L6.407,66.808 C2.304,72.324 -0.099,82.38 1.07,89.156 L16.053,176.012" id="Stroke-196" stroke="#2F3E72" stroke-width="35.908"></path>
            </g>
            <path d="M199.28,166.92 L182.619,205.601 L172.929,190.937 L186.81,168.354 L181.373,164.624 L181.508,160.892 C184.525,160.892 190.171,164.098 192.548,165.092 C195.604,166.366 196.628,165.102 199.28,166.92" id="Fill-198" fill="#FFFFFF"></path>
            <g id="Group-201" transform="translate(213.000000, 170.000000)">
                <mask id="mask-8" fill="white">
                    <use xlink:href="#path-7"></use>
                </mask>
                <g id="Clip-200"></g>
                <path d="M4.228,0.89 C2.907,0.621 1.525,0.449 0.08,0.375 L0.092,0.172 C1.715,0.486 3.134,0.683 4.238,0.715 L4.228,0.89" id="Fill-199" mask="url(#mask-8)"></path>
            </g>
            <path d="M175.178,289.976 L175.177,289.391 L175.177,279.546 L204.715,215.327 C205.723,216.56 206.803,217.809 207.953,219.073 L175.178,289.976 M200.144,209.112 L193.13,202.647 L196.516,202.551 C196.8,203.182 197.108,203.821 197.436,204.462 L197.262,204.467 L197.599,204.778 C198.34,206.197 199.187,207.642 200.144,209.112" id="Fill-202" fill="#262F5A"></path>
            <path d="M207.953,219.073 C206.803,217.809 205.723,216.56 204.715,215.327 L205.361,213.921 L200.144,209.112 C199.187,207.642 198.34,206.197 197.599,204.778 L206.934,213.382 L208.539,217.805 L207.953,219.073 M197.436,204.462 C197.108,203.821 196.8,203.182 196.516,202.551 L211.185,202.135 L213.08,170.375 C214.525,170.449 215.907,170.621 217.228,170.89 L215.39,202.667 L211.547,204.061 L197.436,204.462" id="Fill-203" fill="#262F5A"></path>
            <path d="M208.539,217.805 L206.934,213.382 L209.493,215.741 L208.539,217.805 M211.547,204.061 L215.39,202.667 L215.315,203.954 L211.547,204.061" id="Fill-204" fill="#262F5A"></path>
            <polyline id="Fill-205" fill="#1D2244" points="175.177 289.391 175.163 279.575 175.177 279.546 175.177 289.391"></polyline>
            <g id="Group-208" transform="translate(123.000000, 165.000000)">
                <mask id="mask-10" fill="white">
                    <use xlink:href="#path-9"></use>
                </mask>
                <g id="Clip-207"></g>
                <path d="M0.66,0.136 C0.809,0.093 0.958,0.051 1.109,0.008 L1.111,0.021 C0.96,0.059 0.81,0.097 0.66,0.136" id="Fill-206" mask="url(#mask-10)"></path>
            </g>
            <path d="M170.526,290.027 L131.893,213.754 L144.011,202.136 L130.016,202.369 L131.403,200.589 C131.403,200.589 131.44,200.474 131.507,200.257 L147.518,199.991 L135.808,211.805 L170.525,280.617 L170.526,290.025" id="Fill-209" fill="#262F5A"></path>
            <path d="M125.951,202.437 C125.951,202.437 124.191,178.627 116.898,167.831 C116.57,167.345 119.88,166.228 123.66,165.136 C123.81,165.097 123.96,165.059 124.111,165.021 L129.456,200.291 L131.507,200.257 C131.44,200.474 131.403,200.589 131.403,200.589 L130.016,202.369 L125.951,202.437" id="Fill-210" fill="#262F5A"></path>
            <polyline id="Fill-211" fill="#1D2244" points="170.526 290.027 170.526 290.027 170.525 280.617 170.526 280.619 170.526 290.027"></polyline>
            <path d="M147.278,162.466 C148.425,161.912 149.688,161.369 150.872,160.889 L151.452,161.274 C151.452,161.274 149.566,161.747 147.278,162.466" id="Fill-212" fill="#B0B5C6"></path>
            <path d="M213.107,169.911 C205.306,166.433 181.515,152.629 181.515,152.629 L181.482,161.027 C181.482,161.027 193.478,165.388 195.715,167.487 L169.931,259.472 L172.468,285.435 L205.361,213.921 L193.13,202.647 L211.185,202.135 L213.107,169.911" id="Fill-213" fill="#565D77"></path>
            <path d="M173.202,254.731 L172.463,284.457 L135.808,211.805 L147.518,199.991 L129.456,200.291 L124.039,164.547 C127.019,163.07 132.447,160.644 137.967,158.243 C146.629,154.477 155.52,150.758 155.52,150.758 L155.475,159.155 C155.475,159.155 145.901,162.446 143.753,164.64 L173.202,254.731" id="Fill-214" fill="#565D77"></path>
            <polyline id="Fill-215" fill="#E98769" points="179.612 167.772 185.415 170.623 186.81 168.354 180.926 164.333 179.612 167.772"></polyline>
            <polyline id="Fill-216" fill="#E98769" points="156.332 163.125 151.229 168.469 162.844 180.495 154.707 168.542 159.998 165.509 156.332 163.125"></polyline>
            <polyline id="Fill-217" fill="#5B463E" points="161.343 84.555 160.493 84.428 161.343 84.555"></polyline>
            <polyline id="Fill-218" fill="#E15C3C" points="133.29 80.354 132.05 80.168 133.29 80.354"></polyline>
            <polyline id="Fill-219" fill="#69251E" points="133.404 80.371 133.29 80.354 133.404 80.371"></polyline>
            <path d="M161.081,89.308 L146.659,85.821 C146.621,84.159 146.556,82.524 146.47,80.919 C153.399,81.878 160.232,82.828 160.747,82.9 C160.536,83.758 160.424,84.646 160.425,85.553 C160.425,85.57 160.423,85.624 160.426,85.708 C160.429,86.788 160.584,87.846 160.886,88.711 C160.945,88.912 161.011,89.111 161.081,89.308" id="Fill-220" fill="#AA7C69"></path>
            <path d="M135.749,83.183 L135.746,83.182 C135.744,83.178 135.742,83.174 135.741,83.171 C135.743,83.175 135.746,83.179 135.749,83.183" id="Fill-221" fill="#A26254"></path>
            <path d="M141.488,84.57 L135.749,83.183 C135.746,83.179 135.743,83.175 135.741,83.171 C135.252,82.138 134.288,81.143 133.404,80.371 C132.381,79.477 131.465,78.882 131.52,78.872 C131.52,78.871 131.52,78.871 131.521,78.871 C131.608,78.871 135.243,79.369 139.924,80.014 L141.488,84.57" id="Fill-222" fill="#4A2621"></path>
            <path d="M161.14,89.322 L161.081,89.308 C161.011,89.111 160.945,88.912 160.886,88.711 C160.961,88.927 161.046,89.132 161.14,89.322 M160.426,85.708 C160.423,85.624 160.425,85.57 160.425,85.553 C160.424,84.646 160.536,83.758 160.747,82.9 C160.768,82.902 160.778,82.904 160.778,82.904 C160.646,83.387 160.551,83.902 160.493,84.428 C160.447,84.851 160.424,85.281 160.426,85.708" id="Fill-223" fill="#454A5D"></path>
            <path d="M146.659,85.821 L141.488,84.57 L139.924,80.014 C141.975,80.297 144.228,80.609 146.47,80.919 C146.556,82.524 146.621,84.159 146.659,85.821" id="Fill-224" fill="#4A2621"></path>
            <path d="M162.524,78.955 L127.054,76.517 C121.416,76.447 121.298,82.037 122.369,81.33 C122.926,80.962 123.965,80.011 126.817,79.211 C127.754,79.126 129.564,78.596 132.171,79.456 C139.414,80.106 150.841,82.671 160.579,83.813 C160.945,82.368 161.685,80.101 162.524,78.955" id="Fill-225" fill="#ACADBB"></path>
            <polyline id="Fill-226" fill="#1D2244" points="172.956 284.374 172.956 284.373 175.163 279.574 175.163 279.575 172.956 284.374"></polyline>
            <polyline id="Fill-227" fill="#1D2244" points="175.177 279.546 175.177 279.545 178.782 271.707 175.177 279.546"></polyline>
            <polyline id="Fill-228" fill="#151732" points="175.163 279.575 175.163 279.574 175.177 279.545 175.177 279.546 175.163 279.575"></polyline>
            <polyline id="Fill-229" fill="#2A7889" points="172.156 251.532 172.156 251.53 172.882 248.942 172.882 248.943 172.156 251.532"></polyline>
            <polyline id="Fill-230" fill="#3B435F" points="172.956 284.373 172.69 275.305 173.202 254.731 172.156 251.532 172.882 248.943 178.782 271.707 175.177 279.545 175.163 279.574 172.956 284.373"></polyline>
            <polyline id="Fill-231" fill="#3B435F" points="172.69 275.305 172.01 252.052 172.156 251.53 172.156 251.532 173.202 254.731 172.69 275.305"></polyline>
            <path d="M203.552,86.143 C207.748,89.721 212.831,96.981 205.399,102.328 C200.911,104.803 195.051,103.165 192.28,99.069" id="Stroke-232" stroke="#E98769" stroke-width="2.933" stroke-linecap="round"></path>
            <path d="M451.447,381.49 L372.67,376.557 C370.393,376.415 368.663,374.454 368.806,372.177 L375.987,257.484 C376.141,255.037 378.267,253.16 380.715,253.313 L459.165,258.225 C461.432,258.368 463.171,260.338 463.028,262.605 L455.827,377.626 C455.685,379.903 453.724,381.632 451.447,381.49" id="Fill-233" fill="#AE252A"></path>
            <path d="M445.857,381.14 C445.836,381.139 445.816,381.138 445.795,381.136 L425.875,379.889 L443.785,381.01 C443.803,381.011 443.822,381.012 443.84,381.013 L445.857,381.14" id="Fill-234"></path>
            <path d="M382.612,253.432 L382.058,253.397 C382.068,253.398 382.078,253.398 382.088,253.399 L382.612,253.432" id="Fill-236" fill="#969BB1"></path>
            <path d="M446.046,381.144 C445.983,381.144 445.92,381.143 445.857,381.14 L443.84,381.013 C443.912,381.017 443.984,381.019 444.056,381.019 C446.291,381.019 448.173,379.279 448.315,377.014 L448.325,376.847 C449.175,376.878 449.761,376.899 450.045,376.909 L450.014,377.413 C449.882,379.523 448.13,381.144 446.046,381.144 M457.152,263.403 C456.653,263.101 456.08,262.905 455.463,262.848 L455.478,262.615 C455.624,260.269 453.869,257.912 451.531,257.747 L453.184,257.851 C455.559,257.999 457.362,260.044 457.214,262.418 L457.152,263.403 M432.3,256.543 L404.26,254.787 L404.473,254.801 L432.3,256.543 M382.612,253.432 L382.039,253.396 C382.046,253.396 382.052,253.397 382.058,253.397 L382.612,253.432" id="Fill-237" fill="#60191C"></path>
            <path d="M448.207,376.79 L369.148,371.839 C366.949,371.702 365.278,369.808 365.416,367.609 L372.052,261.62 C372.189,259.421 374.083,257.751 376.282,257.888 L455.342,262.838 C457.54,262.976 459.211,264.871 459.073,267.069 L452.436,373.058 C452.299,375.256 450.405,376.927 448.207,376.79" id="Fill-238" fill="#FEECC4"></path>
            <path d="M368.716,371.812 L375.35,265.869 C375.488,263.658 377.393,261.977 379.603,262.116 L455.166,262.828 C455.166,262.828 457.341,263.501 457.103,267.295 C456.866,271.089 450.24,376.916 450.24,376.916 C450.24,376.916 368.577,374.024 368.716,371.812" id="Fill-239" fill="#C2A066"></path>
            <polyline id="Fill-240" points="458.962 327.554 460.122 309.034 460.332 309.166 458.962 327.554"></polyline>
            <polyline id="Fill-242" fill="#60191C" points="454.679 337.248 456.585 306.809 460.122 309.034 458.962 327.554 458.249 337.124 454.679 337.248"></polyline>
            <path d="M454.624,337.25 L452.973,333.269 C453.545,324.131 454.145,314.558 454.704,305.626 L456.585,306.809 L454.679,337.248 L454.624,337.25" id="Fill-243" fill="#95918C"></path>
            <path d="M452.973,333.269 L451.305,329.249 L452.857,304.464 L454.704,305.626 C454.145,314.558 453.545,324.131 452.973,333.269" id="Fill-244" fill="#75644B"></path>
            <path d="M455.478,262.615 L448.315,377.014 C448.167,379.37 446.137,381.158 443.785,381.01 L365.288,376.095 C362.934,375.948 361.145,373.92 361.292,371.565 L368.455,257.166 C368.602,254.811 370.651,252.683 373.006,252.831 L451.503,257.746 C453.854,257.893 455.625,260.259 455.478,262.615" id="Fill-245" fill="#D93133"></path>
            <polyline id="Fill-246" fill="#D93133" points="377.191 253.064 369.474 376.327 361.027 375.798 368.745 252.535 377.191 253.064"></polyline>
            <polyline id="Fill-247" fill="#B32A2D" points="370.276 376.378 367.737 376.219 369.474 376.327 373.777 307.599 374.618 306.608 370.25 376.376 370.276 376.378"></polyline>
            <polyline id="Fill-248" fill="#B32A2D" points="369.474 376.327 367.737 376.218 371.895 309.814 373.777 307.599 369.474 376.327"></polyline>
            <polyline id="Fill-249" fill="#D0D3DB" points="377.966 253.141 377.19 253.092 377.191 253.064 375.455 252.955 377.968 253.112 377.966 253.141"></polyline>
            <polyline id="Fill-250" fill="#B32A2D" points="375.061 299.536 374.294 299.347 377.19 253.092 377.966 253.141 375.061 299.536"></polyline>
            <polyline id="Fill-251" fill="#B32A2D" points="374.294 299.347 372.577 298.926 375.455 252.955 377.191 253.064 377.19 253.092 374.294 299.347"></polyline>
            <polyline id="Fill-252" fill="#B32A2D" points="371.75 376.471 370.276 376.378 374.647 306.574 376.245 304.693 371.75 376.471"></polyline>
            <polyline id="Fill-253" fill="#D0D3DB" points="379.467 253.235 377.992 253.143 377.994 253.114 377.968 253.112 379.469 253.206 379.467 253.235"></polyline>
            <polyline id="Fill-254" fill="#B32A2D" points="376.545 299.9 375.087 299.542 377.992 253.143 379.467 253.235 376.545 299.9"></polyline>
            <polyline id="Fill-255" fill="#912529" points="370.276 376.378 370.25 376.376 374.618 306.608 374.647 306.574 370.276 376.378"></polyline>
            <polyline id="Fill-256" fill="#A9AEBD" points="377.992 253.143 377.966 253.141 377.968 253.112 377.994 253.114 377.992 253.143"></polyline>
            <polyline id="Fill-257" fill="#912529" points="375.087 299.542 375.061 299.536 377.966 253.141 377.992 253.143 375.087 299.542"></polyline>
            <path d="M396.78,283.308 L440.609,286.052 C441.435,286.104 442.146,285.476 442.198,284.65 C442.25,283.825 441.622,283.113 440.796,283.061 L396.967,280.317 C396.141,280.265 395.43,280.893 395.378,281.719 C395.326,282.544 395.954,283.256 396.78,283.308" id="Fill-258" fill="#FEECC4"></path>
            <path d="M407.993,334.482 L391.616,316.504 C389.923,314.645 390.057,311.765 391.916,310.071 L409.894,293.694 C411.753,292 414.633,292.134 416.327,293.994 L432.704,311.971 C434.397,313.831 434.264,316.71 432.404,318.405 L414.427,334.782 C412.567,336.475 409.688,336.341 407.993,334.482" id="Fill-259" fill="#FFFFFF"></path>
            <path d="M404.088,311.399 L421.873,312.512 M407.186,317.428 L417.625,318.082" id="Stroke-260" stroke="#4F4F54" stroke-width="2.997" stroke-linecap="round" stroke-linejoin="round"></path>
            <polyline id="Fill-261" fill="#B8BCC9" points="392.204 254.032 382.612 253.432 382.617 253.37 392.204 253.97 392.204 254.032"></polyline>
            <polyline id="Fill-262" fill="#292B32" points="403.347 254.73 398.204 254.408 398.204 254.346 403.031 254.648 403.347 254.667 403.347 254.73"></polyline>
            <polyline id="Fill-263" fill="#8D909D" points="398.204 254.408 392.204 254.032 392.204 253.97 398.204 254.346 398.204 254.408"></polyline>
            <polyline id="Fill-264" fill="#41435B" points="404.26 254.787 403.347 254.73 403.347 254.667 404.265 254.724 404.26 254.787"></polyline>
            <polyline id="Fill-265" fill="#707492" points="392.204 254.032 382.612 253.432 392.204 254.032"></polyline>
            <polyline id="Fill-266" fill="#181B22" points="403.347 254.73 398.204 254.408 403.347 254.73"></polyline>
            <polyline id="Fill-267" fill="#575A73" points="398.204 254.408 392.204 254.032 398.204 254.408"></polyline>
            <polyline id="Fill-268" fill="#431719" points="404.26 254.787 382.612 253.432 392.204 254.032 398.204 254.408 403.347 254.73 404.26 254.787"></polyline>
            <polyline id="Fill-269" fill="#9F282B" points="380.954 281.261 380.739 281.248 382.16 258.56 382.612 253.432 404.26 254.787 402.409 280.658 398.899 280.438 390.9 275.037 380.954 281.261"></polyline>
            <polyline id="Fill-270" fill="#B7AE9E" points="402.27 282.595 402.076 282.583 398.899 280.438 402.409 280.658 402.27 282.595"></polyline>
            <polyline id="Fill-271" fill="#F6C923" points="401.924 253.474 400.33 278.916 400.139 278.904 389.572 271.729 380.116 277.65 379.915 277.637 381.508 252.196 401.924 253.474"></polyline>
            <path d="M403.824,254.696 C403.813,254.731 403.063,254.675 401.855,254.564 C396.683,254.081 383.096,252.547 383.097,252.616 C382.542,252.907 381.474,252.751 381.508,252.196 C381.574,251.136 382.763,250.849 383.292,250.882 L402.748,252.1 C403.563,252.151 404.348,253.105 403.824,254.696" id="Fill-272" fill="#F6C923"></path>
            <polyline id="Fill-273" fill="#B4A09F" points="365.615 302.53 365.47 302.491 365.662 298.89 365.908 297.84 365.615 302.53"></polyline>
            <polyline id="Fill-274" fill="#9B614E" points="365.662 298.89 365.749 297.249 365.942 297.297 365.908 297.84 365.662 298.89"></polyline>
            <polyline id="Fill-275" fill="#A95E4E" points="364.632 318.219 365.47 302.491 365.615 302.53 364.632 318.219"></polyline>
            <polyline id="Fill-276" fill="#A12D2F" points="364.631 318.245 364.632 318.219 365.942 297.297 364.631 318.245"></polyline>
            <polyline id="Fill-277" fill="#A12D2F" points="364.624 318.375 364.631 318.245 365.942 297.297 372.577 298.926 371.895 309.814 364.624 318.375"></polyline>
            <polyline id="Fill-278" fill="#A12D2F" points="376.245 304.693 376.545 299.9 379.665 300.666 376.245 304.693"></polyline>
            <polyline id="Fill-279" fill="#88272B" points="373.777 307.599 374.294 299.347 375.061 299.536 374.618 306.608 373.777 307.599"></polyline>
            <polyline id="Fill-280" fill="#88272B" points="371.895 309.814 372.577 298.926 374.294 299.347 373.777 307.599 371.895 309.814"></polyline>
            <polyline id="Fill-281" fill="#88272B" points="374.647 306.574 375.087 299.542 376.545 299.9 376.245 304.693 374.647 306.574"></polyline>
            <polyline id="Fill-282" fill="#732328" points="374.618 306.608 375.061 299.536 375.087 299.542 374.647 306.574 374.618 306.608"></polyline>
            <polyline id="Stroke-283" stroke="#F1AC82" stroke-width="8.862" stroke-linecap="round" stroke-linejoin="round" points="355.384 300.103 367.158 296.264 377.995 296.813"></polyline>
            <path d="M193.844,88.454 C198.022,82.644 202.521,82.172 207.402,88.038 L208.265,79.859 C203.77,81.543 196.991,81.557 192.447,80.15 L193.844,88.454" id="Fill-284" fill="#646775"></path>
            <path d="M143.753,164.64 L137.967,158.243 C146.629,154.477 155.52,150.758 155.52,150.758 L155.475,159.155 C155.475,159.155 145.901,162.446 143.753,164.64" id="Fill-285" fill="#3B435F"></path>
            <polyline id="Fill-286" fill="#CE8967" points="475.171 306.445 475.643 303.638 480.04 308.637 477.055 308.749 475.171 306.445"></polyline>
            <path d="M464.951,314.712 C464.323,315.209 463.209,315.529 462.977,316.542 C462.553,318.533 463.12,318.911 464.658,320.038 C465.923,320.568 465.377,321.554 465.062,321.37 C464.938,321.414 465.131,321.975 464.999,322.06 C464.264,322.521 463.456,322.987 463.215,324.04 C462.804,325.792 463.128,326.374 464.473,327.357 C465.392,327.917 464.377,328.357 464.377,328.357 C464.377,328.357 465.466,329.2 465.298,329.434 C464.989,329.751 464.049,329.785 463.91,330.304 C463.837,330.833 463.807,331.257 463.828,331.582 C463.912,332.071 464.118,332.516 464.444,332.907 C464.56,333.069 464.71,333.21 464.904,333.353 C465.073,333.511 464.822,333.319 465.073,333.511 L473.594,335.067 L480.508,336.324 C483.991,336.526 485.71,335.743 487.576,334.191 C491.065,335.192 530.084,342.775 536.636,345.375 L531.452,326.157 L493.813,316.722 C493.879,315.605 492.582,313.215 491.099,311.727 L477.027,300.498 C476.327,303.439 480.313,309.256 477.056,308.747 L476.03,308.605 L470.837,307.895 L467.854,309.669 L464.127,308.403 L465.213,312.61 C465.953,313.261 465.678,314.064 464.951,314.712" id="Fill-287" fill="#F1AC82"></path>
            <path d="M448.713,301.118 C456.931,307.648 463.188,309.224 472.346,311.248" id="Fill-288" fill="#F1AC82"></path>
            <path d="M448.713,301.118 C456.931,307.648 463.188,309.224 472.346,311.248 M447.64,315.598 C455.204,323.943 471.684,326.633 472.869,324.155" id="Stroke-289" stroke="#F1AC82" stroke-width="5.797" stroke-linecap="round"></path>
            <path d="M451.735,325.289 C453.729,327.156 456.271,329.052 458.924,330.019 C463.569,331.712 468.107,330.699 473.747,330.939" id="Stroke-290" stroke="#F1AC82" stroke-width="5.155" stroke-linecap="round"></path>
            <path d="M445.816,306.843 C453.019,313.673 461.775,316.975 471.808,318.664" id="Fill-291" fill="#F1AC82"></path>
            <path d="M445.816,306.843 C453.019,313.673 461.775,316.975 471.808,318.664" id="Stroke-292" stroke="#F1AC82" stroke-width="5.797" stroke-linecap="round"></path>
            <polyline id="Stroke-293" stroke="#F1AC82" stroke-width="7.146" stroke-linecap="round" stroke-linejoin="round" points="482.57 309.744 475.013 303.215 466.784 300.243"></polyline>
        </g>
    </g>
</svg>