<?xml version="1.0" encoding="UTF-8"?>
<svg width="512px" height="512px" viewBox="0 0 512 512" version="1.1" xmlns="http://www.w3.org/2000/svg" xmlns:xlink="http://www.w3.org/1999/xlink">
    <!-- Generator: Sketch 41.2 (35397) - http://www.bohemiancoding.com/sketch -->
    <title>Combined Shape</title>
    <desc>Created with Sketch.</desc>
    <defs>
        <linearGradient x1="50%" y1="3.36133855%" x2="50%" y2="100%" id="linearGradient-1">
            <stop stop-color="#3023AE" offset="0%"></stop>
            <stop stop-color="#C96DD8" offset="100%"></stop>
        </linearGradient>
    </defs>
    <g id="Page-1" stroke="none" stroke-width="1" fill="none" fill-rule="evenodd">
        <g id="student" fill="url(#linearGradient-1)">
            <g id="Layer_1">
                <g id="Group">
                    <path d="M307.204,255.997 C324.441,255.997 338.598,243.103 340.868,226.472 L372.057,203.091 C375.829,200.266 376.597,194.916 373.764,191.144 C370.939,187.372 365.589,186.596 361.817,189.437 L340.066,205.753 C336.815,195.351 327.206,187.731 315.738,187.731 L281.605,187.731 C267.491,187.731 256.005,199.217 256.005,213.331 C256.005,199.217 244.519,187.731 230.405,187.731 L196.27,187.731 C184.801,187.731 175.193,195.351 171.941,205.753 L150.19,189.437 C146.427,186.612 141.068,187.38 138.243,191.144 C135.41,194.916 136.178,200.266 139.95,203.091 L171.139,226.472 C173.409,243.103 187.557,255.997 204.803,255.997 L221.87,255.997 C240.695,255.997 256.003,240.688 256.003,221.864 C256.003,240.689 271.312,255.997 290.136,255.997 L307.204,255.997 Z M238.937,221.864 C238.937,231.276 231.274,238.931 221.87,238.931 L204.803,238.931 C195.399,238.931 187.736,231.277 187.736,221.864 L187.736,213.331 C187.736,208.629 191.559,204.798 196.269,204.798 L230.402,204.798 C235.112,204.798 238.935,208.629 238.935,213.331 L238.935,221.864 L238.937,221.864 Z M273.07,221.864 L273.07,213.331 C273.07,208.629 276.893,204.798 281.603,204.798 L315.736,204.798 C320.446,204.798 324.269,208.629 324.269,213.331 L324.269,221.864 C324.269,231.276 316.606,238.931 307.202,238.931 L290.135,238.931 C280.733,238.93 273.07,231.276 273.07,221.864 Z M511.748,501.39 L503.027,466.634 C498.649,453.476 472.742,411.15 324.271,409.998 L324.271,401.064 C324.271,396.354 320.457,392.531 315.738,392.531 C311.019,392.531 307.205,396.354 307.205,401.064 L307.205,418.131 C307.205,418.191 307.239,418.242 307.239,418.302 C307.239,418.353 307.205,418.396 307.205,418.456 C307.171,423.661 305.456,469.332 256.005,469.332 C206.554,469.332 204.839,423.346 204.805,418.132 L204.805,401.065 C204.805,396.355 200.991,392.532 196.272,392.532 C191.553,392.532 187.739,396.355 187.739,401.065 L187.739,409.684 C77.162,410.553 21.789,428.2 8.793,467.257 L0.26,501.39 C-0.892,505.964 1.898,510.597 6.472,511.741 C11.029,512.902 15.671,510.103 16.814,505.537 L25.16,472.027 C35.076,442.288 88.477,427.432 188.3,426.689 C191.398,451.12 208.003,486.397 256.003,486.397 C303.977,486.397 320.592,451.334 323.706,427.031 C440.664,427.893 481.325,455.498 486.659,471.404 L495.192,505.537 C496.165,509.411 499.638,511.997 503.461,511.997 C504.144,511.997 504.843,511.92 505.535,511.741 C510.109,510.597 512.891,505.964 511.748,501.39 Z M58.636,42.595 L254.903,68.195 C255.27,68.238 255.637,68.263 256.004,68.263 C256.371,68.263 256.738,68.237 257.105,68.195 L443.737,43.85 L443.737,73.478 C438.387,79.494 426.67,94.504 426.67,110.931 C426.67,129.713 441.979,136.531 452.27,136.531 C462.561,136.531 477.87,129.713 477.87,110.931 C477.87,94.504 466.154,79.494 460.803,73.478 L460.803,34.13 C460.803,33.004 460.564,31.937 460.163,30.947 C460.018,30.597 459.77,30.324 459.583,30 C459.25,29.403 458.917,28.814 458.457,28.319 C458.158,28.003 457.8,27.79 457.459,27.534 C456.973,27.141 456.495,26.766 455.932,26.493 C455.514,26.288 455.07,26.203 454.618,26.075 C454.2,25.947 453.824,25.725 453.372,25.665 L257.105,0.065 C256.371,-0.02 255.637,-0.02 254.903,0.065 L58.636,25.665 C54.386,26.22 51.204,29.846 51.204,34.13 C51.204,38.414 54.387,42.041 58.636,42.595 Z M460.804,110.93 C460.804,117.74 456.187,119.335 452.271,119.463 C448.354,119.335 443.738,117.739 443.738,110.93 C443.738,103.847 448.09,95.945 452.271,90.117 C456.452,95.946 460.804,103.848 460.804,110.93 Z M256.004,17.132 L386.299,34.13 L256.004,51.129 L125.708,34.13 L256.004,17.132 Z M275.673,309.603 C275.4,309.85 268.966,315.73 256.004,315.73 C243.23,315.73 236.795,310.021 236.352,309.612 C233.033,306.361 227.682,306.386 224.371,309.697 C221.034,313.034 221.034,318.427 224.371,321.763 C225.497,322.889 235.976,332.797 256.004,332.797 C276.032,332.797 286.511,322.89 287.637,321.763 C290.931,318.469 290.922,313.196 287.688,309.85 C284.437,306.506 279.078,306.412 275.673,309.603 Z M119.47,172.123 C109.537,175.647 102.403,185.136 102.403,196.264 L102.403,230.397 C102.403,242.301 110.569,252.336 121.603,255.186 C126.168,268.652 138.781,305.166 145.974,319.544 C159.525,346.654 197.951,392.53 256.003,392.53 C314.055,392.53 352.481,346.655 366.032,319.544 C373.226,305.165 385.838,268.651 390.403,255.186 C401.437,252.336 409.603,242.301 409.603,230.397 L409.603,196.264 C409.603,185.137 402.469,175.647 392.536,172.123 L392.536,162.131 C392.536,157.421 388.722,153.598 384.003,153.598 C379.284,153.598 375.47,157.421 375.47,162.131 L375.47,179.198 C375.47,183.908 379.284,187.731 384.003,187.731 C388.713,187.731 392.536,191.562 392.536,196.264 L392.536,230.397 C392.536,235.099 388.713,238.93 384.003,238.93 C380.325,238.93 377.065,241.277 375.913,244.767 C375.734,245.27 358.932,295.583 350.774,311.916 C349.468,314.51 318.279,375.464 256.003,375.464 C193.727,375.464 162.537,314.51 161.232,311.916 C153.066,295.583 136.272,245.271 136.093,244.767 C134.932,241.277 131.681,238.93 128.003,238.93 C123.293,238.93 119.47,235.099 119.47,230.397 L119.47,196.264 C119.47,191.562 123.293,187.731 128.003,187.731 C132.722,187.731 136.536,183.908 136.536,179.198 L136.536,162.13 C136.536,157.42 132.722,153.597 128.003,153.597 C123.284,153.597 119.47,157.42 119.47,162.13 L119.47,172.123 L119.47,172.123 Z M128.004,59.73 C123.285,59.73 119.471,63.553 119.471,68.263 L119.471,127.996 C119.471,131.23 121.297,134.183 124.19,135.633 C126.357,136.708 178.086,162.129 256.004,162.129 C333.922,162.129 385.651,136.708 387.818,135.633 C390.711,134.182 392.537,131.23 392.537,127.996 L392.537,68.264 C392.537,63.554 388.723,59.731 384.004,59.731 C379.285,59.731 375.471,63.554 375.471,68.264 L375.471,122.476 C361.357,128.458 316.693,145.064 256.004,145.064 C195.315,145.064 150.651,128.458 136.537,122.476 L136.537,68.264 C136.537,63.553 132.723,59.73 128.004,59.73 Z" id="Combined-Shape"></path>
                </g>
            </g>
        </g>
    </g>
</svg>