<?xml version="1.0" encoding="UTF-8"?>
<svg width="1263px" height="881px" viewBox="0 0 1263 881" version="1.1" xmlns="http://www.w3.org/2000/svg" xmlns:xlink="http://www.w3.org/1999/xlink">
    <!-- Generator: Sketch 41.2 (35397) - http://www.bohemiancoding.com/sketch -->
    <title>Group 7</title>
    <desc>Created with Sketch.</desc>
    <defs>
        <rect id="path-1" x="110" y="0" width="1023" height="738"></rect>
        <filter x="-50%" y="-50%" width="200%" height="200%" filterUnits="objectBoundingBox" id="filter-2">
            <feOffset dx="6" dy="11" in="SourceAlpha" result="shadowOffsetOuter1"></feOffset>
            <feGaussianBlur stdDeviation="10" in="shadowOffsetOuter1" result="shadowBlurOuter1"></feGaussianBlur>
            <feColorMatrix values="0 0 0 0 0.873830782   0 0 0 0 0.873830782   0 0 0 0 0.873830782  0 0 0 0.5 0" type="matrix" in="shadowBlurOuter1"></feColorMatrix>
        </filter>
        <filter x="-50%" y="-50%" width="200%" height="200%" filterUnits="objectBoundingBox" id="filter-3">
            <feOffset dx="6" dy="11" in="SourceAlpha" result="shadowOffsetOuter1"></feOffset>
            <feGaussianBlur stdDeviation="10" in="shadowOffsetOuter1" result="shadowBlurOuter1"></feGaussianBlur>
            <feColorMatrix values="0 0 0 0 0.874509804   0 0 0 0 0.874509804   0 0 0 0 0.874509804  0 0 0 0.5 0" type="matrix" in="shadowBlurOuter1" result="shadowMatrixOuter1"></feColorMatrix>
            <feMerge>
                <feMergeNode in="shadowMatrixOuter1"></feMergeNode>
                <feMergeNode in="SourceGraphic"></feMergeNode>
            </feMerge>
        </filter>
    </defs>
    <g id="Page-1" stroke="none" stroke-width="1" fill="none" fill-rule="evenodd">
        <g id="Group-7" transform="translate(14.000000, 9.000000)">
            <g id="Rectangle">
                <use fill="black" fill-opacity="1" filter="url(#filter-2)" xlink:href="#path-1"></use>
                <use fill="#FFFFFF" fill-rule="evenodd" xlink:href="#path-1"></use>
            </g>
            <g id="Group" transform="translate(352.000000, 52.000000)">
                <path d="M325.418938,370.611674 C324.735107,369.855499 324.116403,368.914804 323.559208,367.796823 C323.284229,366.671607 322.973068,365.651314 322.582307,364.775744 C322.206019,363.914646 321.836968,363.028221 321.46068,362.109234 C316.952464,345.628972 317.846147,314.390646 317.093572,305.280372 C317.093572,305.280372 295.084358,306.51413 272.955745,306.977242 C250.79095,306.51413 228.781736,305.280372 228.781736,305.280372 C228.043633,314.390646 228.93008,345.628972 224.407391,362.109234 C224.052812,363.028221 223.683761,363.914646 223.307473,364.775744 C222.920331,365.651314 222.598315,366.671607 222.33419,367.796823 C221.769759,368.914804 221.143818,369.855499 220.463606,370.611674 C212.514528,379.128586 124.152038,401.643771 113.228839,422.964996 C123.157046,458.765695 420.858532,459.178154 430.775884,423.384691 C419.859922,402.05623 333.357162,379.128586 325.418938,370.611674" id="Fill-19" fill="#F5CEB8"></path>
                <path d="M431.112372,422.132842 C420.319427,401.057645 332.973638,378.821051 325.122249,370.390972 C324.449273,369.645652 323.841424,368.708574 323.276992,367.608684 C323.034576,366.494322 322.69447,365.495738 322.307328,364.627403 C321.938276,363.780777 321.587316,362.894353 321.225501,361.989838 C316.753466,345.690479 317.632676,314.835667 316.90181,305.823081 C316.90181,305.823081 295.142248,307.038749 273.263287,307.494624 C251.366236,307.038749 229.613911,305.823081 229.613911,305.823081 C228.886662,314.835667 228.836008,338.150443 226.180285,355.502657 C229.092897,356.678526 354.306257,411.050726 420.2941,431.594068 C426.32194,428.782836 430.131853,425.638742 431.112372,422.132842" id="Fill-20" fill="#F2B599"></path>
                <path d="M152.945285,216.894795 C152.945285,116.193342 201.008807,56.4664147 271.338431,56.4664147 C341.671673,56.4664147 395.412074,124.004733 390.726568,222.1048 C386.746602,305.443185 341.671673,354.410003 271.338431,354.410003 C201.008807,354.410003 152.945285,295.026791 152.945285,216.894795" id="Fill-21" fill="#F5CEB8"></path>
                <path d="M338.693935,77.3932713 C373.507786,105.621372 394.934478,155.445671 391.826486,217.542427 C387.661994,300.88443 340.459593,349.84763 266.812124,349.84763 C240.070368,349.84763 216.422131,340.346605 197.122912,326.626923 C217.431595,343.165074 243.247105,354.410003 272.839964,354.410003 C346.483814,354.410003 393.682598,305.443185 397.850708,222.1048 C401.132371,156.505762 377.031866,104.608315 338.693935,77.3932713" id="Fill-22" fill="#F2B599"></path>
                <path d="M184.260385,104.268218 C184.260385,104.268218 265.05732,150.687922 321.312336,115.270737 C344.233324,100.686339 378.96034,153.466592 381.73908,170.134992 C384.517821,186.803393 391.464671,231.251255 391.464671,231.251255 L410.908616,209.025515 C410.908616,209.025515 422.023576,86.7966081 377.57097,57.6241937 C333.121982,28.4553974 260.892828,-31.2715301 195.606907,43.734463 C156.711781,57.6241937 115.037915,85.4072733 130.317367,209.025515 C138.653588,215.972189 153.933041,222.918864 153.933041,222.918864 C153.933041,222.918864 152.507489,180.504351 152.507489,161.057281 C163.618832,149.942602 180.786959,131.349394 184.260385,104.268218" id="Fill-23" fill="#F2B599"></path>
                <path d="M187.965371,108.555618 C187.965371,108.555618 265.05732,143.972804 321.312336,108.555618 C344.233324,93.9676022 378.96034,146.751473 381.73908,163.419874 C384.517821,180.088274 391.464671,224.532518 391.464671,224.532518 L410.908616,202.314014 C410.908616,202.314014 422.023576,80.0778715 377.57097,50.9090752 C333.121982,21.7366608 260.892828,-37.9866487 195.606907,37.0157264 C156.711781,50.9090752 115.037915,78.6885366 130.317367,202.314014 C138.653588,209.253453 153.933041,216.200127 153.933041,216.200127 C153.933041,216.200127 158.101151,177.309605 158.101151,157.862534 C169.212493,146.751473 184.491946,135.636794 187.965371,108.555618" id="Fill-24" fill="#66311F"></path>
                <path d="M154.558981,196.264619 C154.558981,196.264619 141.38891,186.915553 125.718697,189.245583 C100.731745,192.957712 120.298707,267.533156 160.724311,260.250002 C160.724311,260.250002 165.786104,225.104172 154.558981,196.264619" id="Fill-25" fill="#F5CEB8"></path>
                <path d="M153.184083,246.580973 C153.184083,246.580973 152.587088,219.268242 145.770491,211.225295 C138.953894,203.182349 122.44427,197.758877 123.486298,216.71751 C124.235255,230.343122 143.585128,253.607245 153.184083,246.580973" id="Fill-26" fill="#F2B599"></path>
                <path d="M386.406495,199.126504 C386.406495,199.126504 401.635294,186.441587 417.504506,188.597951 C442.806237,192.031489 420.15661,264.602528 379.228083,257.771632 C379.228083,257.771632 374.719867,228.099925 386.406495,199.126504" id="Fill-27" fill="#F5CEB8"></path>
                <path d="M388.316879,246.306001 C388.316879,246.306001 389.004328,219.000505 395.379511,210.924996 C401.758311,202.849487 417.139072,197.357273 416.082572,216.308669 C415.32276,229.937899 397.210295,253.285238 388.316879,246.306001" id="Fill-28" fill="#F2B599"></path>
                <path d="M461.750877,661.887178 C461.750877,661.887178 449.394891,666.058801 431.622532,671.637849 L431.622532,590.615023 L431.579114,587.456457 L438.786471,600.908402 L465.144703,651.590181 L461.750877,661.887178 Z M536.187103,598.531337 C493.427792,447.285592 429.241788,407.689548 429.241788,407.689548 L345.282588,379.056225 C337.594017,376.317354 332.441769,374.49747 332.441769,374.49747 L322.625725,361.783608 C322.625725,361.783608 334.71035,380.116316 307.784069,398.159579 C280.854169,416.195606 273.263287,421.127022 270.770381,434.749016 C268.270239,448.37101 268.270239,454.232267 268.270239,454.232267 L262.770649,427.538223 C262.770649,427.538223 258.750883,414.563862 250.06732,409.154863 C241.380138,403.745863 223.101238,384.599092 220.930348,374.49747 C218.759457,364.392229 221.581615,362.380588 221.581615,362.380588 L224.881369,358.787855 L213.071723,372.029953 C213.071723,372.029953 206.508397,374.783296 197.517291,378.549697 L113.380801,410.070232 L113.380801,410.493545 C108.304535,415.428578 23.6868316,470.998355 0.00603159664,685.495017 C12.2245284,729.284392 76.9749634,739.031445 76.9749634,739.031445 C85.3763106,737.200707 113.543618,627.924453 129.532229,547.976191 L113.380801,743.449095 L272.528803,746.806655 L272.499857,747.403635 L366.354701,745.069986 C366.105049,746.546154 365.931377,747.403635 365.931377,747.403635 C365.931377,747.403635 500.12499,769.846458 545.702841,712.279512 C551.640227,704.779275 550.446237,653.174891 536.187103,598.531337 L536.187103,598.531337 Z" id="Fill-29" fill="#F5F5F5"></path>
                <path d="M221.581615,362.380588 C221.581615,362.380588 221.339199,362.590436 221.056983,363.071638 C223.173601,360.701809 224.881369,358.787855 224.881369,358.787855 L221.581615,362.380588" id="Fill-30" fill="#FFFFFF"></path>
                <path d="M321.424499,360.586031 C321.424499,360.586031 344.660266,377.362973 349.754623,379.266072 C347.449861,394.121825 335.643833,426.282757 324.65189,440.530675 C316.916282,427.910883 293.213773,404.943441 288.539122,411.332934 C288.919028,410.938566 323.714789,387.413942 324.420328,374.49747 C325.122249,361.584615 321.424499,360.586031 321.424499,360.586031" id="Fill-31" fill="#E6E7E3"></path>
                <path d="M297.436156,444.278985 C303.74983,442.325233 319.145064,427.299431 319.145064,427.299431 L316.47125,422.270328 C316.47125,422.270328 307.310091,415.388779 297.765408,412.942971 C295.543863,416.901128 282.073486,431.594068 282.073486,431.594068 L254.492319,432.599889 C254.492319,432.599889 242.581365,416.289676 241.35843,412.942971 C235.85884,412.950207 226.180285,424.857241 226.180285,424.857241 L223.03973,428.82987 C223.03973,428.82987 239.003013,441.109565 247.473105,447.40137 L255.230422,474.073706 L231.578567,634.444196 L272.282768,681.153346 L274.254661,684.872711 L307.892613,633.333452 L281.4982,474.073706 L297.436156,444.278985" id="Fill-32" fill="#3B5B71"></path>
                <path d="M223.347273,359.091772 C223.347273,359.091772 200.690409,377.362973 195.596052,379.266072 C197.900815,394.121825 209.706842,426.282757 220.698786,440.530675 C228.434393,427.910883 249.814049,405.659817 254.492319,412.04931 C254.108795,411.651324 221.635887,387.413942 220.930348,374.49747 C220.228426,361.584615 223.347273,359.091772 223.347273,359.091772" id="Fill-33" fill="#E6E7E3"></path>
                <path d="M392.412627,724.023734 C392.412627,724.023734 339.739581,715.481495 314.394431,753.018863 C282.65239,800.021075 309.926014,799.196157 324.362438,781.956104 C342.098615,760.775983 353.003723,755.537032 354.436511,759.596495 C359.183525,773.088239 330.202134,781.576207 339.167913,790.342766 C348.133691,799.102088 379.083357,767.042462 399.200278,744.313812 C419.317199,721.577925 392.412627,724.023734 392.412627,724.023734" id="Fill-34" fill="#F5CEB8"></path>
                <path d="M359.881829,722.627163 L384.727673,766.311614 C384.727673,766.311614 526.808855,741.090121 544.751267,705.94429 C562.690061,670.802077 530.879275,641.542829 505.443672,640.453793 C480.015305,639.364757 359.881829,722.627163 359.881829,722.627163" id="Fill-35" fill="#F5F5F5"></path>
                <path d="M173.210551,695.256542 C173.210551,695.256542 227.652873,681.999972 251.478399,720.582959 C281.317292,768.909381 253.424964,770.10334 239.621717,752.59555 C222.656206,731.082568 211.783661,726.26693 210.086748,730.756942 C204.456905,745.688674 233.659004,752.631731 223.973213,762.787624 C214.294658,772.932663 184.412347,740.684898 165.098655,717.688511 C145.788582,694.677652 173.210551,695.256542 173.210551,695.256542" id="Fill-36" fill="#F5CEB8"></path>
                <path d="M198.201121,689.916286 L175.334405,741.318058 C175.334405,741.318058 28.3144471,742.624178 7.86465613,708.77723 C-12.5887529,674.923047 18.2704592,637.486985 44.2560215,631.292867 C70.2343476,625.098749 198.201121,689.916286 198.201121,689.916286" id="Fill-37" fill="#F5F5F5"></path>
                <path d="M220.818185,158.557202 C220.818185,158.557202 236.712723,157.471784 237.244592,166.658037 C237.335045,171.864425 235.048374,174.592442 215.11236,171.998293 C195.161874,169.396908 160.514458,176.81393 159.150415,174.69013 C161.129544,168.456213 161.534776,165.970606 181.572098,161.697678 C201.620274,157.417513 220.818185,158.557202 220.818185,158.557202" id="Fill-38" fill="#66311F"></path>
                <path d="M314.900972,158.70916 C314.900972,158.70916 298.963016,158.434188 299.01367,167.634913 C299.252468,172.837683 301.709193,175.442686 321.446208,171.839099 C341.201314,168.224657 376.261199,173.865212 377.491371,171.672668 C375.121482,165.550911 374.55705,163.09063 354.284549,159.845231 C333.997574,156.592595 314.900972,158.70916 314.900972,158.70916" id="Fill-39" fill="#66311F"></path>
                <path d="M281.313674,262.116921 C281.313674,264.551875 275.875593,266.523718 269.160304,266.523718 C262.448633,266.523718 257.006934,264.551875 257.006934,262.116921 C257.006934,259.685585 262.448633,254.97849 269.160304,254.97849 C275.875593,254.97849 281.313674,259.685585 281.313674,262.116921" id="Fill-40" fill="#DB9B7C"></path>
                <path d="M245.197288,291.264009 C245.197288,291.264009 269.670463,304.379475 294.14002,293.16349 C289.50155,300.736089 282.800734,309.705259 266.186184,307.892611 C249.463088,306.072727 245.197288,291.264009 245.197288,291.264009" id="Fill-41" fill="#DB9B7C"></path>
                <path d="M171.025187,216.178419 C175.862655,224.333525 193.718232,229.829357 209.761115,229.775087 C225.803997,229.720816 244.473658,224.807491 244.249332,217.408559 C243.7645,201.358847 230.091507,189.350507 208.473053,189.41925 C193.396216,189.466285 177.411224,195.342014 171.025187,216.178419" id="Fill-42" fill="#F1AD89"></path>
                <path d="M176.550104,217.792073 C181.579334,224.97754 198.421829,229.261322 213.205595,228.599217 C227.989361,227.937112 244.99829,222.752433 244.133552,216.106058 C242.480056,203.406668 229.12546,191.289787 209.196683,192.176211 C195.3066,192.7949 180.982339,198.714045 176.550104,217.792073" id="Fill-43" fill="#FFFFFF"></path>
                <path d="M191.883829,211.333837 C192.361425,221.127924 200.690409,228.678815 210.484745,228.197613 C220.27908,227.720029 227.830162,219.391256 227.352566,209.597168 C226.871352,199.803081 218.545986,192.252191 208.748032,192.733393 C198.957315,193.210976 191.402615,201.53975 191.883829,211.333837" id="Fill-44" fill="#199F9A"></path>
                <path d="M197.039695,211.080573 C197.379801,218.027247 203.284624,223.381975 210.231474,223.045496 C217.178325,222.705398 222.536807,216.797107 222.196701,209.850432 C221.856594,202.903758 215.948153,197.54903 209.001303,197.889128 C202.054452,198.229225 196.699589,204.133898 197.039695,211.080573" id="Fill-45" fill="#0A0A08"></path>
                <path d="M197.231457,200.783575 C197.343619,203.099133 199.311894,204.882837 201.627511,204.770677 C203.943127,204.658517 205.726876,202.690293 205.614713,200.374734 C205.502551,198.059176 203.530658,196.275473 201.218659,196.387633 C198.903043,196.499793 197.119294,198.468017 197.231457,200.783575" id="Fill-46" fill="#FFFFFF"></path>
                <path d="M367.186876,216.178419 C362.349408,224.333525 344.493831,229.829357 328.450949,229.775087 C312.408066,229.720816 293.734787,224.807491 293.962731,217.408559 C294.447563,201.358847 308.120557,189.350507 329.73901,189.41925 C344.815847,189.466285 360.800839,195.342014 367.186876,216.178419" id="Fill-47" fill="#F1AD89"></path>
                <path d="M361.661959,217.792073 C356.632729,224.97754 339.790235,229.261322 325.006469,228.599217 C310.222703,227.937112 293.213773,222.752433 294.078512,216.106058 C295.728389,203.406668 309.086603,191.289787 329.01538,192.176211 C342.905463,192.7949 357.229724,198.714045 361.661959,217.792073" id="Fill-48" fill="#FFFFFF"></path>
                <path d="M346.328234,211.333837 C345.850638,221.127924 337.521654,228.678815 327.727318,228.197613 C317.932983,227.720029 310.381901,219.391256 310.859497,209.597168 C311.340711,199.803081 319.666077,192.252191 329.460413,192.733393 C339.254748,193.210976 346.80583,201.53975 346.328234,211.333837" id="Fill-49" fill="#199F9A"></path>
                <path d="M341.172368,211.080573 C340.832262,218.027247 334.927439,223.381975 327.980589,223.045496 C321.033738,222.705398 315.675256,216.797107 316.015363,209.850432 C316.355469,202.903758 322.26391,197.54903 329.21076,197.889128 C336.157611,198.229225 341.512475,204.133898 341.172368,211.080573" id="Fill-50" fill="#0A0A08"></path>
                <path d="M340.980606,200.783575 C340.868444,203.099133 338.900169,204.882837 336.584553,204.770677 C334.268936,204.658517 332.485187,202.690293 332.59735,200.374734 C332.709513,198.059176 334.681405,196.275473 336.993404,196.387633 C339.309021,196.499793 341.092769,198.468017 340.980606,200.783575" id="Fill-51" fill="#FFFFFF"></path>
                <path d="M253.403255,230.259907 C247.773412,242.894171 235.395716,253.042828 200.929207,251.686055 C166.462698,250.329283 166.285409,232.050846 163.390888,206.409658 C160.695365,182.563027 193.888285,182.009464 193.888285,182.009464 C273.23796,178.391404 256.460593,223.400066 253.403255,230.259907 Z M269.601718,182.302527 L269.601718,182.306145 C265.252701,182.280819 254.720262,181.984138 245.978809,179.889281 C234.672086,177.175736 216.899727,172.801502 199.485565,172.801502 C199.485565,172.801502 172.020179,172.801502 151.914112,179.285065 C151.834513,179.285065 149.956692,179.726468 147.829219,180.229379 L156.074986,183.626737 C158.719855,184.715773 159.978971,187.744088 158.893526,190.38889 C158.068588,192.386059 156.136495,193.594491 154.103094,193.594491 C153.440972,193.594491 152.77885,193.467859 152.131201,193.207358 L140.828097,188.547298 C140.817242,191.977218 141.46851,196.047535 144.019306,199.188011 C149.399497,205.819914 150.061619,208.435771 152.391708,216.449773 C154.729034,224.463775 157.804463,237.297032 164.660859,245.770528 C169.020731,251.157819 182.4296,259.942467 200.925589,260.094426 C219.410724,260.242766 247.328379,258.444591 257.7378,242.61558 C268.147222,226.786569 265.759242,217.944032 266.851923,211.728205 C267.362083,208.84823 267.488718,203.895106 269.670463,203.667169 L269.670463,182.302527 L269.601718,182.302527 L269.601718,182.302527 Z" id="Fill-52" fill="#503B31"></path>
                <path d="M345.449023,182.009464 C345.449023,182.009464 378.641943,182.563027 375.94642,206.409658 C373.051899,232.050846 372.87461,250.329283 338.411719,251.686055 C303.94521,253.042828 291.563896,242.894171 285.934053,230.259907 C282.876715,223.400066 266.102966,178.391404 345.449023,182.009464 Z M269.670463,182.302527 L269.670463,203.667169 C271.84859,203.895106 271.978844,208.84823 272.485385,211.728205 C273.578067,217.944032 271.190087,226.786569 281.599508,242.61558 C292.012547,258.444591 319.926584,260.242766 338.415337,260.094426 C356.907708,259.942467 370.316577,251.157819 374.676449,245.770528 C381.536464,237.297032 384.608274,224.463775 386.9456,216.449773 C389.279308,208.435771 389.937811,205.819914 395.32162,199.188011 C397.868799,196.047535 398.520066,191.977218 398.509211,188.547298 L387.206107,193.207358 C386.558458,193.467859 385.896336,193.594491 385.234214,193.594491 C383.200813,193.594491 381.268721,192.386059 380.4474,190.38889 C379.358337,187.744088 380.617453,184.715773 383.262322,183.626737 L391.508089,180.229379 C389.380616,179.726468 387.502795,179.285065 387.426814,179.285065 C367.317129,172.801502 339.851743,172.801502 339.851743,172.801502 C322.441199,172.801502 304.66884,177.175736 293.358499,179.889281 C284.617046,181.984138 274.084608,182.280819 269.73559,182.306145 L269.73559,182.302527 L269.670463,182.302527 L269.670463,182.302527 Z" id="Fill-53" fill="#503B31"></path>
                <path d="M156.074986,183.626737 L147.829219,180.229379 L142.159576,177.892112 C139.525562,176.810312 136.493552,178.065779 135.40087,180.710581 C134.311806,183.351764 135.570923,186.38008 138.215792,187.472734 L140.828097,188.547298 L152.131201,193.207358 C152.77885,193.467859 153.440972,193.594491 154.103094,193.594491 C156.136495,193.594491 158.068588,192.386059 158.893526,190.38889 C159.978971,187.744088 158.719855,184.715773 156.074986,183.626737" id="Fill-54" fill="#503B31"></path>
                <path d="M383.153777,183.626737 L397.065569,177.892112 C399.699583,176.810312 402.735212,178.065779 403.827894,180.710581 C404.913339,183.351764 403.654223,186.38008 401.009354,187.472734 L398.397049,188.547298 L387.093944,193.207358 C386.449913,193.467859 385.784173,193.594491 385.12567,193.594491 C383.088651,193.594491 381.160176,192.386059 380.335238,190.38889 C379.246174,187.744088 380.505291,184.715773 383.153777,183.626737" id="Fill-55" fill="#503B31"></path>
                <path d="M510.454811,776.210625 C510.454811,785.472857 502.954384,792.980331 493.691917,792.980331 L68.9462857,792.980331 C59.6838185,792.980331 52.1761546,785.472857 52.1761546,776.210625 L17.6119556,495.970202 C17.6119556,486.179733 26.2521008,478.245328 36.9111745,478.245328 L525.727028,478.245328 C536.386102,478.245328 545.01901,486.179733 545.01901,495.970202 L510.454811,776.210625" id="Fill-56" fill="#515251"></path>
                <polygon id="Fill-57" fill="#3A3A39" points="48.3047328 819.14252 512.354341 819.14252 512.354341 791.446274 48.3047328 791.446274"></polygon>
                <path d="M311.293675,639.987064 C311.293675,656.546922 297.873952,669.966305 281.313674,669.966305 C264.757014,669.966305 251.337291,656.546922 251.337291,639.987064 C251.337291,623.434441 264.757014,610.01144 281.313674,610.01144 C297.873952,610.01144 311.293675,623.434441 311.293675,639.987064" id="Fill-58" fill="#797C7A"></path>
            </g>
            <g id="Group-4" transform="translate(871.000000, 52.000000)">
                <path d="M107.506914,0.101554367 C48.1571227,0.101554367 0.0439748327,48.3297968 0.0439748327,107.82102 C0.0439748327,167.308756 48.1571227,215.534674 107.506914,215.534674 C166.859024,215.534674 214.973332,167.308756 214.973332,107.82102 C214.973332,48.3286346 166.859024,0.101554367 107.506914,0.101554367 Z M107.506914,22.2114439 C130.322251,22.2114439 151.769387,31.1151373 167.899089,47.2861319 C184.03227,63.4548021 192.917462,84.953369 192.917462,107.82102 C192.917462,130.685184 184.03227,152.181426 167.899089,168.351258 C151.769387,184.523415 130.322251,193.427109 107.506914,193.427109 C84.6950554,193.427109 63.2490792,184.523415 47.1147388,168.351258 C30.9827175,152.181426 22.1010037,130.685184 22.1010037,107.82102 C22.1010037,84.953369 30.9827175,63.4548021 47.1147388,47.2861319 C63.2490792,31.1151373 84.6950554,22.2114439 107.506914,22.2114439 L107.506914,22.2114439 Z" id="Fill-31" fill="#48575B"></path>
                <polyline id="Fill-32" fill="#2F3941" points="105.213438 108.417234 86.1281884 34.7656399 90.7186198 33.5697255 109.803869 107.218995 105.213438 108.417234"></polyline>
                <polyline id="Fill-33" fill="#2F3941" points="182.509856 119.83595 88.7011026 105.494275 88.8785049 104.318118 182.689578 118.662118 182.509856 119.83595"></polyline>
                <polyline id="Fill-34" fill="#2F3941" points="56.1124019 77.3176471 58.696911 73.3963494 110.489129 105.845262 108.999181 109.695665 56.1124019 77.3176471"></polyline>
                <path d="M176.638185,107.817533 C176.638185,110.072221 174.816622,111.896891 172.567207,111.896891 C170.316631,111.896891 168.499706,110.072221 168.499706,107.817533 C168.499706,105.566332 170.316631,103.739337 172.567207,103.739337 C174.816622,103.739337 176.638185,105.566332 176.638185,107.817533" id="Fill-35" fill="#E05752"></path>
                <path d="M46.5987646,107.817533 C46.5987646,110.072221 44.7783611,111.896891 42.5301049,111.896891 C40.2818486,111.896891 38.4602856,110.072221 38.4602856,107.817533 C38.4602856,105.566332 40.2818486,103.739337 42.5301049,103.739337 C44.7783611,103.739337 46.5987646,105.566332 46.5987646,107.817533" id="Fill-36" fill="#E05752"></path>
                <path d="M111.723989,42.5419893 C111.723989,44.7931907 109.902426,46.6201854 107.65417,46.6201854 C105.405913,46.6201854 103.58551,44.7931907 103.58551,42.5419893 C103.58551,40.2873012 105.405913,38.4614688 107.65417,38.4614688 C109.902426,38.4614688 111.723989,40.2873012 111.723989,42.5419893" id="Fill-37" fill="#E05752"></path>
                <path d="M111.723989,173.097725 C111.723989,175.351251 109.902426,177.178246 107.65417,177.178246 C105.405913,177.178246 103.58551,175.351251 103.58551,173.097725 C103.58551,170.840713 105.405913,169.016043 107.65417,169.016043 C109.902426,169.016043 111.723989,170.840713 111.723989,173.097725" id="Fill-38" fill="#E05752"></path>
                <path d="M165.621846,141.425169 C165.058332,142.397939 163.810718,142.733818 162.840223,142.172471 C161.865089,141.607636 161.532315,140.359422 162.095828,139.384328 C162.655863,138.408071 163.901158,138.074517 164.873973,138.639351 C165.847947,139.200699 166.179562,140.448913 165.621846,141.425169" id="Fill-39" fill="#2F3941"></path>
                <path d="M53.0038021,76.2519002 C52.4391291,77.2281569 51.196153,77.5617112 50.2233387,76.9980392 C49.2505243,76.4366916 48.9165904,75.1896399 49.4777849,74.2133832 C50.0389793,73.2382888 51.283115,72.90241 52.2594078,73.466082 C53.2310626,74.0274296 53.563837,75.2791301 53.0038021,76.2519002" id="Fill-40" fill="#2F3941"></path>
                <path d="M141.965876,52.3568556 C141.402363,53.3354367 140.158227,53.6678289 139.187732,53.1064813 C138.211439,52.5428093 137.879824,51.2957576 138.4387,50.3171765 C139.003373,49.3444064 140.247508,49.010852 141.222642,49.5721996 C142.194296,50.1370339 142.52939,51.3829234 141.965876,52.3568556" id="Fill-41" fill="#2F3941"></path>
                <path d="M76.8406522,165.424813 C76.2782982,166.40107 75.0353221,166.732299 74.0636672,166.16979 C73.0862149,165.608442 72.752281,164.360228 73.314635,163.383971 C73.8793079,162.407715 75.122284,162.07416 76.0985769,162.637832 C77.0690722,163.200342 77.4018466,164.448556 76.8406522,165.424813" id="Fill-42" fill="#2F3941"></path>
                <path d="M141.102054,166.030324 C140.12808,166.595159 138.883945,166.260442 138.32275,165.28651 C137.761556,164.310253 138.092011,163.063201 139.067145,162.498367 C140.042278,161.934695 141.285254,162.271736 141.846449,163.244506 C142.409962,164.219601 142.076028,165.470139 141.102054,166.030324" id="Fill-43" fill="#2F3941"></path>
                <path d="M76.082344,53.1518075 C75.1106891,53.7154795 73.8665535,53.3807629 73.3018806,52.4045062 C72.7406861,51.430574 73.07462,50.1823601 74.0497533,49.6198503 C75.0202487,49.0561783 76.2667033,49.3908948 76.8278977,50.3659893 C77.3925707,51.3399216 77.0586368,52.5892977 76.082344,53.1518075" id="Fill-44" fill="#2F3941"></path>
                <path d="M165.047897,77.046852 C164.072763,77.6070374 162.82399,77.2746453 162.266274,76.300713 C161.70276,75.3244563 162.036694,74.0750802 163.011828,73.5114082 C163.984642,72.9477362 165.228778,73.283615 165.788813,74.2610339 C166.351166,75.2338039 166.016073,76.4820178 165.047897,77.046852" id="Fill-45" fill="#2F3941"></path>
                <path d="M52.2478128,142.322396 C51.2703605,142.883743 50.0273844,142.552513 49.463871,141.573932 C48.9049955,140.601162 49.2377699,139.352948 50.2117437,138.789276 C51.1845581,138.227929 52.4298532,138.560321 52.9898881,139.535415 C53.5534016,140.51051 53.2183082,141.758724 52.2478128,142.322396" id="Fill-46" fill="#2F3941"></path>
                <path d="M112.253877,107.82102 C112.253877,110.444128 110.129686,112.57446 107.506914,112.57446 C104.88878,112.57446 102.765749,110.444128 102.765749,107.82102 C102.765749,105.1921 104.88878,103.065255 107.506914,103.065255 C110.129686,103.065255 112.253877,105.1921 112.253877,107.82102" id="Fill-47" fill="#2F3941"></path>
            </g>
            <g id="Group" filter="url(#filter-3)" transform="translate(0.000000, 33.000000)">
                <polygon id="Fill-73173" fill="#FFFFFF" points="0.0375714513 470.906228 351.826512 470.906228 351.826512 0.1711053 0.0375714513 0.1711053"></polygon>
                <polygon id="Fill-73174" fill="#F9FFFF" points="18.4351437 446.291509 333.42894 446.291509 333.42894 24.7858248 18.4351437 24.7858248"></polygon>
                <path d="M104.067924,314.723755 L96.275724,314.723755 L96.275724,223.439078 L81.2979262,223.439078 L81.2979262,174.955169 C89.126767,174.156678 96.7805479,173.36226 104.067924,172.600434 L104.067924,314.723755" id="Fill-73175" fill="#7CC3C2"></path>
                <path d="M220.022705,230.324029 L203.05411,230.324029 L203.05411,207.624059 L168.050276,207.624059 L168.050276,133.812492 L166.352602,133.812492 C185.434129,119.146324 207.93136,102.838359 220.120413,97.5300208 C220.152982,97.5096511 220.189623,97.4933554 220.226263,97.4770597 C221.256267,96.9841134 222.367693,96.755973 223.544259,96.755973 L223.54833,96.755973 C224.366633,96.755973 225.217505,96.8659693 226.088734,97.0696661 C235.456473,99.2573696 247.41347,112.338777 252.343645,118.148209 C252.376214,118.184875 252.404712,118.22154 252.437282,118.254132 C252.498349,118.331537 252.559416,118.400793 252.620484,118.474124 C252.710049,118.580047 252.791472,118.677821 252.876967,118.775596 C253.035742,118.971144 253.190446,119.150398 253.328866,119.321503 C253.410289,119.419277 253.48357,119.508904 253.556851,119.594457 C253.564993,119.606678 253.573135,119.6189 253.585349,119.631122 C253.605704,119.65964 253.630131,119.684083 253.650487,119.712601 C253.670843,119.737044 253.691199,119.761488 253.711555,119.785932 C253.744124,119.822597 253.772622,119.863336 253.805191,119.900002 C253.813334,119.912224 253.821476,119.920371 253.829618,119.932593 C253.87033,119.98148 253.911041,120.026294 253.947682,120.071107 C253.951753,120.079255 253.955824,120.087403 253.963967,120.091477 C254.004678,120.144438 254.049461,120.197399 254.090172,120.246286 C254.440292,120.682197 254.684562,120.991817 254.684562,120.991817 C254.684562,120.991817 275.793527,130.752967 278.134444,134.867642 C278.134444,134.867642 278.1548,134.847272 278.187369,134.81468 C278.993459,133.95508 289.45634,122.988045 294.447582,122.988045 L294.455724,122.988045 C295.56308,122.992119 296.401739,123.538026 296.800713,124.857982 C296.800713,124.857982 297.435814,125.277597 298.587952,126.027201 L298.587952,187.922506 L281.615286,187.922506 L281.615286,163.434079 L220.022705,126.141271 L220.022705,230.324029" id="Fill-73176" fill="#7CC3C2"></path>
                <path d="M39.3690488,144.787675 L18.4351437,144.787675 L18.4351437,99.8277206 C18.6020613,99.8358684 18.7689789,99.8358684 18.9399676,99.8358684 C29.5779088,99.8358684 48.3581702,88.0499724 48.3581702,88.0499724 C48.3581702,88.0499724 60.4047328,93.7005213 78.2934101,93.7005213 C91.2193433,93.7005213 107.194575,90.7469179 123.870047,80.5865222 C124.391155,80.8187365 127.310177,83.8253011 131.458689,87.569248 L39.3690488,144.787675" id="Fill-73177" fill="#78BEBE"></path>
                <path d="M81.2979262,174.955169 L81.2979262,172.421181 L104.067924,170.787533 L104.067924,172.600434 C96.7805479,173.36226 89.126767,174.156678 81.2979262,174.955169" id="Fill-73178" fill="#78BEBE"></path>
                <path d="M81.2979262,172.421181 L81.2979262,144.787675 L39.3690488,144.787675 L131.458689,87.569248 L134.463205,85.6993115 L133.681543,118.429311 C124.000324,118.934479 115.841719,125.151305 112.458585,133.812492 L104.067924,133.812492 L104.067924,170.787533 L81.2979262,172.421181" id="Fill-73179" fill="#72B9B9"></path>
                <path d="M166.352602,133.812492 L157.43269,133.812492 C154.118766,125.338706 146.237,119.199285 136.832621,118.461902 L136.026531,84.7297148 L154.094339,73.501948 C154.937069,72.2797673 156.907511,71.7623775 159.635188,71.7623775 C174.091877,71.7623775 209.702314,86.2533668 209.702314,86.2533668 C210.101288,86.2941061 210.512475,86.3104019 210.939947,86.3104019 C221.581959,86.3104019 240.390719,74.4878405 240.390719,74.4878405 C240.390719,74.4878405 252.43321,80.1383893 270.317816,80.1383893 C283.24375,80.1383893 299.218982,77.1847859 315.898524,67.0243902 C316.501056,67.29327 323.821002,71.2612834 333.42894,76.6755439 L333.42894,105.620857 C333.156172,105.523083 332.883404,105.429382 332.606565,105.335682 C332.541427,105.311238 332.468146,105.286794 332.398936,105.262351 C332.138382,105.172724 331.873757,105.083098 331.609131,104.993471 C331.523637,104.964953 331.442214,104.936436 331.356719,104.907918 C331.222371,104.863105 331.096165,104.818292 330.961817,104.773479 C330.921105,104.757183 330.872251,104.740887 330.83154,104.728665 C330.640195,104.663482 330.452922,104.598299 330.261577,104.53719 C330.110944,104.484229 329.964382,104.435342 329.81375,104.386455 C329.508413,104.284606 329.203076,104.182758 328.897739,104.080909 C328.8326,104.06054 328.767461,104.036096 328.698252,104.015726 C328.690109,104.011653 328.681967,104.007579 328.673825,104.007579 C328.462124,103.938322 328.254495,103.869065 328.042795,103.799808 C328.022439,103.79166 327.998012,103.783512 327.977656,103.779438 C327.904375,103.754995 327.831095,103.730551 327.757814,103.706107 C327.70896,103.689812 327.656035,103.673516 327.607181,103.65722 C327.574612,103.644998 327.542042,103.63685 327.513544,103.624629 C327.163424,103.510558 326.809233,103.396488 326.455043,103.282418 C326.4469,103.282418 326.438758,103.278344 326.430616,103.27427 C318.666913,100.776948 310.47981,98.5159133 304.312003,97.7418655 C304.246864,97.7337176 304.181726,97.7255697 304.116587,97.7174219 C303.9171,97.6929782 303.717614,97.6726086 303.522198,97.6481649 C303.469273,97.644091 303.412277,97.6400171 303.359352,97.6318692 C303.277928,97.6237213 303.200576,97.6155735 303.119153,97.6074256 C303.005161,97.5992777 302.895239,97.5870559 302.785318,97.578908 C302.769033,97.5748341 302.75682,97.5748341 302.740535,97.5748341 C302.577689,97.5585384 302.418914,97.5463166 302.260138,97.5340948 L302.247925,97.5340948 C301.60061,97.4852075 300.981794,97.4607639 300.395547,97.45669 L300.30191,97.45669 L300.293768,97.45669 C297.574233,97.4607639 295.603792,97.9740798 294.761061,99.1962605 C294.761061,99.1962605 276.921238,110.546245 254.090172,120.246286 C254.049461,120.197399 254.004678,120.144438 253.963967,120.091477 C253.955824,120.087403 253.951753,120.079255 253.947682,120.071107 C253.911041,120.026294 253.87033,119.98148 253.829618,119.932593 C253.821476,119.920371 253.813334,119.912224 253.805191,119.900002 C253.772622,119.863336 253.744124,119.822597 253.711555,119.785932 C253.691199,119.761488 253.670843,119.737044 253.650487,119.712601 C253.630131,119.684083 253.605704,119.65964 253.585349,119.631122 C253.573135,119.6189 253.564993,119.606678 253.556851,119.594457 C253.48357,119.508904 253.410289,119.419277 253.328866,119.321503 C253.190446,119.150398 253.035742,118.971144 252.876967,118.775596 C252.791472,118.677821 252.710049,118.580047 252.620484,118.474124 C252.559416,118.400793 252.498349,118.331537 252.437282,118.254132 C252.404712,118.22154 252.376214,118.184875 252.343645,118.148209 C247.41347,112.338777 235.456473,99.2532956 226.088734,97.0696661 C225.217505,96.8659693 224.366633,96.755973 223.54833,96.755973 L223.544259,96.755973 C222.367693,96.755973 221.256267,96.9841134 220.226263,97.4770597 C220.189623,97.4933554 220.152982,97.5096511 220.120413,97.5300208 C207.93136,102.838359 185.434129,119.146324 166.352602,133.812492" id="Fill-73180" fill="#72B9B9"></path>
                <path d="M278.134444,134.867642 C275.793527,130.752967 254.684562,120.991817 254.684562,120.991817 C254.684562,120.991817 254.440292,120.682197 254.090172,120.246286 C276.921238,110.546245 294.761061,99.1962605 294.761061,99.1962605 C295.603792,97.9740798 297.574233,97.4607639 300.293768,97.45669 L300.30191,97.45669 L300.395547,97.45669 C300.981794,97.4607639 301.60061,97.4852075 302.247925,97.5340948 L302.260138,97.5340948 C302.418914,97.5463166 302.577689,97.5585384 302.740535,97.5748341 C302.75682,97.5748341 302.769033,97.5748341 302.785318,97.578908 C302.895239,97.5870559 303.005161,97.5992777 303.119153,97.6074256 C303.200576,97.6155735 303.277928,97.6237213 303.359352,97.6318692 C303.412277,97.6400171 303.469273,97.644091 303.522198,97.6481649 C303.717614,97.6726086 303.9171,97.6929782 304.116587,97.7174219 C304.181726,97.7255697 304.246864,97.7337176 304.312003,97.7418655 C310.47981,98.5159133 318.666913,100.776948 326.430616,103.27427 C326.438758,103.278344 326.4469,103.282418 326.455043,103.282418 C326.809233,103.396488 327.163424,103.510558 327.513544,103.624629 C327.542042,103.63685 327.574612,103.644998 327.607181,103.65722 C327.656035,103.673516 327.70896,103.689812 327.757814,103.706107 C327.831095,103.730551 327.904375,103.754995 327.977656,103.779438 C327.998012,103.783512 328.022439,103.79166 328.042795,103.799808 C328.254495,103.869065 328.462124,103.938322 328.673825,104.007579 C328.681967,104.007579 328.690109,104.011653 328.698252,104.015726 C328.767461,104.036096 328.8326,104.06054 328.897739,104.080909 C329.203076,104.182758 329.508413,104.284606 329.81375,104.386455 C329.964382,104.435342 330.110944,104.484229 330.261577,104.53719 C330.452922,104.598299 330.640195,104.663482 330.83154,104.728665 C330.872251,104.740887 330.921105,104.757183 330.961817,104.773479 C331.096165,104.818292 331.222371,104.863105 331.356719,104.907918 C331.442214,104.936436 331.523637,104.964953 331.609131,104.993471 C331.873757,105.083098 332.138382,105.172724 332.398936,105.262351 C332.468146,105.286794 332.541427,105.311238 332.606565,105.335682 C332.883404,105.429382 333.156172,105.523083 333.42894,105.620857 L333.42894,108.7089 L298.587952,108.7089 L298.587952,126.027201 C297.435814,125.277597 296.800713,124.857982 296.800713,124.857982 C296.401739,123.538026 295.56308,122.992119 294.455724,122.988045 L294.447582,122.988045 C289.45634,122.988045 278.993459,133.95508 278.187369,134.81468 C278.1548,134.847272 278.134444,134.867642 278.134444,134.867642" id="Fill-73181" fill="#78BEBE"></path>
                <polygon id="Fill-73182" fill="#6AAEB1" points="266.564207 288.283912 266.564207 249.104873 223.678607 249.104873 223.678607 262.263685 215.629923 262.263685 215.629923 245.328334 182.812302 245.328334 182.812302 273.418121 168.050276 273.418121 168.050276 207.624059 203.05411 207.624059 203.05411 230.324029 220.022705 230.324029 220.022705 126.141271 281.615286 163.434079 281.615286 187.922506 272.638378 187.922506 272.638378 288.283912"></polygon>
                <polyline id="Fill-73183" fill="#6AAEB1" points="57.6933402 367.057533 45.8299798 367.057533 45.8299798 223.439078 18.8951848 223.439078 18.4351437 222.64466 18.4351437 144.787675 81.2979262 144.787675 81.2979262 223.439078 58.1330255 223.439078 58.1330255 314.723755 57.6933402 314.723755 57.6933402 367.057533"></polyline>
                <polyline id="Fill-73184" fill="#6AAEB1" points="315.678682 211.078757 312.82887 211.078757 312.82887 187.922506 298.587952 187.922506 298.587952 108.7089 333.42894 108.7089 333.42894 192.888634 329.768967 186.500703 315.678682 211.078757"></polyline>
                <polygon id="Fill-73185" fill="#5DA1A4" points="58.1330255 314.719681 96.275724 314.719681 96.275724 223.439078 58.1330255 223.439078"></polygon>
                <path d="M220.018634,425.783316 L213.252366,425.783316 L213.252366,327.397769 L206.412817,327.397769 L206.412817,296.786216 L139.246818,296.786216 L139.246818,360.775524 L124.855268,360.775524 L124.855268,314.723755 L104.067924,314.723755 L104.067924,133.812492 L112.458585,133.812492 C115.841719,125.151305 124.000324,118.934479 133.681543,118.429311 L135.257082,52.6271015 L136.832621,118.461902 C146.237,119.199285 154.118766,125.338706 157.43269,133.812492 L168.050276,133.812492 L168.050276,273.418121 L182.812302,273.418121 L182.812302,245.328334 L215.629923,245.328334 L215.629923,262.263685 L223.678607,262.263685 L223.678607,385.333209 L220.018634,385.333209 L220.018634,425.783316" id="Fill-73186" fill="#5DA1A4"></path>
                <polyline id="Fill-73187" fill="#5DA1A4" points="307.63407 385.333209 284.79079 385.333209 284.79079 288.283912 272.638378 288.283912 272.638378 187.922506 312.82887 187.922506 312.82887 211.078757 315.678682 211.078757 329.768967 186.500703 333.42894 192.888634 333.42894 327.943677 307.63407 327.943677 307.63407 385.333209"></polyline>
                <polyline id="Fill-73188" fill="#5DA1A4" points="57.6933402 402.280781 33.4007281 402.280781 33.4007281 364.943161 18.8381886 364.943161 18.8381886 308.584334 18.4351437 308.584334 18.4351437 222.64466 18.8951848 223.439078 45.8299798 223.439078 45.8299798 367.057533 57.6933402 367.057533 57.6933402 402.280781"></polyline>
                <polyline id="Fill-73189" fill="#4E9498" points="60.5716503 402.280781 57.6933402 402.280781 57.6933402 314.723755 124.855268 314.723755 124.855268 360.775524 103.758516 360.775524 103.758516 377.670136 60.5716503 377.670136 60.5716503 402.280781"></polyline>
                <polyline id="Fill-73190" fill="#4E9498" points="182.987362 430.101688 146.945382 430.101688 146.945382 360.775524 139.246818 360.775524 139.246818 296.786216 206.412817 296.786216 206.412817 327.397769 182.987362 327.397769 182.987362 430.101688"></polyline>
                <polyline id="Fill-73191" fill="#4E9498" points="332.838621 429.34801 315.186071 429.34801 315.186071 385.333209 307.63407 385.333209 307.63407 327.943677 333.42894 327.943677 333.42894 413.239668 332.838621 413.239668 332.838621 429.34801"></polyline>
                <polyline id="Fill-73192" fill="#4E9498" points="259.20355 429.34801 250.283638 429.34801 250.283638 385.333209 223.678607 385.333209 223.678607 249.104873 266.564207 249.104873 266.564207 288.283912 284.79079 288.283912 284.79079 385.333209 259.20355 385.333209 259.20355 429.34801"></polyline>
                <polygon id="Fill-73193" fill="#4E9498" points="18.4351437 364.943161 18.8381886 364.943161 18.8381886 308.584334 18.4351437 308.584334"></polygon>
                <polygon id="Fill-73194" fill="#4E9498" points="213.252366 429.34801 220.018634 429.34801 220.018634 425.783316 213.252366 425.783316"></polygon>
                <polyline id="Fill-73195" fill="#488E91" points="333.42894 445.554126 18.4351437 445.554126 18.4351437 364.943161 33.4007281 364.943161 33.4007281 402.280781 60.5716503 402.280781 60.5716503 377.670136 103.758516 377.670136 103.758516 360.775524 146.945382 360.775524 146.945382 430.101688 182.987362 430.101688 182.987362 327.397769 213.252366 327.397769 213.252366 429.34801 220.018634 429.34801 220.018634 385.333209 250.283638 385.333209 250.283638 429.34801 259.20355 429.34801 259.20355 385.333209 315.186071 385.333209 315.186071 429.34801 332.838621 429.34801 332.838621 413.239668 333.42894 413.239668 333.42894 445.554126"></polyline>
                <polygon id="Fill-73197" fill="#FFFFFF" points="171.624754 465.170127 178.757427 465.170127 178.757427 15.0980057 171.624754 15.0980057"></polygon>
                <polygon id="Fill-73198" fill="#FFFFFF" points="12.2795497 243.702834 344.677555 243.702834 344.677555 236.565299 12.2795497 236.565299"></polygon>
            </g>
            <g id="Group-6" transform="translate(933.000000, 436.000000)">
                <path d="M148.020193,54.3862558 L0.14887607,24.3544651 L0.14887607,173.877558 L139.556388,200.684628 C143.17386,205.744597 149.985697,209.134171 158.051681,209.134171 C166.127779,209.134171 172.937931,205.744597 176.562145,200.684628 L315.935944,180.940992 L315.935944,24.3544651 L168.07137,54.3862558 L165.740073,54.3862558 C164.416813,55.748814 161.77198,54.3862558 158.051681,54.3862558 C154.321269,54.3862558 151.671378,55.748814 150.358233,54.3862558 L148.020193,54.3862558" id="Fill-58" fill="#EE9F62"></path>
                <path d="M145.951862,206.210558 L83.8867702,189.979295 L139.556388,200.684628 C141.134186,202.891636 143.320514,204.780713 145.951862,206.210558" id="Fill-59" fill="#AE4A68"></path>
                <path d="M158.051681,209.134171 L158.051681,209.134171 C157.663975,209.134171 157.291439,209.090434 156.907104,209.073612 L145.951862,206.210558 C143.320514,204.780713 141.134186,202.891636 139.556388,200.684628 L83.8867702,189.979295 L21.6210819,173.697566 L11.6738777,158.278791 C26.2061344,157.065946 43.3697394,150.026062 61.0205061,140.070977 C80.0046466,142.264527 100.485672,143.01814 118.851167,146.692 C133.208113,149.455806 142.234936,153.602357 147.905567,157.639566 L147.905567,203.147326 L168.561903,203.147326 L168.561903,156.562977 C174.28479,152.877341 182.942448,149.211891 196.028391,146.692 C233.005491,139.293814 278.555966,143.738109 303.202309,124.431837 L303.202309,26.9416434 L315.935944,24.3544651 L315.935944,180.940992 L176.562145,200.684628 C172.937931,205.744597 166.127779,209.134171 158.051681,209.134171" id="Fill-60" fill="#A6332F"></path>
                <polygon id="Fill-61" fill="#BB3E2D" points="147.905567 203.147326 168.561903 203.147326 168.561903 127.764217 147.905567 127.764217"></polygon>
                <path d="M160.672915,206.456155 C159.120403,207.783388 151.374699,206.456155 151.374699,205.354333 C151.374699,204.252512 147.833083,195.634752 147.833083,195.634752 C147.833083,195.634752 146.288999,189.67314 151.595523,188.567953 L159.344599,188.125543 L165.318653,190.113868 L167.971915,191.441101 L167.309442,195.634752 L160.672915,206.456155" id="Fill-62" fill="#BB3E2D"></path>
                <path d="M157.439779,193.089628 L157.439779,182.816612 C157.439779,182.816612 155.81984,166.541612 118.851167,159.419302 C81.8706956,152.024481 36.3252781,156.465411 11.6738777,137.162504 L11.6738777,149.004984 C36.3252781,168.309574 81.8706956,163.863597 118.851167,171.265147 C142.238307,175.773364 151.474154,183.93862 155.105111,189.329977" id="Fill-63" fill="#7E7D8C"></path>
                <path d="M157.439779,170.085946 L157.439779,51.1934961 C157.439779,51.1934961 155.81984,34.8596202 118.851167,26.4454031 C81.8706956,17.7468992 36.3252781,20.5964961 11.6738777,0.432317829 L11.6738777,124.431837 C36.3252781,143.738109 81.8706956,139.293814 118.851167,146.692 C155.81984,153.809264 157.439779,170.085946 157.439779,170.085946" id="Fill-64" fill="#DCE2E2"></path>
                <path d="M157.439779,202.366798 L157.439779,192.092101 C157.439779,192.092101 155.81984,177.580016 118.851167,170.462752 C81.8706956,163.062884 36.3252781,167.50886 11.6738777,148.205953 L11.6738777,158.280473 C36.3252781,177.580016 81.8706956,173.139085 118.851167,180.537271 C142.238307,185.045488 151.474154,193.214109 155.105111,198.603783" id="Fill-65" fill="#ABABB7"></path>
                <path d="M157.439779,177.191434 L157.439779,166.921783 C157.439779,166.921783 155.81984,150.641736 118.851167,143.521109 C81.8706956,136.124605 36.3252781,140.568899 11.6738777,121.260946 L11.6738777,133.105109 C36.3252781,152.408016 81.8706956,147.962039 118.851167,155.363589 C142.238307,159.870124 151.474154,168.03538 155.105111,173.430101" id="Fill-66" fill="#7E7D8C"></path>
                <path d="M157.439779,170.562 L157.439779,160.292349 C157.439779,160.292349 155.81984,144.017349 118.851167,136.893357 C81.8706956,129.496853 36.3252781,133.942829 11.6738777,114.639922 L11.6738777,126.479039 C36.3252781,145.781946 81.8706956,141.335969 118.851167,148.737519 C142.238307,153.247419 151.474154,161.410992 155.105111,166.802349" id="Fill-67" fill="#ABABB7"></path>
                <path d="M157.439779,188.233202 L157.439779,177.960186 C157.439779,177.960186 155.81984,161.685186 118.851167,154.562876 C81.8706956,147.163008 36.3252781,151.610667 11.6738777,132.304395 L11.6738777,142.377233 C36.3252781,161.683504 81.8706956,157.239209 118.851167,164.637395 C142.238307,169.145612 151.474154,177.31255 155.105111,182.705589" id="Fill-68" fill="#ABABB7"></path>
                <path d="M157.436408,193.089628 L157.436408,182.816612 C157.436408,182.816612 159.054662,166.541612 196.030076,159.419302 C233.005491,152.022798 278.555966,156.470457 303.202309,137.162504 L303.202309,149.004984 C278.555966,168.309574 233.005491,163.863597 196.030076,171.265147 C172.63788,175.773364 163.402033,183.93862 159.771076,189.329977" id="Fill-69" fill="#7E7D8C"></path>
                <path d="M157.436408,170.085946 L157.436408,51.1934961 C157.436408,51.1934961 159.054662,34.8596202 196.028391,26.4454031 C233.005491,17.7468992 278.555966,20.5964961 303.202309,0.432317829 L303.202309,124.431837 C278.555966,143.738109 233.005491,139.293814 196.028391,146.692 C159.054662,153.809264 157.436408,170.085946 157.436408,170.085946" id="Fill-70" fill="#FFFFFF"></path>
                <path d="M157.436408,202.366798 L157.436408,192.092101 C157.436408,192.092101 159.054662,177.580016 196.030076,170.462752 C233.005491,163.062884 278.555966,167.50886 303.202309,148.205953 L303.202309,158.280473 C278.555966,177.580016 233.005491,173.139085 196.030076,180.537271 C172.63788,185.045488 163.402033,193.214109 159.771076,198.603783" id="Fill-71" fill="#ABABB7"></path>
                <path d="M157.436408,177.191434 L157.436408,166.921783 C157.436408,166.921783 159.054662,150.641736 196.030076,143.521109 C233.005491,136.124605 278.555966,140.568899 303.202309,121.260946 L303.202309,133.105109 C278.555966,152.408016 233.005491,147.963721 196.030076,155.363589 C172.63788,159.870124 163.402033,168.03538 159.771076,173.430101" id="Fill-72" fill="#7E7D8C"></path>
                <path d="M157.436408,170.562 L157.436408,160.292349 C157.436408,160.292349 159.054662,144.017349 196.030076,136.893357 C233.005491,129.496853 278.555966,133.942829 303.202309,114.639922 L303.202309,126.479039 C278.555966,145.781946 233.005491,141.335969 196.030076,148.737519 C172.63788,153.247419 163.402033,161.410992 159.771076,166.802349" id="Fill-73" fill="#ABABB7"></path>
                <path d="M157.436408,188.233202 L157.436408,177.960186 C157.436408,177.960186 159.054662,161.685186 196.030076,154.562876 C233.005491,147.16469 278.555966,151.610667 303.202309,132.304395 L303.202309,142.377233 C278.555966,161.685186 233.005491,157.239209 196.030076,164.637395 C172.63788,169.145612 163.402033,177.31255 159.771076,182.705589" id="Fill-74" fill="#ABABB7"></path>
                <path d="M175.968786,195.3 C175.968786,204.930426 167.879202,212.739062 157.908398,212.739062 C147.927481,212.739062 139.839583,204.932109 139.839583,195.3 C139.839583,185.672938 147.927481,177.867667 157.908398,177.867667 C167.879202,177.867667 175.968786,185.672938 175.968786,195.3" id="Fill-75" fill="#9D2A3F"></path>
                <path d="M148.020193,197.94269 L0.14887607,169.22131 L0.14887607,180.940992 L139.556388,207.751426 C143.17386,212.809713 149.985697,216.202651 158.051681,216.202651 C166.127779,216.202651 172.937931,212.809713 176.562145,207.751426 L315.935944,180.940992 L315.935944,169.22131 L168.07137,197.94269 L165.740073,201.710752 C164.416813,203.071628 161.77198,204.511566 158.051681,204.511566 C154.321269,204.511566 151.671378,203.066581 150.358233,201.704023 L148.020193,197.94269" id="Fill-76" fill="#DC4F39"></path>
                <path d="M168.484362,51.6174031 L166.641912,49.0655504 C172.558653,44.8113411 181.654588,40.4696589 195.679455,37.2785814 L195.669341,37.2819457 C199.425038,36.4004884 203.259963,35.6384651 207.147143,34.9538217 L207.69499,38.0506977 C203.851637,38.7269302 200.074025,39.4771783 196.389126,40.341814 L196.379012,40.3451783 C182.667682,43.4639225 173.979682,47.6643023 168.484362,51.6174031" id="Fill-77" fill="#9CA4AF"></path>
                <path d="M168.484362,62.6608527 L166.641912,60.109 C172.565396,55.8497442 181.666388,51.5618915 195.672712,48.3237132 C212.935772,44.3285581 231.899684,42.7759147 249.681934,40.2593876 L250.123583,43.3730853 C232.218278,45.9013876 213.330222,47.4607597 196.385755,51.3852636 C182.677796,54.5544729 173.972939,58.7111163 168.484362,62.6608527" id="Fill-78" fill="#B8BED1"></path>
                <path d="M185.821592,65.3556899 L185.326001,63.8636047 L184.832097,62.3698372 C188.07029,61.3016589 191.672591,60.2873101 195.672712,59.3654806 C211.410231,55.7252636 228.555293,54.112062 244.933371,51.9504729 C261.309763,49.7956124 276.910741,47.0805891 289.484236,41.3914884 L290.783896,44.2562248 C277.660869,50.1791473 261.801981,52.8924884 245.346363,55.0675349 C228.892429,57.2358527 211.833337,58.8524186 196.384069,62.4287132 C192.471604,63.3303566 188.963701,64.3194729 185.821592,65.3556899" id="Fill-79" fill="#B8BED1"></path>
                <path d="M168.484362,73.700938 L166.641912,71.1507674 C170.872972,68.1077209 176.725657,65.0495349 184.830411,62.3698372 L185.821592,65.3556899 C185.821592,65.3556899 185.821592,65.3556899 185.819906,65.3556899 C177.964632,67.9529612 172.406942,70.879938 168.484362,73.700938" id="Fill-80" fill="#B8BED1"></path>
                <path d="M168.484362,84.7427054 L166.641912,82.1908527 C172.565396,77.9332791 181.666388,73.6487907 195.672712,70.4055659 C211.410231,66.767031 228.555293,65.1521473 244.933371,62.9922403 C261.309763,60.8373798 276.910741,58.1240388 289.484236,52.4366202 L290.783896,55.3013566 C277.660869,61.2225969 261.801981,63.9342558 245.346363,66.1093023 C228.892429,68.275938 211.833337,69.8925039 196.385755,73.4687984 C182.677796,76.6413721 173.972939,80.792969 168.484362,84.7427054" id="Fill-81" fill="#B8BED1"></path>
                <path d="M168.484362,95.7827907 L166.641912,93.230938 C172.565396,88.9750465 181.666388,84.6905581 195.672712,81.4490155 C211.410231,77.8087984 228.555293,76.1939147 244.933371,74.0340078 C261.309763,71.8791473 276.910741,69.164124 289.484236,63.4767054 L290.783896,66.3414419 C277.660869,72.2643643 261.801981,74.9760233 245.346363,77.1510698 C228.892429,79.3177054 211.833337,80.9342713 196.385755,84.5122481 C182.677796,87.6831395 173.972939,91.8347364 168.484362,95.7827907" id="Fill-82" fill="#B8BED1"></path>
                <path d="M168.484362,106.824558 L166.641912,104.274388 C172.565396,100.016814 181.666388,95.7289612 195.674398,92.4891008 L196.385755,95.5523333 C182.677796,98.7215426 173.972939,102.876504 168.484362,106.824558" id="Fill-83" fill="#9CA4AF"></path>
                <path d="M168.484362,117.868008 L166.643598,115.316155 C172.565396,111.060264 181.666388,106.772411 195.672712,103.53255 C211.410231,99.8923333 228.555293,98.2791318 244.933371,96.1175426 C261.309763,93.9643643 276.910741,91.2493411 289.484236,85.5619225 L290.783896,88.4266589 C277.660869,94.3495814 261.801981,97.0612403 245.346363,99.2346047 C228.892429,101.402922 211.833337,103.017806 196.385755,106.595783 C182.677796,109.764992 173.972939,113.921636 168.484362,117.868008" id="Fill-84" fill="#B8BED1"></path>
                <path d="M168.484362,128.911457 L166.641912,126.359605 C172.565396,122.102031 181.666388,117.81586 195.672712,114.574318 C211.410231,110.934101 228.555293,109.319217 244.933371,107.15931 C261.309763,105.00445 276.910741,102.289426 289.484236,96.6003256 L290.783896,99.465062 C277.660869,105.389667 261.801981,108.101326 245.346363,110.276372 C228.892429,112.443008 211.833337,114.059574 196.385755,117.63755 C182.677796,120.808442 173.972939,124.963403 168.484362,128.911457" id="Fill-85" fill="#B8BED1"></path>
                <path d="M145.810265,51.6157209 C140.325059,47.6643023 131.630316,43.4622403 117.927414,40.3451783 L117.918986,40.3434961 L117.915614,40.341814 C102.481518,36.7100078 85.4241113,35.0934419 68.9668068,32.9402636 C52.5078166,30.7786744 36.6421861,28.0956124 23.5141017,22.1726899 L24.8120762,19.3079535 C37.3889428,24.9953721 52.9966641,27.6817984 69.3764273,29.8215194 C85.7595619,31.9696512 102.907996,33.5828527 118.638772,37.2819457 C132.648467,40.4713411 141.744402,44.8113411 147.6544,49.0672326 L145.810265,51.6157209" id="Fill-86" fill="#B1B7CB"></path>
                <path d="M88.1127727,46.4262248 C65.1285109,43.4874729 41.695858,41.4116744 23.5141017,33.2161395 L24.8120762,30.3514031 C42.2369617,38.2407829 65.4605901,40.382186 88.5122791,43.3074806 L88.1127727,46.4262248" id="Fill-87" fill="#B1B7CB"></path>
                <path d="M145.810265,73.700938 C140.330116,69.7512016 131.621887,65.5979225 117.922357,62.4287132 C102.469719,58.8507364 85.4106259,57.2341705 68.955007,55.0675349 C52.4993882,52.8924884 36.6388147,50.1791473 23.5141017,44.2562248 L24.8120762,41.3914884 C37.3906285,47.0805891 52.9916071,49.7939302 69.3679989,51.9487907 C85.7460764,54.1103798 102.892825,55.7252636 118.633715,59.3654806 C132.633296,62.6053411 141.73766,66.8898295 147.6544,71.1507674 L147.656086,71.1507674 L145.810265,73.700938" id="Fill-88" fill="#B1B7CB"></path>
                <path d="M145.810265,84.7410233 C140.330116,80.792969 131.621887,76.6396899 117.922357,73.4687984 C102.469719,69.8925039 85.4106259,68.275938 68.9566927,66.1093023 C52.4993882,63.9342558 36.6388147,61.2225969 23.5141017,55.3013566 L24.8120762,52.4366202 C37.3906285,58.1240388 52.9916071,60.8373798 69.3679989,62.9922403 C85.7460764,65.1521473 102.892825,66.767031 118.633715,70.4055659 C132.633296,73.6487907 141.73766,77.9332791 147.6544,82.1925349 L145.810265,84.7410233" id="Fill-89" fill="#B1B7CB"></path>
                <path d="M145.811951,95.7811085 C140.330116,91.8347364 131.621887,87.6814574 117.920671,84.5122481 C102.469719,80.9342713 85.4106259,79.3177054 68.955007,77.1510698 C52.4993882,74.9760233 36.6388147,72.2643643 23.5141017,66.3397597 L24.8120762,63.4750233 C37.3906285,69.164124 52.9916071,71.8791473 69.3679989,74.0340078 C85.7460764,76.1939147 102.892825,77.8087984 118.633715,81.4490155 C132.633296,84.6905581 141.73766,88.9733643 147.6544,93.230938 L145.811951,95.7811085" id="Fill-90" fill="#B1B7CB"></path>
                <path d="M145.811951,106.824558 C140.330116,102.876504 131.621887,98.7215426 117.920671,95.5523333 C102.469719,91.9743566 85.4106259,90.3577907 68.9566927,88.1928372 C52.4993882,86.0194729 36.6388147,83.307814 23.5141017,77.3832093 L24.8137619,74.5184729 C37.3906285,80.2075736 52.9916071,82.9209147 69.3679989,85.074093 C85.7460764,87.2356822 102.892825,88.8472016 118.633715,92.4891008 C132.633296,95.7289612 141.73766,100.015132 147.6544,104.274388 L145.811951,106.824558" id="Fill-91" fill="#B1B7CB"></path>
                <path d="M85.4089402,101.298628 C63.2961756,98.5196822 40.9861863,96.3008992 23.5141017,88.4249767 L24.8120762,85.5602403 C41.5576322,93.1384186 63.6467973,95.4160775 85.8017039,98.1782016 L85.4089402,101.298628" id="Fill-92" fill="#949DA9"></path>
                <path d="M145.810265,128.911457 C140.330116,124.963403 131.621887,120.80676 117.920671,117.63755 C102.469719,114.059574 85.4106259,112.443008 68.955007,110.276372 C52.4993882,108.101326 36.6388147,105.389667 23.5141017,99.465062 L24.8120762,96.6003256 C37.3906285,102.289426 52.9916071,105.00445 69.3679989,107.15931 C85.7460764,109.319217 102.892825,110.934101 118.633715,114.574318 C132.633296,117.81586 141.73766,122.102031 147.6544,126.361287 L145.810265,128.911457" id="Fill-93" fill="#B1B7CB"></path>
            </g>
        </g>
    </g>
</svg>