<?xml version="1.0" encoding="UTF-8"?>
<svg width="100px" height="96px" viewBox="0 0 100 96" version="1.1" xmlns="http://www.w3.org/2000/svg" xmlns:xlink="http://www.w3.org/1999/xlink">
    <!-- Generator: Sketch 41.2 (35397) - http://www.bohemiancoding.com/sketch -->
    <title>books</title>
    <desc>Created with Sketch.</desc>
    <defs></defs>
    <g id="Page-1" stroke="none" stroke-width="1" fill="none" fill-rule="evenodd">
        <g id="Artboard-Copy" transform="translate(0.000000, -2.000000)">
            <g id="books" transform="translate(0.000000, 2.000000)">
                <g id="Layer_1">
                    <g id="Group">
                        <path d="M95.1946429,92.0634921 L20.789881,92.0634921 C12.7904762,92.0634921 6.30575397,85.5787698 6.30575397,77.5793651 L6.30575397,74.8015873 C6.30575397,66.8021825 12.7904762,60.3174603 20.789881,60.3174603 L95.1946429,60.3174603 L95.1946429,92.0634921 Z" id="Shape" fill="#FFEBB7"></path>
                        <rect id="Rectangle-path" fill="#5C546A" x="9.48035714" y="63.4920635" width="7.93650794" height="25.3968254"></rect>
                        <path d="M87.6549603,55.5555556 L3.13115079,55.5555556 L3.13115079,33.3333333 L87.6549603,33.3333333 C90.0656746,33.3333333 92.0200397,35.2876984 92.0200397,37.6984127 L92.0200397,51.1904762 C92.0200397,53.6011905 90.0656746,55.5555556 87.6549603,55.5555556 Z" id="Shape" fill="#FFEBB7"></path>
                        <rect id="Rectangle-path" fill="#FFEBB7" x="14.2422619" y="4.76190476" width="80.952381" height="23.8095238"></rect>
                        <path d="M95.2380952,95.2380952 L22.2222222,95.2380952 C11.7194444,95.2380952 3.17460317,86.6940476 3.17460317,76.1904762 C3.17460317,65.6869048 11.7194444,57.1428571 22.2222222,57.1428571 L95.2380952,57.1428571 C96.9912698,57.1428571 98.4126984,58.5642857 98.4126984,60.3174603 C98.4126984,62.0706349 96.9912698,63.4920635 95.2380952,63.4920635 L22.2222222,63.4920635 C15.2204365,63.4920635 9.52380952,69.1886905 9.52380952,76.1904762 C9.52380952,83.1922619 15.2204365,88.8888889 22.2222222,88.8888889 L95.2380952,88.8888889 C96.9912698,88.8888889 98.4126984,90.3103175 98.4126984,92.0634921 C98.4126984,93.8166667 96.9912698,95.2380952 95.2380952,95.2380952 Z" id="Shape" fill="#00C37A"></path>
                        <path d="M85.7142857,57.1428571 L1.58730159,57.1428571 C0.709920635,57.1428571 0,56.4329365 0,55.5555556 C0,54.6781746 0.709920635,53.968254 1.58730159,53.968254 L85.7142857,53.968254 C88.3400794,53.968254 90.4761905,51.8321429 90.4761905,49.2063492 L90.4761905,39.6825397 C90.4761905,37.056746 88.3400794,34.9206349 85.7142857,34.9206349 L1.58730159,34.9206349 C0.709920635,34.9206349 0,34.2107143 0,33.3333333 C0,32.4559524 0.709920635,31.7460317 1.58730159,31.7460317 L85.7142857,31.7460317 C90.0902778,31.7460317 93.6507937,35.3065476 93.6507937,39.6825397 L93.6507937,49.2063492 C93.6507937,53.5823413 90.0902778,57.1428571 85.7142857,57.1428571 Z" id="Shape" fill="#009BCA"></path>
                        <path d="M95.1946429,12.6984127 L22.1787698,12.6984127 C21.3021825,12.6984127 20.5914683,11.9876984 20.5914683,11.1111111 L20.5914683,11.1111111 C20.5914683,10.2345238 21.3021825,9.52380952 22.1787698,9.52380952 L95.1946429,9.52380952 L95.1946429,12.6984127 Z" id="Shape" fill="#E6BE94"></path>
                        <path d="M95.1946429,19.047619 L22.1787698,19.047619 C21.3021825,19.047619 20.5914683,18.3369048 20.5914683,17.4603175 L20.5914683,17.4603175 C20.5914683,16.5837302 21.3021825,15.8730159 22.1787698,15.8730159 L95.1946429,15.8730159 L95.1946429,19.047619 Z" id="Shape" fill="#E6BE94"></path>
                        <path d="M95.1946429,25.3968254 L22.1787698,25.3968254 C21.3021825,25.3968254 20.5914683,24.6861111 20.5914683,23.8095238 L20.5914683,23.8095238 C20.5914683,22.9329365 21.3021825,22.2222222 22.1787698,22.2222222 L95.1946429,22.2222222 L95.1946429,25.3968254 Z" id="Shape" fill="#E6BE94"></path>
                        <path d="M3.13115079,38.0952381 L85.6708333,38.0952381 C86.5474206,38.0952381 87.2581349,38.8059524 87.2581349,39.6825397 L87.2581349,39.6825397 C87.2581349,40.559127 86.5474206,41.2698413 85.6708333,41.2698413 L3.13115079,41.2698413 C3.13115079,41.2698413 3.13115079,38.0952381 3.13115079,38.0952381 Z" id="Shape" fill="#E6BE94"></path>
                        <path d="M3.13115079,44.4444444 L85.6708333,44.4444444 C86.5474206,44.4444444 87.2581349,45.1551587 87.2581349,46.031746 L87.2581349,46.031746 C87.2581349,46.9083333 86.5474206,47.6190476 85.6708333,47.6190476 L3.13115079,47.6190476 C3.13115079,47.6190476 3.13115079,44.4444444 3.13115079,44.4444444 Z" id="Shape" fill="#E6BE94"></path>
                        <path d="M3.13115079,50.7936508 L85.6708333,50.7936508 C86.5474206,50.7936508 87.2581349,51.5043651 87.2581349,52.3809524 L87.2581349,52.3809524 C87.2581349,53.2575397 86.5474206,53.968254 85.6708333,53.968254 L3.13115079,53.968254 C3.13115079,53.968254 3.13115079,50.7936508 3.13115079,50.7936508 Z" id="Shape" fill="#E6BE94"></path>
                        <path d="M96.8253968,31.7460317 L20.6349206,31.7460317 C15.3831349,31.7460317 11.1111111,27.4740079 11.1111111,22.2222222 L11.1111111,9.52380952 C11.1111111,4.27202381 15.3831349,0 20.6349206,0 L96.8253968,0 C98.5785714,0 100,1.42142857 100,3.17460317 C100,4.92777778 98.5785714,6.34920635 96.8253968,6.34920635 L20.6349206,6.34920635 C18.884127,6.34920635 17.4603175,7.77301587 17.4603175,9.52380952 L17.4603175,22.2222222 C17.4603175,23.9722222 18.884127,25.3968254 20.6349206,25.3968254 L96.8253968,25.3968254 C98.5785714,25.3968254 100,26.818254 100,28.5714286 C100,30.3246032 98.5785714,31.7460317 96.8253968,31.7460317 Z" id="Shape" fill="#FF4F19"></path>
                        <path d="M22.1787698,85.7142857 C21.3013889,85.7142857 20.5914683,86.4242063 20.5914683,87.3015873 C20.5914683,88.1789683 21.3013889,88.8888889 22.1787698,88.8888889 L95.1946429,88.8888889 L95.1946429,85.7142857 L22.1787698,85.7142857 Z" id="Shape" fill="#E6BE94"></path>
                        <path d="M22.1787698,79.3650794 C21.3013889,79.3650794 20.5914683,80.075 20.5914683,80.952381 C20.5914683,81.8297619 21.3013889,82.5396825 22.1787698,82.5396825 L95.1946429,82.5396825 L95.1946429,79.3650794 L22.1787698,79.3650794 Z" id="Shape" fill="#E6BE94"></path>
                        <path d="M22.1787698,73.015873 C21.3013889,73.015873 20.5914683,73.7257937 20.5914683,74.6031746 C20.5914683,75.4805556 21.3013889,76.1904762 22.1787698,76.1904762 L95.1946429,76.1904762 L95.1946429,73.015873 L22.1787698,73.015873 Z" id="Shape" fill="#E6BE94"></path>
                        <path d="M22.1787698,66.6666667 C21.3013889,66.6666667 20.5914683,67.3765873 20.5914683,68.2539683 C20.5914683,69.1313492 21.3013889,69.8412698 22.1787698,69.8412698 L95.1946429,69.8412698 L95.1946429,66.6666667 L22.1787698,66.6666667 Z" id="Shape" fill="#E6BE94"></path>
                    </g>
                </g>
            </g>
        </g>
    </g>
</svg>