<?xml version="1.0" encoding="UTF-8"?>
<svg width="200px" height="200px" viewBox="0 0 200 200" version="1.1" xmlns="http://www.w3.org/2000/svg" xmlns:xlink="http://www.w3.org/1999/xlink">
    <!-- Generator: Sketch 41.2 (35397) - http://www.bohemiancoding.com/sketch -->
    <title>Shape</title>
    <desc>Created with Sketch.</desc>
    <defs>
        <linearGradient x1="100%" y1="0%" x2="33.359838%" y2="100%" id="linearGradient-1">
            <stop stop-color="#BAD9C0" offset="0%"></stop>
            <stop stop-color="#00A8B3" offset="50.3427934%"></stop>
            <stop stop-color="#29488E" offset="100%"></stop>
        </linearGradient>
    </defs>
    <g id="Page-1" stroke="none" stroke-width="1" fill="none" fill-rule="evenodd">
        <path d="M199.864214,164.612671 C199.228371,159.8067 196.453901,155.662921 192.253104,153.244385 L142.912204,124.835766 C136.869104,121.35634 129.202703,122.369283 124.270168,127.301386 L114.551532,137.020021 C111.965396,139.606589 107.873885,139.835527 105.036349,137.551762 C97.3746999,131.38685 89.8309754,124.602076 82.6151075,117.385777 C75.3992396,110.169909 68.6144663,102.626616 62.4491216,94.964535 C60.1653567,92.1265672 60.3938627,88.0354876 62.9808626,85.4489196 L72.6990665,75.7302838 C77.6311695,70.7986128 78.6454082,63.133076 75.165118,57.0886797 L46.7564987,7.74778008 C44.3375307,3.54655102 40.1941841,0.772513085 35.3882131,0.136670069 C30.5818101,-0.500468822 25.859207,1.10252943 22.4311838,4.53055265 L7.78735631,19.1748121 C-2.43321542,29.3958158 -2.59735968,48.0918466 7.32516064,71.8197628 C16.8662615,94.6349506 34.6715938,119.75075 57.4604321,142.540452 C80.2501343,165.329722 105.365933,183.135054 128.181553,192.676155 C139.861281,197.560311 150.320726,200.000877 159.151687,200.000445 C168.260829,200.000445 175.636522,197.403078 180.826504,192.213528 L195.470331,177.569268 C198.897923,174.141245 200.499625,169.418642 199.864214,164.612671 L199.864214,164.612671 Z M139.679426,130.450795 L189.020326,158.859415 C191.46046,160.264144 193.071665,162.671017 193.440558,165.462333 C193.750704,167.804845 193.142075,170.111504 191.762399,171.970221 L126.188928,134.546195 L128.851953,131.88317 C131.71627,129.018853 136.169763,128.430093 139.679426,130.450795 L139.679426,130.450795 Z M34.5381186,6.56032597 C37.3298668,6.92965054 39.736308,8.54085601 41.1410373,10.98099 L69.5496566,60.3218896 C71.5712227,63.8324169 70.9820312,68.2850459 68.1177139,71.1489312 L65.6715326,73.5951126 L28.0418937,8.23848501 C29.5800981,7.09941026 31.4198097,6.48084559 33.3377057,6.48084559 C33.7355396,6.48084559 34.1368291,6.50719506 34.5381186,6.56032597 L34.5381186,6.56032597 Z M176.244287,187.631743 C168.12433,195.7517 151.517251,195.411317 130.681297,186.697849 C108.625493,177.474669 84.2496387,160.165226 62.0426486,137.958667 C39.8356585,115.751677 22.5262147,91.3753912 13.3030353,69.3200186 C4.58913506,48.483633 4.24918366,31.8765539 12.3691409,23.7561647 L23.2402422,12.8846314 L60.9264677,78.3401775 L58.3990781,80.8675671 C53.468271,85.7988061 53.0389042,93.6051614 57.4008218,99.0271053 C63.7113046,106.869745 70.6533107,114.587981 78.032891,121.967561 C85.4133351,129.347573 93.1315708,136.289579 100.973779,142.600062 C106.394859,146.96198 114.201214,146.533045 119.133317,141.601374 L121.439112,139.295579 L187.103726,176.771873 L176.244287,187.631743 L176.244287,187.631743 Z" id="Shape" fill="url(#linearGradient-1)"></path>
    </g>
</svg>