<?xml version="1.0" encoding="UTF-8"?>
<svg width="200px" height="200px" viewBox="0 0 200 200" version="1.1" xmlns="http://www.w3.org/2000/svg" xmlns:xlink="http://www.w3.org/1999/xlink">
    <!-- Generator: Sketch 41.2 (35397) - http://www.bohemiancoding.com/sketch -->
    <title>clock</title>
    <desc>Created with Sketch.</desc>
    <defs>
        <linearGradient x1="111.468629%" y1="-26.7669473%" x2="33.359838%" y2="100%" id="linearGradient-1">
            <stop stop-color="#BAD9C0" offset="0%"></stop>
            <stop stop-color="#00A8B3" offset="50.3427934%"></stop>
            <stop stop-color="#29488E" offset="100%"></stop>
        </linearGradient>
    </defs>
    <g id="Page-1" stroke="none" stroke-width="1" fill="none" fill-rule="evenodd">
        <g id="clock" fill="url(#linearGradient-1)">
            <g id="Capa_1">
                <g id="Group">
                    <path d="M100,0 C44.86,0 0,44.86 0,100 C0,155.14 44.86,200 100,200 C155.14,200 200,155.14 200,100 C200,44.86 155.14,0 100,0 Z M100,193.333333 C48.5366667,193.333333 6.66666667,151.463333 6.66666667,100 C6.66666667,48.5366667 48.5366667,6.66666667 100,6.66666667 C151.463333,6.66666667 193.333333,48.5366667 193.333333,100 C193.333333,151.463333 151.463333,193.333333 100,193.333333 Z M103.333333,86.7366667 L103.333333,52.93 C103.333333,51.0866667 101.84,49.5966667 100,49.5966667 C98.16,49.5966667 96.6666667,51.0866667 96.6666667,52.93 L96.6666667,86.7366667 C92.0033333,87.95 88.3533333,91.6 87.14,96.2633333 L63.3333333,96.2633333 C61.4933333,96.2633333 60,97.7533333 60,99.5966667 C60,101.44 61.4933333,102.93 63.3333333,102.93 L87.14,102.93 C88.63,108.663333 93.8066667,112.93 100,112.93 C107.353333,112.93 113.333333,106.95 113.333333,99.5966667 C113.333333,93.4 109.066667,88.2266667 103.333333,86.7366667 Z M100,106.263333 C96.3233333,106.263333 93.3333333,103.273333 93.3333333,99.5966667 C93.3333333,95.92 96.3233333,92.93 100,92.93 C103.676667,92.93 106.666667,95.92 106.666667,99.5966667 C106.666667,103.273333 103.676667,106.263333 100,106.263333 Z M100,32.93 C101.84,32.93 103.333333,31.44 103.333333,29.5966667 L103.333333,26.2633333 C103.333333,24.42 101.84,22.93 100,22.93 C98.16,22.93 96.6666667,24.42 96.6666667,26.2633333 L96.6666667,29.5966667 C96.6666667,31.44 98.16,32.93 100,32.93 Z M100,166.263333 C98.16,166.263333 96.6666667,167.753333 96.6666667,169.596667 L96.6666667,172.93 C96.6666667,174.773333 98.16,176.263333 100,176.263333 C101.84,176.263333 103.333333,174.773333 103.333333,172.93 L103.333333,169.596667 C103.333333,167.753333 101.84,166.263333 100,166.263333 Z M173.333333,96.2633333 L170,96.2633333 C168.16,96.2633333 166.666667,97.7533333 166.666667,99.5966667 C166.666667,101.44 168.16,102.93 170,102.93 L173.333333,102.93 C175.173333,102.93 176.666667,101.44 176.666667,99.5966667 C176.666667,97.7533333 175.173333,96.2633333 173.333333,96.2633333 Z M30,96.2633333 L26.6666667,96.2633333 C24.8266667,96.2633333 23.3333333,97.7533333 23.3333333,99.5966667 C23.3333333,101.44 24.8266667,102.93 26.6666667,102.93 L30,102.93 C31.84,102.93 33.3333333,101.44 33.3333333,99.5966667 C33.3333333,97.7533333 31.84,96.2633333 30,96.2633333 Z M149.496667,45.3833333 L147.14,47.74 C145.836667,49.0433333 145.836667,51.15 147.14,52.4533333 C147.79,53.1033333 148.643333,53.43 149.496667,53.43 C150.35,53.43 151.203333,53.1033333 151.853333,52.4533333 L154.21,50.0966667 C155.513333,48.7933333 155.513333,46.6866667 154.21,45.3833333 C152.906667,44.08 150.8,44.0833333 149.496667,45.3833333 Z M48.1466667,146.736667 L45.79,149.093333 C44.4866667,150.396667 44.4866667,152.503333 45.79,153.806667 C46.44,154.456667 47.2933333,154.783333 48.1466667,154.783333 C49,154.783333 49.8533333,154.456667 50.5033333,153.806667 L52.86,151.45 C54.1633333,150.146667 54.1633333,148.04 52.86,146.736667 C51.5566667,145.433333 49.4466667,145.436667 48.1466667,146.736667 Z M151.853333,146.736667 C150.55,145.433333 148.443333,145.433333 147.14,146.736667 C145.836667,148.04 145.836667,150.146667 147.14,151.45 L149.496667,153.806667 C150.146667,154.456667 151,154.783333 151.853333,154.783333 C152.706667,154.783333 153.56,154.456667 154.21,153.806667 C155.513333,152.503333 155.513333,150.396667 154.21,149.093333 L151.853333,146.736667 Z M50.5033333,45.3833333 C49.2,44.08 47.0933333,44.08 45.79,45.3833333 C44.4866667,46.6866667 44.4866667,48.7933333 45.79,50.0966667 L48.1466667,52.4533333 C48.7966667,53.1033333 49.65,53.43 50.5033333,53.43 C51.3566667,53.43 52.21,53.1033333 52.86,52.4533333 C54.1633333,51.15 54.1633333,49.0433333 52.86,47.74 L50.5033333,45.3833333 Z" id="Combined-Shape"></path>
                </g>
            </g>
        </g>
    </g>
</svg>