<?xml version="1.0" encoding="UTF-8"?>
<svg width="200px" height="164px" viewBox="0 0 200 164" version="1.1" xmlns="http://www.w3.org/2000/svg" xmlns:xlink="http://www.w3.org/1999/xlink">
    <!-- Generator: Sketch 41.2 (35397) - http://www.bohemiancoding.com/sketch -->
    <title>Combined Shape</title>
    <desc>Created with Sketch.</desc>
    <defs>
        <linearGradient x1="121.066829%" y1="-18.6044226%" x2="33.359838%" y2="100%" id="linearGradient-1">
            <stop stop-color="#BAD9C0" offset="0%"></stop>
            <stop stop-color="#00A8B3" offset="50.3427934%"></stop>
            <stop stop-color="#29488E" offset="100%"></stop>
        </linearGradient>
    </defs>
    <g id="Page-1" stroke="none" stroke-width="1" fill="none" fill-rule="evenodd">
        <g id="credit-card" fill="url(#linearGradient-1)">
            <g id="Layer_1">
                <g id="Group">
                    <g id="Combined-Shape">
                        <g>
                            <path d="M106.458869,113.117739 L159.688109,113.117739 C161.684211,113.117739 163.014815,111.787135 163.014815,109.791033 L163.014815,79.8495127 C163.014815,77.8534113 161.684211,76.522807 159.688109,76.522807 L106.458869,76.522807 C104.462768,76.522807 103.132164,77.8534113 103.132164,79.8495127 L103.132164,109.791033 C103.131774,111.786745 104.462768,113.117739 106.458869,113.117739 Z M196.615984,35.2697856 C194.287329,32.2756335 191.293177,30.6120858 187.633528,30.2795322 L179.649123,29.3118908 L179.649123,19.9660819 L179.649123,13.3126706 C179.649123,5.99376218 173.660819,0.00545808967 166.34191,0.00545808967 L13.3072125,0.00545808967 C5.98830409,0.00506822612 0,5.99337232 0,13.3126706 L0,19.9664717 L0,46.5812865 L0,119.77154 C0,125.780507 4.03781676,130.889669 9.53333333,132.527096 C9.36569201,139.25692 14.4576998,145.099415 21.2920078,145.720858 L174.991813,163.020273 L176.322417,163.020273 C182.976218,163.020273 188.964522,158.030019 189.62963,151.709162 L199.610136,44.9177388 C199.94269,41.5906433 198.944639,37.9309942 196.615984,35.2697856 Z M6.65380117,23.2931774 L172.995712,23.2931774 L172.995712,31.9430799 L172.995712,43.254191 L6.65380117,43.254191 L6.65380117,23.2931774 Z M13.3072125,6.6588694 L166.34152,6.6588694 C170.00117,6.6588694 172.995322,9.65302144 172.995322,13.3126706 L172.995322,16.6393762 L6.65380117,16.6393762 L6.65380117,13.3126706 C6.65380117,9.65302144 9.64795322,6.6588694 13.3072125,6.6588694 Z M109.785575,83.1762183 L156.361404,83.1762183 L156.361404,106.463938 L109.785575,106.463938 L109.785575,83.1762183 Z M16.634308,69.868616 L43.2491228,69.868616 C45.2452242,69.868616 46.5758285,68.5380117 46.5758285,66.5419103 C46.5758285,64.545809 45.2452242,63.2152047 43.2491228,63.2152047 L16.634308,63.2152047 C14.6382066,63.2152047 13.3076023,64.545809 13.3076023,66.5419103 C13.3076023,68.5380117 14.6382066,69.868616 16.634308,69.868616 Z M56.5563353,69.868616 L83.1711501,69.868616 C85.1672515,69.868616 86.4978558,68.5380117 86.4978558,66.5419103 C86.4978558,64.545809 85.1672515,63.2152047 83.1711501,63.2152047 L56.5563353,63.2152047 C54.5602339,63.2152047 53.2296296,64.545809 53.2296296,66.5419103 C53.2296296,68.5380117 54.5602339,69.868616 56.5563353,69.868616 Z M16.634308,83.1762183 L59.8830409,83.1762183 C61.8791423,83.1762183 63.2097466,81.845614 63.2097466,79.8495127 C63.2097466,77.8534113 61.8791423,76.522807 59.8830409,76.522807 L16.634308,76.522807 C14.6382066,76.522807 13.3076023,77.8534113 13.3076023,79.8495127 C13.3076023,81.845614 14.6382066,83.1762183 16.634308,83.1762183 Z M83.1707602,76.5224172 L73.1902534,76.5224172 C71.194152,76.5224172 69.8635478,77.8530214 69.8635478,79.8491228 C69.8635478,81.8452242 71.194152,83.1758285 73.1902534,83.1758285 L83.1707602,83.1758285 C85.1668616,83.1758285 86.4974659,81.8452242 86.4974659,79.8491228 C86.4974659,77.8530214 85.1668616,76.5224172 83.1707602,76.5224172 Z M6.65380117,119.77115 L6.65380117,49.9076023 L172.995712,49.9076023 L172.995712,119.77115 C172.995712,123.430799 170.001559,126.424951 166.34191,126.424951 L13.6401559,126.424951 L13.3076023,126.424951 C9.64795322,126.424951 6.65380117,123.430799 6.65380117,119.77115 Z M192.956335,43.5867446 L182.975828,150.378168 C182.643275,154.037817 179.316179,156.699025 175.65692,156.366472 L22.2896686,139.067057 C18.962963,138.734503 16.6339181,136.072904 16.3013645,133.078752 L166.34152,133.078752 C173.660429,133.078752 179.648733,127.090448 179.648733,119.77154 L179.648733,46.5808967 L179.648733,35.6023392 L187.300585,36.2678363 C188.964133,36.2678363 190.62729,37.2658869 191.625341,38.5964912 C192.623782,39.9270955 193.289279,41.9231969 192.956335,43.5867446 Z"></path>
                        </g>
                    </g>
                </g>
            </g>
        </g>
    </g>
</svg>