<?xml version="1.0" encoding="UTF-8"?>
<svg width="64px" height="64px" viewBox="0 0 64 64" version="1.1" xmlns="http://www.w3.org/2000/svg" xmlns:xlink="http://www.w3.org/1999/xlink">
    <!-- Generator: Sketch 51.2 (57519) - http://www.bohemiancoding.com/sketch -->
    <title>chat</title>
    <desc>Created with Sketch.</desc>
    <defs></defs>
    <g id="Page-1" stroke="none" stroke-width="1" fill="none" fill-rule="evenodd">
        <g id="chat" fill-rule="nonzero">
            <path d="M35.75,0 L5.625,0 C2.51225,0 0,2.512375 0,5.625 L0,28.25 C0,31.362625 2.51225,33.875 5.625,33.875 L11.375,33.875 L11.375,39.5 C11.375,41.1875 13.400125,42.012375 14.562375,40.812375 L20.75,34.662625 L21.537375,33.875 L34.175375,33.875 C38.15,33.875 41.375,30.65 41.375,26.675125 L41.375,5.625 C41.375,2.512375 38.86275,0 35.75,0 Z" id="Shape" fill="#1187CD"></path>
            <path d="M58.375,22.625 L28.25,22.625 C25.13725,22.625 22.625,25.137375 22.625,28.25 L22.625,50.875 C22.625,53.987625 25.13725,56.5 28.25,56.5 L42.462625,56.5 L43.25,57.287625 L49.437625,63.4375 C49.775,63.8125 50.2625,64 50.75,64 C50.97525,64 51.2375,63.9625 51.46225,63.850125 C52.175,63.55 52.625,62.875 52.625,62.125 L52.625,56.5 L58.375,56.5 C61.48775,56.5 64,53.987625 64,50.875 L64,28.25 C64,25.137375 61.48775,22.625 58.375,22.625 Z" id="Shape" fill="#FEDB41"></path>
            <g id="Group" transform="translate(11.375000, 15.125000)" fill="#CAE8F9">
                <circle id="Oval" cx="1.875" cy="1.875" r="1.875"></circle>
                <path d="M11.25,1.875 C11.25,2.925125 10.425125,3.75 9.375,3.75 C8.324875,3.75 7.5,2.925125 7.5,1.875 C7.5,0.824875 8.324875,0 9.375,0 C10.425125,0 11.25,0.824875 11.25,1.875 Z" id="Shape"></path>
            </g>
            <circle id="Oval" fill="#B7E0F6" cx="28.25" cy="17" r="1.875"></circle>
            <g id="Group" transform="translate(33.375000, 32.000000)" fill="#787780">
                <path d="M19.137375,13.012375 C16.587625,15.599875 13.250125,16.875 9.875,16.875 C6.499875,16.875 3.162375,15.599875 0.612625,13.012375 C-0.13725,12.300125 -0.13725,11.100125 0.612625,10.3875 C1.324875,9.6375 2.525125,9.6375 3.2375,10.3875 C5.074875,12.225 7.475,13.125 9.875,13.125 C12.275,13.125 14.675125,12.225 16.512625,10.387625 C17.224875,9.637625 18.425125,9.637625 19.1375,10.387625 C19.88725,11.100125 19.88725,12.300125 19.137375,13.012375 Z" id="Shape"></path>
                <circle id="Oval" cx="2.375" cy="1.875" r="1.875"></circle>
            </g>
            <circle id="Oval" fill="#57555C" cx="50.75" cy="33.875" r="1.875"></circle>
            <path d="M22.625,17 C22.625,18.050125 21.800125,18.875 20.75,18.875 L20.75,15.125 C21.800125,15.125 22.625,15.949875 22.625,17 Z" id="Shape" fill="#B7E0F6"></path>
            <path d="M52.512375,45.012375 C49.962625,47.599875 46.625125,48.875 43.25,48.875 L43.25,45.125 C45.65,45.125 48.050125,44.225 49.887625,42.387625 C50.599875,41.637625 51.800125,41.637625 52.5125,42.387625 C53.26225,43.100125 53.26225,44.300125 52.512375,45.012375 Z" id="Shape" fill="#57555C"></path>
        </g>
    </g>
</svg>