<?xml version="1.0" encoding="UTF-8"?>
<svg width="509px" height="272px" viewBox="0 0 509 272" version="1.1" xmlns="http://www.w3.org/2000/svg" xmlns:xlink="http://www.w3.org/1999/xlink">
    <!-- Generator: Sketch 41.2 (35397) - http://www.bohemiancoding.com/sketch -->
    <title>Group</title>
    <desc>Created with Sketch.</desc>
    <defs>
        <path d="M0.633367911,1.00649241 C0.633367949,0.636800969 0.852432233,0.284864041 1.21495603,0.132301945 C1.69871657,-0.0747354497 2.25923245,0.147451022 2.46021021,0.634241384 L5.13351745,6.90494959 C5.3395449,7.39173995 5.11735843,7.94720613 4.63056807,8.15222365 C4.50753895,8.20575933 4.37945909,8.23108953 4.25351665,8.23108952 L4.25351662,8.23108952 L4.25351665,8.23108952 L0.633367911,1.00649241 Z" id="path-1"></path>
        <path d="M0.476722263,1.23868495 C0.4767223,0.868787876 0.697091591,0.516736087 1.06043544,0.361557987 C1.18347131,0.30937645 1.3114309,0.284664006 1.43727492,0.284664019 L5.06018651,0.284664019 L5.06018651,8.46219364 L4.10063386,8.46219364 C4.22619414,8.46219365 4.35371495,8.43723022 4.47604748,8.38450951 C4.96384778,8.17545224 5.18906406,7.61998606 4.98505649,7.13218576 L2.31477906,0.858447733 C2.16093315,0.499473922 1.80829866,0.284664056 1.43727492,0.284664019 L0.476722263,1.23868495 Z" id="path-3"></path>
        <polygon id="path-5" points="0.341359216 0.644340769 0.397915773 0.455482268 0.466591592 0.454472329"></polygon>
        <polygon id="path-7" points="0.0383776634 0.433263621 0.149470899 0.265613828 0.398925711 0.431243744"></polygon>
        <path d="M0.897835335,0.701907264 L0.700897326,0.499919562 L0.800881238,0.498909624 C0.843298656,0.529207779 0.88773595,0.559505935 0.931163306,0.588794151 L0.897835335,0.701907264 Z" id="path-9"></path>
        <polygon id="path-11" points="0.79280173 0.506989132 0.834209209 0.369637495 1.27959209 0.503959316"></polygon>
        <path d="M0.519108394,1.75426319 C0.656460031,1.37452631 0.783712284,0.996809309 0.897835335,0.622122122 L1.49268912,0.619092307 C1.39270521,0.993779494 1.28262191,1.36947662 1.16041935,1.75022344 L0.519108394,1.75426319 Z" id="path-13"></path>
        <linearGradient x1="1.52749272%" y1="50%" x2="100%" y2="50%" id="linearGradient-15">
            <stop stop-color="#3BBBEE" offset="0%"></stop>
            <stop stop-color="#8E2EF2" offset="100%"></stop>
        </linearGradient>
    </defs>
    <g id="Page-1" stroke="none" stroke-width="1" fill="none" fill-rule="evenodd">
        <g id="Artboard" transform="translate(-181.000000, -307.000000)">
            <g id="Group-2" transform="translate(181.000000, 307.000000)">
                <g id="Group" transform="translate(0.359568, 0.609568)">
                    <polyline id="Fill-5" fill="#FFFFFF" points="115.490508 45.8693872 79.5397272 100.304063 164.107938 156.155682 205.644689 93.2637816 129.533703 42.9971221 115.490508 45.8693872"></polyline>
                    <polyline id="Fill-6" fill="#E7E7E3" points="131.611147 89.84211 113.993779 116.517616 86.2346096 98.1842021 103.851977 71.5097061 131.611147 89.84211"></polyline>
                    <polyline id="Fill-7" fill="#E7E7E3" points="155.804224 66.8872176 120.282667 120.671493 118.114329 119.2394 153.634876 65.4551248 155.804224 66.8872176"></polyline>
                    <polyline id="Fill-8" fill="#E7E7E3" points="160.478219 69.9745996 124.957672 123.757865 122.788324 122.325772 158.308871 68.5425068 160.478219 69.9745996"></polyline>
                    <polyline id="Fill-9" fill="#E7E7E3" points="165.152215 73.0609717 129.631667 126.845247 127.462319 125.413154 162.982867 71.6288789 165.152215 73.0609717"></polyline>
                    <polyline id="Fill-10" fill="#E7E7E3" points="169.82621 76.1483537 134.305663 129.931619 132.136315 128.499526 167.656862 74.7162609 169.82621 76.1483537"></polyline>
                    <polyline id="Fill-11" fill="#E7E7E3" points="174.500206 79.2347258 138.979658 133.019001 136.81031 131.586908 172.330858 77.802633 174.500206 79.2347258"></polyline>
                    <polyline id="Fill-12" fill="#E7E7E3" points="179.174201 82.3221078 143.653654 136.106383 141.484306 134.67328 177.004853 80.890015 179.174201 82.3221078"></polyline>
                    <polyline id="Fill-13" fill="#E7E7E3" points="183.848196 85.4084799 148.327649 139.192755 146.158301 137.760662 181.679858 83.9763871 183.848196 85.4084799"></polyline>
                    <polyline id="Fill-14" fill="#E7E7E3" points="188.522192 88.4958619 153.001645 142.280137 150.832297 140.847035 186.353854 87.0637691 188.522192 88.4958619"></polyline>
                    <polyline id="Fill-15" fill="#E7E7E3" points="193.196187 91.583244 157.67564 145.366509 155.507302 143.934417 191.027849 90.1501412 193.196187 91.583244"></polyline>
                    <polyline id="Fill-16" fill="#E7E7E3" points="197.870183 94.669616 162.349635 148.453891 160.181297 147.021799 195.701845 93.2375232 197.870183 94.669616"></polyline>
                    <path d="M133.635064,71.4046725 C132.415058,73.0498624 130.959737,74.1648345 130.959737,74.1648345 L127.677436,71.9975064 L128.804528,70.2917203 L130.379022,70.9320213 C130.379022,70.9320213 131.128396,70.5219863 131.777787,69.5393161 C132.512012,68.4263639 132.723089,67.1811097 131.833333,66.5933255 C130.928428,65.9964518 129.854864,66.979122 128.554063,67.9607822 C126.999768,69.1353407 125.121282,70.3088892 122.819632,68.7889318 C120.89166,67.5153993 120.56242,65.4339161 121.433996,63.3473831 L119.24647,61.9021611 L120.55636,59.9186419 L122.670161,61.3143769 C123.853809,59.8055287 125.248534,58.8632561 125.248534,58.8632561 L128.239972,60.9457493 L127.187616,62.5394323 L125.582824,61.985986 C125.582824,61.985986 124.790022,62.5808398 124.324441,63.2857768 C123.540728,64.4724546 123.637682,65.4147272 124.305252,65.8550604 C125.206117,66.4509241 126.30695,65.4712838 127.62391,64.4916434 C129.178205,63.3342539 131.033462,62.1778743 133.212909,63.6170367 C135.289343,64.9885332 135.687259,67.1679805 134.833861,69.3474278 L137.447582,71.0744226 L136.137691,73.0579419 L133.635064,71.4046725" id="Fill-17" fill="#E7E7E3"></path>
                    <polyline id="Fill-18" fill="#F5F3F0" points="115.490508 45.8693872 129.533703 42.9971221 123.948743 51.4553571 115.490508 45.8693872"></polyline>
                    <polyline id="Fill-19" fill="#FFFFFF" points="88.1444033 67.9284642 69.3494477 130.396191 166.398479 159.597553 188.114177 87.4222973 100.771665 61.1426873 88.1444033 67.9284642 104.023667 83.8248963"></polyline>
                    <polyline id="Fill-20" fill="#E7E7E3" points="116.219684 105.416372 107.009045 136.028618 75.1525543 126.443292 84.3631936 95.8310453 116.219684 105.416372"></polyline>
                    <polyline id="Fill-21" fill="#E7E7E3" points="132.796815 76.4786036 114.226065 138.199986 111.737577 137.450611 130.308326 75.7292292 132.796815 76.4786036"></polyline>
                    <polyline id="Fill-22" fill="#E7E7E3" points="138.160598 78.0924853 119.589849 139.813867 117.10136 139.064493 135.67211 77.343111 138.160598 78.0924853"></polyline>
                    <polyline id="Fill-23" fill="#E7E7E3" points="143.524382 79.7063671 124.953632 141.427749 122.465144 140.678375 141.035893 78.9569927 143.524382 79.7063671"></polyline>
                    <polyline id="Fill-24" fill="#E7E7E3" points="148.889175 81.3202488 130.317416 143.041631 127.828927 142.292257 146.399676 80.5708744 148.889175 81.3202488"></polyline>
                    <polyline id="Fill-25" fill="#E7E7E3" points="154.252958 82.9341306 135.682209 144.655513 133.192711 143.906138 151.76346 82.1847562 154.252958 82.9341306"></polyline>
                    <polyline id="Fill-26" fill="#E7E7E3" points="159.616742 84.5480123 141.045992 146.269394 138.556494 145.52002 157.128253 83.7986379 159.616742 84.5480123"></polyline>
                    <polyline id="Fill-27" fill="#E7E7E3" points="164.980525 86.161894 146.409776 147.883276 143.920277 147.133902 162.492037 85.4125197 164.980525 86.161894"></polyline>
                    <polyline id="Fill-28" fill="#E7E7E3" points="170.344309 87.7757758 151.773559 149.497158 149.284061 148.747783 167.85582 87.0264014 170.344309 87.7757758"></polyline>
                    <polyline id="Fill-29" fill="#E7E7E3" points="175.708092 89.3896575 157.137343 151.11104 154.648854 150.361665 173.219604 88.6402831 175.708092 89.3896575"></polyline>
                    <polyline id="Fill-30" fill="#E7E7E3" points="181.071875 91.0035393 162.501126 152.724921 160.012638 151.975547 178.583387 90.2541649 181.071875 91.0035393"></polyline>
                    <polyline id="Fill-32" fill="#F5F3F0" points="88.1444033 67.9284642 100.771665 61.1426873 97.8509224 70.8492063 88.1444033 67.9284642"></polyline>
                    <path d="M114.160419,210.931717 C114.730025,212.276956 114.096793,213.85044 112.751555,214.424085 L44.2757043,243.58 C42.9304662,244.155665 41.356982,243.521423 40.7873767,242.176185 L0.781692407,148.225645 C0.208047333,146.878387 0.838248963,145.308943 2.18550694,144.735298 L70.6542882,115.577363 C72.0055859,115.005738 73.5831099,115.63291 74.1527152,116.984207 L114.160419,210.931717" id="Fill-33" fill="#3B3F47"></path>
                    <path d="M47.3004701,237.095184 C45.3684577,237.916264 43.1112452,237.01035 42.2881453,235.076317 L7.13925533,152.536063 C6.31615544,150.602031 7.2251001,148.342798 9.16115222,147.516668 L67.8365598,122.5318 C69.7685721,121.70668 72.0278046,122.619664 72.8509045,124.551677 L107.999794,207.092941 C108.826934,209.031013 107.916979,211.284186 105.982947,212.109306 L47.3004701,237.095184" id="Fill-34" fill="#B6B8B5"></path>
                    <path d="M47.0207171,236.433675 C45.0866849,237.255765 42.8314922,236.34783 42.0043526,234.410768 L6.85950236,151.873543 C6.03236272,149.935471 6.94534713,147.678259 8.8773595,146.854149 L67.5527671,121.8713 C69.4888192,121.04719 71.7460317,121.957145 72.5701416,123.889157 L107.717012,206.430421 C108.543141,208.366474 107.633187,210.623686 105.699155,211.447796 L47.0207171,236.433675" id="Fill-35" fill="#CDCFCA"></path>
                    <path d="M6.57267982,151.211024 L7.19581188,152.673414 C6.36665237,150.737362 7.27963678,148.485199 9.21366903,147.65806 L67.8921064,122.673191 C69.8241188,121.848071 72.0833512,122.757016 72.907461,124.691048 L72.2823091,123.232697 C71.462239,121.298665 69.2030066,120.38669 67.2709942,121.2108 L8.59255684,146.201729 C6.66054447,147.021799 5.75058988,149.283051 6.57267982,151.211024" id="Fill-36" fill="#F4F4F2"></path>
                    <path d="M46.7409642,235.772165 C44.8089518,236.597285 42.5497194,235.68733 41.7256095,233.754308 L6.57974939,151.209004 C5.75260975,149.274971 6.66357429,147.019779 8.59962641,146.197689 L67.2730141,121.20878 C69.2080563,120.38568 71.4672887,121.294625 72.2873588,123.228657 L107.437259,205.771942 C108.261369,207.705974 107.351414,209.961167 105.419402,210.786286 L46.7409642,235.772165" id="Fill-37" fill="#FFFFFF"></path>
                    <path d="M64.9552052,124.860718 C64.3310632,125.128352 64.038181,125.843388 64.301775,126.46753 C64.5694087,127.089652 65.2905048,127.382534 65.9176766,127.11692 C66.5448484,126.853327 66.8205616,126.13223 66.5579776,125.510108 C66.2923638,124.882937 65.5803571,124.595104 64.9552052,124.860718" id="Fill-38" fill="#797C7A"></path>
                    <path d="M62.2667489,118.550622 C61.7789486,118.75665 61.5537323,119.315146 61.7577399,119.797896 L64.4300372,126.072644 C64.6380845,126.553375 65.1945606,126.780611 65.6843808,126.574584 C66.1671314,126.362496 66.3953775,125.80602 66.1883401,125.32327 L63.5180627,119.049532 C63.3100154,118.565771 62.7515194,118.340555 62.2667489,118.550622" id="Fill-39"></path>
                    <path d="M58.4390819,127.635019 C57.81393,127.902653 57.5220578,128.620719 57.7876716,129.245871 C58.0563152,129.865973 58.7733716,130.159865 59.3985235,129.894251 C60.0246854,129.626618 60.3115079,128.903502 60.047914,128.28138 C59.7833101,127.654208 59.0652438,127.368395 58.4390819,127.635019" id="Fill-41" fill="#797C7A"></path>
                    <g id="Group-44" transform="translate(54.536680, 121.192621)">
                        <mask id="mask-2" fill="white">
                            <use xlink:href="#path-1"></use>
                        </mask>
                        <g id="Clip-43"></g>
                        <path d="M1.21495603,0.132301945 C0.730185543,0.336309524 0.501939439,0.896825397 0.710996711,1.379576 L3.38329401,7.65331403 C3.58730159,8.13808451 4.14781746,8.36229086 4.63056807,8.15222365 C5.11735843,7.94720613 5.3395449,7.39173995 5.13351745,6.90494959 L2.46021021,0.634241384 C2.25923245,0.147451022 1.69871657,-0.0747354497 1.21495603,0.132301945" id="Fill-42" mask="url(#mask-2)"></path>
                    </g>
                    <path d="M51.9239686,130.40932 C51.2978067,130.674934 51.0079544,131.393 51.2735682,132.019162 C51.5412019,132.637244 52.262298,132.930127 52.8884599,132.666533 C53.5115919,132.401929 53.7963946,131.679823 53.5328007,131.05972 C53.2692067,130.435578 52.5491205,130.142696 51.9239686,130.40932" id="Fill-45" fill="#797C7A"></path>
                    <path d="M49.2375322,124.099224 C48.7527617,124.306262 48.5235056,124.862738 48.730543,125.347508 L51.4008205,131.622256 C51.6078579,132.102987 52.1693837,132.324163 52.657184,132.120156 C53.1379147,131.914128 53.362121,131.354622 53.1581135,130.874902 L50.4848062,124.599144 C50.2807987,124.111343 49.7233126,123.892187 49.2375322,124.099224" id="Fill-46"></path>
                    <path d="M45.4098652,133.182611 C44.7826934,133.450245 44.4898112,134.171341 44.7584549,134.791443 C45.0240687,135.413565 45.7431449,135.708467 46.3693068,135.442854 C46.9954687,135.17421 47.2843111,134.451094 47.0176873,133.828972 C46.7530834,133.20483 46.0319873,132.914977 45.4098652,133.182611" id="Fill-48" fill="#797C7A"></path>
                    <path d="M42.720399,126.871505 C42.2376484,127.080563 42.0094023,127.637039 42.2184595,128.118779 L44.8907568,134.393527 C45.0947644,134.876278 45.6552803,135.102504 46.1380309,134.896477 C46.6238113,134.690449 46.8490276,134.127914 46.6430001,133.645163 L43.9727227,127.372435 C43.7636655,126.891704 43.2081993,126.665478 42.720399,126.871505" id="Fill-49"></path>
                    <path d="M38.8907121,135.957922 C38.2746496,136.221516 37.9847973,136.937563 38.2443515,137.564734 C38.5119852,138.186856 39.237121,138.479739 39.8572233,138.216145 C40.486415,137.949521 40.7671779,137.225395 40.5035839,136.605293 C40.2339304,135.980141 39.517884,135.688269 38.8907121,135.957922" id="Fill-51" fill="#797C7A"></path>
                    <path d="M36.2083155,129.648836 C35.723545,129.851834 35.4952989,130.41235 35.6993064,130.893081 L38.3736236,137.167829 C38.5796511,137.652599 39.1381471,137.875795 39.6208977,137.669768 C40.108698,137.459701 40.3369441,136.903225 40.1329365,136.420474 L37.4596293,130.144716 C37.2536018,129.662975 36.6940959,129.439779 36.2083155,129.648836" id="Fill-52"></path>
                    <path d="M32.3826684,138.730203 C31.7565065,138.999857 31.4656442,139.713884 31.731258,140.339035 C31.9988917,140.963177 32.7199878,141.25606 33.3441298,140.987416 C33.965242,140.721802 34.2520646,140.001716 33.9874607,139.378584 C33.7218468,138.752422 33.0078203,138.46459 32.3826684,138.730203" id="Fill-54" fill="#797C7A"></path>
                    <path d="M29.6962319,132.422127 C29.2043919,132.628155 28.9801855,133.184631 29.186213,133.669402 L31.8554805,139.94314 C32.0635278,140.42387 32.6210139,140.648077 33.1128539,140.442049 C33.5966145,140.237032 33.8228407,139.675506 33.6137834,139.194775 L30.943506,132.918007 C30.7364686,132.439296 30.1789826,132.21408 29.6962319,132.422127" id="Fill-55"></path>
                    <path d="M25.868565,141.505514 C25.2434131,141.772138 24.9515408,142.488185 25.2191745,143.114346 C25.4827685,143.736469 26.2038646,144.027331 26.8300265,143.763737 C27.4571983,143.495093 27.7399811,142.777027 27.4794169,142.150865 C27.2087534,141.529753 26.4947269,141.237881 25.868565,141.505514" id="Fill-57" fill="#797C7A"></path>
                    <path d="M23.1811186,135.195419 C22.6963481,135.400436 22.4660822,135.959942 22.6700897,136.442693 L25.3403672,142.717441 C25.5484145,143.202211 26.1129701,143.423388 26.5947108,143.21534 C27.083521,143.011333 27.3057075,142.452837 27.1037198,141.968066 L24.4294026,135.694328 C24.225395,135.210568 23.6648792,134.985351 23.1811186,135.195419" id="Fill-58"></path>
                    <path d="M19.3494119,144.279816 C18.7222401,144.543409 18.4374374,145.264506 18.7030513,145.887638 C18.9676552,146.51077 19.6887513,146.803652 20.3128933,146.535008 C20.9380452,146.273434 21.2238578,145.549308 20.9602638,144.926176 C20.69465,144.302034 19.9735539,144.014202 19.3494119,144.279816" id="Fill-60" fill="#797C7A"></path>
                    <path d="M16.6619655,137.96972 C16.1792149,138.177767 15.9509688,138.734243 16.1569963,139.216994 L18.8323234,145.488712 C19.0343111,145.973482 19.5928071,146.197689 20.0816173,145.995701 C20.5653779,145.782604 20.7865544,145.227138 20.5825468,144.742367 L17.9142893,138.467619 C17.705232,137.984869 17.1497658,137.763692 16.6619655,137.96972" id="Fill-61"></path>
                    <path d="M12.8373284,147.051087 C12.2121765,147.31973 11.9263639,148.034767 12.1919777,148.657899 C12.4555716,149.284061 13.1766677,149.578963 13.7987899,149.311329 C14.4279816,149.043695 14.7087445,148.322599 14.4451505,147.700477 C14.1795367,147.073305 13.4614704,146.785473 12.8373284,147.051087" id="Fill-63" fill="#797C7A"></path>
                    <g id="Group-66" transform="translate(9.089447, 140.381453)">
                        <mask id="mask-4" fill="white">
                            <use xlink:href="#path-3"></use>
                        </mask>
                        <g id="Clip-65"></g>
                        <path d="M1.06043544,0.361557987 C0.575664951,0.568595381 0.34539897,1.12608144 0.553446303,1.60883205 L3.22473366,7.88358001 C3.42975118,8.36835049 3.99329687,8.59255684 4.47604748,8.38450951 C4.96384778,8.17545224 5.18906406,7.61998606 4.98505649,7.13218576 L2.31477906,0.858447733 C2.10875161,0.377717003 1.54621586,0.155530531 1.06043544,0.361557987" id="Fill-64" mask="url(#mask-4)"></path>
                    </g>
                    <path d="M72.8953418,136.229596 L15.2339125,160.970059 C14.9359806,161.098322 14.5875518,160.95895 14.4602996,160.661018 L14.1866062,160.023747 C14.0583441,159.725815 14.1977156,159.377386 14.4956474,159.250134 L72.1570767,134.50967 C72.4550086,134.381408 72.8034374,134.52078 72.9306896,134.818712 L73.204383,135.455983 C73.3326451,135.753915 73.1932736,136.102343 72.8953418,136.229596" id="Fill-67" fill="#E8E8E3"></path>
                    <path d="M75.2868762,142.683103 L18.2627181,167.149873 C17.7900669,167.352871 17.2366205,167.132704 17.0336229,166.659043 C16.8306253,166.186392 17.0518018,165.632945 17.524453,165.429948 L74.5486111,140.963177 C75.0222723,140.76018 75.5747086,140.981356 75.7777063,141.454008 C75.9807039,141.927669 75.7605373,142.480105 75.2868762,142.683103" id="Fill-68" fill="#E8E8E3"></path>
                    <path d="M77.9975511,149.000268 L20.973393,173.467038 C20.4997319,173.670036 19.9472955,173.44886 19.7442979,172.976208 C19.5413002,172.502547 19.7614668,171.950111 20.235128,171.747113 L77.2592861,147.280343 C77.7319373,147.077345 78.2853836,147.297512 78.4883812,147.771173 C78.6913789,148.243824 78.4702023,148.79727 77.9975511,149.000268" id="Fill-69" fill="#E8E8E3"></path>
                    <path d="M80.7072161,155.317434 L23.684068,179.784204 C23.2104068,179.987201 22.6569605,179.766025 22.4539629,179.293374 C22.2509653,178.819713 22.4721418,178.266266 22.9458029,178.063269 L79.9689511,153.596498 C80.4426123,153.393501 80.9960586,153.614677 81.1990562,154.088338 C81.4020538,154.56099 81.1808773,155.114436 80.7072161,155.317434" id="Fill-70" fill="#E8E8E3"></path>
                    <path d="M83.4178911,161.634599 L26.393733,186.101369 C25.9210818,186.304367 25.3676355,186.08319 25.1646379,185.609529 C24.9616402,185.136878 25.1828167,184.583432 25.655468,184.380434 L82.6796261,159.913664 C83.1532872,159.710666 83.7057236,159.931843 83.9087212,160.404494 C84.1117189,160.878155 83.8915523,161.431601 83.4178911,161.634599" id="Fill-71" fill="#E8E8E3"></path>
                    <path d="M86.1285661,167.950754 L29.104408,192.417525 C28.6307468,192.620522 28.0783105,192.400356 27.8753128,191.926695 C27.6723152,191.454043 27.8924818,190.900597 28.3661429,190.697599 L85.390301,166.230829 C85.8629522,166.027831 86.4163985,166.249008 86.6193962,166.721659 C86.8223938,167.19532 86.6012173,167.747757 86.1285661,167.950754" id="Fill-72" fill="#E8E8E3"></path>
                    <path d="M88.8382311,174.26792 L31.814073,198.73469 C31.3414218,198.937688 30.7879755,198.716511 30.5849778,198.24386 C30.3819802,197.770199 30.6031567,197.216752 31.0768179,197.013755 L88.099966,172.546984 C88.5736272,172.343987 89.1270735,172.565163 89.3300711,173.038825 C89.5330688,173.511476 89.3118922,174.064922 88.8382311,174.26792" id="Fill-73" fill="#E8E8E3"></path>
                    <path d="M91.548906,180.585085 L34.524748,205.051855 C34.0520967,205.254853 33.4986504,205.033677 33.2956528,204.560015 C33.0926552,204.087364 33.3138317,203.533918 33.7864829,203.33092 L90.810641,178.86415 C91.2843022,178.661152 91.8367385,178.882329 92.0397362,179.35498 C92.2427338,179.828641 92.0225672,180.382087 91.548906,180.585085" id="Fill-74" fill="#E8E8E3"></path>
                    <path d="M94.259581,186.90225 L37.2354229,211.369021 C36.7617618,211.572018 36.2093254,211.350842 36.0063278,210.877181 C35.8033301,210.40453 36.0234967,209.851083 36.4971579,209.648086 L93.521316,185.181315 C93.9939672,184.978318 94.5474135,185.199494 94.7504111,185.672145 C94.9534088,186.145807 94.7322322,186.698243 94.259581,186.90225" id="Fill-75" fill="#E8E8E3"></path>
                    <path d="M96.969246,193.218406 L39.9450879,217.685176 C39.4724367,217.888174 38.9189904,217.666997 38.7159928,217.194346 C38.5129951,216.720685 38.7341717,216.168249 39.2078328,215.965251 L96.230981,191.498481 C96.7046421,191.295483 97.2580884,191.51565 97.4610861,191.989311 C97.6640837,192.461962 97.4429072,193.015408 96.969246,193.218406" id="Fill-76" fill="#E8E8E3"></path>
                    <path d="M99.9990616,199.39822 L42.3366223,224.138683 C42.0397004,224.266946 41.6912716,224.127574 41.5630094,223.829642 L41.2893161,223.192371 C41.1620638,222.894439 41.3014354,222.54601 41.5983573,222.418758 L99.2607965,197.678294 C99.5587284,197.550032 99.9061472,197.689404 100.034409,197.987336 L100.308103,198.624607 C100.435355,198.922539 100.296993,199.270967 99.9990616,199.39822" id="Fill-77" fill="#E8E8E3"></path>
                    <polyline id="Fill-78" fill="#F8C472" points="83.3552749 209.915719 81.6989758 209.150186 117.297288 131.877771 118.948538 132.635225 83.3552749 209.915719"></polyline>
                    <polyline id="Fill-79" fill="#E7AA63" points="85.0034946 210.673173 83.3552749 209.915719 118.948538 132.635225 120.603827 133.400758 85.0034946 210.673173"></polyline>
                    <polyline id="Fill-80" fill="#D8944A" points="86.6567639 211.435677 85.0034946 210.673173 120.603827 133.400758 122.260126 134.159222 86.6567639 211.435677"></polyline>
                    <polyline id="Fill-81" fill="#ECD2A3" points="118.948538 132.635225 124.878897 121.87534 117.297288 131.877771 118.948538 132.635225"></polyline>
                    <polyline id="Fill-82" fill="#CEAF94" points="124.878897 121.87534 120.603827 133.400758 118.948538 132.635225 124.878897 121.87534"></polyline>
                    <polyline id="Fill-83" fill="#BA9D80" points="124.878897 121.87534 122.260126 134.159222 120.603827 133.400758 124.878897 121.87534"></polyline>
                    <path d="M123.770994,124.860718 L123.605364,124.791032 C123.51043,124.750635 123.428625,124.707207 123.34682,124.648631 C123.222598,124.564806 123.095345,124.472901 122.992332,124.375947 L124.878897,121.880389 L124.220417,124.969791 C124.063876,124.954642 123.916425,124.914245 123.770994,124.860718" id="Fill-84" fill="#565858"></path>
                    <polyline id="Fill-85" fill="#FCFBFA" points="410.670286 236.462963 149.001278 267.037841 140.530924 194.542435 402.199932 163.966547 410.670286 236.462963"></polyline>
                    <polyline id="Fill-86" fill="#C7C5C1" points="273.975109 245.760457 204.855927 253.836935 203.235986 239.96846 272.355168 231.891981 273.975109 245.760457"></polyline>
                    <polyline id="Fill-87" fill="#C7C5C1" points="202.085666 254.161125 186.436669 255.989114 184.816727 242.120638 200.465725 240.29265 202.085666 254.161125"></polyline>
                    <polyline id="Fill-88" fill="#C7C5C1" points="183.830018 256.294116 171.454231 257.740347 169.83328 243.871872 182.210076 242.42564 183.830018 256.294116"></polyline>
                    <polyline id="Fill-89" fill="#C7C5C1" points="168.928375 258.03525 154.817514 259.684479 153.196563 245.814994 167.308433 244.166774 168.928375 258.03525"></polyline>
                    <polyline id="Fill-90" fill="#C7C5C1" points="319.46274 240.44616 308.632159 241.711613 307.012218 227.843138 317.842798 226.577685 319.46274 240.44616"></polyline>
                    <polyline id="Fill-91" fill="#C7C5C1" points="328.741045 239.361486 321.734091 240.180547 320.11314 226.312071 327.121103 225.493011 328.741045 239.361486"></polyline>
                    <polyline id="Fill-92" fill="#C7C5C1" points="348.406567 237.063876 341.399614 237.882937 339.778663 224.014461 346.786626 223.195401 348.406567 237.063876"></polyline>
                    <polyline id="Fill-93" fill="#C7C5C1" points="306.025508 242.015605 293.649721 243.461837 292.02877 229.593361 304.405566 228.147129 306.025508 242.015605"></polyline>
                    <polyline id="Fill-94" fill="#C7C5C1" points="338.091055 229.717584 330.078203 230.653797 329.443962 225.221337 337.455804 224.285124 338.091055 229.717584"></polyline>
                    <polyline id="Fill-95" fill="#C7C5C1" points="339.076755 238.1536 331.063903 239.090823 330.429662 233.658364 338.441504 232.722151 339.076755 238.1536"></polyline>
                    <polyline id="Fill-96" fill="#C7C5C1" points="291.123865 243.756739 277.011994 245.405968 275.392053 231.537493 289.502914 229.888263 291.123865 243.756739"></polyline>
                    <polyline id="Fill-97" fill="#C7C5C1" points="186.526553 237.703167 175.89897 238.945392 174.279029 225.076916 184.905602 223.834692 186.526553 237.703167"></polyline>
                    <polyline id="Fill-98" fill="#C7C5C1" points="172.708575 239.318059 152.710782 241.655057 151.089831 227.786581 171.087623 225.449584 172.708575 239.318059"></polyline>
                    <polyline id="Fill-99" fill="#C7C5C1" points="199.911268 236.139783 189.283685 237.380997 187.663744 223.512521 198.290317 222.271307 199.911268 236.139783"></polyline>
                    <polyline id="Fill-100" fill="#C7C5C1" points="213.295983 234.575388 202.668401 235.817612 201.048459 221.949137 211.675032 220.706912 213.295983 234.575388"></polyline>
                    <polyline id="Fill-101" fill="#C7C5C1" points="226.680699 233.012003 216.053116 234.253218 214.433174 220.384742 225.059747 219.143527 226.680699 233.012003"></polyline>
                    <polyline id="Fill-102" fill="#C7C5C1" points="240.065414 231.447608 229.437831 232.689833 227.817889 218.821357 238.444462 217.579133 240.065414 231.447608"></polyline>
                    <polyline id="Fill-103" fill="#C7C5C1" points="253.450129 229.884224 242.822546 231.125438 241.202604 217.256962 251.829177 216.015748 253.450129 229.884224"></polyline>
                    <polyline id="Fill-104" fill="#C7C5C1" points="266.834844 228.319829 256.207261 229.562053 254.587319 215.692568 265.213892 214.451353 266.834844 228.319829"></polyline>
                    <polyline id="Fill-105" fill="#C7C5C1" points="280.219559 226.756444 269.591976 227.997658 267.972035 214.129183 278.598608 212.886958 280.219559 226.756444"></polyline>
                    <polyline id="Fill-106" fill="#C7C5C1" points="293.604274 225.192049 282.976691 226.434274 281.35675 212.564788 291.983323 211.323574 293.604274 225.192049"></polyline>
                    <polyline id="Fill-107" fill="#C7C5C1" points="306.988989 223.627654 296.361406 224.869879 294.741465 211.001403 305.368038 209.759179 306.988989 223.627654"></polyline>
                    <polyline id="Fill-108" fill="#C7C5C1" points="320.373704 222.06427 309.746121 223.305484 308.12517 209.437008 318.752753 208.195794 320.373704 222.06427"></polyline>
                    <polyline id="Fill-109" fill="#C7C5C1" points="333.758419 220.499875 323.130836 221.742099 321.510895 207.873624 332.137468 206.631399 333.758419 220.499875"></polyline>
                    <polyline id="Fill-110" fill="#C7C5C1" points="177.727969 220.456448 167.100386 221.698672 165.479435 207.829186 176.107018 206.587972 177.727969 220.456448"></polyline>
                    <polyline id="Fill-111" fill="#C7C5C1" points="164.140256 222.044071 150.60405 223.625635 148.983099 209.757159 162.519305 208.175595 164.140256 222.044071"></polyline>
                    <polyline id="Fill-112" fill="#C7C5C1" points="191.112684 218.892053 180.485101 220.134277 178.86415 206.265802 189.491733 205.023577 191.112684 218.892053"></polyline>
                    <polyline id="Fill-113" fill="#C7C5C1" points="204.496389 217.328668 193.869816 218.569882 192.248865 204.701407 202.876448 203.460192 204.496389 217.328668"></polyline>
                    <polyline id="Fill-114" fill="#C7C5C1" points="217.881104 215.764273 207.254531 217.006498 205.63358 203.138022 216.261163 201.895798 217.881104 215.764273"></polyline>
                    <polyline id="Fill-115" fill="#C7C5C1" points="231.265819 214.200888 220.639246 215.442103 219.018295 201.573627 229.645878 200.332413 231.265819 214.200888"></polyline>
                    <polyline id="Fill-116" fill="#C7C5C1" points="244.650534 212.636494 234.023961 213.878718 232.40301 200.010242 243.030593 198.768018 244.650534 212.636494"></polyline>
                    <polyline id="Fill-117" fill="#C7C5C1" points="258.03525 211.073109 247.408677 212.314323 245.787725 198.445848 256.415308 197.203623 258.03525 211.073109"></polyline>
                    <polyline id="Fill-118" fill="#C7C5C1" points="271.419965 209.508714 260.793392 210.750938 259.17244 196.881453 269.800023 195.640238 271.419965 209.508714"></polyline>
                    <polyline id="Fill-119" fill="#C7C5C1" points="284.80468 207.944319 274.178107 209.186544 272.557155 195.318068 283.184738 194.075844 284.80468 207.944319"></polyline>
                    <polyline id="Fill-120" fill="#C7C5C1" points="298.189395 206.380935 287.562822 207.623159 285.94187 193.753673 296.569453 192.512459 298.189395 206.380935"></polyline>
                    <polyline id="Fill-121" fill="#C7C5C1" points="311.57411 204.81755 300.947537 206.058764 299.326586 192.190289 309.954168 190.948064 311.57411 204.81755"></polyline>
                    <polyline id="Fill-122" fill="#C7C5C1" points="324.958825 203.253155 314.332252 204.494369 312.711301 190.625894 323.338884 189.384679 324.958825 203.253155"></polyline>
                    <polyline id="Fill-123" fill="#C7C5C1" points="335.344023 187.981875 331.94558 188.378781 325.611245 189.119065 327.276634 202.982491 333.566531 202.247256 335.673263 220.276678 346.299836 219.034454 342.573162 187.136556 335.344023 187.981875"></polyline>
                    <polyline id="Fill-124" fill="#C7C5C1" points="359.056369 199.268948 348.428786 200.510162 346.808845 186.641686 357.435418 185.400472 359.056369 199.268948"></polyline>
                    <polyline id="Fill-125" fill="#C7C5C1" points="372.441084 197.704553 361.813501 198.946777 360.19356 185.078302 370.820133 183.836077 372.441084 197.704553"></polyline>
                    <polyline id="Fill-126" fill="#C7C5C1" points="385.825799 196.141168 375.198216 197.382382 373.578275 183.513907 384.204848 182.272692 385.825799 196.141168"></polyline>
                    <polyline id="Fill-127" fill="#C7C5C1" points="400.2558 204.451952 389.628218 205.693166 388.403162 195.215054 399.030745 193.97283 400.2558 204.451952"></polyline>
                    <polyline id="Fill-128" fill="#C7C5C1" points="398.706555 191.199539 388.079982 192.440753 386.854926 181.962641 397.482509 180.721427 398.706555 191.199539"></polyline>
                    <polyline id="Fill-129" fill="#C7C5C1" points="403.315914 230.647737 392.689341 231.889961 389.91605 208.159436 400.543633 206.917212 403.315914 230.647737"></polyline>
                    <polyline id="Fill-130" fill="#C7C5C1" points="361.163101 217.29837 350.535518 218.539584 348.914566 204.671109 359.542149 203.429894 361.163101 217.29837"></polyline>
                    <polyline id="Fill-131" fill="#C7C5C1" points="374.547816 215.733975 363.920233 216.976199 362.300291 203.107724 372.926864 201.865499 374.547816 215.733975"></polyline>
                    <polyline id="Fill-132" fill="#C7C5C1" points="387.932531 214.16958 377.304948 215.411805 375.685006 201.543329 386.311579 200.301105 387.932531 214.16958"></polyline>
                    <polyline id="Fill-133" fill="#C7C5C1" points="363.269832 235.326782 352.642249 236.569007 351.021298 222.700531 361.648881 221.458307 363.269832 235.326782"></polyline>
                    <polyline id="Fill-134" fill="#C7C5C1" points="376.654547 233.763397 366.026964 235.004612 364.407023 221.136136 375.033596 219.894922 376.654547 233.763397"></polyline>
                    <polyline id="Fill-135" fill="#C7C5C1" points="390.038253 232.199003 379.41168 233.441227 377.790728 219.572751 388.418311 218.330527 390.038253 232.199003"></polyline>
                    <polyline id="Fill-136" fill="#C7C5C1" points="162.213294 205.555815 148.677088 207.137378 147.885296 200.357661 161.421502 198.776098 162.213294 205.555815"></polyline>
                    <polyline id="Fill-137" fill="#C7C5C1" points="177.896629 203.723786 164.360423 205.30535 163.568631 198.524623 177.104837 196.943059 177.896629 203.723786"></polyline>
                    <polyline id="Fill-138" fill="#C7C5C1" points="193.580974 201.890748 180.043758 203.472312 179.251966 196.692594 192.788172 195.111031 193.580974 201.890748"></polyline>
                    <polyline id="Fill-139" fill="#C7C5C1" points="209.264309 200.058719 195.727093 201.640283 194.935301 194.859556 208.471507 193.277992 209.264309 200.058719"></polyline>
                    <polyline id="Fill-140" fill="#C7C5C1" points="224.947644 198.225681 211.411438 199.807245 210.618636 193.027528 224.154842 191.444954 224.947644 198.225681"></polyline>
                    <polyline id="Fill-141" fill="#C7C5C1" points="240.630979 196.393653 227.094773 197.975216 226.301972 191.194489 239.838177 189.612925 240.630979 196.393653"></polyline>
                    <polyline id="Fill-142" fill="#C7C5C1" points="256.314314 194.560614 242.778108 196.142178 241.985307 189.362461 255.522523 187.780897 256.314314 194.560614"></polyline>
                    <polyline id="Fill-143" fill="#C7C5C1" points="271.997649 192.727576 258.461444 194.310149 257.669652 187.529422 271.205858 185.947859 271.997649 192.727576"></polyline>
                    <polyline id="Fill-144" fill="#C7C5C1" points="287.680985 190.895547 274.144779 192.477111 273.352987 185.697394 286.889193 184.11482 287.680985 190.895547"></polyline>
                    <polyline id="Fill-145" fill="#C7C5C1" points="303.36432 189.063519 289.828114 190.644073 289.036322 183.864355 302.572528 182.282792 303.36432 189.063519"></polyline>
                    <polyline id="Fill-146" fill="#C7C5C1" points="319.047655 187.23048 305.511449 188.812044 304.719657 182.031317 318.255863 180.449753 319.047655 187.23048"></polyline>
                    <polyline id="Fill-147" fill="#C7C5C1" points="334.73099 185.397442 321.194784 186.980016 320.402992 180.199289 333.939198 178.617725 334.73099 185.397442"></polyline>
                    <polyline id="Fill-148" fill="#C7C5C1" points="350.415335 183.565414 336.878119 185.146977 336.086327 178.36726 349.622533 176.784686 350.415335 183.565414"></polyline>
                    <polyline id="Fill-149" fill="#C7C5C1" points="366.09867 181.732375 352.562464 183.313939 351.769663 176.534222 365.305868 174.952658 366.09867 181.732375"></polyline>
                    <polyline id="Fill-150" fill="#C7C5C1" points="381.782005 179.900347 368.245799 181.48191 367.452998 174.701183 380.989203 173.11962 381.782005 179.900347"></polyline>
                    <polyline id="Fill-151" fill="#C7C5C1" points="397.46534 178.067308 383.929134 179.649882 383.136333 172.869155 396.673549 171.287591 397.46534 178.067308"></polyline>
                    <polyline id="Fill-152" fill="#D5D4CF" points="410.664227 236.410446 148.995218 266.985325 149.399194 270.434265 411.067192 239.859386 410.664227 236.410446"></polyline>
                    <polyline id="Fill-153" fill="#E7E7E3" points="402.440297 165.427928 140.702613 196.011896 140.157247 191.34396 401.894931 160.761002 402.440297 165.427928"></polyline>
                    <path d="M453.557325,88.5342396 C445.308147,93.9091323 434.26447,91.5802141 428.888567,83.3320463 C423.513674,75.0828686 425.842593,64.039191 434.09177,58.6632883 C442.339938,53.2883955 453.384626,55.6173137 458.759518,63.8664915 C464.134411,72.1146593 461.805493,83.1593468 453.557325,88.5342396" id="Fill-154" fill="#C2E2E7"></path>
                    <path d="M435.054242,60.5639926 C442.444972,55.7475958 452.339339,57.8351387 457.155736,65.2248588 C461.971123,72.6145789 459.88459,82.5099564 452.49487,87.3253432 C445.10414,92.14174 435.209772,90.055207 430.393376,82.664477 C425.577989,75.2747569 427.664522,65.3793794 435.054242,60.5639926 Z M415.797744,88.7958137 L418.890176,93.5405048 L427.86146,87.6949807 C434.631078,95.5492725 446.331215,97.3853407 455.258062,91.5670849 C464.990839,85.2246711 467.739892,72.1934345 461.397478,62.4606571 C455.055064,52.7278797 442.022817,49.979837 432.29004,56.3222508 C423.363194,62.1394966 420.318229,73.5841198 424.769028,82.9502896 L415.797744,88.7958137 L415.797744,88.7958137 Z" id="Fill-155" fill="#FFFFFF"></path>
                    <path d="M451.640462,85.9528368 C446.719032,89.1604015 440.129183,87.7697161 436.921618,82.8482858 C433.714053,77.9268554 435.104739,71.3370066 440.026169,68.1294419 C444.947599,64.9218772 451.537448,66.3115526 454.745013,71.2339929 C457.952578,76.1554233 456.562902,82.7452721 451.640462,85.9528368" id="Fill-156" fill="#E1F1F4"></path>
                    <path d="M451.053688,85.0509617 C449.336792,86.1699735 447.039182,85.6852031 445.92118,83.9693175 C444.803178,82.2524221 445.286939,79.954812 447.003834,78.83681 C448.71972,77.7177982 451.01733,78.2025686 452.136342,79.9184542 C453.254344,81.6353496 452.769573,83.9329597 451.053688,85.0509617" id="Fill-157" fill="#FFFFFE"></path>
                    <path d="M415.652313,86.4264979 C415.292775,86.6042471 414.935257,86.8011851 414.585818,87.0294312 L375.95365,112.204168 C372.610754,114.382606 371.097866,118.039593 372.591565,120.332154 C374.085264,122.623704 378.042203,122.716618 381.385099,120.538181 L420.016257,95.3634438 C420.366706,95.1362076 420.690896,94.8887727 420.998927,94.6312384 L415.652313,86.4264979" id="Fill-158" fill="#27292F"></path>
                    <path d="M309.76329,83.2613506 C309.851155,97.9771647 286.420581,121.019922 257.430296,121.192621 C228.326898,121.365321 204.757963,98.6013067 204.669089,83.8844827 C204.582234,69.1767482 228.009778,57.107983 257.113176,56.9352835 C286.103461,56.762584 309.676435,68.5526062 309.76329,83.2613506" id="Fill-159" fill="#4A6897"></path>
                    <path d="M309.291649,82.3483662 C309.377494,97.0611504 285.94793,121.008812 256.962695,121.179492 C227.856267,121.354211 204.286322,97.6852924 204.198457,82.9725082 C204.110593,68.2627538 227.539146,56.1909588 256.645574,56.0192693 C285.631819,55.8475797 309.203784,67.6365919 309.291649,82.3483662" id="Fill-160" fill="#27292F"></path>
                    <path d="M432.685936,10.938644 C432.697045,12.8585371 430.65091,14.4188921 428.112934,14.4350511 L89.9976405,16.4448288 C87.4566352,16.4589679 85.3882811,14.9238614 85.3771718,13.0039683 L85.3337445,5.79300729 C85.3236451,3.88220363 87.3738202,2.31477906 89.9138156,2.30164986 L428.029109,0.291872229 C430.566075,0.276723152 432.632409,1.81889926 432.642509,3.72970292 L432.685936,10.938644" id="Fill-161" fill="#27292F"></path>
                    <path d="M130.07503,89.5068104 C129.700343,89.2442264 129.380193,88.9473044 129.140837,88.6301838 L129.160026,88.5665576 L130.07503,89.5068104" id="Fill-162" fill="#B7B8B5"></path>
                    <path d="M129.140837,88.6301838 C129.075191,88.5423191 129.015605,88.4544545 128.963088,88.3645699 L129.160026,88.5665576 L129.140837,88.6301838 M128.963088,88.3645699 L128.963088,88.3645699 L128.869164,88.2191388 C128.93178,88.2686258 128.996416,88.3171028 129.063072,88.36356 L128.963088,88.3645699" id="Fill-163" fill="#A4A5A4"></path>
                    <path d="M384.305842,87.904038 L383.919035,87.5101619 C384.516919,87.2697966 385.065315,86.9496461 385.513728,86.5820285 L385.350118,86.8405727 C385.104703,87.2233394 384.742135,87.5848974 384.305842,87.904038" id="Fill-164" fill="#ADAEAC"></path>
                    <path d="M522.310909,307.991858 L343.843665,307.991858 L290.284606,252.94314 L411.239892,238.81006 L402.544321,164.387691 L402.612997,164.378602 L402.06763,159.711676 L220.24537,180.956742 L176.739239,136.242725 L205.817389,92.2144555 L201.265596,89.2078686 L205.993118,89.1795903 C206.426382,90.2369959 206.94246,91.3085407 207.538324,92.3891749 C214.134232,106.118279 234.05022,121.775356 257.667632,121.775356 C257.772666,121.775356 257.879719,121.775356 257.984753,121.774346 C283.500849,121.622855 304.712588,103.047056 309.364364,88.5655477 L380.693292,88.1413735 C381.989043,88.1343039 383.442344,87.6131757 384.478541,86.8547119 L395.767634,98.3548817 L376.12635,111.154842 C372.783453,113.33328 371.270565,116.990267 372.764264,119.282827 C373.535857,120.466475 374.96593,121.064359 376.628289,121.064359 C378.183594,121.064359 379.941897,120.542221 381.557799,119.488855 L402.876591,105.596141 L446.42211,149.95567 L442.674228,161.998177 C442.508598,162.529404 442.80754,163.098 443.337757,163.26262 L466.590582,170.500849 L522.310909,227.262423 L522.310909,307.991858" id="Fill-165"></path>
                    <path d="M176.56654,137.292051 L173.92656,134.577336 L175.945428,127.868315 L197.870183,94.669616 L195.701845,93.2375232 L178.551069,119.205062 L181.562706,109.198591 L193.196187,91.583244 L191.277304,90.3157711 L201.092896,90.2571947 L205.644689,93.2637816 L176.56654,137.292051 M184.169357,100.535339 L187.179984,90.5288682 L187.305216,90.3389997 L190.916756,90.317791 L184.169357,100.535339" id="Fill-167"></path>
                    <g id="Group-171" transform="translate(186.838624, 89.884527)">
                        <mask id="mask-6" fill="white">
                            <use xlink:href="#path-5"></use>
                        </mask>
                        <g id="Clip-170"></g>
                        <polyline id="Fill-169" mask="url(#mask-6)" points="0.341359216 0.644340769 0.397915773 0.455482268 0.466591592 0.454472329 0.341359216 0.644340769"></polyline>
                    </g>
                    <polyline id="Fill-172" points="181.562706 109.198591 184.169357 100.535339 190.916756 90.317791 191.277304 90.3157711 193.196187 91.583244 181.562706 109.198591"></polyline>
                    <polyline id="Fill-174" points="175.945428 127.868315 178.551069 119.205062 195.701845 93.2375232 197.870183 94.669616 175.945428 127.868315"></polyline>
                    <path d="M173.92656,134.577336 L169.369718,129.895261 L181.071875,91.0035393 L179.02877,90.3884867 L187.23654,90.3400097 L187.179984,90.5288682 L173.92656,134.577336 M167.297324,127.764291 L164.90276,125.303071 L175.401071,90.4096954 L178.541979,90.3915165 L167.297324,127.764291 M162.829356,123.172101 L160.434792,120.710881 L169.541407,90.4450433 L172.682316,90.4258544 L162.829356,123.172101 M158.361388,118.57991 L155.966824,116.11869 L163.680734,90.4793812 L166.821643,90.4612023 L158.361388,118.57991 M153.89342,113.98772 L151.498856,111.5265 L157.821071,90.514729 L160.96198,90.4955402 L153.89342,113.98772 M149.425452,109.396539 L147.030888,106.934309 L151.961408,90.5490669 L155.102317,90.530888 L149.425452,109.396539 M144.958494,104.804349 L142.56292,102.343129 L146.101745,90.5844148 L149.242653,90.5652259 L144.958494,104.804349 M140.490526,100.212159 L138.094952,97.7509384 L140.241071,90.6187527 L143.38198,90.6005738 L140.490526,100.212159 M136.022558,95.6199682 L133.627994,93.158748 L134.381408,90.6541005 L137.522317,90.6349117 L136.022558,95.6199682 M131.55459,91.0277778 L130.07503,89.5068104 C130.564851,89.8511994 131.146575,90.1390319 131.761628,90.3400097 L131.55459,91.0277778" id="Fill-176"></path>
                    <path d="M133.627994,93.158748 L131.55459,91.0277778 L131.761628,90.3400097 C132.3787,90.5430073 133.029101,90.6581403 133.652233,90.6581403 L133.680511,90.6581403 L134.381408,90.6541005 L133.627994,93.158748" id="Fill-178"></path>
                    <polyline id="Fill-180" points="138.094952 97.7509384 136.022558 95.6199682 137.522317 90.6349117 140.241071 90.6187527 138.094952 97.7509384"></polyline>
                    <polyline id="Fill-182" points="142.56292 102.343129 140.490526 100.212159 143.38198 90.6005738 146.101745 90.5844148 142.56292 102.343129"></polyline>
                    <polyline id="Fill-184" points="147.030888 106.934309 144.958494 104.804349 149.242653 90.5652259 151.961408 90.5490669 147.030888 106.934309"></polyline>
                    <polyline id="Fill-186" points="151.498856 111.5265 149.425452 109.396539 155.102317 90.530888 157.821071 90.514729 151.498856 111.5265"></polyline>
                    <polyline id="Fill-188" points="155.966824 116.11869 153.89342 113.98772 160.96198 90.4955402 163.680734 90.4793812 155.966824 116.11869"></polyline>
                    <polyline id="Fill-190" points="160.434792 120.710881 158.361388 118.57991 166.821643 90.4612023 169.541407 90.4450433 160.434792 120.710881"></polyline>
                    <polyline id="Fill-192" points="164.90276 125.303071 162.829356 123.172101 172.682316 90.4258544 175.401071 90.4096954 164.90276 125.303071"></polyline>
                    <polyline id="Fill-194" points="169.369718 129.895261 167.297324 127.764291 178.541979 90.3915165 179.02877 90.3884867 181.071875 91.0035393 169.369718 129.895261"></polyline>
                    <path d="M287.056843,250.853577 L281.272925,244.908069 L291.123865,243.756739 L289.502914,229.888263 L275.392053,231.537493 L276.364624,239.863426 L272.866197,236.268045 L272.355168,231.891981 L268.991062,232.284847 L265.306807,228.498588 L266.834844,228.319829 L265.213892,214.451353 L254.587319,215.692568 L254.824655,217.724564 L249.340689,212.089107 L258.03525,211.073109 L256.415308,197.203623 L245.787725,198.445848 L247.114784,209.800586 L243.937518,206.535455 L243.030593,198.768018 L237.058827,199.465886 L234.740008,197.081421 L240.630979,196.393653 L239.838177,189.612925 L228.734913,190.910696 L224.205339,186.25488 L402.371622,165.437017 L410.670286,236.462963 L410.664227,236.410446 L287.056843,250.853577 M304.405566,228.147129 L292.02877,229.593361 L293.649721,243.461837 L306.025508,242.015605 L304.405566,228.147129 M317.842798,226.577685 L307.012218,227.843138 L308.632159,241.711613 L319.46274,240.44616 L317.842798,226.577685 M327.121103,225.493011 L320.11314,226.312071 L321.734091,240.180547 L328.741045,239.361486 L327.121103,225.493011 M338.441504,232.722151 L330.429662,233.658364 L331.063903,239.090823 L339.076755,238.1536 L338.441504,232.722151 M346.786626,223.195401 L339.778663,224.014461 L341.399614,237.882937 L348.406567,237.063876 L346.786626,223.195401 M361.648881,221.458307 L351.021298,222.700531 L352.642249,236.569007 L363.269832,235.326782 L361.648881,221.458307 M375.033596,219.894922 L364.407023,221.136136 L366.026964,235.004612 L376.654547,233.763397 L375.033596,219.894922 M388.418311,218.330527 L377.790728,219.572751 L379.41168,233.441227 L390.038253,232.199003 L388.418311,218.330527 M400.543633,206.917212 L389.91605,208.159436 L392.689341,231.889961 L403.315914,230.647737 L400.543633,206.917212 M337.455804,224.285124 L329.443962,225.221337 L330.078203,230.653797 L338.091055,229.717584 L337.455804,224.285124 M278.598608,212.886958 L267.972035,214.129183 L269.591976,227.997658 L280.219559,226.756444 L278.598608,212.886958 M291.983323,211.323574 L281.35675,212.564788 L282.976691,226.434274 L293.604274,225.192049 L291.983323,211.323574 M305.368038,209.759179 L294.741465,211.001403 L296.361406,224.869879 L306.988989,223.627654 L305.368038,209.759179 M318.752753,208.195794 L308.12517,209.437008 L309.746121,223.305484 L320.373704,222.06427 L318.752753,208.195794 M332.137468,206.631399 L321.510895,207.873624 L323.130836,221.742099 L333.758419,220.499875 L332.137468,206.631399 M333.566531,202.247256 L335.673263,220.276678 L346.299836,219.034454 L342.573162,187.136556 L335.344023,187.981875 L331.94558,188.378781 L325.611245,189.119065 L327.276634,202.982491 L333.566531,202.247256 M359.542149,203.429894 L348.914566,204.671109 L350.535518,218.539584 L361.163101,217.29837 L359.542149,203.429894 M372.926864,201.865499 L362.300291,203.107724 L363.920233,216.976199 L374.547816,215.733975 L372.926864,201.865499 M386.311579,200.301105 L375.685006,201.543329 L377.304948,215.411805 L387.932531,214.16958 L386.311579,200.301105 M269.800023,195.640238 L259.17244,196.881453 L260.793392,210.750938 L271.419965,209.508714 L269.800023,195.640238 M283.184738,194.075844 L272.557155,195.318068 L274.178107,209.186544 L284.80468,207.944319 L283.184738,194.075844 M296.569453,192.512459 L285.94187,193.753673 L287.562822,207.623159 L298.189395,206.380935 L296.569453,192.512459 M309.954168,190.948064 L299.326586,192.190289 L300.947537,206.058764 L311.57411,204.81755 L309.954168,190.948064 M399.030745,193.97283 L388.403162,195.215054 L389.628218,205.693166 L400.2558,204.451952 L399.030745,193.97283 M323.338884,189.384679 L312.711301,190.625894 L314.332252,204.494369 L324.958825,203.253155 L323.338884,189.384679 M357.435418,185.400472 L346.808845,186.641686 L348.428786,200.510162 L359.056369,199.268948 L357.435418,185.400472 M370.820133,183.836077 L360.19356,185.078302 L361.813501,198.946777 L372.441084,197.704553 L370.820133,183.836077 M384.204848,182.272692 L373.578275,183.513907 L375.198216,197.382382 L385.825799,196.141168 L384.204848,182.272692 M255.522523,187.780897 L241.985307,189.362461 L242.778108,196.142178 L256.314314,194.560614 L255.522523,187.780897 M271.205858,185.947859 L257.669652,187.529422 L258.461444,194.310149 L271.997649,192.727576 L271.205858,185.947859 M286.889193,184.11482 L273.352987,185.697394 L274.144779,192.477111 L287.680985,190.895547 L286.889193,184.11482 M397.482509,180.721427 L386.854926,181.962641 L388.079982,192.440753 L398.706555,191.199539 L397.482509,180.721427 M302.572528,182.282792 L289.036322,183.864355 L289.828114,190.644073 L303.36432,189.063519 L302.572528,182.282792 M318.255863,180.449753 L304.719657,182.031317 L305.511449,188.812044 L319.047655,187.23048 L318.255863,180.449753 M333.939198,178.617725 L320.402992,180.199289 L321.194784,186.980016 L334.73099,185.397442 L333.939198,178.617725 M349.622533,176.784686 L336.086327,178.36726 L336.878119,185.146977 L350.415335,183.565414 L349.622533,176.784686 M365.305868,174.952658 L351.769663,176.534222 L352.562464,183.313939 L366.09867,181.732375 L365.305868,174.952658 M380.989203,173.11962 L367.452998,174.701183 L368.245799,181.48191 L381.782005,179.900347 L380.989203,173.11962 M396.673549,171.287591 L383.136333,172.869155 L383.929134,179.649882 L397.46534,178.067308 L396.673549,171.287591" id="Fill-196"></path>
                    <polyline id="Fill-198" points="272.866197 236.268045 268.991062 232.284847 272.355168 231.891981 272.866197 236.268045"></polyline>
                    <polyline id="Fill-200" points="308.632159 241.711613 307.012218 227.843138 317.842798 226.577685 319.46274 240.44616 308.632159 241.711613"></polyline>
                    <polyline id="Fill-202" points="321.734091 240.180547 320.11314 226.312071 327.121103 225.493011 328.741045 239.361486 321.734091 240.180547"></polyline>
                    <polyline id="Fill-204" points="341.399614 237.882937 339.778663 224.014461 346.786626 223.195401 348.406567 237.063876 341.399614 237.882937"></polyline>
                    <polyline id="Fill-206" points="293.649721 243.461837 292.02877 229.593361 304.405566 228.147129 306.025508 242.015605 293.649721 243.461837"></polyline>
                    <polyline id="Fill-208" points="330.078203 230.653797 329.443962 225.221337 337.455804 224.285124 338.091055 229.717584 330.078203 230.653797"></polyline>
                    <polyline id="Fill-210" points="331.063903 239.090823 330.429662 233.658364 338.441504 232.722151 339.076755 238.1536 331.063903 239.090823"></polyline>
                    <polyline id="Fill-212" points="281.272925 244.908069 276.364624 239.863426 275.392053 231.537493 289.502914 229.888263 291.123865 243.756739 281.272925 244.908069"></polyline>
                    <polyline id="Fill-214" points="265.306807 228.498588 254.824655 217.724564 254.587319 215.692568 265.213892 214.451353 266.834844 228.319829 265.306807 228.498588"></polyline>
                    <polyline id="Fill-216" points="269.591976 227.997658 267.972035 214.129183 278.598608 212.886958 280.219559 226.756444 269.591976 227.997658"></polyline>
                    <polyline id="Fill-218" points="282.976691 226.434274 281.35675 212.564788 291.983323 211.323574 293.604274 225.192049 282.976691 226.434274"></polyline>
                    <polyline id="Fill-220" points="296.361406 224.869879 294.741465 211.001403 305.368038 209.759179 306.988989 223.627654 296.361406 224.869879"></polyline>
                    <polyline id="Fill-222" points="309.746121 223.305484 308.12517 209.437008 318.752753 208.195794 320.373704 222.06427 309.746121 223.305484"></polyline>
                    <polyline id="Fill-224" points="323.130836 221.742099 321.510895 207.873624 332.137468 206.631399 333.758419 220.499875 323.130836 221.742099"></polyline>
                    <polyline id="Fill-226" points="243.937518 206.535455 237.058827 199.465886 243.030593 198.768018 243.937518 206.535455"></polyline>
                    <polyline id="Fill-228" points="249.340689 212.089107 247.114784 209.800586 245.787725 198.445848 256.415308 197.203623 258.03525 211.073109 249.340689 212.089107"></polyline>
                    <polyline id="Fill-230" points="260.793392 210.750938 259.17244 196.881453 269.800023 195.640238 271.419965 209.508714 260.793392 210.750938"></polyline>
                    <polyline id="Fill-232" points="274.178107 209.186544 272.557155 195.318068 283.184738 194.075844 284.80468 207.944319 274.178107 209.186544"></polyline>
                    <polyline id="Fill-234" points="287.562822 207.623159 285.94187 193.753673 296.569453 192.512459 298.189395 206.380935 287.562822 207.623159"></polyline>
                    <polyline id="Fill-236" points="300.947537 206.058764 299.326586 192.190289 309.954168 190.948064 311.57411 204.81755 300.947537 206.058764"></polyline>
                    <polyline id="Fill-238" points="314.332252 204.494369 312.711301 190.625894 323.338884 189.384679 324.958825 203.253155 314.332252 204.494369"></polyline>
                    <polyline id="Fill-240" points="335.673263 220.276678 333.566531 202.247256 327.276634 202.982491 325.611245 189.119065 331.94558 188.378781 335.344023 187.981875 342.573162 187.136556 346.299836 219.034454 335.673263 220.276678"></polyline>
                    <polyline id="Fill-242" points="348.428786 200.510162 346.808845 186.641686 357.435418 185.400472 359.056369 199.268948 348.428786 200.510162"></polyline>
                    <polyline id="Fill-244" points="361.813501 198.946777 360.19356 185.078302 370.820133 183.836077 372.441084 197.704553 361.813501 198.946777"></polyline>
                    <polyline id="Fill-246" points="375.198216 197.382382 373.578275 183.513907 384.204848 182.272692 385.825799 196.141168 375.198216 197.382382"></polyline>
                    <polyline id="Fill-248" points="389.628218 205.693166 388.403162 195.215054 399.030745 193.97283 400.2558 204.451952 389.628218 205.693166"></polyline>
                    <polyline id="Fill-250" points="388.079982 192.440753 386.854926 181.962641 397.482509 180.721427 398.706555 191.199539 388.079982 192.440753"></polyline>
                    <polyline id="Fill-252" points="392.689341 231.889961 389.91605 208.159436 400.543633 206.917212 403.315914 230.647737 392.689341 231.889961"></polyline>
                    <polyline id="Fill-254" points="350.535518 218.539584 348.914566 204.671109 359.542149 203.429894 361.163101 217.29837 350.535518 218.539584"></polyline>
                    <polyline id="Fill-256" points="363.920233 216.976199 362.300291 203.107724 372.926864 201.865499 374.547816 215.733975 363.920233 216.976199"></polyline>
                    <polyline id="Fill-258" points="377.304948 215.411805 375.685006 201.543329 386.311579 200.301105 387.932531 214.16958 377.304948 215.411805"></polyline>
                    <polyline id="Fill-260" points="352.642249 236.569007 351.021298 222.700531 361.648881 221.458307 363.269832 235.326782 352.642249 236.569007"></polyline>
                    <polyline id="Fill-262" points="366.026964 235.004612 364.407023 221.136136 375.033596 219.894922 376.654547 233.763397 366.026964 235.004612"></polyline>
                    <polyline id="Fill-264" points="379.41168 233.441227 377.790728 219.572751 388.418311 218.330527 390.038253 232.199003 379.41168 233.441227"></polyline>
                    <polyline id="Fill-266" points="234.740008 197.081421 228.734913 190.910696 239.838177 189.612925 240.630979 196.393653 234.740008 197.081421"></polyline>
                    <polyline id="Fill-268" points="242.778108 196.142178 241.985307 189.362461 255.522523 187.780897 256.314314 194.560614 242.778108 196.142178"></polyline>
                    <polyline id="Fill-270" points="258.461444 194.310149 257.669652 187.529422 271.205858 185.947859 271.997649 192.727576 258.461444 194.310149"></polyline>
                    <polyline id="Fill-272" points="274.144779 192.477111 273.352987 185.697394 286.889193 184.11482 287.680985 190.895547 274.144779 192.477111"></polyline>
                    <polyline id="Fill-274" points="289.828114 190.644073 289.036322 183.864355 302.572528 182.282792 303.36432 189.063519 289.828114 190.644073"></polyline>
                    <polyline id="Fill-276" points="305.511449 188.812044 304.719657 182.031317 318.255863 180.449753 319.047655 187.23048 305.511449 188.812044"></polyline>
                    <polyline id="Fill-278" points="321.194784 186.980016 320.402992 180.199289 333.939198 178.617725 334.73099 185.397442 321.194784 186.980016"></polyline>
                    <polyline id="Fill-280" points="336.878119 185.146977 336.086327 178.36726 349.622533 176.784686 350.415335 183.565414 336.878119 185.146977"></polyline>
                    <polyline id="Fill-282" points="352.562464 183.313939 351.769663 176.534222 365.305868 174.952658 366.09867 181.732375 352.562464 183.313939"></polyline>
                    <polyline id="Fill-284" points="368.245799 181.48191 367.452998 174.701183 380.989203 173.11962 381.782005 179.900347 368.245799 181.48191"></polyline>
                    <polyline id="Fill-286" points="383.929134 179.649882 383.136333 172.869155 396.673549 171.287591 397.46534 178.067308 383.929134 179.649882"></polyline>
                    <polyline id="Fill-288" points="290.111907 253.992466 287.056843 250.853577 410.664227 236.410446 410.670286 236.462963 411.067192 239.859386 290.111907 253.992466"></polyline>
                    <polyline id="Fill-290" points="224.205339 186.25488 220.072671 182.006069 401.894931 160.761002 402.440297 165.427928 402.371622 165.437017 224.205339 186.25488"></polyline>
                    <path d="M376.45559,122.113685 C374.793231,122.113685 373.363158,121.515802 372.591565,120.332154 C371.097866,118.039593 372.610754,114.382606 375.95365,112.204168 L395.594934,99.4042078 L402.703891,106.645467 L381.385099,120.538181 C379.769198,121.591547 378.010895,122.113685 376.45559,122.113685" id="Fill-292"></path>
                    <path d="M257.494932,122.824682 C233.87752,122.824682 213.961533,107.167605 207.365625,93.438501 C207.616089,93.8929733 207.881703,94.3504755 208.160446,94.8079776 C212.625384,102.419884 221.081599,110.237818 231.859663,115.366286 C238.846418,118.734431 246.784535,120.939127 255.22762,121.162323 C255.848733,121.182522 256.473885,121.193631 257.100046,121.193631 C257.20811,121.193631 257.321223,121.193631 257.430296,121.192621 C282.49596,121.04315 303.404717,103.79744 308.550354,89.6189136 L309.191665,89.6148738 C304.539888,104.096382 283.32815,122.672181 257.812053,122.823672 C257.70702,122.824682 257.599966,122.824682 257.494932,122.824682" id="Fill-294"></path>
                    <path d="M257.100046,121.193631 C256.473885,121.193631 255.848733,121.182522 255.22762,121.162323 C255.698252,121.174442 256.168883,121.180502 256.642544,121.180502 C256.747578,121.180502 256.857661,121.180502 256.962695,121.179492 C281.51834,121.035071 302.085738,103.825719 307.747453,89.6229533 L308.550354,89.6189136 C303.404717,103.79744 282.49596,121.04315 257.430296,121.192621 C257.321223,121.193631 257.20811,121.193631 257.100046,121.193631 M231.859663,115.366286 C221.081599,110.237818 212.625384,102.419884 208.160446,94.8079776 C212.803133,102.427964 221.228041,110.242868 231.859663,115.366286" id="Fill-296"></path>
                    <path d="M256.642544,121.180502 C256.168883,121.180502 255.698252,121.174442 255.22762,121.162323 C246.784535,120.939127 238.846418,118.734431 231.859663,115.366286 C221.228041,110.242868 212.803133,102.427964 208.160446,94.8079776 C207.881703,94.3504755 207.616089,93.8929733 207.365625,93.438501 C206.769761,92.3578668 206.253682,91.286322 205.820419,90.2289164 L307.747453,89.6229533 C302.085738,103.825719 281.51834,121.035071 256.962695,121.179492 C256.857661,121.180502 256.747578,121.180502 256.642544,121.180502" id="Fill-298"></path>
                    <path d="M201.092896,90.2571947 L199.39822,89.1381828 L205.387155,89.102835 C205.520467,89.4755023 205.664888,89.8511994 205.820419,90.2289164 L201.092896,90.2571947" id="Fill-300"></path>
                    <polyline id="Fill-302" points="187.305216 90.3389997 188.05358 89.2058487 199.39822 89.1381828 201.092896 90.2571947 191.277304 90.3157711 191.027849 90.1501412 190.916756 90.317791 187.305216 90.3389997"></polyline>
                    <g id="Group-306" transform="translate(186.838624, 88.874589)">
                        <polyline id="Fill-304" points="0.397915773 1.46542078 0.738265051 0.334289647 1.21495603 0.331259831 0.466591592 1.46441084 0.397915773 1.46542078"></polyline>
                    </g>
                    <g id="Group-309" transform="translate(190.878378, 89.884527)">
                        <mask id="mask-8" fill="white">
                            <use xlink:href="#path-7"></use>
                        </mask>
                        <g id="Clip-308"></g>
                        <polyline id="Fill-307" mask="url(#mask-8)" points="0.0383776634 0.433263621 0.149470899 0.265613828 0.398925711 0.431243744 0.0383776634 0.433263621"></polyline>
                    </g>
                    <path d="M134.381408,90.6541005 L134.721757,89.5229694 L137.862666,89.5037806 L137.522317,90.6349117 L134.381408,90.6541005 M140.241071,90.6187527 L140.581421,89.4876216 L143.722329,89.4694427 L143.38198,90.6005738 L140.241071,90.6187527 M146.101745,90.5844148 L146.442094,89.4532836 L149.583003,89.4340948 L149.242653,90.5652259 L146.101745,90.5844148 M151.961408,90.5490669 L152.301757,89.4179358 L155.442666,89.3997569 L155.102317,90.530888 L151.961408,90.5490669 M157.821071,90.514729 L158.16142,89.3835979 L161.302329,89.3644091 L160.96198,90.4955402 L157.821071,90.514729 M163.680734,90.4793812 L164.021084,89.34825 L167.163002,89.3300711 L166.821643,90.4612023 L163.680734,90.4793812 M169.541407,90.4450433 L169.881757,89.3139121 L173.022666,89.2947233 L172.682316,90.4258544 L169.541407,90.4450433 M175.401071,90.4096954 L175.708092,89.3896575 L175.347544,89.2815941 L187.576889,89.2088785 L187.23654,90.3400097 L179.02877,90.3884867 L178.583387,90.2541649 L178.541979,90.3915165 L175.401071,90.4096954 M131.761628,90.3400097 C131.146575,90.1390319 130.564851,89.8511994 130.07503,89.5068104 L129.160026,88.5665576 L129.193354,88.4534445 C129.991205,88.9846722 131.011243,89.3684488 132.017142,89.4916613 L131.761628,90.3400097" id="Fill-310"></path>
                    <g id="Group-314" transform="translate(128.262191, 87.864650)">
                        <mask id="mask-10" fill="white">
                            <use xlink:href="#path-9"></use>
                        </mask>
                        <g id="Clip-313"></g>
                        <path d="M0.897835335,0.701907264 L0.700897326,0.499919562 L0.800881238,0.498909624 C0.843298656,0.529207779 0.88773595,0.559505935 0.931163306,0.588794151 L0.897835335,0.701907264" id="Fill-312" mask="url(#mask-10)"></path>
                    </g>
                    <path d="M133.652233,90.6581403 C133.029101,90.6581403 132.3787,90.5430073 131.761628,90.3400097 L132.017142,89.4916613 C132.244378,89.5199396 132.471614,89.5340787 132.694811,89.5340787 L132.726119,89.5340787 L134.721757,89.5229694 L134.381408,90.6541005 L133.680511,90.6581403 L133.652233,90.6581403" id="Fill-315"></path>
                    <polyline id="Fill-317" points="137.522317 90.6349117 137.862666 89.5037806 140.581421 89.4876216 140.241071 90.6187527 137.522317 90.6349117"></polyline>
                    <polyline id="Fill-319" points="143.38198 90.6005738 143.722329 89.4694427 146.442094 89.4532836 146.101745 90.5844148 143.38198 90.6005738"></polyline>
                    <polyline id="Fill-321" points="149.242653 90.5652259 149.583003 89.4340948 152.301757 89.4179358 151.961408 90.5490669 149.242653 90.5652259"></polyline>
                    <polyline id="Fill-323" points="155.102317 90.530888 155.442666 89.3997569 158.16142 89.3835979 157.821071 90.514729 155.102317 90.530888"></polyline>
                    <polyline id="Fill-325" points="160.96198 90.4955402 161.302329 89.3644091 164.021084 89.34825 163.680734 90.4793812 160.96198 90.4955402"></polyline>
                    <polyline id="Fill-327" points="166.821643 90.4612023 167.163002 89.3300711 169.881757 89.3139121 169.541407 90.4450433 166.821643 90.4612023"></polyline>
                    <polyline id="Fill-329" points="172.682316 90.4258544 173.022666 89.2947233 175.347544 89.2815941 175.708092 89.3896575 175.401071 90.4096954 172.682316 90.4258544"></polyline>
                    <g id="Group-333" transform="translate(177.749178, 89.884527)">
                        <mask id="mask-12" fill="white">
                            <use xlink:href="#path-11"></use>
                        </mask>
                        <g id="Clip-332"></g>
                        <polyline id="Fill-331" mask="url(#mask-12)" points="0.79280173 0.506989132 0.834209209 0.369637495 1.27959209 0.503959316 0.79280173 0.506989132"></polyline>
                    </g>
                    <path d="M309.191665,89.6148738 C309.313867,89.234127 309.423951,88.8584299 309.523935,88.4837427 L381.451755,88.0565387 C382.261726,88.051489 383.133303,87.8505112 383.926105,87.5182415 L384.305842,87.904038 C383.269645,88.6625018 381.816343,89.1836301 380.520592,89.1906996 L309.191665,89.6148738" id="Fill-334"></path>
                    <g id="Group-338" transform="translate(308.031246, 87.864650)">
                        <mask id="mask-14" fill="white">
                            <use xlink:href="#path-13"></use>
                        </mask>
                        <g id="Clip-337"></g>
                        <path d="M0.519108394,1.75426319 C0.656460031,1.37452631 0.783712284,0.996809309 0.897835335,0.622122122 L1.49268912,0.619092307 C1.39270521,0.993779494 1.28262191,1.36947662 1.16041935,1.75022344 L0.519108394,1.75426319" id="Fill-336" mask="url(#mask-14)"></path>
                    </g>
                    <path d="M307.747453,89.6229533 C307.898944,89.2442264 308.039325,88.8665094 308.168597,88.4918222 L308.929081,88.4867725 C308.814958,88.8614597 308.687706,89.2391767 308.550354,89.6189136 L307.747453,89.6229533" id="Fill-339"></path>
                    <path d="M205.820419,90.2289164 C205.664888,89.8511994 205.520467,89.4755023 205.387155,89.102835 L308.168597,88.4918222 C308.039325,88.8665094 307.898944,89.2442264 307.747453,89.6229533 L205.820419,90.2289164" id="Fill-341"></path>
                    <path d="M429.945973,10.3811579 L88.2544866,12.4101244 C85.686213,12.4242635 84.7449503,14.3603157 86.1265462,16.6912538 L122.793374,79.3538985 L122.85498,79.4478228 L122.900427,79.4478228 L127.973348,87.2405084 C128.733832,88.5261601 130.855713,89.545188 132.726119,89.5340787 L381.451755,88.0565387 C383.312062,88.0454294 385.490499,86.9991331 386.322689,85.7043919 L391.360262,77.85212 L391.304715,77.85212 L391.365312,77.7561758 L431.844657,14.6380488 C433.350475,12.2879219 432.510207,10.363989 429.945973,10.3811579" id="Fill-343" fill="#3B3F47"></path>
                    <path d="M90.9348634,17.0386726 L131.268778,83.5491831 L382.710139,81.9140927 L425.136646,15.290469 C425.357822,14.9420403 90.9348634,17.0386726 90.9348634,17.0386726" id="Fill-344" fill="#FFFFFF"></path>
                    <polygon id="Fill-345" fill="url(#linearGradient-15)" points="130.038673 84.8257454 383.419116 82.0514443 425.309345 15.0349546 90.0006703 16.9326291"></polygon>
                    <path d="M483.620165,176.904869 L443.165058,164.311946 C442.63484,164.147326 442.335898,163.578731 442.501528,163.047503 L466.035115,87.4404762 C466.365365,86.3800408 467.503566,85.7821572 468.564002,86.112407 L507.091136,98.1044169 C508.151571,98.4346668 508.749455,99.5728675 508.419205,100.633303 L484.884608,176.24033 C484.719988,176.770547 484.150383,177.069489 483.620165,176.904869" id="Fill-347" fill="#3B3F47"></path>
                    <path d="M485.962212,166.092467 L447.373472,154.081269 L465.746273,95.0584424 C465.911903,94.5262048 466.477469,94.2282729 467.010716,94.3939028 L503.669464,105.805198 C504.202712,105.970828 504.499634,106.537403 504.334004,107.069641 L485.962212,166.092467" id="Fill-348" fill="#27292F"></path>
                    <path d="M489.864615,97.6863024 L482.984913,95.5452327 C482.854631,95.5048352 482.780906,95.3644537 482.821303,95.2341717 C482.861701,95.1038896 483.002082,95.0301641 483.132365,95.0705616 L490.012066,97.2116313 C490.142348,97.2530388 490.216073,97.3924103 490.175676,97.5226923 C490.135278,97.6529744 489.994897,97.7266999 489.864615,97.6863024" id="Fill-349" fill="#2D3243"></path>
                    <path d="M481.516463,94.8281764 C481.421529,95.1331778 481.096328,95.3038574 480.791327,95.2089232 C480.485316,95.113989 480.314636,94.7887888 480.40957,94.4827774 C480.505514,94.177776 480.829705,94.0070964 481.135716,94.1020306 C481.441727,94.1969648 481.612407,94.522165 481.516463,94.8281764" id="Fill-350" fill="#2D3243"></path>
                    <path d="M468.214563,166.263147 C467.671216,168.009331 465.814949,168.984931 464.067755,168.441584 C462.320562,167.897228 461.344961,166.040961 461.889318,164.293767 C462.432665,162.546573 464.289942,161.570973 466.037135,162.11533 C467.783319,162.658677 468.75892,164.515953 468.214563,166.263147" id="Fill-351" fill="#27292F"></path>
                    <path d="M464.669679,164.040272 C464.544446,164.001895 464.410124,164.071581 464.371747,164.197823 L463.877887,165.781406 C463.839509,165.906639 463.909195,166.040961 464.035437,166.079338 L465.434202,166.515632 C465.559434,166.554009 465.693756,166.484324 465.733144,166.359091 L466.225994,164.774498 C466.265381,164.649265 466.194686,164.514944 466.069453,164.476566 L464.669679,164.040272 Z M465.394814,166.644904 L463.99504,166.20861 C463.798102,166.148014 463.688018,165.937947 463.749625,165.741009 L464.242475,164.157425 C464.303071,163.960487 464.513138,163.850404 464.710076,163.91201 L466.109851,164.347294 C466.305779,164.4089 466.415862,164.617957 466.355266,164.814895 L465.861406,166.398479 C465.80081,166.595417 465.590743,166.7055 465.394814,166.644904 L465.394814,166.644904 Z" id="Fill-352" fill="#3B3F47"></path>
                    <path d="M457.615258,121.180502 L465.746273,95.0584424 L457.615258,121.180502 M504.334004,107.069641 L504.334004,107.069641 C504.439037,106.732322 504.358242,106.380863 504.149185,106.126359 C504.332994,106.327336 504.470345,106.632338 504.334004,107.069641 M503.669464,105.805198 L503.267509,105.679966 C503.530093,105.761771 503.669464,105.805198 503.669464,105.805198 M503.266499,105.679966 L502.854444,105.551703 C503.015024,105.60119 503.152376,105.643608 503.266499,105.679966 M502.768599,105.524435 L502.642357,105.485048 C502.685784,105.499187 502.728201,105.512316 502.768599,105.524435 M502.626198,105.479998 L502.560552,105.459799 C502.58277,105.466869 502.603979,105.473938 502.626198,105.479998 M502.543383,105.454749 L502.518134,105.44667 C502.527224,105.4497 502.535303,105.45172 502.543383,105.454749 M502.458548,105.428491 L502.449458,105.425461 C502.452488,105.426471 502.455518,105.427481 502.458548,105.428491 M502.413101,105.414352 L502.412091,105.414352 L502.413101,105.414352 M467.021825,94.3979426 L467.010716,94.3939028 C467.013746,94.3949128 467.016776,94.3969326 467.021825,94.3979426 M467.010716,94.3939028 C467.007686,94.3939028 467.004656,94.3928929 467.001627,94.391883 C467.004656,94.3928929 467.007686,94.3939028 467.010716,94.3939028" id="Fill-353" fill="#595C63"></path>
                    <path d="M457.615258,121.180502 L465.746273,95.0584424 C465.746273,95.0584424 466.11995,94.3524954 466.745102,94.3524954 C466.826907,94.3524954 466.911742,94.3646146 467.001627,94.391883 C467.004656,94.3928929 467.007686,94.3939028 467.010716,94.3939028 L467.021825,94.3979426 C467.958038,94.6898148 496.082806,103.443962 502.412091,105.414352 L502.413101,105.414352 C502.42522,105.418392 502.437339,105.421421 502.449458,105.425461 L502.458548,105.428491 C502.478747,105.434551 502.498945,105.44061 502.518134,105.44667 L502.543383,105.454749 C502.549442,105.456769 502.554492,105.457779 502.560552,105.459799 L502.626198,105.479998 C502.631247,105.482018 502.637307,105.484038 502.642357,105.485048 L502.768599,105.524435 C502.797887,105.533525 502.827175,105.542614 502.854444,105.551703 L503.266499,105.679966 L503.267509,105.679966 L503.669464,105.805198 C503.669464,105.805198 503.940128,105.899122 504.149185,106.126359 C504.358242,106.380863 504.439037,106.732322 504.334004,107.069641 L457.615258,121.180502" id="Fill-354" fill="#46484D"></path>
                    <path d="M483.137414,239.070624 L449.687241,248.608483 C448.813644,248.857938 447.902679,248.350949 447.654235,247.477352 L441.995549,227.633071 C441.746094,226.759474 442.252074,225.849519 443.12668,225.600064 L476.575844,216.062205 C477.449441,215.81275 478.360405,216.318729 478.60986,217.193336 L484.267535,237.036608 C484.51699,237.911215 484.011011,238.821169 483.137414,239.070624" id="Fill-355" fill="#3B3F47"></path>
                    <polyline id="Fill-356" fill="#27292F" points="480.676194 224.441665 444.061883 234.882409 442.514658 229.45399 479.128968 219.013245 480.676194 224.441665"></polyline>
                    <polyline id="Fill-357" fill="#E9E9E6" points="483.54139 234.487523 446.927079 244.928268 445.055663 238.365687 481.669974 227.924943 483.54139 234.487523"></polyline>
                    <polyline id="Fill-358" fill="#27292F" points="472.650213 234.70163 466.736013 236.388228 466.389604 235.173271 472.303804 233.486674 472.650213 234.70163"></polyline>
                    <polyline id="Fill-359" fill="#27292F" points="479.131998 232.853443 474.83774 234.078498 474.491331 232.863542 478.784579 231.638487 479.131998 232.853443"></polyline>
                    <polyline id="Fill-360" fill="#27292F" points="474.383267 218.351736 443.434711 227.176578 443.342807 226.852388 474.290353 218.027545 474.383267 218.351736"></polyline>
                    <polyline id="Fill-361" fill="#27292F" points="479.152197 238.454562 449.095417 247.02591 448.932817 246.458324 478.989597 237.887986 479.152197 238.454562"></polyline>
                    <path d="M472.85321,269.581877 L439.935275,254.520664 C439.109145,254.142947 438.745567,253.166336 439.124294,252.340206 L448.079419,232.766588 C448.457136,231.940458 449.433746,231.57688 450.259876,231.954597 L483.177812,247.01581 C484.003941,247.393527 484.366509,248.370138 483.988792,249.196268 L475.033668,268.769886 C474.654941,269.596016 473.67934,269.959594 472.85321,269.581877" id="Fill-362" fill="#3B3F47"></path>
                    <polyline id="Fill-365" fill="#27292F" points="463.157801 261.906344 439.657541 251.169688 440.733126 248.815521 464.233385 259.552177 463.157801 261.906344"></polyline>
                    <polyline id="Fill-366" fill="#F6F6F3" points="480.565101 256.679912 444.639568 240.266391 448.290496 232.273738 484.216029 248.687259 480.565101 256.679912"></polyline>
                    <polyline id="Fill-373" fill="#CFCDC8" points="477.717074 260.844898 443.271101 245.108037 443.752842 244.054671 478.198815 259.791533 477.717074 260.844898"></polyline>
                </g>
            </g>
        </g>
    </g>
</svg>