<?xml version="1.0" encoding="UTF-8"?>
<svg width="140px" height="100px" viewBox="0 0 140 100" version="1.1" xmlns="http://www.w3.org/2000/svg" xmlns:xlink="http://www.w3.org/1999/xlink">
    <!-- Generator: Sketch 41.2 (35397) - http://www.bohemiancoding.com/sketch -->
    <title>Artboard Copy 2</title>
    <desc>Created with Sketch.</desc>
    <defs></defs>
    <g id="Page-1" stroke="none" stroke-width="1" fill="none" fill-rule="evenodd">
        <g id="Artboard-Copy-2">
            <g id="diploma" transform="translate(10.000000, 7.000000)">
                <g id="Layer_1">
                    <g id="Group">
                        <path d="M113.664596,0 L5.59006211,0 C2.5076087,0 0,2.5076087 0,5.59006211 L0,80.1242236 C0,83.206677 2.5076087,85.7142857 5.59006211,85.7142857 L113.664596,85.7142857 C116.74705,85.7142857 119.254658,83.206677 119.254658,80.1242236 L119.254658,5.59006211 C119.254658,2.5076087 116.74705,0 113.664596,0 Z" id="Shape" fill="#FFEBB7"></path>
                        <path d="M9.32212733,20.4968944 C8.81809006,20.4968944 8.33408385,20.2912267 7.99751553,19.9565217 C7.64440994,19.6024845 7.45877329,19.136646 7.45877329,18.6335404 C7.45877329,18.1486025 7.64440994,17.6645963 7.99751553,17.310559 C8.68718944,16.6208851 9.93540373,16.6208851 10.6451087,17.310559 C10.9800466,17.6645963 11.1854814,18.1486025 11.1854814,18.6335404 C11.1854814,19.1175466 10.9798137,19.6024845 10.6451087,19.9565217 C10.2903727,20.2912267 9.80636646,20.4968944 9.32212733,20.4968944 Z" id="Shape" fill="#00C37A"></path>
                        <path d="M9.31677019,61.4906832 C8.28680124,61.4906832 7.45341615,60.6563665 7.45341615,59.6273292 L7.45341615,26.0860248 C7.45341615,25.0569876 8.28680124,24.2226708 9.31677019,24.2226708 C10.3467391,24.2226708 11.1801242,25.0569876 11.1801242,26.0860248 L11.1801242,59.6273292 C11.1801242,60.6563665 10.3467391,61.4906832 9.31677019,61.4906832 Z" id="Shape" fill="#60DC4D"></path>
                        <path d="M109.937888,61.4906832 C108.907919,61.4906832 108.074534,60.6563665 108.074534,59.6273292 L108.074534,26.0860248 C108.074534,25.0569876 108.907919,24.2226708 109.937888,24.2226708 C110.967857,24.2226708 111.801242,25.0569876 111.801242,26.0860248 L111.801242,59.6273292 C111.801242,60.6563665 110.967857,61.4906832 109.937888,61.4906832 Z" id="Shape" fill="#60DC4D"></path>
                        <path d="M93.1677019,78.2608696 L26.0869565,78.2608696 C25.0569876,78.2608696 24.2236025,77.4265528 24.2236025,76.3975155 C24.2236025,75.3684783 25.0569876,74.5341615 26.0869565,74.5341615 L93.1677019,74.5341615 C94.1976708,74.5341615 95.0310559,75.3684783 95.0310559,76.3975155 C95.0310559,77.4265528 94.1976708,78.2608696 93.1677019,78.2608696 Z" id="Shape" fill="#60DC4D"></path>
                        <path d="M93.1677019,11.1801242 L26.0869565,11.1801242 C25.0569876,11.1801242 24.2236025,10.3458075 24.2236025,9.31677019 C24.2236025,8.28773292 25.0569876,7.45341615 26.0869565,7.45341615 L93.1677019,7.45341615 C94.1976708,7.45341615 95.0310559,8.28773292 95.0310559,9.31677019 C95.0310559,10.3458075 94.1976708,11.1801242 93.1677019,11.1801242 Z" id="Shape" fill="#60DC4D"></path>
                        <path d="M18.6388975,11.1801242 C18.1348602,11.1801242 17.6690217,10.9744565 17.3142857,10.6397516 C16.9611801,10.2857143 16.7755435,9.8007764 16.7755435,9.31677019 C16.7755435,8.8318323 16.9611801,8.34782609 17.3142857,7.99378882 C18.0239907,7.30411491 19.2521739,7.30411491 19.9418478,7.99378882 C20.2965839,8.34782609 20.5022516,8.8318323 20.5022516,9.31677019 C20.5022516,9.8007764 20.2965839,10.2857143 19.9618789,10.6397516 C19.6071429,10.9744565 19.1231366,11.1801242 18.6388975,11.1801242 Z" id="Shape" fill="#00C37A"></path>
                        <path d="M14.9068323,16.7701863 C14.4300466,16.7701863 13.9532609,16.5882764 13.589441,16.2242236 L7.99937888,10.6341615 C7.27150621,9.90628882 7.27150621,8.72701863 7.99937888,7.99914596 C8.72725155,7.27127329 9.90628882,7.27127329 10.6341615,7.99914596 L16.2242236,13.5892081 C16.9520963,14.3170807 16.9520963,15.4963509 16.2242236,16.2242236 C15.8604037,16.5882764 15.383618,16.7701863 14.9068323,16.7701863 Z" id="Shape" fill="#00A077"></path>
                        <path d="M100.626475,11.1801242 C100.122438,11.1801242 99.6384317,10.9744565 99.3016304,10.6397516 C98.9485248,10.2857143 98.7628882,9.8007764 98.7628882,9.31677019 C98.7628882,8.8318323 98.9485248,8.34782609 99.3016304,7.99378882 C99.9913043,7.30411491 101.239519,7.30411491 101.929193,7.99378882 C102.283929,8.34782609 102.489596,8.8318323 102.489596,9.31677019 C102.489596,9.8007764 102.283929,10.2857143 101.949224,10.6397516 C101.59472,10.9744565 101.110481,11.1801242 100.626475,11.1801242 Z" id="Shape" fill="#00C37A"></path>
                        <path d="M109.943245,20.4968944 C109.439208,20.4968944 108.955202,20.2912267 108.618401,19.9565217 C108.265295,19.6024845 108.079658,19.1175466 108.079658,18.6335404 C108.079658,18.1486025 108.265295,17.6645963 108.618401,17.310559 C109.308075,16.6208851 110.57632,16.6208851 111.245963,17.310559 C111.600699,17.6645963 111.806366,18.1486025 111.806366,18.6335404 C111.806366,19.1175466 111.600699,19.6024845 111.245963,19.9565217 C110.911491,20.2912267 110.427252,20.4968944 109.943245,20.4968944 Z" id="Shape" fill="#00C37A"></path>
                        <path d="M104.347826,16.7701863 C103.87104,16.7701863 103.394255,16.5882764 103.030435,16.2242236 C102.302562,15.4963509 102.302562,14.3170807 103.030435,13.5892081 L108.620497,7.99914596 C109.34837,7.27127329 110.52764,7.27127329 111.255512,7.99914596 C111.983385,8.72701863 111.983385,9.90628882 111.255512,10.6341615 L105.66545,16.2242236 C105.301398,16.5882764 104.824612,16.7701863 104.347826,16.7701863 Z" id="Shape" fill="#00A077"></path>
                        <path d="M109.943245,68.9440994 C109.457376,68.9440994 108.97337,68.7384317 108.618401,68.4037267 C108.265295,68.0496894 108.079658,67.5647516 108.079658,67.0807453 C108.079658,66.5958075 108.265295,66.1118012 108.618401,65.757764 C109.308075,65.0680901 110.556289,65.0680901 111.245963,65.757764 C111.600699,66.1118012 111.806366,66.5958075 111.806366,67.0807453 C111.806366,67.5647516 111.600699,68.0496894 111.245963,68.4037267 C110.911491,68.7384317 110.427252,68.9440994 109.943245,68.9440994 Z" id="Shape" fill="#00C37A"></path>
                        <path d="M100.626475,78.2608696 C100.122438,78.2608696 99.6384317,78.0552019 99.3016304,77.7204969 C98.9485248,77.3664596 98.7628882,76.9006211 98.7628882,76.3975155 C98.7628882,75.8944099 98.9485248,75.4285714 99.3016304,75.0745342 C99.9913043,74.3848602 101.239519,74.3848602 101.929193,75.0745342 C102.283929,75.4285714 102.489596,75.9125776 102.489596,76.3975155 C102.489596,76.8815217 102.283929,77.3664596 101.929193,77.7204969 C101.59472,78.0552019 101.110481,78.2608696 100.626475,78.2608696 Z" id="Shape" fill="#00C37A"></path>
                        <path d="M109.937888,78.2608696 C109.461102,78.2608696 108.984317,78.0789596 108.620497,77.7149068 L103.030435,72.1248447 C102.302562,71.396972 102.302562,70.2177019 103.030435,69.4898292 C103.758307,68.7619565 104.937578,68.7619565 105.66545,69.4898292 L111.255512,75.0798913 C111.983385,75.807764 111.983385,76.9868012 111.255512,77.7146739 C110.89146,78.0789596 110.414674,78.2608696 109.937888,78.2608696 Z" id="Shape" fill="#00A077"></path>
                        <path d="M18.6388975,78.2608696 C18.153028,78.2608696 17.6690217,78.0552019 17.3142857,77.7204969 C16.9611801,77.3664596 16.7755435,76.8815217 16.7755435,76.3975155 C16.7755435,75.9125776 16.9611801,75.4285714 17.3142857,75.0745342 C18.0039596,74.3848602 19.2521739,74.3848602 19.9618789,75.0745342 C20.2968168,75.4285714 20.5022516,75.9125776 20.5022516,76.3975155 C20.5022516,76.8815217 20.2965839,77.3664596 19.9618789,77.7204969 C19.6071429,78.0552019 19.1231366,78.2608696 18.6388975,78.2608696 Z" id="Shape" fill="#00C37A"></path>
                        <path d="M9.32212733,68.9440994 C8.81809006,68.9440994 8.33408385,68.7384317 7.99751553,68.4037267 C7.64440994,68.0496894 7.45877329,67.5838509 7.45877329,67.0807453 C7.45877329,66.5958075 7.64440994,66.1118012 7.99751553,65.757764 C8.68718944,65.0680901 9.93540373,65.0680901 10.6451087,65.757764 C10.9800466,66.1118012 11.1854814,66.5958075 11.1854814,67.0807453 C11.1854814,67.5647516 10.9798137,68.0496894 10.6451087,68.4037267 C10.2903727,68.7384317 9.80636646,68.9440994 9.32212733,68.9440994 Z" id="Shape" fill="#00C37A"></path>
                        <path d="M9.31677019,78.2608696 C8.83998447,78.2608696 8.36319876,78.0789596 7.99937888,77.7149068 C7.27150621,76.9870342 7.27150621,75.8079969 7.99937888,75.0801242 L13.589441,69.4900621 C14.3173137,68.7621894 15.4963509,68.7621894 16.2242236,69.4900621 C16.9520963,70.2179348 16.9520963,71.397205 16.2242236,72.1250776 L10.6341615,77.7151398 C10.2703416,78.0789596 9.7935559,78.2608696 9.31677019,78.2608696 Z" id="Shape" fill="#00A077"></path>
                        <path d="M74.5341615,22.3602484 L44.7204969,22.3602484 C43.690528,22.3602484 42.8571429,21.5259317 42.8571429,20.4968944 C42.8571429,19.4678571 43.690528,18.6335404 44.7204969,18.6335404 L74.5341615,18.6335404 C75.5641304,18.6335404 76.3975155,19.4678571 76.3975155,20.4968944 C76.3975155,21.5259317 75.5641304,22.3602484 74.5341615,22.3602484 Z" id="Shape" fill="#00A077"></path>
                        <path d="M93.1677019,29.8136646 L26.0869565,29.8136646 C25.0569876,29.8136646 24.2236025,28.9793478 24.2236025,27.9503106 C24.2236025,26.9212733 25.0569876,26.0869565 26.0869565,26.0869565 L93.1677019,26.0869565 C94.1976708,26.0869565 95.0310559,26.9212733 95.0310559,27.9503106 C95.0310559,28.9793478 94.1976708,29.8136646 93.1677019,29.8136646 Z" id="Shape" fill="#00A077"></path>
                        <path d="M67.0807453,42.8571429 L26.0869565,42.8571429 C25.0569876,42.8571429 24.2236025,42.0228261 24.2236025,40.9937888 C24.2236025,39.9647516 25.0569876,39.1304348 26.0869565,39.1304348 L67.0807453,39.1304348 C68.1107143,39.1304348 68.9440994,39.9647516 68.9440994,40.9937888 C68.9440994,42.0228261 68.1107143,42.8571429 67.0807453,42.8571429 Z" id="Shape" fill="#C9A07C"></path>
                        <path d="M55.9006211,65.2173913 L26.0869565,65.2173913 C25.0569876,65.2173913 24.2236025,64.3830745 24.2236025,63.3540373 C24.2236025,62.325 25.0569876,61.4906832 26.0869565,61.4906832 L55.9006211,61.4906832 C56.9305901,61.4906832 57.7639752,62.325 57.7639752,63.3540373 C57.7639752,64.3830745 56.9305901,65.2173913 55.9006211,65.2173913 Z" id="Shape" fill="#C9A07C"></path>
                        <path d="M63.3540373,57.7639752 L26.0869565,57.7639752 C25.0569876,57.7639752 24.2236025,56.9296584 24.2236025,55.9006211 C24.2236025,54.8715839 25.0569876,54.0372671 26.0869565,54.0372671 L63.3540373,54.0372671 C64.3840062,54.0372671 65.2173913,54.8715839 65.2173913,55.9006211 C65.2173913,56.9296584 64.3840062,57.7639752 63.3540373,57.7639752 Z" id="Shape" fill="#C9A07C"></path>
                        <path d="M48.447205,50.310559 L26.0869565,50.310559 C25.0569876,50.310559 24.2236025,49.4762422 24.2236025,48.447205 C24.2236025,47.4181677 25.0569876,46.5838509 26.0869565,46.5838509 L48.447205,46.5838509 C49.4771739,46.5838509 50.310559,47.4181677 50.310559,48.447205 C50.310559,49.4762422 49.4771739,50.310559 48.447205,50.310559 Z" id="Shape" fill="#C9A07C"></path>
                        <path d="M59.6273292,50.310559 L55.9006211,50.310559 C54.8706522,50.310559 54.0372671,49.4762422 54.0372671,48.447205 C54.0372671,47.4181677 54.8706522,46.5838509 55.9006211,46.5838509 L59.6273292,46.5838509 C60.6572981,46.5838509 61.4906832,47.4181677 61.4906832,48.447205 C61.4906832,49.4762422 60.6572981,50.310559 59.6273292,50.310559 Z" id="Shape" fill="#C9A07C"></path>
                        <path d="M93.5641304,53.6764752 L97.8458851,64.0136646 C98.163587,64.7804348 97.3954193,65.5486025 96.6286491,65.2309006 L93.8375776,64.0746894 L92.6813665,66.8657609 C92.3636646,67.6325311 91.2775621,67.6325311 90.9598602,66.8657609 L86.4179348,55.9006211" id="Shape" fill="#E3001E"></path>
                        <path d="M81.3037267,53.5148292 L76.9548913,64.0136646 C76.6371894,64.7804348 77.4053571,65.5486025 78.1721273,65.2309006 L80.9631988,64.0746894 L82.1194099,66.8657609 C82.4371118,67.6325311 83.5232143,67.6325311 83.8409161,66.8657609 L88.3828416,55.9003882" id="Shape" fill="#FF4F19"></path>
                        <ellipse id="Oval" fill="#FFCD00" cx="87.5266304" cy="46.5838509" rx="9.31677019" ry="9.31677019"></ellipse>
                        <path d="M87.5266304,42.8571429 C85.4722826,42.8571429 83.7999224,44.5285714 83.7999224,46.5838509 C83.7999224,48.6391304 85.4722826,50.310559 87.5266304,50.310559 C89.5809783,50.310559 91.2533385,48.6391304 91.2533385,46.5838509 C91.2533385,44.5285714 89.5809783,42.8571429 87.5266304,42.8571429 Z" id="Shape" fill="#FFE671"></path>
                    </g>
                </g>
            </g>
        </g>
    </g>
</svg>