<!DOCTYPE svg PUBLIC "-//W3C//DTD SVG 20010904//EN" "http://www.w3.org/TR/2001/REC-SVG-20010904/DTD/svg10.dtd">
<svg version="1.0" xmlns="http://www.w3.org/2000/svg" width="500px" height="299px" viewBox="0 0 5000 2990" preserveAspectRatio="xMidYMid meet">
<g id="layer1" fill="#020202" stroke="none">
 <path d="M1998 2905 c-31 -16 -72 -27 -120 -31 -46 -4 -91 -15 -122 -30 -28 -13 -65 -24 -83 -24 -18 0 -50 -11 -71 -24 -20 -13 -58 -27 -83 -30 -27 -4 -54 -15 -64 -26 -10 -11 -34 -23 -54 -26 -20 -4 -52 -18 -71 -30 -19 -13 -44 -24 -56 -24 -12 0 -38 -13 -59 -30 -21 -16 -42 -30 -47 -30 -6 0 -23 -11 -40 -25 -16 -14 -37 -25 -47 -25 -10 0 -28 -11 -40 -24 -13 -13 -34 -27 -48 -31 -14 -3 -65 -40 -114 -81 -48 -41 -92 -74 -98 -74 -16 0 -116 -87 -231 -201 -105 -104 -116 -117 -187 -219 -21 -30 -59 -77 -85 -104 -26 -28 -53 -65 -59 -84 -6 -18 -21 -43 -32 -56 -30 -32 -66 -92 -73 -122 -4 -13 -15 -29 -25 -35 -25 -13 -24 -45 1 -59 12 -6 20 -21 20 -35 0 -14 13 -39 30 -57 16 -17 30 -37 30 -44 0 -15 53 -96 75 -114 21 -18 72 -93 80 -121 12 -38 451 -468 499 -489 22 -10 59 -35 81 -56 40 -39 67 -57 140 -93 22 -11 46 -29 53 -40 7 -12 23 -21 36 -21 13 0 40 -13 61 -30 21 -16 48 -30 60 -30 12 0 32 -11 45 -25 15 -16 34 -25 55 -25 21 0 40 -9 55 -25 15 -16 38 -26 69 -30 25 -4 59 -16 76 -28 16 -11 53 -24 82 -28 29 -4 65 -16 80 -27 18 -12 54 -21 103 -26 50 -4 87 -14 115 -30 35 -20 57 -24 170 -29 72 -3 145 -10 163 -17 58 -22 62 -10 62 176 0 162 0 164 23 169 12 2 87 4 167 2 l145 -2 3 -161 c3 -198 -1 -193 116 -176 45 7 118 12 163 12 65 0 91 5 136 25 32 15 83 28 124 32 44 4 82 14 109 29 22 13 55 24 73 24 18 0 51 11 74 24 23 13 58 27 78 30 20 4 44 15 54 26 10 11 34 23 54 26 20 4 50 18 67 31 17 12 40 23 52 23 11 0 34 11 50 25 17 14 34 25 40 25 5 0 26 14 47 30 21 17 46 30 57 30 11 0 45 23 77 50 32 28 63 50 69 50 6 0 27 14 45 30 19 16 39 30 43 30 5 0 38 30 74 66 36 36 94 90 130 120 36 30 76 68 90 85 14 17 53 60 88 96 105 111 102 113 -209 113 -279 0 -241 10 -353 -92 -58 -53 -105 -88 -156 -117 -19 -10 -44 -28 -54 -40 -11 -12 -27 -21 -37 -21 -10 0 -31 -11 -47 -25 -17 -14 -33 -25 -37 -25 -4 0 -23 -14 -42 -30 -18 -16 -45 -30 -59 -30 -14 0 -40 -11 -57 -24 -18 -13 -47 -26 -65 -30 -18 -3 -47 -16 -65 -30 -19 -14 -51 -26 -80 -29 -28 -3 -58 -13 -70 -24 -29 -26 -53 -34 -83 -27 -31 8 -35 59 -4 69 26 8 250 229 277 274 12 20 27 47 33 60 6 13 22 37 35 53 16 18 25 42 25 62 0 19 11 49 25 70 20 29 25 49 25 96 0 40 5 64 16 74 14 14 84 16 621 16 l605 0 34 34 c19 19 34 40 34 48 0 8 11 25 25 38 32 30 32 57 0 100 -14 19 -25 40 -25 48 0 8 -13 30 -30 49 -16 18 -30 42 -30 52 0 18 -28 56 -75 105 -26 27 -75 103 -75 116 0 18 -424 433 -470 460 -24 14 -74 51 -112 83 -39 31 -78 57 -87 57 -10 0 -28 11 -41 25 -13 14 -29 25 -36 25 -7 0 -26 11 -42 25 -17 14 -37 25 -46 25 -8 0 -29 14 -46 30 -18 18 -41 30 -57 30 -14 0 -40 11 -57 23 -17 13 -47 27 -67 31 -20 3 -44 15 -54 26 -10 11 -37 22 -64 26 -25 3 -63 17 -83 30 -23 15 -52 24 -76 24 -22 0 -59 10 -83 23 -30 16 -69 26 -124 30 -56 5 -95 15 -128 32 -45 23 -60 25 -182 25 -97 0 -135 -3 -143 -13 -7 -8 -13 -73 -14 -163 l-3 -149 -145 -3 c-80 -1 -155 0 -167 3 -23 5 -23 8 -23 153 0 102 -4 152 -12 160 -8 8 -54 12 -142 12 -119 -1 -135 -3 -178 -25z m-94 -471 c3 -9 6 -19 6 -24 0 -9 -50 -43 -110 -75 -39 -21 -82 -68 -165 -180 -27 -37 -62 -79 -77 -94 -18 -16 -28 -36 -28 -53 0 -17 -11 -39 -30 -58 -23 -23 -30 -40 -30 -69 0 -24 -9 -52 -24 -74 -14 -21 -26 -54 -28 -79 l-3 -43 -315 -5 c-173 -3 -325 -2 -337 2 -13 4 -23 16 -23 27 0 20 194 223 265 276 22 17 51 42 66 56 35 34 76 62 179 124 18 11 45 30 60 43 15 12 35 22 44 22 8 0 31 14 49 30 22 19 46 30 64 30 18 0 38 9 52 24 13 13 39 26 62 30 22 4 53 16 69 28 16 11 52 25 81 29 31 5 61 17 73 29 25 25 91 28 100 4z m1301 -4 c14 -13 42 -23 74 -27 33 -4 63 -15 80 -28 14 -12 43 -25 63 -29 21 -4 51 -18 67 -31 16 -14 38 -25 49 -25 11 0 33 -11 49 -24 15 -13 44 -27 63 -31 19 -4 42 -18 53 -31 10 -13 26 -24 35 -24 17 0 77 -37 133 -85 20 -16 53 -41 73 -55 77 -53 115 -85 229 -197 111 -111 132 -142 105 -159 -19 -12 -671 -4 -685 8 -8 6 -13 35 -13 70 0 50 -4 65 -25 90 -14 16 -25 39 -25 51 0 12 -7 33 -15 47 -8 14 -23 43 -33 65 -11 22 -26 46 -35 53 -9 8 -19 26 -22 42 -9 40 -243 266 -286 275 -32 7 -45 25 -35 50 8 23 75 19 101 -5z m-555 -278 c14 -9 49 -19 78 -23 36 -5 69 -19 105 -44 28 -20 68 -47 87 -60 50 -34 98 -84 120 -127 11 -20 28 -39 39 -43 12 -3 22 -19 27 -38 3 -17 16 -44 28 -60 13 -18 23 -51 27 -90 4 -34 12 -88 20 -119 11 -48 11 -68 0 -115 -7 -32 -17 -90 -21 -130 -5 -56 -12 -78 -33 -103 -15 -17 -27 -37 -27 -44 0 -48 -158 -219 -218 -235 -18 -6 -44 -21 -57 -35 -16 -17 -35 -26 -54 -26 -17 0 -47 -11 -67 -25 -35 -24 -43 -25 -188 -25 -139 0 -155 2 -201 24 -27 14 -66 27 -86 30 -20 4 -46 17 -59 31 -13 14 -29 25 -35 25 -6 0 -24 14 -40 30 -16 16 -34 30 -41 30 -7 0 -33 28 -57 63 -25 34 -56 73 -69 87 -14 14 -28 43 -31 64 -3 21 -17 50 -29 63 -22 24 -23 30 -23 228 0 195 1 205 22 233 13 17 27 49 32 71 10 47 32 75 149 194 56 57 94 87 109 87 12 0 35 12 52 26 18 15 49 28 74 31 23 3 55 12 72 21 66 33 245 36 295 4z m-1242 -847 c7 -3 12 -23 12 -51 0 -30 8 -59 21 -81 12 -20 26 -56 31 -81 4 -25 17 -54 28 -64 11 -10 20 -27 20 -38 0 -11 14 -35 30 -53 17 -19 30 -44 30 -56 0 -13 44 -66 121 -145 95 -97 128 -125 155 -131 28 -5 34 -10 34 -30 0 -51 -66 -59 -131 -15 -25 17 -57 30 -75 30 -17 0 -47 11 -67 24 -19 13 -48 27 -65 30 -16 4 -44 18 -63 32 -18 13 -40 24 -48 24 -9 0 -36 14 -61 30 -25 16 -50 30 -56 30 -6 0 -21 11 -34 25 -13 14 -31 25 -40 25 -17 0 -72 38 -120 83 -14 13 -36 29 -50 35 -49 24 -97 65 -233 200 -142 141 -160 170 -109 182 26 6 650 1 670 -5z"/>
 </g>
<g id="layer2" fill="#d6d6d6" stroke="none">
 <path d="M0 1495 l0 -1495 2500 0 2500 0 0 1495 0 1495 -2500 0 -2500 0 0 -1495z m2310 1266 c0 -191 -11 -181 194 -181 197 0 186 -11 186 182 l0 148 134 0 c124 0 138 -2 183 -25 33 -17 72 -27 128 -32 55 -4 94 -14 124 -30 24 -13 61 -23 83 -23 24 0 53 -9 76 -24 20 -13 58 -27 83 -30 27 -4 54 -15 64 -26 10 -11 34 -23 54 -26 20 -4 50 -18 67 -31 17 -12 41 -23 54 -23 12 0 38 -13 57 -30 18 -16 41 -30 49 -30 9 0 29 -11 46 -25 16 -14 35 -25 42 -25 7 0 23 -11 36 -25 13 -14 31 -25 41 -25 9 0 48 -26 87 -57 38 -32 88 -69 111 -83 42 -25 451 -425 451 -441 0 -15 51 -90 101 -149 26 -30 50 -69 54 -87 3 -17 17 -39 31 -47 13 -9 24 -24 24 -34 0 -10 11 -33 25 -52 32 -43 32 -70 0 -100 -14 -13 -25 -30 -25 -37 0 -8 -11 -25 -25 -38 l-24 -25 -606 0 -606 0 -24 -25 c-21 -20 -25 -34 -25 -84 0 -48 -5 -68 -25 -97 -14 -21 -25 -51 -25 -70 0 -18 -8 -40 -17 -50 -10 -9 -27 -33 -38 -54 -11 -21 -28 -51 -37 -67 -22 -40 -213 -229 -260 -259 -64 -41 -47 -108 28 -108 21 0 42 8 58 23 16 15 41 25 73 28 29 3 61 15 80 29 18 14 47 27 65 30 18 4 47 17 65 30 17 13 43 24 57 24 14 0 41 14 59 30 19 16 38 30 42 30 4 0 20 11 37 25 16 14 37 25 47 25 10 0 26 9 37 21 10 12 35 30 54 40 49 27 97 63 155 114 28 25 64 56 81 70 l32 25 246 0 c190 0 246 -3 246 -12 0 -7 -28 -42 -63 -78 -34 -36 -73 -79 -87 -95 -14 -17 -59 -60 -100 -96 -41 -37 -96 -88 -123 -113 -26 -25 -50 -46 -53 -46 -4 0 -22 -13 -41 -30 -18 -16 -39 -30 -45 -30 -6 0 -37 -22 -69 -50 -32 -27 -66 -50 -77 -50 -11 0 -36 -14 -57 -30 -21 -17 -42 -30 -47 -30 -6 0 -23 -11 -40 -25 -16 -14 -39 -25 -50 -25 -12 0 -35 -11 -52 -23 -17 -13 -47 -27 -67 -31 -20 -3 -44 -15 -54 -26 -10 -11 -34 -22 -54 -26 -20 -3 -55 -17 -78 -30 -23 -13 -56 -24 -74 -24 -18 0 -51 -11 -73 -24 -27 -15 -65 -25 -109 -29 -38 -4 -94 -17 -125 -31 -46 -20 -81 -26 -177 -31 -66 -3 -141 -8 -167 -11 l-48 -6 0 159 c0 140 -2 162 -17 176 -15 12 -46 15 -168 16 -208 0 -195 13 -195 -195 l0 -166 -27 7 c-69 19 -115 24 -206 25 -86 0 -104 3 -141 25 -29 17 -64 26 -116 31 -49 5 -85 14 -103 26 -15 11 -51 23 -80 27 -29 4 -66 17 -82 28 -17 12 -51 24 -76 28 -31 4 -54 14 -69 30 -15 16 -34 25 -55 25 -21 0 -40 9 -55 25 -13 14 -33 25 -45 25 -12 0 -39 14 -60 30 -21 17 -47 30 -59 30 -12 0 -27 9 -33 19 -7 11 -32 29 -55 41 -63 30 -77 39 -146 98 -35 28 -69 52 -75 52 -19 0 -63 40 -277 254 -110 109 -202 207 -206 218 -8 25 -59 101 -79 118 -23 19 -75 99 -75 116 0 8 -13 28 -30 46 -16 17 -30 40 -30 51 0 12 -10 31 -22 44 l-21 23 20 23 c11 12 24 33 28 46 8 27 46 87 73 116 11 11 24 34 30 52 6 17 20 42 32 55 65 70 80 88 116 141 21 32 48 70 59 85 34 46 298 295 325 306 14 6 64 43 111 83 47 39 98 75 112 78 14 4 35 18 48 31 12 13 30 24 40 24 10 0 31 11 47 25 17 14 34 25 40 25 5 0 26 14 47 30 21 17 47 30 59 30 12 0 37 11 56 24 19 12 51 26 71 30 20 3 44 15 54 26 10 11 37 22 64 26 25 3 63 17 83 30 21 13 53 24 71 24 18 0 55 11 83 24 31 15 76 26 122 30 48 4 89 15 120 31 43 22 59 24 180 25 l132 0 0 -149z"/>
 <path d="M1804 2450 c-12 -12 -42 -24 -73 -29 -29 -4 -65 -18 -81 -29 -16 -12 -47 -24 -69 -28 -23 -4 -49 -17 -62 -30 -14 -15 -34 -24 -52 -24 -18 0 -42 -11 -64 -30 -18 -16 -41 -30 -49 -30 -9 0 -28 -9 -42 -21 -53 -40 -98 -69 -132 -85 -19 -9 -42 -22 -50 -29 -8 -8 -31 -29 -51 -47 -20 -18 -58 -49 -83 -68 -26 -19 -77 -66 -114 -105 -37 -38 -88 -91 -114 -116 -52 -49 -59 -76 -28 -104 19 -18 42 -19 343 -16 361 3 357 2 357 72 0 24 9 52 25 75 15 22 25 51 25 72 0 24 9 45 30 69 17 18 30 44 30 58 0 13 12 37 28 53 15 16 50 60 77 97 74 101 115 144 149 161 44 20 117 74 123 90 3 8 -2 25 -11 39 -21 32 -82 35 -112 5z"/>
 <path d="M3097 2452 c-31 -34 -13 -70 43 -87 28 -9 27 -8 162 -136 75 -71 99 -100 104 -127 4 -18 13 -36 21 -39 8 -3 24 -24 34 -47 11 -23 26 -52 34 -66 8 -14 15 -35 15 -47 0 -12 11 -35 25 -51 21 -25 25 -41 25 -89 0 -49 4 -63 23 -81 21 -20 33 -21 354 -23 312 -3 333 -2 352 16 12 10 21 26 21 36 0 9 -53 70 -117 135 -109 108 -162 154 -252 216 -18 13 -50 37 -70 53 -56 47 -115 85 -133 85 -9 0 -23 11 -31 24 -10 15 -30 26 -53 31 -21 4 -51 18 -67 31 -16 13 -38 24 -49 24 -11 0 -33 11 -49 25 -16 13 -46 27 -67 31 -20 4 -49 17 -63 29 -17 13 -47 24 -80 28 -32 4 -60 14 -74 27 -27 26 -86 27 -108 2z"/>
 <path d="M2435 2190 c-28 -4 -64 -14 -80 -22 -17 -9 -49 -18 -72 -21 -25 -3 -56 -16 -74 -31 -17 -14 -41 -26 -53 -26 -15 0 -55 -33 -122 -99 -121 -122 -144 -151 -155 -202 -5 -22 -19 -54 -32 -70 -20 -29 -22 -43 -25 -207 -4 -198 0 -234 29 -263 11 -11 23 -37 26 -57 3 -20 16 -48 29 -62 13 -14 45 -54 72 -90 27 -36 59 -70 71 -76 12 -6 35 -23 50 -38 15 -14 32 -26 37 -26 6 0 21 -11 34 -25 13 -14 39 -27 59 -31 20 -3 59 -16 86 -30 46 -22 62 -24 201 -24 145 0 153 1 188 25 20 14 50 25 66 25 18 0 42 11 62 28 18 16 44 32 58 35 57 14 230 205 230 253 0 7 12 27 27 44 21 25 28 47 33 103 4 40 14 98 21 130 11 47 11 67 0 115 -8 31 -16 85 -20 119 -4 38 -14 72 -27 90 -11 15 -24 42 -28 58 -4 17 -22 44 -39 61 -18 17 -50 55 -72 84 -22 29 -57 61 -77 71 -20 10 -39 23 -43 29 -18 28 -119 82 -167 89 -29 4 -64 14 -78 23 -30 19 -145 29 -215 18z"/>
 <path d="M744 1331 c-27 -4 -54 -31 -54 -52 0 -9 64 -81 143 -159 132 -132 178 -171 246 -210 14 -8 37 -26 51 -39 46 -43 103 -81 120 -81 9 0 27 -11 40 -25 13 -14 28 -25 34 -25 6 0 31 -14 56 -30 25 -16 52 -30 61 -30 8 0 30 -11 48 -24 19 -14 47 -28 63 -32 17 -3 46 -17 65 -30 20 -13 50 -24 67 -24 18 0 50 -13 75 -30 49 -34 78 -37 121 -15 23 12 30 23 30 44 0 33 -13 47 -55 57 -40 9 -255 225 -255 255 0 12 -13 37 -30 56 -16 18 -30 42 -30 51 0 10 -11 33 -25 52 -14 19 -25 45 -25 59 0 14 -11 44 -25 66 -16 27 -24 55 -25 86 0 79 9 77 -356 81 -176 1 -329 1 -340 -1z"/>
 </g>

</svg>